<?xml version="1.0" encoding="utf-8"?>
<!-- Generator: Adobe Illustrator 15.0.0, SVG Export Plug-In . SVG Version: 6.00 Build 0)  -->
<!DOCTYPE svg PUBLIC "-//W3C//DTD SVG 1.1//EN" "http://www.w3.org/Graphics/SVG/1.1/DTD/svg11.dtd">
<svg version="1.1" xmlns="http://www.w3.org/2000/svg" xmlns:xlink="http://www.w3.org/1999/xlink" x="0px" y="0px"
	 width="154.612px" height="137.704px" viewBox="0 0 154.612 137.704" enable-background="new 0 0 154.612 137.704"
	 xml:space="preserve">
<g id="Слой_1" display="none">
	
		<image display="inline" overflow="visible" opacity="0.61" width="604" height="604" xlink:href="707CD607.jpg"  transform="matrix(1 0 0 1 9.2334 -2148.085)">
	</image>
</g>
<g id="Слой_4">
</g>
<g id="Слой_2">
	<rect x="-1154.493" y="-1724.19" fill="#2D2D2D" width="45.701" height="14.568"/>
	<rect x="-1323.907" y="-2033.085" fill="#AFD9DD" width="762" height="596"/>
	<g opacity="0.41">
		<g>
			<path fill="none" stroke="#FFFFFF" stroke-width="2" stroke-miterlimit="10" d="M-1507.767-2234.244
				c17.999,0,17.999,12,35.998,12c18,0,18-12,35.999-12c18,0,18,12,35.999,12c18,0,18-12,36-12s18,12,36,12s18-12,36-12
				s18,12,35.999,12s17.999-12,35.999-12s18,12,35.999,12c18,0,18-12,36-12c17.998,0,17.998,12,35.996,12c18,0,18-12,36-12
				c17.998,0,17.998,12,35.996,12c17.998,0,17.998-12,35.995-12c17.998,0,17.998,12,35.996,12c17.999,0,17.999-12,35.997-12
				c17.999,0,17.999,12,35.998,12c18.001,0,18.001-12,36.002-12c17.999,0,17.999,12,35.998,12c18,0,18-12,36-12
				c18,0,18,12,35.999,12s18-12,36-12s18,12,36,12c18.001,0,18.001-12,36.002-12s18.001,12,36.003,12c17.999,0,17.999-12,35.998-12
				s17.999,12,35.998,12c18.001,0,18.001-12,36.003-12c18.002,0,18.002,12,36.003,12c18.002,0,18.002-12,36.005-12
				c18.001,0,18.001,12,36.003,12c18.004,0,18.004-12,36.009-12s18.004,12,36.009,12"/>
		</g>
		<g>
			<path fill="none" stroke="#FFFFFF" stroke-width="2" stroke-miterlimit="10" d="M-1507.828-2209.791
				c17.999,0,17.999,12,35.998,12s17.999-12,35.999-12s18,12,36,12s18-12,36-12s18,12,36,12s18-12,36-12
				c17.999,0,17.999,12,35.999,12s18-12,35.999-12s17.999,12,35.999,12c18,0,18-12,36-12c17.998,0,17.998,12,35.996,12
				c18,0,18-12,36-12c17.998,0,17.998,12,35.996,12c17.998,0,17.998-12,35.995-12s17.998,12,35.996,12s17.998-12,35.997-12
				c17.999,0,17.999,12,35.998,12c18.001,0,18.001-12,36.002-12c17.999,0,17.999,12,35.998,12c18,0,18-12,36-12
				c18,0,18,12,35.999,12c18,0,18-12,36-12c18,0,18,12,36,12c18.001,0,18.001-12,36.002-12c18.001,0,18.001,12,36.003,12
				c17.999,0,17.999-12,35.997-12c17.999,0,17.999,12,35.999,12c18.001,0,18.001-12,36.003-12s18.001,12,36.003,12
				c18.002,0,18.002-12,36.005-12c18.002,0,18.002,12,36.003,12c18.004,0,18.004-12,36.009-12s18.004,12,36.009,12"/>
		</g>
		<g>
			<path fill="none" stroke="#FFFFFF" stroke-width="2" stroke-miterlimit="10" d="M-1507.889-2185.337
				c17.999,0,17.999,12,35.998,12s17.999-12,35.999-12s18,12,36,12s18-12,36-12s18,12,36,12s18-12,36-12
				c17.999,0,17.999,12,35.999,12s18-12,35.999-12s17.999,12,35.999,12c18,0,18-12,36-12c17.998,0,17.998,12,35.996,12
				c18,0,18-12,36-12c17.998,0,17.998,12,35.996,12c17.998,0,17.998-12,35.995-12s17.998,12,35.996,12s17.998-12,35.997-12
				c17.999,0,17.999,12,35.998,12c18.001,0,18.001-12,36.002-12c17.999,0,17.999,12,35.998,12c18,0,18-12,36-12
				c18,0,18,12,35.999,12c18,0,18-12,36-12c18,0,18,12,36,12c18.001,0,18.001-12,36.002-12c18.001,0,18.001,12,36.003,12
				c17.999,0,17.999-12,35.997-12c17.999,0,17.999,12,35.999,12c18.001,0,18.001-12,36.003-12s18.001,12,36.003,12
				c18.002,0,18.002-12,36.005-12c18.002,0,18.002,12,36.003,12c18.004,0,18.004-12,36.009-12s18.004,12,36.009,12"/>
		</g>
		<g>
			<path fill="none" stroke="#FFFFFF" stroke-width="2" stroke-miterlimit="10" d="M-1507.95-2160.884c17.999,0,17.999,12,35.998,12
				c18,0,18-12,35.999-12c18,0,18,12,35.999,12c18,0,18-12,36-12s18,12,36,12s18-12,36-12s18,12,35.999,12s17.999-12,35.999-12
				s18,12,35.999,12c18,0,18-12,36-12c17.998,0,17.998,12,35.996,12c18,0,18-12,36-12c17.998,0,17.998,12,35.996,12
				c17.998,0,17.998-12,35.995-12c17.998,0,17.998,12,35.996,12c17.999,0,17.999-12,35.997-12c17.999,0,17.999,12,35.998,12
				c18.001,0,18.001-12,36.002-12c17.999,0,17.999,12,35.998,12c18,0,18-12,36-12c18,0,18,12,35.999,12s18-12,36-12s18,12,36,12
				c18.001,0,18.001-12,36.002-12s18.001,12,36.003,12c17.999,0,17.999-12,35.998-12s17.999,12,35.998,12
				c18.001,0,18.001-12,36.003-12c18.002,0,18.002,12,36.003,12c18.002,0,18.002-12,36.005-12c18.001,0,18.001,12,36.003,12
				c18.004,0,18.004-12,36.009-12s18.004,12,36.009,12"/>
		</g>
		<g>
			<path fill="none" stroke="#FFFFFF" stroke-width="2" stroke-miterlimit="10" d="M-1508.012-2136.431
				c17.999,0,17.999,12,35.998,12c18,0,18-12,35.999-12c18,0,18,12,35.999,12c18,0,18-12,36-12s18,12,36,12s18-12,36-12
				s18,12,35.999,12s17.999-12,35.999-12s18,12,35.999,12c18,0,18-12,36-12c17.998,0,17.998,12,35.996,12c18,0,18-12,36-12
				c17.998,0,17.998,12,35.996,12c17.998,0,17.998-12,35.995-12c17.998,0,17.998,12,35.996,12c17.999,0,17.999-12,35.997-12
				c17.999,0,17.999,12,35.998,12c18.001,0,18.001-12,36.002-12c17.999,0,17.999,12,35.998,12c18,0,18-12,36-12
				c18,0,18,12,35.999,12s18-12,36-12s18,12,36,12c18.001,0,18.001-12,36.002-12s18.001,12,36.003,12c17.999,0,17.999-12,35.998-12
				s17.999,12,35.998,12c18.001,0,18.001-12,36.003-12c18.002,0,18.002,12,36.003,12c18.002,0,18.002-12,36.005-12
				c18.001,0,18.001,12,36.003,12c18.004,0,18.004-12,36.009-12s18.004,12,36.009,12"/>
		</g>
		<g>
			<path fill="none" stroke="#FFFFFF" stroke-width="2" stroke-miterlimit="10" d="M-1508.073-2111.977
				c17.999,0,17.999,12,35.998,12s17.999-12,35.999-12s18,12,36,12s18-12,36-12s18,12,36,12s18-12,36-12
				c17.999,0,17.999,12,35.999,12s18-12,35.999-12s17.999,12,35.999,12c18,0,18-12,36-12c17.998,0,17.998,12,35.996,12
				c18,0,18-12,36-12c17.998,0,17.998,12,35.996,12c17.998,0,17.998-12,35.995-12s17.998,12,35.996,12s17.998-12,35.997-12
				c17.999,0,17.999,12,35.998,12c18.001,0,18.001-12,36.002-12c17.999,0,17.999,12,35.998,12c18,0,18-12,36-12
				c18,0,18,12,35.999,12c18,0,18-12,36-12c18,0,18,12,36,12c18.001,0,18.001-12,36.002-12c18.001,0,18.001,12,36.003,12
				c17.999,0,17.999-12,35.997-12c17.999,0,17.999,12,35.999,12c18.001,0,18.001-12,36.003-12s18.001,12,36.003,12
				c18.002,0,18.002-12,36.005-12c18.002,0,18.002,12,36.003,12c18.004,0,18.004-12,36.009-12s18.004,12,36.009,12"/>
		</g>
		<g>
			<path fill="none" stroke="#FFFFFF" stroke-width="2" stroke-miterlimit="10" d="M-1508.134-2087.523
				c17.999,0,17.999,12,35.998,12c18,0,18-12,35.999-12c18,0,18,12,35.999,12c18,0,18-12,36-12s18,12,36,12s18-12,36-12
				s18,12,35.999,12s17.999-12,35.999-12s18,12,35.999,12c18,0,18-12,36-12c17.998,0,17.998,12,35.996,12c18,0,18-12,36-12
				c17.998,0,17.998,12,35.996,12c17.998,0,17.998-12,35.995-12c17.998,0,17.998,12,35.996,12c17.999,0,17.999-12,35.997-12
				c17.999,0,17.999,12,35.998,12c18.001,0,18.001-12,36.002-12c17.999,0,17.999,12,35.998,12c18,0,18-12,36-12
				c18,0,18,12,35.999,12s18-12,36-12s18,12,36,12c18.001,0,18.001-12,36.002-12s18.001,12,36.003,12c17.999,0,17.999-12,35.998-12
				s17.999,12,35.998,12c18.001,0,18.001-12,36.003-12c18.002,0,18.002,12,36.003,12c18.002,0,18.002-12,36.005-12
				c18.001,0,18.001,12,36.003,12c18.004,0,18.004-12,36.009-12s18.004,12,36.009,12"/>
		</g>
		<g>
			<path fill="none" stroke="#FFFFFF" stroke-width="2" stroke-miterlimit="10" d="M-1508.195-2063.07c17.999,0,17.999,12,35.998,12
				c18,0,18-12,35.999-12c18,0,18,12,35.999,12c18,0,18-12,36-12s18,12,36,12s18-12,36-12s18,12,35.999,12s17.999-12,35.999-12
				s18,12,35.999,12c18,0,18-12,36-12c17.998,0,17.998,12,35.996,12c18,0,18-12,36-12c17.998,0,17.998,12,35.996,12
				c17.998,0,17.998-12,35.995-12c17.998,0,17.998,12,35.996,12c17.999,0,17.999-12,35.997-12c17.999,0,17.999,12,35.998,12
				c18.001,0,18.001-12,36.002-12c17.999,0,17.999,12,35.998,12c18,0,18-12,36-12c18,0,18,12,35.999,12s18-12,36-12s18,12,36,12
				c18.001,0,18.001-12,36.002-12s18.001,12,36.003,12c17.999,0,17.999-12,35.998-12s17.999,12,35.998,12
				c18.001,0,18.001-12,36.003-12c18.002,0,18.002,12,36.003,12c18.002,0,18.002-12,36.005-12c18.001,0,18.001,12,36.003,12
				c18.004,0,18.004-12,36.009-12s18.004,12,36.009,12"/>
		</g>
		<g>
			<path fill="none" stroke="#FFFFFF" stroke-width="2" stroke-miterlimit="10" d="M-1508.256-2038.617
				c17.999,0,17.999,12,35.998,12s17.999-12,35.999-12s18,12,36,12s18-12,36-12s18,12,36,12s18-12,36-12
				c17.999,0,17.999,12,35.999,12s18-12,35.999-12s17.999,12,35.999,12c18,0,18-12,36-12c17.998,0,17.998,12,35.996,12
				c18,0,18-12,36-12c17.998,0,17.998,12,35.996,12c17.998,0,17.998-12,35.995-12s17.998,12,35.996,12s17.998-12,35.997-12
				c17.999,0,17.999,12,35.998,12c18.001,0,18.001-12,36.002-12c17.999,0,17.999,12,35.998,12c18,0,18-12,36-12
				c18,0,18,12,35.999,12c18,0,18-12,36-12c18,0,18,12,36,12c18.001,0,18.001-12,36.002-12c18.001,0,18.001,12,36.003,12
				c17.999,0,17.999-12,35.997-12c17.999,0,17.999,12,35.999,12c18.001,0,18.001-12,36.003-12s18.001,12,36.003,12
				c18.002,0,18.002-12,36.005-12c18.002,0,18.002,12,36.003,12c18.004,0,18.004-12,36.009-12s18.004,12,36.009,12"/>
		</g>
		<g>
			<path fill="none" stroke="#FFFFFF" stroke-width="2" stroke-miterlimit="10" d="M-1508.317-2014.163
				c17.999,0,17.999,12,35.998,12c18,0,18-12,35.999-12c18,0,18,12,35.999,12c18,0,18-12,36-12s18,12,36,12s18-12,36-12
				s18,12,35.999,12s17.999-12,35.999-12s18,12,35.999,12c18,0,18-12,36-12c17.998,0,17.998,12,35.996,12c18,0,18-12,36-12
				c17.998,0,17.998,12,35.996,12c17.998,0,17.998-12,35.995-12c17.998,0,17.998,12,35.996,12c17.999,0,17.999-12,35.997-12
				c17.999,0,17.999,12,35.998,12c18.001,0,18.001-12,36.002-12c17.999,0,17.999,12,35.998,12c18,0,18-12,36-12
				c18,0,18,12,35.999,12s18-12,36-12s18,12,36,12c18.001,0,18.001-12,36.002-12s18.001,12,36.003,12c17.999,0,17.999-12,35.998-12
				s17.999,12,35.998,12c18.001,0,18.001-12,36.003-12c18.002,0,18.002,12,36.003,12c18.002,0,18.002-12,36.005-12
				c18.001,0,18.001,12,36.003,12c18.004,0,18.004-12,36.009-12s18.004,12,36.009,12"/>
		</g>
		<g>
			<path fill="none" stroke="#FFFFFF" stroke-width="2" stroke-miterlimit="10" d="M-1508.379-1989.709
				c17.999,0,17.999,12,35.998,12c18,0,18-12,35.999-12c18,0,18,12,35.999,12c18,0,18-12,36-12s18,12,36,12s18-12,36-12
				s18,12,35.999,12s17.999-12,35.999-12s18,12,35.999,12c18,0,18-12,36-12c17.998,0,17.998,12,35.996,12c18,0,18-12,36-12
				c17.998,0,17.998,12,35.996,12c17.998,0,17.998-12,35.995-12c17.998,0,17.998,12,35.996,12c17.999,0,17.999-12,35.997-12
				c17.999,0,17.999,12,35.998,12c18.001,0,18.001-12,36.002-12c17.999,0,17.999,12,35.998,12c18,0,18-12,36-12
				c18,0,18,12,35.999,12s18-12,36-12s18,12,36,12c18.001,0,18.001-12,36.002-12s18.001,12,36.003,12c17.999,0,17.999-12,35.998-12
				s17.999,12,35.998,12c18.001,0,18.001-12,36.003-12c18.002,0,18.002,12,36.003,12c18.002,0,18.002-12,36.005-12
				c18.001,0,18.001,12,36.003,12c18.004,0,18.004-12,36.009-12s18.004,12,36.009,12"/>
		</g>
		<g>
			<path fill="none" stroke="#FFFFFF" stroke-width="2" stroke-miterlimit="10" d="M-1508.44-1965.256c17.999,0,17.999,12,35.998,12
				s17.999-12,35.999-12s18,12,36,12s18-12,36-12s18,12,36,12s18-12,36-12c17.999,0,17.999,12,35.999,12s18-12,35.999-12
				s17.999,12,35.999,12c18,0,18-12,36-12c17.998,0,17.998,12,35.996,12c18,0,18-12,36-12c17.998,0,17.998,12,35.996,12
				c17.998,0,17.998-12,35.995-12s17.998,12,35.996,12s17.998-12,35.997-12c17.999,0,17.999,12,35.998,12
				c18.001,0,18.001-12,36.002-12c17.999,0,17.999,12,35.998,12c18,0,18-12,36-12c18,0,18,12,35.999,12c18,0,18-12,36-12
				c18,0,18,12,36,12c18.001,0,18.001-12,36.002-12c18.001,0,18.001,12,36.003,12c17.999,0,17.999-12,35.997-12
				c17.999,0,17.999,12,35.999,12c18.001,0,18.001-12,36.003-12s18.001,12,36.003,12c18.002,0,18.002-12,36.005-12
				c18.002,0,18.002,12,36.003,12c18.004,0,18.004-12,36.009-12s18.004,12,36.009,12"/>
		</g>
		<g>
			<path fill="none" stroke="#FFFFFF" stroke-width="2" stroke-miterlimit="10" d="M-1508.501-1940.803
				c17.999,0,17.999,12,35.998,12s17.999-12,35.999-12s18,12,36,12s18-12,36-12s18,12,36,12s18-12,36-12
				c17.999,0,17.999,12,35.999,12s18-12,35.999-12s17.999,12,35.999,12c18,0,18-12,36-12c17.998,0,17.998,12,35.996,12
				c18,0,18-12,36-12c17.998,0,17.998,12,35.996,12c17.998,0,17.998-12,35.995-12s17.998,12,35.996,12s17.998-12,35.997-12
				c17.999,0,17.999,12,35.998,12c18.001,0,18.001-12,36.002-12c17.999,0,17.999,12,35.998,12c18,0,18-12,36-12
				c18,0,18,12,35.999,12c18,0,18-12,36-12c18,0,18,12,36,12c18.001,0,18.001-12,36.002-12c18.001,0,18.001,12,36.003,12
				c17.999,0,17.999-12,35.997-12c17.999,0,17.999,12,35.999,12c18.001,0,18.001-12,36.003-12s18.001,12,36.003,12
				c18.002,0,18.002-12,36.005-12c18.002,0,18.002,12,36.003,12c18.004,0,18.004-12,36.009-12s18.004,12,36.009,12"/>
		</g>
		<g>
			<path fill="none" stroke="#FFFFFF" stroke-width="2" stroke-miterlimit="10" d="M-1508.563-1916.349
				c17.999,0,17.999,12,35.998,12c18,0,18-12,35.999-12c18,0,18,12,35.999,12c18,0,18-12,36-12s18,12,36,12s18-12,36-12
				s18,12,35.999,12s17.999-12,35.999-12s18,12,35.999,12c18,0,18-12,36-12c17.998,0,17.998,12,35.996,12c18,0,18-12,36-12
				c17.998,0,17.998,12,35.996,12c17.998,0,17.998-12,35.995-12c17.998,0,17.998,12,35.996,12c17.999,0,17.999-12,35.997-12
				c17.999,0,17.999,12,35.998,12c18.001,0,18.001-12,36.002-12c17.999,0,17.999,12,35.998,12c18,0,18-12,36-12
				c18,0,18,12,35.999,12s18-12,36-12s18,12,36,12c18.001,0,18.001-12,36.002-12s18.001,12,36.003,12c17.999,0,17.999-12,35.998-12
				s17.999,12,35.998,12c18.001,0,18.001-12,36.003-12c18.002,0,18.002,12,36.003,12c18.002,0,18.002-12,36.005-12
				c18.001,0,18.001,12,36.003,12c18.004,0,18.004-12,36.009-12s18.004,12,36.009,12"/>
		</g>
		<g>
			<path fill="none" stroke="#FFFFFF" stroke-width="2" stroke-miterlimit="10" d="M-1508.624-1891.896
				c17.999,0,17.999,12,35.998,12s17.999-12,35.999-12s18,12,36,12s18-12,36-12s18,12,36,12s18-12,36-12
				c17.999,0,17.999,12,35.999,12s18-12,35.999-12s17.999,12,35.999,12c18,0,18-12,36-12c17.998,0,17.998,12,35.996,12
				c18,0,18-12,36-12c17.998,0,17.998,12,35.996,12c17.998,0,17.998-12,35.995-12s17.998,12,35.996,12s17.998-12,35.997-12
				c17.999,0,17.999,12,35.998,12c18.001,0,18.001-12,36.002-12c17.999,0,17.999,12,35.998,12c18,0,18-12,36-12
				c18,0,18,12,35.999,12c18,0,18-12,36-12c18,0,18,12,36,12c18.001,0,18.001-12,36.002-12c18.001,0,18.001,12,36.003,12
				c17.999,0,17.999-12,35.997-12c17.999,0,17.999,12,35.999,12c18.001,0,18.001-12,36.003-12s18.001,12,36.003,12
				c18.002,0,18.002-12,36.005-12c18.002,0,18.002,12,36.003,12c18.004,0,18.004-12,36.009-12s18.004,12,36.009,12"/>
		</g>
		<g>
			<path fill="none" stroke="#FFFFFF" stroke-width="2" stroke-miterlimit="10" d="M-1508.685-1867.442
				c17.999,0,17.999,12,35.998,12s17.999-12,35.999-12s18,12,36,12s18-12,36-12s18,12,36,12s18-12,36-12
				c17.999,0,17.999,12,35.999,12s18-12,35.999-12s17.999,12,35.999,12c18,0,18-12,36-12c17.998,0,17.998,12,35.996,12
				c18,0,18-12,36-12c17.998,0,17.998,12,35.996,12c17.998,0,17.998-12,35.995-12s17.998,12,35.996,12s17.998-12,35.997-12
				c17.999,0,17.999,12,35.998,12c18.001,0,18.001-12,36.002-12c17.999,0,17.999,12,35.998,12c18,0,18-12,36-12
				c18,0,18,12,35.999,12c18,0,18-12,36-12c18,0,18,12,36,12c18.001,0,18.001-12,36.002-12c18.001,0,18.001,12,36.003,12
				c17.999,0,17.999-12,35.997-12c17.999,0,17.999,12,35.999,12c18.001,0,18.001-12,36.003-12s18.001,12,36.003,12
				c18.002,0,18.002-12,36.005-12c18.002,0,18.002,12,36.003,12c18.004,0,18.004-12,36.009-12s18.004,12,36.009,12"/>
		</g>
		<g>
			<path fill="none" stroke="#FFFFFF" stroke-width="2" stroke-miterlimit="10" d="M-1508.746-1842.988
				c17.999,0,17.999,12,35.998,12c18,0,18-12,35.999-12c18,0,18,12,35.999,12c18,0,18-12,36-12s18,12,36,12s18-12,36-12
				s18,12,35.999,12s17.999-12,35.999-12s18,12,35.999,12c18,0,18-12,36-12c17.998,0,17.998,12,35.996,12c18,0,18-12,36-12
				c17.998,0,17.998,12,35.996,12c17.998,0,17.998-12,35.995-12c17.998,0,17.998,12,35.996,12c17.999,0,17.999-12,35.997-12
				c17.999,0,17.999,12,35.998,12c18.001,0,18.001-12,36.002-12c17.999,0,17.999,12,35.998,12c18,0,18-12,36-12
				c18,0,18,12,35.999,12c18,0,18-12,36-12s18,12,36,12c18.001,0,18.001-12,36.002-12s18.001,12,36.003,12
				c17.999,0,17.999-12,35.998-12s17.999,12,35.998,12c18.001,0,18.001-12,36.003-12c18.002,0,18.002,12,36.003,12
				c18.002,0,18.002-12,36.005-12c18.001,0,18.001,12,36.003,12c18.004,0,18.004-12,36.009-12s18.004,12,36.009,12"/>
		</g>
		<g>
			<path fill="none" stroke="#FFFFFF" stroke-width="2" stroke-miterlimit="10" d="M-1508.808-1818.535
				c17.999,0,17.999,12,35.998,12c18,0,18-12,35.999-12c18,0,18,12,35.999,12c18,0,18-12,36-12s18,12,36,12s18-12,36-12
				s18,12,35.999,12s17.999-12,35.999-12s18,12,35.999,12c18,0,18-12,36-12c17.998,0,17.998,12,35.996,12c18,0,18-12,36-12
				c17.998,0,17.998,12,35.996,12c17.998,0,17.998-12,35.995-12c17.998,0,17.998,12,35.996,12c17.999,0,17.999-12,35.997-12
				c17.999,0,17.999,12,35.998,12c18.001,0,18.001-12,36.002-12c17.999,0,17.999,12,35.998,12c18,0,18-12,36-12
				c18,0,18,12,35.999,12c18,0,18-12,36-12s18,12,36,12c18.001,0,18.001-12,36.002-12s18.001,12,36.003,12
				c17.999,0,17.999-12,35.998-12s17.999,12,35.998,12c18.001,0,18.001-12,36.003-12c18.002,0,18.002,12,36.003,12
				c18.002,0,18.002-12,36.005-12c18.001,0,18.001,12,36.003,12c18.004,0,18.004-12,36.009-12s18.004,12,36.009,12"/>
		</g>
		<g>
			<path fill="none" stroke="#FFFFFF" stroke-width="2" stroke-miterlimit="10" d="M-1508.869-1794.082
				c17.999,0,17.999,12,35.998,12s17.999-12,35.999-12s18,12,36,12s18-12,36-12s18,12,36,12s18-12,36-12
				c17.999,0,17.999,12,35.999,12s18-12,35.999-12s17.999,12,35.999,12c18,0,18-12,36-12c17.998,0,17.998,12,35.996,12
				c18,0,18-12,35.999-12c17.998,0,17.998,12,35.996,12s17.998-12,35.996-12s17.998,12,35.996,12s17.998-12,35.997-12
				c17.999,0,17.999,12,35.998,12c18,0,18-12,36.001-12c17.999,0,17.999,12,35.999,12c18,0,18-12,36-12c18,0,18,12,35.999,12
				c18,0,18-12,36-12c18,0,18,12,36,12c18.001,0,18.001-12,36.002-12c18.001,0,18.001,12,36.003,12c17.999,0,17.999-12,35.997-12
				c17.999,0,17.999,12,35.999,12c18.001,0,18.001-12,36.003-12s18.001,12,36.003,12c18.002,0,18.002-12,36.005-12
				c18.002,0,18.002,12,36.003,12c18.004,0,18.004-12,36.009-12s18.004,12,36.009,12"/>
		</g>
		<g>
			<path fill="none" stroke="#FFFFFF" stroke-width="2" stroke-miterlimit="10" d="M-1508.93-1769.628c17.999,0,17.999,12,35.998,12
				c18,0,18-12,35.999-12c18,0,18,12,35.999,12c18,0,18-12,36-12s18,12,36,12s18-12,36-12s18,12,35.999,12s17.999-12,35.999-12
				s18,12,35.999,12c18,0,18-12,36-12c17.998,0,17.998,12,35.996,12c18,0,18-12,36-12c17.998,0,17.998,12,35.996,12
				c17.998,0,17.998-12,35.995-12c17.998,0,17.998,12,35.996,12c17.999,0,17.999-12,35.997-12c17.999,0,17.999,12,35.998,12
				c18.001,0,18.001-12,36.002-12c17.999,0,17.999,12,35.998,12c18,0,18-12,36-12c18,0,18,12,35.999,12c18,0,18-12,36-12
				s18,12,36,12c18.001,0,18.001-12,36.002-12s18.001,12,36.003,12c17.999,0,17.999-12,35.998-12s17.999,12,35.998,12
				c18.001,0,18.001-12,36.003-12c18.002,0,18.002,12,36.003,12c18.002,0,18.002-12,36.005-12c18.001,0,18.001,12,36.003,12
				c18.004,0,18.004-12,36.009-12s18.004,12,36.009,12"/>
		</g>
		<g>
			<path fill="none" stroke="#FFFFFF" stroke-width="2" stroke-miterlimit="10" d="M-1508.991-1745.175
				c17.999,0,17.999,12,35.998,12c18,0,18-12,35.999-12c18,0,18,12,35.999,12c18,0,18-12,36-12s18,12,36,12s18-12,36-12
				s18,12,35.999,12s17.999-12,35.999-12s18,12,35.999,12c18,0,18-12,36-12c17.998,0,17.998,12,35.996,12c18,0,18-12,36-12
				c17.998,0,17.998,12,35.996,12c17.998,0,17.998-12,35.995-12c17.998,0,17.998,12,35.996,12c17.999,0,17.999-12,35.997-12
				c17.999,0,17.999,12,35.998,12c18.001,0,18.001-12,36.002-12c17.999,0,17.999,12,35.998,12c18,0,18-12,36-12
				c18,0,18,12,35.999,12c18,0,18-12,36-12s18,12,36,12c18.001,0,18.001-12,36.002-12s18.001,12,36.003,12
				c17.999,0,17.999-12,35.998-12s17.999,12,35.998,12c18.001,0,18.001-12,36.003-12c18.002,0,18.002,12,36.003,12
				c18.002,0,18.002-12,36.005-12c18.001,0,18.001,12,36.003,12c18.004,0,18.004-12,36.009-12s18.004,12,36.009,12"/>
		</g>
		<g>
			<path fill="none" stroke="#FFFFFF" stroke-width="2" stroke-miterlimit="10" d="M-1509.052-1720.722
				c17.999,0,17.999,12,35.998,12s17.999-12,35.999-12s18,12,36,12s18-12,36-12s18,12,36,12s18-12,36-12
				c17.999,0,17.999,12,35.999,12s18-12,35.999-12s17.999,12,35.999,12c18,0,18-12,36-12c17.998,0,17.998,12,35.996,12
				c18,0,18-12,35.999-12c17.998,0,17.998,12,35.996,12s17.998-12,35.996-12s17.998,12,35.996,12s17.998-12,35.997-12
				c17.999,0,17.999,12,35.998,12c18,0,18-12,36.001-12c17.999,0,17.999,12,35.999,12c18,0,18-12,36-12c18,0,18,12,35.999,12
				c18,0,18-12,36-12c18,0,18,12,36,12c18.001,0,18.001-12,36.002-12c18.001,0,18.001,12,36.003,12c17.999,0,17.999-12,35.997-12
				c17.999,0,17.999,12,35.999,12c18.001,0,18.001-12,36.003-12s18.001,12,36.003,12c18.002,0,18.002-12,36.005-12
				c18.002,0,18.002,12,36.003,12c18.004,0,18.004-12,36.009-12s18.004,12,36.009,12"/>
		</g>
		<g>
			<path fill="none" stroke="#FFFFFF" stroke-width="2" stroke-miterlimit="10" d="M-1509.114-1696.268
				c17.999,0,17.999,12,35.998,12s17.999-12,35.999-12s18,12,36,12s18-12,36-12s18,12,36,12s18-12,36-12
				c17.999,0,17.999,12,35.999,12s18-12,35.999-12s17.999,12,35.999,12c18,0,18-12,36-12c17.998,0,17.998,12,35.996,12
				c18,0,18-12,35.999-12c17.998,0,17.998,12,35.996,12s17.998-12,35.996-12s17.998,12,35.996,12s17.998-12,35.997-12
				c17.999,0,17.999,12,35.998,12c18,0,18-12,36.001-12c17.999,0,17.999,12,35.999,12c18,0,18-12,36-12c18,0,18,12,35.999,12
				c18,0,18-12,36-12c18,0,18,12,36,12c18.001,0,18.001-12,36.002-12c18.001,0,18.001,12,36.003,12c17.999,0,17.999-12,35.997-12
				c17.999,0,17.999,12,35.999,12c18.001,0,18.001-12,36.003-12s18.001,12,36.003,12c18.002,0,18.002-12,36.005-12
				c18.002,0,18.002,12,36.003,12c18.004,0,18.004-12,36.009-12s18.004,12,36.009,12"/>
		</g>
		<g>
			<path fill="none" stroke="#FFFFFF" stroke-width="2" stroke-miterlimit="10" d="M-1509.175-1671.814
				c17.999,0,17.999,12,35.998,12c18,0,18-12,35.999-12c18,0,18,12,35.999,12c18,0,18-12,36-12s18,12,36,12s18-12,36-12
				s18,12,35.999,12s17.999-12,35.999-12s18,12,35.999,12c18,0,18-12,36-12c17.998,0,17.998,12,35.996,12c18,0,18-12,36-12
				c17.998,0,17.998,12,35.996,12c17.998,0,17.998-12,35.995-12c17.998,0,17.998,12,35.996,12c17.999,0,17.999-12,35.997-12
				c17.999,0,17.999,12,35.998,12c18.001,0,18.001-12,36.002-12c17.999,0,17.999,12,35.998,12c18,0,18-12,36-12
				c18,0,18,12,35.999,12c18,0,18-12,36-12s18,12,36,12c18.001,0,18.001-12,36.002-12s18.001,12,36.003,12
				c17.999,0,17.999-12,35.998-12s17.999,12,35.998,12c18.001,0,18.001-12,36.003-12c18.002,0,18.002,12,36.003,12
				c18.002,0,18.002-12,36.005-12c18.001,0,18.001,12,36.003,12c18.004,0,18.004-12,36.009-12s18.004,12,36.009,12"/>
		</g>
		<g>
			<path fill="none" stroke="#FFFFFF" stroke-width="2" stroke-miterlimit="10" d="M-1509.236-1647.36c17.999,0,17.999,12,35.998,12
				s17.999-12,35.999-12s18,12,36,12s18-12,36-12s18,12,36,12s18-12,36-12c17.999,0,17.999,12,35.999,12s18-12,35.999-12
				s17.999,12,35.999,12c18,0,18-12,36-12c17.998,0,17.998,12,35.996,12c18,0,18-12,35.999-12c17.998,0,17.998,12,35.996,12
				s17.998-12,35.996-12s17.998,12,35.996,12s17.998-12,35.997-12c17.999,0,17.999,12,35.998,12c18,0,18-12,36.001-12
				c17.999,0,17.999,12,35.999,12c18,0,18-12,36-12c18,0,18,12,35.999,12c18,0,18-12,36-12c18,0,18,12,36,12
				c18.001,0,18.001-12,36.002-12c18.001,0,18.001,12,36.003,12c17.999,0,17.999-12,35.997-12c17.999,0,17.999,12,35.999,12
				c18.001,0,18.001-12,36.003-12s18.001,12,36.003,12c18.002,0,18.002-12,36.005-12c18.002,0,18.002,12,36.003,12
				c18.004,0,18.004-12,36.009-12s18.004,12,36.009,12"/>
		</g>
		<g>
			<path fill="none" stroke="#FFFFFF" stroke-width="2" stroke-miterlimit="10" d="M-1509.297-1622.907
				c17.999,0,17.999,12,35.998,12s17.999-12,35.999-12s18,12,36,12s18-12,36-12s18,12,36,12s18-12,36-12
				c17.999,0,17.999,12,35.999,12s18-12,35.999-12s17.999,12,35.999,12c18,0,18-12,36-12c17.998,0,17.998,12,35.996,12
				c18,0,18-12,35.999-12c17.998,0,17.998,12,35.996,12s17.998-12,35.996-12s17.998,12,35.996,12s17.998-12,35.997-12
				c17.999,0,17.999,12,35.998,12c18,0,18-12,36.001-12c17.999,0,17.999,12,35.999,12c18,0,18-12,36-12c18,0,18,12,35.999,12
				c18,0,18-12,36-12c18,0,18,12,36,12c18.001,0,18.001-12,36.002-12c18.001,0,18.001,12,36.003,12c17.999,0,17.999-12,35.997-12
				c17.999,0,17.999,12,35.999,12c18.001,0,18.001-12,36.003-12s18.001,12,36.003,12c18.002,0,18.002-12,36.005-12
				c18.002,0,18.002,12,36.003,12c18.004,0,18.004-12,36.009-12s18.004,12,36.009,12"/>
		</g>
		<g>
			<path fill="none" stroke="#FFFFFF" stroke-width="2" stroke-miterlimit="10" d="M-1509.358-1598.454
				c17.999,0,17.999,12,35.998,12c18,0,18-12,35.999-12c18,0,18,12,35.999,12c18,0,18-12,36-12s18,12,36,12s18-12,36-12
				s18,12,35.999,12s17.999-12,35.999-12s18,12,35.999,12c18,0,18-12,36-12c17.998,0,17.998,12,35.996,12c18,0,18-12,36-12
				c17.998,0,17.998,12,35.996,12c17.998,0,17.998-12,35.995-12c17.998,0,17.998,12,35.996,12c17.999,0,17.999-12,35.997-12
				c17.999,0,17.999,12,35.998,12c18.001,0,18.001-12,36.002-12c17.999,0,17.999,12,35.998,12c18,0,18-12,36-12
				c18,0,18,12,35.999,12c18,0,18-12,36-12s18,12,36,12c18.001,0,18.001-12,36.002-12s18.001,12,36.003,12
				c17.999,0,17.999-12,35.998-12s17.999,12,35.998,12c18.001,0,18.001-12,36.003-12c18.002,0,18.002,12,36.003,12
				c18.002,0,18.002-12,36.005-12c18.001,0,18.001,12,36.003,12c18.004,0,18.004-12,36.009-12s18.004,12,36.009,12"/>
		</g>
		<g>
			<path fill="none" stroke="#FFFFFF" stroke-width="2" stroke-miterlimit="10" d="M-1509.419-1574c17.999,0,17.999,12,35.998,12
				s17.999-12,35.999-12s18,12,36,12s18-12,36-12s18,12,36,12s18-12,36-12c17.999,0,17.999,12,35.999,12s18-12,35.999-12
				s17.999,12,35.999,12c18,0,18-12,36-12c17.998,0,17.998,12,35.996,12c18,0,18-12,35.999-12c17.998,0,17.998,12,35.996,12
				s17.998-12,35.996-12s17.998,12,35.996,12s17.998-12,35.997-12c17.999,0,17.999,12,35.998,12c18,0,18-12,36.001-12
				c17.999,0,17.999,12,35.999,12c18,0,18-12,36-12c18,0,18,12,35.999,12c18,0,18-12,36-12c18,0,18,12,36,12
				c18.001,0,18.001-12,36.002-12c18.001,0,18.001,12,36.003,12c17.999,0,17.999-12,35.997-12c17.999,0,17.999,12,35.999,12
				c18.001,0,18.001-12,36.003-12s18.001,12,36.003,12c18.002,0,18.002-12,36.005-12c18.002,0,18.002,12,36.003,12
				c18.004,0,18.004-12,36.009-12s18.004,12,36.009,12"/>
		</g>
		<g>
			<path fill="none" stroke="#FFFFFF" stroke-width="2" stroke-miterlimit="10" d="M-1509.481-1549.547
				c17.999,0,17.999,12,35.998,12s17.999-12,35.999-12s18,12,36,12s18-12,36-12s18,12,36,12s18-12,36-12
				c17.999,0,17.999,12,35.999,12s18-12,35.999-12s17.999,12,35.999,12c18,0,18-12,36-12c17.998,0,17.998,12,35.996,12
				c18,0,18-12,35.999-12c17.998,0,17.998,12,35.996,12s17.998-12,35.996-12s17.998,12,35.996,12s17.998-12,35.997-12
				c17.999,0,17.999,12,35.998,12c18,0,18-12,36.001-12c17.999,0,17.999,12,35.999,12c18,0,18-12,36-12c18,0,18,12,35.999,12
				c18,0,18-12,36-12c18,0,18,12,36,12c18.001,0,18.001-12,36.002-12c18.001,0,18.001,12,36.003,12c17.999,0,17.999-12,35.997-12
				c17.999,0,17.999,12,35.999,12c18.001,0,18.001-12,36.003-12s18.001,12,36.003,12c18.002,0,18.002-12,36.005-12
				c18.002,0,18.002,12,36.003,12c18.004,0,18.004-12,36.009-12s18.004,12,36.009,12"/>
		</g>
		<g>
			<path fill="none" stroke="#FFFFFF" stroke-width="2" stroke-miterlimit="10" d="M-1509.542-1525.094
				c17.999,0,17.999,12,35.998,12c18,0,18-12,35.999-12c18,0,18,12,35.999,12c18,0,18-12,36-12s18,12,36,12s18-12,36-12
				s18,12,35.999,12s17.999-12,35.999-12s18,12,35.999,12c18,0,18-12,36-12c17.998,0,17.998,12,35.996,12c18,0,18-12,36-12
				c17.998,0,17.998,12,35.996,12c17.998,0,17.998-12,35.995-12c17.998,0,17.998,12,35.996,12c17.999,0,17.999-12,35.997-12
				c17.999,0,17.999,12,35.998,12c18.001,0,18.001-12,36.002-12c17.999,0,17.999,12,35.998,12c18,0,18-12,36-12
				c18,0,18,12,35.999,12c18,0,18-12,36-12s18,12,36,12c18.001,0,18.001-12,36.002-12s18.001,12,36.003,12
				c17.999,0,17.999-12,35.998-12s17.999,12,35.998,12c18.001,0,18.001-12,36.003-12c18.002,0,18.002,12,36.003,12
				c18.002,0,18.002-12,36.005-12c18.001,0,18.001,12,36.003,12c18.004,0,18.004-12,36.009-12s18.004,12,36.009,12"/>
		</g>
		<g>
			<path fill="none" stroke="#FFFFFF" stroke-width="2" stroke-miterlimit="10" d="M-1509.604-1500.64c17.999,0,17.999,12,35.998,12
				c18,0,18-12,35.999-12c18,0,18,12,35.999,12c18,0,18-12,36-12s18,12,36,12s18-12,36-12s18,12,35.999,12s17.999-12,35.999-12
				s18,12,35.999,12c18,0,18-12,36-12c17.998,0,17.998,12,35.996,12c18,0,18-12,36-12c17.998,0,17.998,12,35.996,12
				c17.998,0,17.998-12,35.995-12c17.998,0,17.998,12,35.996,12c17.999,0,17.999-12,35.997-12c17.999,0,17.999,12,35.998,12
				c18.001,0,18.001-12,36.002-12c17.999,0,17.999,12,35.998,12c18,0,18-12,36-12c18,0,18,12,35.999,12c18,0,18-12,36-12
				s18,12,36,12c18.001,0,18.001-12,36.002-12s18.001,12,36.003,12c17.999,0,17.999-12,35.998-12s17.999,12,35.998,12
				c18.001,0,18.001-12,36.003-12c18.002,0,18.002,12,36.003,12c18.002,0,18.002-12,36.005-12c18.001,0,18.001,12,36.003,12
				c18.004,0,18.004-12,36.009-12s18.004,12,36.009,12"/>
		</g>
		<g>
			<path fill="none" stroke="#FFFFFF" stroke-width="2" stroke-miterlimit="10" d="M-1509.665-1476.187
				c17.999,0,17.999,12,35.998,12s17.999-12,35.999-12s18,12,36,12s18-12,36-12s18,12,36,12s18-12,36-12
				c17.999,0,17.999,12,35.999,12s18-12,35.999-12s17.999,12,35.999,12c18,0,18-12,36-12c17.998,0,17.998,12,35.996,12
				c18,0,18-12,35.999-12c17.998,0,17.998,12,35.996,12s17.998-12,35.996-12s17.998,12,35.996,12s17.998-12,35.997-12
				c17.999,0,17.999,12,35.998,12c18,0,18-12,36.001-12c17.999,0,17.999,12,35.999,12c18,0,18-12,36-12c18,0,18,12,35.999,12
				c18,0,18-12,36-12c18,0,18,12,36,12c18.001,0,18.001-12,36.002-12c18.001,0,18.001,12,36.003,12c17.999,0,17.999-12,35.997-12
				c17.999,0,17.999,12,35.999,12c18.001,0,18.001-12,36.003-12s18.001,12,36.003,12c18.002,0,18.002-12,36.005-12
				c18.002,0,18.002,12,36.003,12c18.004,0,18.004-12,36.009-12s18.004,12,36.009,12"/>
		</g>
		<g>
			<path fill="none" stroke="#FFFFFF" stroke-width="2" stroke-miterlimit="10" d="M-1509.726-1451.732
				c17.999,0,17.999,12,35.998,12c18,0,18-12,35.999-12c18,0,18,12,35.999,12c18,0,18-12,36-12s18,12,36,12s18-12,36-12
				s18,12,35.999,12s17.999-12,35.999-12s18,12,35.999,12c18,0,18-12,36-12c17.998,0,17.998,12,35.996,12c18,0,18-12,36-12
				c17.998,0,17.998,12,35.996,12c17.998,0,17.998-12,35.995-12c17.998,0,17.998,12,35.996,12c17.999,0,17.999-12,35.997-12
				c17.999,0,17.999,12,35.998,12c18.001,0,18.001-12,36.002-12c17.999,0,17.999,12,35.998,12c18,0,18-12,36-12
				c18,0,18,12,35.999,12c18,0,18-12,36-12s18,12,36,12c18.001,0,18.001-12,36.002-12s18.001,12,36.003,12
				c17.999,0,17.999-12,35.998-12s17.999,12,35.998,12c18.001,0,18.001-12,36.003-12c18.002,0,18.002,12,36.003,12
				c18.002,0,18.002-12,36.005-12c18.001,0,18.001,12,36.003,12c18.004,0,18.004-12,36.009-12s18.004,12,36.009,12"/>
		</g>
		<g>
			<path fill="none" stroke="#FFFFFF" stroke-width="2" stroke-miterlimit="10" d="M-1509.787-1427.279
				c17.999,0,17.999,12,35.998,12c18,0,18-12,35.999-12c18,0,18,12,35.999,12c18,0,18-12,36-12s18,12,36,12s18-12,36-12
				s18,12,35.999,12s17.999-12,35.999-12s18,12,35.999,12c18,0,18-12,36-12c17.998,0,17.998,12,35.996,12c18,0,18-12,36-12
				c17.998,0,17.998,12,35.996,12c17.998,0,17.998-12,35.995-12c17.998,0,17.998,12,35.996,12c17.999,0,17.999-12,35.997-12
				c17.999,0,17.999,12,35.998,12c18.001,0,18.001-12,36.002-12c17.999,0,17.999,12,35.998,12c18,0,18-12,36-12
				c18,0,18,12,35.999,12c18,0,18-12,36-12s18,12,36,12c18.001,0,18.001-12,36.002-12s18.001,12,36.003,12
				c17.999,0,17.999-12,35.998-12s17.999,12,35.998,12c18.001,0,18.001-12,36.003-12c18.002,0,18.002,12,36.003,12
				c18.002,0,18.002-12,36.005-12c18.001,0,18.001,12,36.003,12c18.004,0,18.004-12,36.009-12s18.004,12,36.009,12"/>
		</g>
		<g>
			<path fill="none" stroke="#FFFFFF" stroke-width="2" stroke-miterlimit="10" d="M-1509.848-1402.826
				c17.999,0,17.999,12,35.998,12s17.999-12,35.999-12s18,12,36,12s18-12,36-12s18,12,36,12s18-12,36-12
				c17.999,0,17.999,12,35.999,12s18-12,35.999-12s17.999,12,35.999,12c18,0,18-12,36-12c17.998,0,17.998,12,35.996,12
				c18,0,18-12,35.999-12c17.998,0,17.998,12,35.996,12s17.998-12,35.996-12s17.998,12,35.996,12s17.998-12,35.997-12
				c17.999,0,17.999,12,35.998,12c18,0,18-12,36.001-12c17.999,0,17.999,12,35.999,12c18,0,18-12,36-12c18,0,18,12,35.999,12
				c18,0,18-12,36-12c18,0,18,12,36,12c18.001,0,18.001-12,36.002-12c18.001,0,18.001,12,36.003,12c17.999,0,17.999-12,35.997-12
				c17.999,0,17.999,12,35.999,12c18.001,0,18.001-12,36.003-12s18.001,12,36.003,12c18.002,0,18.002-12,36.005-12
				c18.002,0,18.002,12,36.003,12c18.004,0,18.004-12,36.009-12s18.004,12,36.009,12"/>
		</g>
		<g>
			<path fill="none" stroke="#FFFFFF" stroke-width="2" stroke-miterlimit="10" d="M-1509.91-1378.372c17.999,0,17.999,12,35.998,12
				s17.999-12,35.999-12s18,12,36,12s18-12,36-12s18,12,36,12s18-12,36-12c17.999,0,17.999,12,35.999,12s18-12,35.999-12
				s17.999,12,35.999,12c18,0,18-12,36-12c17.998,0,17.998,12,35.996,12c18,0,18-12,35.999-12c17.998,0,17.998,12,35.996,12
				s17.998-12,35.996-12s17.998,12,35.996,12s17.998-12,35.997-12c17.999,0,17.999,12,35.998,12c18,0,18-12,36.001-12
				c17.999,0,17.999,12,35.999,12c18,0,18-12,36-12c18,0,18,12,35.999,12c18,0,18-12,36-12c18,0,18,12,36,12
				c18.001,0,18.001-12,36.002-12c18.001,0,18.001,12,36.003,12c17.999,0,17.999-12,35.997-12c17.999,0,17.999,12,35.999,12
				c18.001,0,18.001-12,36.003-12s18.001,12,36.003,12c18.002,0,18.002-12,36.005-12c18.002,0,18.002,12,36.003,12
				c18.004,0,18.004-12,36.009-12s18.004,12,36.009,12"/>
		</g>
		<g>
			<path fill="none" stroke="#FFFFFF" stroke-width="2" stroke-miterlimit="10" d="M-1509.971-1353.919
				c17.999,0,17.999,12,35.998,12c18,0,18-12,35.999-12c18,0,18,12,35.999,12c18,0,18-12,36-12s18,12,36,12s18-12,36-12
				s18,12,35.999,12s17.999-12,35.999-12s18,12,35.999,12c18,0,18-12,36-12c17.998,0,17.998,12,35.996,12c18,0,18-12,36-12
				c17.998,0,17.998,12,35.996,12c17.998,0,17.998-12,35.995-12c17.998,0,17.998,12,35.996,12c17.999,0,17.999-12,35.997-12
				c17.999,0,17.999,12,35.998,12c18.001,0,18.001-12,36.002-12c17.999,0,17.999,12,35.998,12c18,0,18-12,36-12
				c18,0,18,12,35.999,12c18,0,18-12,36-12s18,12,36,12c18.001,0,18.001-12,36.002-12s18.001,12,36.003,12
				c17.999,0,17.999-12,35.998-12s17.999,12,35.998,12c18.001,0,18.001-12,36.003-12c18.002,0,18.002,12,36.003,12
				c18.002,0,18.002-12,36.005-12c18.001,0,18.001,12,36.003,12c18.004,0,18.004-12,36.009-12s18.004,12,36.009,12"/>
		</g>
	</g>
</g>
<g id="Слой_3">
	<rect x="-1494.986" y="-1299.085" fill="#B9C9C6" width="1173.016" height="639.531"/>
	<g opacity="0.41">
		<g>
			<path fill="none" stroke="#FFFFFF" stroke-width="2" stroke-miterlimit="10" d="M-1494.986-1315.085
				c17.999,0,17.999,12,35.998,12c18,0,18-12,35.999-12c18,0,18,12,35.999,12c18,0,18-12,36-12s18,12,36,12s18-12,36-12
				s18,12,35.999,12s17.999-12,35.999-12s18,12,35.999,12c18,0,18-12,36-12c17.998,0,17.998,12,35.996,12c18,0,18-12,36-12
				c17.998,0,17.998,12,35.996,12c17.998,0,17.998-12,35.995-12c17.998,0,17.998,12,35.996,12s17.998-12,35.996-12
				c17.999,0,17.999,12,35.998,12c18.001,0,18.001-12,36.002-12c17.999,0,17.999,12,35.998,12c18,0,18-12,36-12
				c18,0,18,12,35.999,12s18-12,36-12s18,12,36,12c18.001,0,18.001-12,36.002-12s18.001,12,36.003,12c17.999,0,17.999-12,35.998-12
				s17.999,12,35.998,12c18.001,0,18.001-12,36.003-12c18.002,0,18.002,12,36.003,12c18.002,0,18.002-12,36.005-12
				c18.001,0,18.001,12,36.003,12c18.004,0,18.004-12,36.009-12s18.004,12,36.009,12"/>
		</g>
		<g>
			<path fill="none" stroke="#FFFFFF" stroke-width="2" stroke-miterlimit="10" d="M-1495.047-1290.632
				c17.999,0,17.999,12,35.998,12s17.999-12,35.999-12s18,12,36,12s18-12,36-12s18,12,36,12s18-12,36-12
				c17.999,0,17.999,12,35.999,12s18-12,35.999-12s17.999,12,35.999,12c18,0,18-12,36-12c17.998,0,17.998,12,35.996,12
				c18,0,18-12,36-12c17.998,0,17.998,12,35.996,12c17.998,0,17.998-12,35.995-12s17.998,12,35.996,12s17.998-12,35.997-12
				c17.999,0,17.999,12,35.998,12c18.001,0,18.001-12,36.002-12c17.999,0,17.999,12,35.998,12c18,0,18-12,36-12
				c18,0,18,12,35.999,12c18,0,18-12,36-12c18,0,18,12,36,12c18.001,0,18.001-12,36.002-12c18.001,0,18.001,12,36.003,12
				c17.999,0,17.999-12,35.997-12c17.999,0,17.999,12,35.999,12c18.001,0,18.001-12,36.003-12s18.001,12,36.003,12
				c18.002,0,18.002-12,36.005-12c18.002,0,18.002,12,36.003,12c18.004,0,18.004-12,36.009-12s18.004,12,36.009,12"/>
		</g>
		<g>
			<path fill="none" stroke="#FFFFFF" stroke-width="2" stroke-miterlimit="10" d="M-1495.109-1266.179
				c17.999,0,17.999,12,35.998,12s17.999-12,35.999-12s18,12,36,12s18-12,36-12s18,12,36,12s18-12,36-12
				c17.999,0,17.999,12,35.999,12s18-12,35.999-12s17.999,12,35.999,12c18,0,18-12,36-12c17.998,0,17.998,12,35.996,12
				c18,0,18-12,36-12c17.998,0,17.998,12,35.996,12c17.998,0,17.998-12,35.995-12s17.998,12,35.996,12s17.998-12,35.997-12
				c17.999,0,17.999,12,35.998,12c18.001,0,18.001-12,36.002-12c17.999,0,17.999,12,35.998,12c18,0,18-12,36-12
				c18,0,18,12,35.999,12c18,0,18-12,36-12c18,0,18,12,36,12c18.001,0,18.001-12,36.002-12c18.001,0,18.001,12,36.003,12
				c17.999,0,17.999-12,35.997-12c17.999,0,17.999,12,35.999,12c18.001,0,18.001-12,36.003-12s18.001,12,36.003,12
				c18.002,0,18.002-12,36.005-12c18.002,0,18.002,12,36.003,12c18.004,0,18.004-12,36.009-12s18.004,12,36.009,12"/>
		</g>
		<g>
			<path fill="none" stroke="#FFFFFF" stroke-width="2" stroke-miterlimit="10" d="M-1495.17-1241.725c17.999,0,17.999,12,35.998,12
				c18,0,18-12,35.999-12c18,0,18,12,35.999,12c18,0,18-12,36-12s18,12,36,12s18-12,36-12s18,12,35.999,12s17.999-12,35.999-12
				s18,12,35.999,12c18,0,18-12,36-12c17.998,0,17.998,12,35.996,12c18,0,18-12,36-12c17.998,0,17.998,12,35.996,12
				c17.998,0,17.998-12,35.995-12c17.998,0,17.998,12,35.996,12s17.998-12,35.996-12c17.999,0,17.999,12,35.998,12
				c18.001,0,18.001-12,36.002-12c17.999,0,17.999,12,35.998,12c18,0,18-12,36-12c18,0,18,12,35.999,12s18-12,36-12s18,12,36,12
				c18.001,0,18.001-12,36.002-12s18.001,12,36.003,12c17.999,0,17.999-12,35.998-12s17.999,12,35.998,12
				c18.001,0,18.001-12,36.003-12c18.002,0,18.002,12,36.003,12c18.002,0,18.002-12,36.005-12c18.001,0,18.001,12,36.003,12
				c18.004,0,18.004-12,36.009-12s18.004,12,36.009,12"/>
		</g>
		<g>
			<path fill="none" stroke="#FFFFFF" stroke-width="2" stroke-miterlimit="10" d="M-1495.231-1217.271
				c17.999,0,17.999,12,35.998,12c18,0,18-12,35.999-12c18,0,18,12,35.999,12c18,0,18-12,36-12s18,12,36,12s18-12,36-12
				s18,12,35.999,12s17.999-12,35.999-12s18,12,35.999,12c18,0,18-12,36-12c17.998,0,17.998,12,35.996,12c18,0,18-12,36-12
				c17.998,0,17.998,12,35.996,12c17.998,0,17.998-12,35.995-12c17.998,0,17.998,12,35.996,12s17.998-12,35.996-12
				c17.999,0,17.999,12,35.998,12c18.001,0,18.001-12,36.002-12c17.999,0,17.999,12,35.998,12c18,0,18-12,36-12
				c18,0,18,12,35.999,12s18-12,36-12s18,12,36,12c18.001,0,18.001-12,36.002-12s18.001,12,36.003,12c17.999,0,17.999-12,35.998-12
				s17.999,12,35.998,12c18.001,0,18.001-12,36.003-12c18.002,0,18.002,12,36.003,12c18.002,0,18.002-12,36.005-12
				c18.001,0,18.001,12,36.003,12c18.004,0,18.004-12,36.009-12s18.004,12,36.009,12"/>
		</g>
		<g>
			<path fill="none" stroke="#FFFFFF" stroke-width="2" stroke-miterlimit="10" d="M-1495.292-1192.817
				c17.999,0,17.999,12,35.998,12s17.999-12,35.999-12s18,12,36,12s18-12,36-12s18,12,36,12s18-12,36-12
				c17.999,0,17.999,12,35.999,12s18-12,35.999-12s17.999,12,35.999,12c18,0,18-12,36-12c17.998,0,17.998,12,35.996,12
				c18,0,18-12,36-12c17.998,0,17.998,12,35.996,12c17.998,0,17.998-12,35.995-12s17.998,12,35.996,12s17.998-12,35.997-12
				c17.999,0,17.999,12,35.998,12c18.001,0,18.001-12,36.002-12c17.999,0,17.999,12,35.998,12c18,0,18-12,36-12
				c18,0,18,12,35.999,12c18,0,18-12,36-12c18,0,18,12,36,12c18.001,0,18.001-12,36.002-12c18.001,0,18.001,12,36.003,12
				c17.999,0,17.999-12,35.997-12c17.999,0,17.999,12,35.999,12c18.001,0,18.001-12,36.003-12s18.001,12,36.003,12
				c18.002,0,18.002-12,36.005-12c18.002,0,18.002,12,36.003,12c18.004,0,18.004-12,36.009-12s18.004,12,36.009,12"/>
		</g>
		<g>
			<path fill="none" stroke="#FFFFFF" stroke-width="2" stroke-miterlimit="10" d="M-1495.354-1168.364
				c17.999,0,17.999,12,35.998,12c18,0,18-12,35.999-12c18,0,18,12,35.999,12c18,0,18-12,36-12s18,12,36,12s18-12,36-12
				s18,12,35.999,12s17.999-12,35.999-12s18,12,35.999,12c18,0,18-12,36-12c17.998,0,17.998,12,35.996,12c18,0,18-12,36-12
				c17.998,0,17.998,12,35.996,12c17.998,0,17.998-12,35.995-12c17.998,0,17.998,12,35.996,12s17.998-12,35.996-12
				c17.999,0,17.999,12,35.998,12c18.001,0,18.001-12,36.002-12c17.999,0,17.999,12,35.998,12c18,0,18-12,36-12
				c18,0,18,12,35.999,12s18-12,36-12s18,12,36,12c18.001,0,18.001-12,36.002-12s18.001,12,36.003,12c17.999,0,17.999-12,35.998-12
				s17.999,12,35.998,12c18.001,0,18.001-12,36.003-12c18.002,0,18.002,12,36.003,12c18.002,0,18.002-12,36.005-12
				c18.001,0,18.001,12,36.003,12c18.004,0,18.004-12,36.009-12s18.004,12,36.009,12"/>
		</g>
		<g>
			<path fill="none" stroke="#FFFFFF" stroke-width="2" stroke-miterlimit="10" d="M-1495.415-1143.911
				c17.999,0,17.999,12,35.998,12c18,0,18-12,35.999-12c18,0,18,12,35.999,12c18,0,18-12,36-12s18,12,36,12s18-12,36-12
				s18,12,35.999,12s17.999-12,35.999-12s18,12,35.999,12c18,0,18-12,36-12c17.998,0,17.998,12,35.996,12c18,0,18-12,36-12
				c17.998,0,17.998,12,35.996,12c17.998,0,17.998-12,35.995-12c17.998,0,17.998,12,35.996,12s17.998-12,35.996-12
				c17.999,0,17.999,12,35.998,12c18.001,0,18.001-12,36.002-12c17.999,0,17.999,12,35.998,12c18,0,18-12,36-12
				c18,0,18,12,35.999,12s18-12,36-12s18,12,36,12c18.001,0,18.001-12,36.002-12s18.001,12,36.003,12c17.999,0,17.999-12,35.998-12
				s17.999,12,35.998,12c18.001,0,18.001-12,36.003-12c18.002,0,18.002,12,36.003,12c18.002,0,18.002-12,36.005-12
				c18.001,0,18.001,12,36.003,12c18.004,0,18.004-12,36.009-12s18.004,12,36.009,12"/>
		</g>
		<g>
			<path fill="none" stroke="#FFFFFF" stroke-width="2" stroke-miterlimit="10" d="M-1495.476-1119.457
				c17.999,0,17.999,12,35.998,12s17.999-12,35.999-12s18,12,36,12s18-12,36-12s18,12,36,12s18-12,36-12
				c17.999,0,17.999,12,35.999,12s18-12,35.999-12s17.999,12,35.999,12c18,0,18-12,36-12c17.998,0,17.998,12,35.996,12
				c18,0,18-12,36-12c17.998,0,17.998,12,35.996,12c17.998,0,17.998-12,35.995-12s17.998,12,35.996,12s17.998-12,35.997-12
				c17.999,0,17.999,12,35.998,12c18.001,0,18.001-12,36.002-12c17.999,0,17.999,12,35.998,12c18,0,18-12,36-12
				c18,0,18,12,35.999,12c18,0,18-12,36-12c18,0,18,12,36,12c18.001,0,18.001-12,36.002-12c18.001,0,18.001,12,36.003,12
				c17.999,0,17.999-12,35.997-12c17.999,0,17.999,12,35.999,12c18.001,0,18.001-12,36.003-12s18.001,12,36.003,12
				c18.002,0,18.002-12,36.005-12c18.002,0,18.002,12,36.003,12c18.004,0,18.004-12,36.009-12s18.004,12,36.009,12"/>
		</g>
		<g>
			<path fill="none" stroke="#FFFFFF" stroke-width="2" stroke-miterlimit="10" d="M-1495.537-1095.004
				c17.999,0,17.999,12,35.998,12c18,0,18-12,35.999-12c18,0,18,12,35.999,12c18,0,18-12,36-12s18,12,36,12s18-12,36-12
				s18,12,35.999,12s17.999-12,35.999-12s18,12,35.999,12c18,0,18-12,36-12c17.998,0,17.998,12,35.996,12c18,0,18-12,36-12
				c17.998,0,17.998,12,35.996,12c17.998,0,17.998-12,35.995-12c17.998,0,17.998,12,35.996,12s17.998-12,35.996-12
				c17.999,0,17.999,12,35.998,12c18.001,0,18.001-12,36.002-12c17.999,0,17.999,12,35.998,12c18,0,18-12,36-12
				c18,0,18,12,35.999,12s18-12,36-12s18,12,36,12c18.001,0,18.001-12,36.002-12s18.001,12,36.003,12c17.999,0,17.999-12,35.998-12
				s17.999,12,35.998,12c18.001,0,18.001-12,36.003-12c18.002,0,18.002,12,36.003,12c18.002,0,18.002-12,36.005-12
				c18.001,0,18.001,12,36.003,12c18.004,0,18.004-12,36.009-12s18.004,12,36.009,12"/>
		</g>
		<g>
			<path fill="none" stroke="#FFFFFF" stroke-width="2" stroke-miterlimit="10" d="M-1495.599-1070.551
				c17.999,0,17.999,12,35.998,12c18,0,18-12,35.999-12c18,0,18,12,35.999,12c18,0,18-12,36-12s18,12,36,12s18-12,36-12
				s18,12,35.999,12s17.999-12,35.999-12s18,12,35.999,12c18,0,18-12,36-12c17.998,0,17.998,12,35.996,12c18,0,18-12,36-12
				c17.998,0,17.998,12,35.996,12c17.998,0,17.998-12,35.995-12c17.998,0,17.998,12,35.996,12s17.998-12,35.996-12
				c17.999,0,17.999,12,35.998,12c18.001,0,18.001-12,36.002-12c17.999,0,17.999,12,35.998,12c18,0,18-12,36-12
				c18,0,18,12,35.999,12s18-12,36-12s18,12,36,12c18.001,0,18.001-12,36.002-12s18.001,12,36.003,12c17.999,0,17.999-12,35.998-12
				s17.999,12,35.998,12c18.001,0,18.001-12,36.003-12c18.002,0,18.002,12,36.003,12c18.002,0,18.002-12,36.005-12
				c18.001,0,18.001,12,36.003,12c18.004,0,18.004-12,36.009-12s18.004,12,36.009,12"/>
		</g>
		<g>
			<path fill="none" stroke="#FFFFFF" stroke-width="2" stroke-miterlimit="10" d="M-1495.66-1046.097c17.999,0,17.999,12,35.998,12
				s17.999-12,35.999-12s18,12,36,12s18-12,36-12s18,12,36,12s18-12,36-12c17.999,0,17.999,12,35.999,12s18-12,35.999-12
				s17.999,12,35.999,12c18,0,18-12,36-12c17.998,0,17.998,12,35.996,12c18,0,18-12,36-12c17.998,0,17.998,12,35.996,12
				c17.998,0,17.998-12,35.995-12s17.998,12,35.996,12s17.998-12,35.997-12c17.999,0,17.999,12,35.998,12
				c18.001,0,18.001-12,36.002-12c17.999,0,17.999,12,35.998,12c18,0,18-12,36-12c18,0,18,12,35.999,12c18,0,18-12,36-12
				c18,0,18,12,36,12c18.001,0,18.001-12,36.002-12c18.001,0,18.001,12,36.003,12c17.999,0,17.999-12,35.997-12
				c17.999,0,17.999,12,35.999,12c18.001,0,18.001-12,36.003-12s18.001,12,36.003,12c18.002,0,18.002-12,36.005-12
				c18.002,0,18.002,12,36.003,12c18.004,0,18.004-12,36.009-12s18.004,12,36.009,12"/>
		</g>
		<g>
			<path fill="none" stroke="#FFFFFF" stroke-width="2" stroke-miterlimit="10" d="M-1495.721-1021.644
				c17.999,0,17.999,12,35.998,12s17.999-12,35.999-12s18,12,36,12s18-12,36-12s18,12,36,12s18-12,36-12
				c17.999,0,17.999,12,35.999,12s18-12,35.999-12s17.999,12,35.999,12c18,0,18-12,36-12c17.998,0,17.998,12,35.996,12
				c18,0,18-12,36-12c17.998,0,17.998,12,35.996,12c17.998,0,17.998-12,35.995-12s17.998,12,35.996,12s17.998-12,35.997-12
				c17.999,0,17.999,12,35.998,12c18.001,0,18.001-12,36.002-12c17.999,0,17.999,12,35.998,12c18,0,18-12,36-12
				c18,0,18,12,35.999,12c18,0,18-12,36-12c18,0,18,12,36,12c18.001,0,18.001-12,36.002-12c18.001,0,18.001,12,36.003,12
				c17.999,0,17.999-12,35.997-12c17.999,0,17.999,12,35.999,12c18.001,0,18.001-12,36.003-12s18.001,12,36.003,12
				c18.002,0,18.002-12,36.005-12c18.002,0,18.002,12,36.003,12c18.004,0,18.004-12,36.009-12s18.004,12,36.009,12"/>
		</g>
		<g>
			<path fill="none" stroke="#FFFFFF" stroke-width="2" stroke-miterlimit="10" d="M-1495.782-997.19c17.999,0,17.999,12,35.998,12
				c18,0,18-12,35.999-12c18,0,18,12,35.999,12c18,0,18-12,36-12s18,12,36,12s18-12,36-12s18,12,35.999,12s17.999-12,35.999-12
				s18,12,35.999,12c18,0,18-12,36-12c17.998,0,17.998,12,35.996,12c18,0,18-12,36-12c17.998,0,17.998,12,35.996,12
				c17.998,0,17.998-12,35.995-12c17.998,0,17.998,12,35.996,12s17.998-12,35.996-12c17.999,0,17.999,12,35.998,12
				c18.001,0,18.001-12,36.002-12c17.999,0,17.999,12,35.998,12c18,0,18-12,36-12c18,0,18,12,35.999,12s18-12,36-12s18,12,36,12
				c18.001,0,18.001-12,36.002-12s18.001,12,36.003,12c17.999,0,17.999-12,35.998-12s17.999,12,35.998,12
				c18.001,0,18.001-12,36.003-12c18.002,0,18.002,12,36.003,12c18.002,0,18.002-12,36.005-12c18.001,0,18.001,12,36.003,12
				c18.004,0,18.004-12,36.009-12s18.004,12,36.009,12"/>
		</g>
		<g>
			<path fill="none" stroke="#FFFFFF" stroke-width="2" stroke-miterlimit="10" d="M-1495.843-972.736c17.999,0,17.999,12,35.998,12
				s17.999-12,35.999-12s18,12,36,12s18-12,36-12s18,12,36,12s18-12,36-12c17.999,0,17.999,12,35.999,12s18-12,35.999-12
				s17.999,12,35.999,12c18,0,18-12,36-12c17.998,0,17.998,12,35.996,12c18,0,18-12,36-12c17.998,0,17.998,12,35.996,12
				c17.998,0,17.998-12,35.995-12s17.998,12,35.996,12s17.998-12,35.997-12c17.999,0,17.999,12,35.998,12
				c18.001,0,18.001-12,36.002-12c17.999,0,17.999,12,35.998,12c18,0,18-12,36-12c18,0,18,12,35.999,12c18,0,18-12,36-12
				c18,0,18,12,36,12c18.001,0,18.001-12,36.002-12c18.001,0,18.001,12,36.003,12c17.999,0,17.999-12,35.997-12
				c17.999,0,17.999,12,35.999,12c18.001,0,18.001-12,36.003-12s18.001,12,36.003,12c18.002,0,18.002-12,36.005-12
				c18.002,0,18.002,12,36.003,12c18.004,0,18.004-12,36.009-12s18.004,12,36.009,12"/>
		</g>
		<g>
			<path fill="none" stroke="#FFFFFF" stroke-width="2" stroke-miterlimit="10" d="M-1495.905-948.283c17.999,0,17.999,12,35.998,12
				s17.999-12,35.999-12s18,12,36,12s18-12,36-12s18,12,36,12s18-12,36-12c17.999,0,17.999,12,35.999,12s18-12,35.999-12
				s17.999,12,35.999,12c18,0,18-12,36-12c17.998,0,17.998,12,35.996,12c18,0,18-12,36-12c17.998,0,17.998,12,35.996,12
				c17.998,0,17.998-12,35.995-12s17.998,12,35.996,12s17.998-12,35.997-12c17.999,0,17.999,12,35.998,12
				c18.001,0,18.001-12,36.002-12c17.999,0,17.999,12,35.998,12c18,0,18-12,36-12c18,0,18,12,35.999,12c18,0,18-12,36-12
				c18,0,18,12,36,12c18.001,0,18.001-12,36.002-12c18.001,0,18.001,12,36.003,12c17.999,0,17.999-12,35.997-12
				c17.999,0,17.999,12,35.999,12c18.001,0,18.001-12,36.003-12s18.001,12,36.003,12c18.002,0,18.002-12,36.005-12
				c18.002,0,18.002,12,36.003,12c18.004,0,18.004-12,36.009-12s18.004,12,36.009,12"/>
		</g>
		<g>
			<path fill="none" stroke="#FFFFFF" stroke-width="2" stroke-miterlimit="10" d="M-1495.966-923.829c17.999,0,17.999,12,35.998,12
				c18,0,18-12,35.999-12c18,0,18,12,35.999,12c18,0,18-12,36-12s18,12,36,12s18-12,36-12s18,12,35.999,12s17.999-12,35.999-12
				s18,12,35.999,12c18,0,18-12,36-12c17.998,0,17.998,12,35.996,12c18,0,18-12,36-12c17.998,0,17.998,12,35.996,12
				c17.998,0,17.998-12,35.995-12c17.998,0,17.998,12,35.996,12s17.998-12,35.996-12c17.999,0,17.999,12,35.998,12
				c18.001,0,18.001-12,36.002-12c17.999,0,17.999,12,35.998,12c18,0,18-12,36-12c18,0,18,12,35.999,12s18-12,36-12s18,12,36,12
				c18.001,0,18.001-12,36.002-12s18.001,12,36.003,12c17.999,0,17.999-12,35.998-12s17.999,12,35.998,12
				c18.001,0,18.001-12,36.003-12c18.002,0,18.002,12,36.003,12c18.002,0,18.002-12,36.005-12c18.001,0,18.001,12,36.003,12
				c18.004,0,18.004-12,36.009-12s18.004,12,36.009,12"/>
		</g>
		<g>
			<path fill="none" stroke="#FFFFFF" stroke-width="2" stroke-miterlimit="10" d="M-1496.027-899.376c17.999,0,17.999,12,35.998,12
				c18,0,18-12,35.999-12c18,0,18,12,35.999,12c18,0,18-12,36-12s18,12,36,12s18-12,36-12s18,12,35.999,12s17.999-12,35.999-12
				s18,12,35.999,12c18,0,18-12,36-12c17.998,0,17.998,12,35.996,12c18,0,18-12,36-12c17.998,0,17.998,12,35.996,12
				c17.998,0,17.998-12,35.995-12c17.998,0,17.998,12,35.996,12s17.998-12,35.996-12c17.999,0,17.999,12,35.998,12
				c18.001,0,18.001-12,36.002-12c17.999,0,17.999,12,35.998,12c18,0,18-12,36-12c18,0,18,12,35.999,12s18-12,36-12s18,12,36,12
				c18.001,0,18.001-12,36.002-12s18.001,12,36.003,12c17.999,0,17.999-12,35.998-12s17.999,12,35.998,12
				c18.001,0,18.001-12,36.003-12c18.002,0,18.002,12,36.003,12c18.002,0,18.002-12,36.005-12c18.001,0,18.001,12,36.003,12
				c18.004,0,18.004-12,36.009-12s18.004,12,36.009,12"/>
		</g>
		<g>
			<path fill="none" stroke="#FFFFFF" stroke-width="2" stroke-miterlimit="10" d="M-1496.088-874.923c17.999,0,17.999,12,35.998,12
				s17.999-12,35.999-12s18,12,36,12s18-12,36-12s18,12,36,12s18-12,36-12c17.999,0,17.999,12,35.999,12s18-12,35.999-12
				s17.999,12,35.999,12c18,0,18-12,36-12c17.998,0,17.998,12,35.996,12c18,0,18-12,36-12c17.998,0,17.998,12,35.996,12
				c17.998,0,17.998-12,35.995-12s17.998,12,35.996,12s17.998-12,35.997-12c17.999,0,17.999,12,35.998,12
				c18.001,0,18.001-12,36.002-12c17.999,0,17.999,12,35.998,12c18,0,18-12,36-12c18,0,18,12,35.999,12c18,0,18-12,36-12
				c18,0,18,12,36,12c18.001,0,18.001-12,36.002-12c18.001,0,18.001,12,36.003,12c17.999,0,17.999-12,35.997-12
				c17.999,0,17.999,12,35.999,12c18.001,0,18.001-12,36.003-12s18.001,12,36.003,12c18.002,0,18.002-12,36.005-12
				c18.002,0,18.002,12,36.003,12c18.004,0,18.004-12,36.009-12s18.004,12,36.009,12"/>
		</g>
		<g>
			<path fill="none" stroke="#FFFFFF" stroke-width="2" stroke-miterlimit="10" d="M-1496.149-850.469c17.999,0,17.999,12,35.998,12
				c18,0,18-12,35.999-12c18,0,18,12,35.999,12c18,0,18-12,36-12s18,12,36,12s18-12,36-12s18,12,35.999,12s17.999-12,35.999-12
				s18,12,35.999,12c18,0,18-12,36-12c17.998,0,17.998,12,35.996,12c18,0,18-12,36-12c17.998,0,17.998,12,35.996,12
				c17.998,0,17.998-12,35.995-12c17.998,0,17.998,12,35.996,12s17.998-12,35.996-12c17.999,0,17.999,12,35.998,12
				c18.001,0,18.001-12,36.002-12c17.999,0,17.999,12,35.998,12c18,0,18-12,36-12c18,0,18,12,35.999,12s18-12,36-12s18,12,36,12
				c18.001,0,18.001-12,36.002-12s18.001,12,36.003,12c17.999,0,17.999-12,35.998-12s17.999,12,35.998,12
				c18.001,0,18.001-12,36.003-12c18.002,0,18.002,12,36.003,12c18.002,0,18.002-12,36.005-12c18.001,0,18.001,12,36.003,12
				c18.004,0,18.004-12,36.009-12s18.004,12,36.009,12"/>
		</g>
		<g>
			<path fill="none" stroke="#FFFFFF" stroke-width="2" stroke-miterlimit="10" d="M-1496.211-826.016c17.999,0,17.999,12,35.998,12
				c18,0,18-12,35.999-12c18,0,18,12,35.999,12c18,0,18-12,36-12s18,12,36,12s18-12,36-12s18,12,35.999,12s17.999-12,35.999-12
				s18,12,35.999,12c18,0,18-12,36-12c17.998,0,17.998,12,35.996,12c18,0,18-12,36-12c17.998,0,17.998,12,35.996,12
				c17.998,0,17.998-12,35.995-12c17.998,0,17.998,12,35.996,12s17.998-12,35.996-12c17.999,0,17.999,12,35.998,12
				c18.001,0,18.001-12,36.002-12c17.999,0,17.999,12,35.998,12c18,0,18-12,36-12c18,0,18,12,35.999,12s18-12,36-12s18,12,36,12
				c18.001,0,18.001-12,36.002-12s18.001,12,36.003,12c17.999,0,17.999-12,35.998-12s17.999,12,35.998,12
				c18.001,0,18.001-12,36.003-12c18.002,0,18.002,12,36.003,12c18.002,0,18.002-12,36.005-12c18.001,0,18.001,12,36.003,12
				c18.004,0,18.004-12,36.009-12s18.004,12,36.009,12"/>
		</g>
		<g>
			<path fill="none" stroke="#FFFFFF" stroke-width="2" stroke-miterlimit="10" d="M-1496.272-801.563c17.999,0,17.999,12,35.998,12
				s17.999-12,35.999-12s18,12,36,12s18-12,36-12s18,12,36,12s18-12,36-12c17.999,0,17.999,12,35.999,12s18-12,35.999-12
				s17.999,12,35.999,12c18,0,18-12,36-12c17.998,0,17.998,12,35.996,12c18,0,18-12,36-12c17.998,0,17.998,12,35.996,12
				c17.998,0,17.998-12,35.995-12s17.998,12,35.996,12s17.998-12,35.997-12c17.999,0,17.999,12,35.998,12
				c18.001,0,18.001-12,36.002-12c17.999,0,17.999,12,35.998,12c18,0,18-12,36-12c18,0,18,12,35.999,12c18,0,18-12,36-12
				c18,0,18,12,36,12c18.001,0,18.001-12,36.002-12c18.001,0,18.001,12,36.003,12c17.999,0,17.999-12,35.997-12
				c17.999,0,17.999,12,35.999,12c18.001,0,18.001-12,36.003-12s18.001,12,36.003,12c18.002,0,18.002-12,36.005-12
				c18.002,0,18.002,12,36.003,12c18.004,0,18.004-12,36.009-12s18.004,12,36.009,12"/>
		</g>
		<g>
			<path fill="none" stroke="#FFFFFF" stroke-width="2" stroke-miterlimit="10" d="M-1496.333-777.108c17.999,0,17.999,12,35.998,12
				s17.999-12,35.999-12s18,12,36,12s18-12,36-12s18,12,36,12s18-12,36-12c17.999,0,17.999,12,35.999,12s18-12,35.999-12
				s17.999,12,35.999,12c18,0,18-12,36-12c17.998,0,17.998,12,35.996,12c18,0,18-12,36-12c17.998,0,17.998,12,35.996,12
				c17.998,0,17.998-12,35.995-12s17.998,12,35.996,12s17.998-12,35.997-12c17.999,0,17.999,12,35.998,12
				c18.001,0,18.001-12,36.002-12c17.999,0,17.999,12,35.998,12c18,0,18-12,36-12c18,0,18,12,35.999,12c18,0,18-12,36-12
				c18,0,18,12,36,12c18.001,0,18.001-12,36.002-12c18.001,0,18.001,12,36.003,12c17.999,0,17.999-12,35.997-12
				c17.999,0,17.999,12,35.999,12c18.001,0,18.001-12,36.003-12s18.001,12,36.003,12c18.002,0,18.002-12,36.005-12
				c18.002,0,18.002,12,36.003,12c18.004,0,18.004-12,36.009-12s18.004,12,36.009,12"/>
		</g>
		<g>
			<path fill="none" stroke="#FFFFFF" stroke-width="2" stroke-miterlimit="10" d="M-1496.395-752.655c17.999,0,17.999,12,35.998,12
				c18,0,18-12,35.999-12c18,0,18,12,35.999,12c18,0,18-12,36-12s18,12,36,12s18-12,36-12s18,12,35.999,12s17.999-12,35.999-12
				s18,12,35.999,12c18,0,18-12,36-12c17.998,0,17.998,12,35.996,12c18,0,18-12,36-12c17.998,0,17.998,12,35.996,12
				c17.998,0,17.998-12,35.995-12c17.998,0,17.998,12,35.996,12s17.998-12,35.996-12c17.999,0,17.999,12,35.998,12
				c18.001,0,18.001-12,36.002-12c17.999,0,17.999,12,35.998,12c18,0,18-12,36-12c18,0,18,12,35.999,12s18-12,36-12s18,12,36,12
				c18.001,0,18.001-12,36.002-12s18.001,12,36.003,12c17.999,0,17.999-12,35.998-12s17.999,12,35.998,12
				c18.001,0,18.001-12,36.003-12c18.002,0,18.002,12,36.003,12c18.002,0,18.002-12,36.005-12c18.001,0,18.001,12,36.003,12
				c18.004,0,18.004-12,36.009-12s18.004,12,36.009,12"/>
		</g>
		<g>
			<path fill="none" stroke="#FFFFFF" stroke-width="2" stroke-miterlimit="10" d="M-1496.456-728.201c17.999,0,17.999,12,35.998,12
				s17.999-12,35.999-12s18,12,36,12s18-12,36-12s18,12,36,12s18-12,36-12c17.999,0,17.999,12,35.999,12s18-12,35.999-12
				s17.999,12,35.999,12c18,0,18-12,36-12c17.998,0,17.998,12,35.996,12c18,0,18-12,36-12c17.998,0,17.998,12,35.996,12
				c17.998,0,17.998-12,35.995-12s17.998,12,35.996,12s17.998-12,35.997-12c17.999,0,17.999,12,35.998,12
				c18.001,0,18.001-12,36.002-12c17.999,0,17.999,12,35.998,12c18,0,18-12,36-12c18,0,18,12,35.999,12c18,0,18-12,36-12
				c18,0,18,12,36,12c18.001,0,18.001-12,36.002-12c18.001,0,18.001,12,36.003,12c17.999,0,17.999-12,35.997-12
				c17.999,0,17.999,12,35.999,12c18.001,0,18.001-12,36.003-12s18.001,12,36.003,12c18.002,0,18.002-12,36.005-12
				c18.002,0,18.002,12,36.003,12c18.004,0,18.004-12,36.009-12s18.004,12,36.009,12"/>
		</g>
		<g>
			<path fill="none" stroke="#FFFFFF" stroke-width="2" stroke-miterlimit="10" d="M-1496.517-703.748c17.999,0,17.999,12,35.998,12
				s17.999-12,35.999-12s18,12,36,12s18-12,36-12s18,12,36,12s18-12,36-12c17.999,0,17.999,12,35.999,12s18-12,35.999-12
				s17.999,12,35.999,12c18,0,18-12,36-12c17.998,0,17.998,12,35.996,12c18,0,18-12,36-12c17.998,0,17.998,12,35.996,12
				c17.998,0,17.998-12,35.995-12s17.998,12,35.996,12s17.998-12,35.997-12c17.999,0,17.999,12,35.998,12
				c18.001,0,18.001-12,36.002-12c17.999,0,17.999,12,35.998,12c18,0,18-12,36-12c18,0,18,12,35.999,12c18,0,18-12,36-12
				c18,0,18,12,36,12c18.001,0,18.001-12,36.002-12c18.001,0,18.001,12,36.003,12c17.999,0,17.999-12,35.997-12
				c17.999,0,17.999,12,35.999,12c18.001,0,18.001-12,36.003-12s18.001,12,36.003,12c18.002,0,18.002-12,36.005-12
				c18.002,0,18.002,12,36.003,12c18.004,0,18.004-12,36.009-12s18.004,12,36.009,12"/>
		</g>
		<g>
			<path fill="none" stroke="#FFFFFF" stroke-width="2" stroke-miterlimit="10" d="M-1496.578-679.295c17.999,0,17.999,12,35.998,12
				c18,0,18-12,35.999-12c18,0,18,12,35.999,12c18,0,18-12,36-12s18,12,36,12s18-12,36-12s18,12,35.999,12s17.999-12,35.999-12
				s18,12,35.999,12c18,0,18-12,36-12c17.998,0,17.998,12,35.996,12c18,0,18-12,36-12c17.998,0,17.998,12,35.996,12
				c17.998,0,17.998-12,35.995-12c17.998,0,17.998,12,35.996,12s17.998-12,35.996-12c17.999,0,17.999,12,35.998,12
				c18.001,0,18.001-12,36.002-12c17.999,0,17.999,12,35.998,12c18,0,18-12,36-12c18,0,18,12,35.999,12s18-12,36-12s18,12,36,12
				c18.001,0,18.001-12,36.002-12s18.001,12,36.003,12c17.999,0,17.999-12,35.998-12s17.999,12,35.998,12
				c18.001,0,18.001-12,36.003-12c18.002,0,18.002,12,36.003,12c18.002,0,18.002-12,36.005-12c18.001,0,18.001,12,36.003,12
				c18.004,0,18.004-12,36.009-12s18.004,12,36.009,12"/>
		</g>
		<g>
			<path fill="none" stroke="#FFFFFF" stroke-width="2" stroke-miterlimit="10" d="M-1496.639-654.841c17.999,0,17.999,12,35.998,12
				s17.999-12,35.999-12s18,12,36,12s18-12,36-12s18,12,36,12s18-12,36-12c17.999,0,17.999,12,35.999,12s18-12,35.999-12
				s17.999,12,35.999,12c18,0,18-12,36-12c17.998,0,17.998,12,35.996,12c18,0,18-12,36-12c17.998,0,17.998,12,35.996,12
				c17.998,0,17.998-12,35.995-12s17.998,12,35.996,12s17.998-12,35.997-12c17.999,0,17.999,12,35.998,12
				c18.001,0,18.001-12,36.002-12c17.999,0,17.999,12,35.998,12c18,0,18-12,36-12c18,0,18,12,35.999,12c18,0,18-12,36-12
				c18,0,18,12,36,12c18.001,0,18.001-12,36.002-12c18.001,0,18.001,12,36.003,12c17.999,0,17.999-12,35.997-12
				c17.999,0,17.999,12,35.999,12c18.001,0,18.001-12,36.003-12s18.001,12,36.003,12c18.002,0,18.002-12,36.005-12
				c18.002,0,18.002,12,36.003,12c18.004,0,18.004-12,36.009-12s18.004,12,36.009,12"/>
		</g>
		<g>
			<path fill="none" stroke="#FFFFFF" stroke-width="2" stroke-miterlimit="10" d="M-1496.701-630.388c17.999,0,17.999,12,35.998,12
				s17.999-12,35.999-12s18,12,36,12s18-12,36-12s18,12,36,12s18-12,36-12c17.999,0,17.999,12,35.999,12s18-12,35.999-12
				s17.999,12,35.999,12c18,0,18-12,36-12c17.998,0,17.998,12,35.996,12c18,0,18-12,36-12c17.998,0,17.998,12,35.996,12
				c17.998,0,17.998-12,35.995-12s17.998,12,35.996,12s17.998-12,35.997-12c17.999,0,17.999,12,35.998,12
				c18.001,0,18.001-12,36.002-12c17.999,0,17.999,12,35.998,12c18,0,18-12,36-12c18,0,18,12,35.999,12c18,0,18-12,36-12
				c18,0,18,12,36,12c18.001,0,18.001-12,36.002-12c18.001,0,18.001,12,36.003,12c17.999,0,17.999-12,35.997-12
				c17.999,0,17.999,12,35.999,12c18.001,0,18.001-12,36.003-12s18.001,12,36.003,12c18.002,0,18.002-12,36.005-12
				c18.002,0,18.002,12,36.003,12c18.004,0,18.004-12,36.009-12s18.004,12,36.009,12"/>
		</g>
		<g>
			<path fill="none" stroke="#FFFFFF" stroke-width="2" stroke-miterlimit="10" d="M-1496.762-605.935c17.999,0,17.999,12,35.998,12
				c18,0,18-12,35.999-12c18,0,18,12,35.999,12c18,0,18-12,36-12s18,12,36,12s18-12,36-12s18,12,35.999,12s17.999-12,35.999-12
				s18,12,35.999,12c18,0,18-12,36-12c17.998,0,17.998,12,35.996,12c18,0,18-12,36-12c17.998,0,17.998,12,35.996,12
				c17.998,0,17.998-12,35.995-12c17.998,0,17.998,12,35.996,12s17.998-12,35.996-12c17.999,0,17.999,12,35.998,12
				c18.001,0,18.001-12,36.002-12c17.999,0,17.999,12,35.998,12c18,0,18-12,36-12c18,0,18,12,35.999,12s18-12,36-12s18,12,36,12
				c18.001,0,18.001-12,36.002-12s18.001,12,36.003,12c17.999,0,17.999-12,35.998-12s17.999,12,35.998,12
				c18.001,0,18.001-12,36.003-12c18.002,0,18.002,12,36.003,12c18.002,0,18.002-12,36.005-12c18.001,0,18.001,12,36.003,12
				c18.004,0,18.004-12,36.009-12s18.004,12,36.009,12"/>
		</g>
		<g>
			<path fill="none" stroke="#FFFFFF" stroke-width="2" stroke-miterlimit="10" d="M-1496.823-581.48c17.999,0,17.999,12,35.998,12
				c18,0,18-12,35.999-12c18,0,18,12,35.999,12c18,0,18-12,36-12s18,12,36,12s18-12,36-12s18,12,35.999,12s17.999-12,35.999-12
				s18,12,35.999,12c18,0,18-12,36-12c17.998,0,17.998,12,35.996,12c18,0,18-12,36-12c17.998,0,17.998,12,35.996,12
				c17.998,0,17.998-12,35.995-12c17.998,0,17.998,12,35.996,12s17.998-12,35.996-12c17.999,0,17.999,12,35.998,12
				c18.001,0,18.001-12,36.002-12c17.999,0,17.999,12,35.998,12c18,0,18-12,36-12c18,0,18,12,35.999,12s18-12,36-12s18,12,36,12
				c18.001,0,18.001-12,36.002-12s18.001,12,36.003,12c17.999,0,17.999-12,35.998-12s17.999,12,35.998,12
				c18.001,0,18.001-12,36.003-12c18.002,0,18.002,12,36.003,12c18.002,0,18.002-12,36.005-12c18.001,0,18.001,12,36.003,12
				c18.004,0,18.004-12,36.009-12s18.004,12,36.009,12"/>
		</g>
		<g>
			<path fill="none" stroke="#FFFFFF" stroke-width="2" stroke-miterlimit="10" d="M-1496.884-557.027c17.999,0,17.999,12,35.998,12
				s17.999-12,35.999-12s18,12,36,12s18-12,36-12s18,12,36,12s18-12,36-12c17.999,0,17.999,12,35.999,12s18-12,35.999-12
				s17.999,12,35.999,12c18,0,18-12,36-12c17.998,0,17.998,12,35.996,12c18,0,18-12,36-12c17.998,0,17.998,12,35.996,12
				c17.998,0,17.998-12,35.995-12s17.998,12,35.996,12s17.998-12,35.997-12c17.999,0,17.999,12,35.998,12
				c18.001,0,18.001-12,36.002-12c17.999,0,17.999,12,35.998,12c18,0,18-12,36-12c18,0,18,12,35.999,12c18,0,18-12,36-12
				c18,0,18,12,36,12c18.001,0,18.001-12,36.002-12c18.001,0,18.001,12,36.003,12c17.999,0,17.999-12,35.997-12
				c17.999,0,17.999,12,35.999,12c18.001,0,18.001-12,36.003-12s18.001,12,36.003,12c18.002,0,18.002-12,36.005-12
				c18.002,0,18.002,12,36.003,12c18.004,0,18.004-12,36.009-12s18.004,12,36.009,12"/>
		</g>
		<g>
			<path fill="none" stroke="#FFFFFF" stroke-width="2" stroke-miterlimit="10" d="M-1496.945-532.573c17.999,0,17.999,12,35.998,12
				c18,0,18-12,35.999-12c18,0,18,12,35.999,12c18,0,18-12,36-12s18,12,36,12s18-12,36-12s18,12,35.999,12s17.999-12,35.999-12
				s18,12,35.999,12c18,0,18-12,36-12c17.998,0,17.998,12,35.996,12c18,0,18-12,36-12c17.998,0,17.998,12,35.996,12
				c17.998,0,17.998-12,35.995-12c17.998,0,17.998,12,35.996,12s17.998-12,35.996-12c17.999,0,17.999,12,35.998,12
				c18.001,0,18.001-12,36.002-12c17.999,0,17.999,12,35.998,12c18,0,18-12,36-12c18,0,18,12,35.999,12s18-12,36-12s18,12,36,12
				c18.001,0,18.001-12,36.002-12s18.001,12,36.003,12c17.999,0,17.999-12,35.998-12s17.999,12,35.998,12
				c18.001,0,18.001-12,36.003-12c18.002,0,18.002,12,36.003,12c18.002,0,18.002-12,36.005-12c18.001,0,18.001,12,36.003,12
				c18.004,0,18.004-12,36.009-12s18.004,12,36.009,12"/>
		</g>
		<g>
			<path fill="none" stroke="#FFFFFF" stroke-width="2" stroke-miterlimit="10" d="M-1497.007-508.12c17.999,0,17.999,12,35.998,12
				c18,0,18-12,35.999-12c18,0,18,12,35.999,12c18,0,18-12,36-12s18,12,36,12s18-12,36-12s18,12,35.999,12s17.999-12,35.999-12
				s18,12,35.999,12c18,0,18-12,36-12c17.998,0,17.998,12,35.996,12c18,0,18-12,36-12c17.998,0,17.998,12,35.996,12
				c17.998,0,17.998-12,35.995-12c17.998,0,17.998,12,35.996,12s17.998-12,35.996-12c17.999,0,17.999,12,35.998,12
				c18.001,0,18.001-12,36.002-12c17.999,0,17.999,12,35.998,12c18,0,18-12,36-12c18,0,18,12,35.999,12s18-12,36-12s18,12,36,12
				c18.001,0,18.001-12,36.002-12s18.001,12,36.003,12c17.999,0,17.999-12,35.998-12s17.999,12,35.998,12
				c18.001,0,18.001-12,36.003-12c18.002,0,18.002,12,36.003,12c18.002,0,18.002-12,36.005-12c18.001,0,18.001,12,36.003,12
				c18.004,0,18.004-12,36.009-12s18.004,12,36.009,12"/>
		</g>
		<g>
			<path fill="none" stroke="#FFFFFF" stroke-width="2" stroke-miterlimit="10" d="M-1497.068-483.667c17.999,0,17.999,12,35.998,12
				s17.999-12,35.999-12s18,12,36,12s18-12,36-12s18,12,36,12s18-12,36-12c17.999,0,17.999,12,35.999,12s18-12,35.999-12
				s17.999,12,35.999,12c18,0,18-12,36-12c17.998,0,17.998,12,35.996,12c18,0,18-12,36-12c17.998,0,17.998,12,35.996,12
				c17.998,0,17.998-12,35.995-12s17.998,12,35.996,12s17.998-12,35.997-12c17.999,0,17.999,12,35.998,12
				c18.001,0,18.001-12,36.002-12c17.999,0,17.999,12,35.998,12c18,0,18-12,36-12c18,0,18,12,35.999,12c18,0,18-12,36-12
				c18,0,18,12,36,12c18.001,0,18.001-12,36.002-12c18.001,0,18.001,12,36.003,12c17.999,0,17.999-12,35.997-12
				c17.999,0,17.999,12,35.999,12c18.001,0,18.001-12,36.003-12s18.001,12,36.003,12c18.002,0,18.002-12,36.005-12
				c18.002,0,18.002,12,36.003,12c18.004,0,18.004-12,36.009-12s18.004,12,36.009,12"/>
		</g>
		<g>
			<path fill="none" stroke="#FFFFFF" stroke-width="2" stroke-miterlimit="10" d="M-1497.129-459.213c17.999,0,17.999,12,35.998,12
				s17.999-12,35.999-12s18,12,36,12s18-12,36-12s18,12,36,12s18-12,36-12c17.999,0,17.999,12,35.999,12s18-12,35.999-12
				s17.999,12,35.999,12c18,0,18-12,36-12c17.998,0,17.998,12,35.996,12c18,0,18-12,36-12c17.998,0,17.998,12,35.996,12
				c17.998,0,17.998-12,35.995-12s17.998,12,35.996,12s17.998-12,35.997-12c17.999,0,17.999,12,35.998,12
				c18.001,0,18.001-12,36.002-12c17.999,0,17.999,12,35.998,12c18,0,18-12,36-12c18,0,18,12,35.999,12c18,0,18-12,36-12
				c18,0,18,12,36,12c18.001,0,18.001-12,36.002-12c18.001,0,18.001,12,36.003,12c17.999,0,17.999-12,35.997-12
				c17.999,0,17.999,12,35.999,12c18.001,0,18.001-12,36.003-12s18.001,12,36.003,12c18.002,0,18.002-12,36.005-12
				c18.002,0,18.002,12,36.003,12c18.004,0,18.004-12,36.009-12s18.004,12,36.009,12"/>
		</g>
		<g>
			<path fill="none" stroke="#FFFFFF" stroke-width="2" stroke-miterlimit="10" d="M-1497.19-434.76c17.999,0,17.999,12,35.998,12
				c18,0,18-12,35.999-12c18,0,18,12,35.999,12c18,0,18-12,36-12s18,12,36,12s18-12,36-12s18,12,35.999,12s17.999-12,35.999-12
				s18,12,35.999,12c18,0,18-12,36-12c17.998,0,17.998,12,35.996,12c18,0,18-12,36-12c17.998,0,17.998,12,35.996,12
				c17.998,0,17.998-12,35.995-12c17.998,0,17.998,12,35.996,12s17.998-12,35.996-12c17.999,0,17.999,12,35.998,12
				c18.001,0,18.001-12,36.002-12c17.999,0,17.999,12,35.998,12c18,0,18-12,36-12c18,0,18,12,35.999,12s18-12,36-12s18,12,36,12
				c18.001,0,18.001-12,36.002-12s18.001,12,36.003,12c17.999,0,17.999-12,35.998-12s17.999,12,35.998,12
				c18.001,0,18.001-12,36.003-12c18.002,0,18.002,12,36.003,12c18.002,0,18.002-12,36.005-12c18.001,0,18.001,12,36.003,12
				c18.004,0,18.004-12,36.009-12s18.004,12,36.009,12"/>
		</g>
	</g>
	<path fill="#FFFFFF" d="M-1494.986-1299.085v639.531h1173.016v-639.531H-1494.986z M-927.856-762.729
		c-126.247,0-228.591-102.344-228.591-228.591s102.344-228.591,228.591-228.591s228.591,102.344,228.591,228.591
		S-801.609-762.729-927.856-762.729z"/>
	<path fill="#604887" d="M-623.714-1762.975c-4.736-0.278-15.087-0.077-21.092,7.864c-4.662,6.166-4.888,16.47-4.836,19.693h-0.08
		c0.052-3.224-0.174-13.527-4.836-19.693c-6.005-7.941-16.355-8.143-21.092-7.864c-22.06,1.298-39.533-0.077-39.533-0.077
		s0,11.401,7.465,20.217c6.254,7.386,18.738,8.418,32.068,8.418c5.079,0,11.49,0,16.664,0c-0.874,9.507-9.226,83.884-56.545,83.884
		c-45.204,0-46.09-56.279-46.09-56.279v-112.209c0-20.367-16.511-36.878-36.878-36.878h-289.316
		c-20.367,0-36.877,16.511-36.877,36.878v213.892c0,20.366,16.511,36.878,36.877,36.878H-798.5c0,0,74.905,2.756,118.319-31.893
		c49.5-39.505,40.988-124.165,39.776-134.272c5.178,0,11.603,0,16.69,0c13.33,0,25.813-1.032,32.068-8.418
		c7.465-8.815,7.465-20.217,7.465-20.217S-601.655-1761.677-623.714-1762.975z"/>
	<path opacity="0.2" d="M-811.01-1677.828c2.393,43.55-24.98,66.141-58.216,66.141c-32.115,0-57.127-29.479-58.863-61.387
		L-811.01-1677.828z"/>
	<path fill="#604887" d="M-819.602-1673.861c0,30.221-24.499,54.721-54.72,54.721c-29.201,0-53.189-25.914-54.767-54.721H-819.602z"
		/>
	<path opacity="0.2" d="M-1081.48-1707.224c5.897-3.114,13.13-6.687,27.865-6.687c17.065,0,25.742,5.38,28.433,6.751
		c2.961,18.492,18.981,32.623,38.308,32.623c19.036,0,34.859-13.712,38.16-31.795h43.289l0.043,0.032h8.731
		c3.599,0,6.519,3.05,6.519,6.648c0,1.072-0.266,2.079-0.727,2.97c-1.08,1.242-1.738,2.86-1.738,4.636
		c0,3.906,3.168,7.073,7.074,7.073c2.1,0,3.979-0.919,5.273-2.37l0.016,0.012c0.035-0.044,0.064-0.093,0.098-0.137
		c0.244-0.287,0.463-0.596,0.66-0.919c2.24-3.283,3.57-7.235,3.57-11.512c0-11.319-9.178-20.497-20.496-20.497
		c-0.453,0-0.9,0.017-1.345,0.046h-50.968c-3.301-18.083-19.124-31.795-38.16-31.795c-17.839,0-32.856,12.042-37.392,28.438
		c-6.799-2.367-18.065-5.264-32.431-5.264c-14.382,0-26.224,2.554-33.864,4.826 M-986.875-1689.536
		c-13.125,0-23.803-10.679-23.803-23.804s10.678-23.804,23.803-23.804c13.125,0,23.804,10.679,23.804,23.804
		S-973.749-1689.536-986.875-1689.536z"/>
	<g opacity="0.3">
		<circle fill="#FFFFFF" cx="-1118.525" cy="-1716.831" r="38.803"/>
	</g>
	<g opacity="0.3">
		<circle fill="#FFFFFF" cx="-987.418" cy="-1716.831" r="38.803"/>
	</g>
	<circle fill="#2D2D2D" cx="-987.915" cy="-1718.398" r="9.054"/>
	<path fill="#2D2D2D" d="M-972.709-1722.587c0,0,1.53-8.651-6.751-14.259c-6.977-4.725-15.461,2.2-1.301,6.332
		C-973.618-1728.429-972.709-1722.587-972.709-1722.587z"/>
	<path fill="#262B2B" d="M-896.946-1723.885c-0.452,0-0.9,0.017-1.344,0.046h-50.968c-3.301-18.083-19.124-31.795-38.16-31.795
		c-17.633,0-32.51,11.767-37.231,27.873c-6.067-2.239-15.728-4.699-28.965-4.699c-12.419,0-21.688,2.166-27.796,4.282
		c-4.854-15.894-19.632-27.456-37.114-27.456c-21.43,0-38.803,17.373-38.803,38.804s17.373,38.804,38.803,38.804
		c19.756,0,36.052-14.768,38.48-33.864c4.046-2.095,12.791-5.569,26.43-5.569c15.483,0,24.661,4.477,27.813,6.33
		c2.758,18.728,18.89,33.104,38.383,33.104c19.036,0,34.859-13.712,38.16-31.795h43.29l0.043,0.032h8.731
		c3.598,0,6.518,3.05,6.518,6.648c0,1.072-0.266,2.079-0.726,2.97c-1.08,1.242-1.738,2.86-1.738,4.636
		c0,3.906,3.167,7.073,7.073,7.073c2.1,0,3.979-0.919,5.274-2.37l0.016,0.012c0.034-0.044,0.064-0.093,0.098-0.137
		c0.244-0.287,0.463-0.596,0.659-0.919c2.241-3.283,3.571-7.235,3.571-11.512C-876.449-1714.707-885.627-1723.885-896.946-1723.885z
		 M-1118.525-1693.026c-13.125,0-23.803-10.679-23.803-23.804s10.678-23.804,23.803-23.804c13.125,0,23.804,10.679,23.804,23.804
		S-1105.399-1693.026-1118.525-1693.026z M-987.418-1693.026c-13.125,0-23.803-10.679-23.803-23.804s10.678-23.804,23.803-23.804
		c13.125,0,23.804,10.679,23.804,23.804S-974.293-1693.026-987.418-1693.026z"/>
	<circle fill="#2D2D2D" cx="-1111.838" cy="-1718.423" r="9.054"/>
	<path fill="#2D2D2D" d="M-1128.169-1722.209c0,0-2.103-8.53,5.787-14.676c6.647-5.179,15.573,1.166,1.72,6.231
		C-1127.651-1728.099-1128.169-1722.209-1128.169-1722.209z"/>
	<g display="none">
		<path display="inline" fill="#EDEDED" d="M-1080.283-1660.182c-1.926,0.107-3.691,0.314-5.305,0.618v35.797
			c2.381,1.271,4.759,2.138,6.812,2.702c1.101,0.303,2.426,0.566,3.886,0.798v-39.869
			C-1076.968-1660.229-1078.836-1660.263-1080.283-1660.182z"/>
		<path display="inline" fill="#EDEDED" d="M-1072.917-1660.033v40.048c3.334,0.431,7.144,0.714,10.698,0.888v-40.15
			C-1065.714-1659.515-1069.506-1659.832-1072.917-1660.033z"/>
		<path display="inline" fill="#EDEDED" d="M-1026.947-1660.182c-2.023-0.113-4.85-0.009-7.958,0.184v40.085
			c2.482-0.303,4.737-0.68,6.452-1.151c1.31-0.36,2.754-0.849,4.246-1.481v-37.404
			C-1025.083-1660.051-1025.996-1660.128-1026.947-1660.182z"/>
		<path display="inline" fill="#EDEDED" d="M-1047.576-1659.06v40.071c3.37-0.121,7.177-0.345,10.698-0.704v-40.175
			C-1040.461-1659.616-1044.263-1659.289-1047.576-1659.06z"/>
		<path display="inline" fill="#EDEDED" d="M-1053.615-1658.784c-1.728,0-4.052-0.134-6.632-0.318v40.091
			c2.53,0.099,4.847,0.143,6.632,0.143c1.161,0,2.545-0.019,4.066-0.058v-40.006
			C-1051.094-1658.842-1052.483-1658.784-1053.615-1658.784z"/>
		<path display="inline" fill="#EDEDED" d="M-1097.985-1639.549c1.535,7.079,5.815,11.677,10.425,14.619v-34.19
			C-1097.081-1656.633-1100.274-1650.104-1097.985-1639.549z"/>
		<path display="inline" fill="#EDEDED" d="M-1022.235-1659.665v36.197c5.507-2.787,11.172-7.697,12.99-16.081
			C-1006.762-1651-1010.733-1657.712-1022.235-1659.665z"/>
		<path display="inline" fill="#EDEDED" d="M-1087.561-1659.12v34.19c0.654,0.418,1.312,0.811,1.973,1.163v-35.797
			C-1086.274-1659.434-1086.93-1659.285-1087.561-1659.12z"/>
		<path display="inline" opacity="0.2" d="M-1087.561-1659.12v34.19c0.654,0.418,1.312,0.811,1.973,1.163v-35.797
			C-1086.274-1659.434-1086.93-1659.285-1087.561-1659.12z"/>
		<path display="inline" fill="#EDEDED" d="M-1074.89-1660.136v39.869c0.633,0.101,1.292,0.193,1.973,0.281v-40.048
			C-1073.594-1660.073-1074.25-1660.106-1074.89-1660.136z"/>
		<path display="inline" opacity="0.2" d="M-1074.89-1660.136v39.869c0.633,0.101,1.292,0.193,1.973,0.281v-40.048
			C-1073.594-1660.073-1074.25-1660.106-1074.89-1660.136z"/>
		<path display="inline" fill="#EDEDED" d="M-1062.22-1659.248v40.15c0.67,0.032,1.327,0.062,1.973,0.086v-40.091
			C-1060.891-1659.148-1061.548-1659.197-1062.22-1659.248z"/>
		<path display="inline" opacity="0.2" d="M-1062.22-1659.248v40.15c0.67,0.032,1.327,0.062,1.973,0.086v-40.091
			C-1060.891-1659.148-1061.548-1659.197-1062.22-1659.248z"/>
		<path display="inline" fill="#EDEDED" d="M-1049.549-1658.933v40.006c0.635-0.017,1.296-0.037,1.973-0.062v-40.071
			C-1048.258-1659.013-1048.915-1658.971-1049.549-1658.933z"/>
		<path display="inline" opacity="0.2" d="M-1049.549-1658.933v40.006c0.635-0.017,1.296-0.037,1.973-0.062v-40.071
			C-1048.258-1659.013-1048.915-1658.971-1049.549-1658.933z"/>
		<path display="inline" fill="#EDEDED" d="M-1036.878-1659.867v40.175c0.671-0.068,1.328-0.142,1.973-0.221v-40.085
			C-1035.553-1659.958-1036.211-1659.914-1036.878-1659.867z"/>
		<path display="inline" opacity="0.2" d="M-1036.878-1659.867v40.175c0.671-0.068,1.328-0.142,1.973-0.221v-40.085
			C-1035.553-1659.958-1036.211-1659.914-1036.878-1659.867z"/>
		<path display="inline" fill="#EDEDED" d="M-1024.208-1659.95v37.404c0.651-0.275,1.31-0.586,1.973-0.922v-36.197
			C-1022.872-1659.773-1023.525-1659.871-1024.208-1659.95z"/>
		<path display="inline" opacity="0.2" d="M-1024.208-1659.95v37.404c0.651-0.275,1.31-0.586,1.973-0.922v-36.197
			C-1022.872-1659.773-1023.525-1659.871-1024.208-1659.95z"/>
	</g>
	<path opacity="0.2" d="M-1038.469-1851.849c0,0,4.712,4.338,13.169,4.338c9.729,0,13.773-4.338,13.773-4.338
		s-3.987,8.93-13.471,8.93C-1034.361-1842.919-1038.469-1851.849-1038.469-1851.849z"/>
	<path fill="#8BAFAE" d="M-1007.99-1907.514c-5.134,0-9.08,1.407-12.094,3.361c-6.924,4.488-8.912,11.882-8.912,11.882
		s-2.578-10.159-18.161-10.159c-15.417,0-23.5,11.682-23.5,19.25c0,5.229,1.469,8.651,3.582,10.871
		c3.005,3.157,7.315,3.879,10.571,3.879c9.348,0,8.711-10.774,8.711-10.774s7.387-1.059,10.887,1.774
		c3.156,2.555,3.876,5.454,4.014,7.063c0.065,0.77,0,1.249,0,1.249v15.384c0,0,0.357,1.885,6.267,1.885
		c2.792,0,4.615-0.217,5.825-0.502c2.375-0.559,2.35-1.383,2.35-1.383v-14.238c0,0,0-5.73,2.521-8.939s5.731-3.209,5.731-3.209
		s3.292,5.857,8.292,5.773c8.018-0.134,13.231-3.224,13.833-12.333C-987.49-1895.513-990.406-1907.514-1007.99-1907.514z"/>
	<path opacity="0.2" d="M-1011.527-1884.382c0,0-6.13,1.813-8.246,7.331c-1.516,3.951-1.169,19.903-1.028,24.7
		c2.375-0.559,2.35-1.383,2.35-1.383v-14.238c0,0,0-5.73,2.521-8.939s5.731-3.209,5.731-3.209s-0.683-1.269-1-2.27
		C-1011.484-1883.291-1011.527-1884.382-1011.527-1884.382z"/>
	<path opacity="0.2" d="M-1036.554-1880.169c-4.742-4.236-14.603-2.656-14.603-2.656s2.632,8.742-2.669,11.354
		c-7.979,3.933-12.637-0.236-13.249-0.838c3.005,3.157,7.315,3.879,10.571,3.879c9.348,0,8.711-10.774,8.711-10.774
		s7.387-1.059,10.887,1.774c3.156,2.555,3.876,5.454,4.014,7.063l0,0C-1032.893-1870.367-1032.913-1876.917-1036.554-1880.169z"/>
	<path opacity="0.2" d="M-1028.097-1888.744c0,0-0.261-4.886,2.727-9.589c2.289-3.602,4.801-5.469,5.281-5.806
		c-6.924,4.488-8.912,11.882-8.912,11.882s0.207,0.739,0.452,1.707C-1028.354-1889.784-1028.097-1888.744-1028.097-1888.744z"/>
	<g>
		<path fill="#8BAFAE" d="M-1036.906-1925.347c-1.139-1.344-2.295-2.392-3.447-3.194c-6.264-4.364-12.371-1.423-14.553,1.111
			c-2.583,3-6.77,13.197,8.833,17.25c7.457,1.937,11.886,4.824,14.3,6.909c1.741,1.503,2.442,2.591,2.442,2.591
			S-1027.656-1914.431-1036.906-1925.347z"/>
		<path opacity="0.2" d="M-1029.331-1900.681c0,0,1.675-13.75-7.575-24.666c-1.139-1.344-2.295-2.392-3.447-3.194
			c0.028,0.024,5.458,4.626,7.015,11.273c1.954,8.34,1.61,13.455,1.565,13.996
			C-1030.032-1901.769-1029.331-1900.681-1029.331-1900.681z"/>
	</g>
	<g>
		<path fill="#8BAFAE" d="M-1015.925-1924.353c-0.276-2.287-1.18-4.315-3.231-4.828c-5.701-1.425-7.5,2.667-7.833,5.833
			c-0.506,4.808,0.457,9.083,0.624,12.167c0.061,1.115,0.028,2.579-0.038,3.994c-0.116,2.497-0.335,4.84-0.335,4.84
			s7.833-6.942,10.333-15.858C-1015.966-1919.775-1015.663-1922.181-1015.925-1924.353z"/>
		<path opacity="0.2" d="M-1016.417-1918.206c0.44-1.57,0.743-3.975,0.481-6.147c0.001,0.232-0.009,7.573-8.227,18.013
			c-2.221,2.822-2.252-0.848-2.252-0.848l0,0c-0.116,2.497-0.335,4.84-0.335,4.84S-1018.917-1909.289-1016.417-1918.206z"/>
	</g>
	<path display="none" fill="#EDEDED" d="M-1124.692-1618.961c12.025,7.273,24.347,7.273,24.347,7.273s35.048,0,46.73,0
		s46.73,0,46.73,0s14.392,0,27.247-9.181c7.542-5.386,17.491-19.055,16.465-24.817c-0.775-4.352-5.61-5.825-8.209-2.084
		c-1.444,2.078,0.418,5.138,0.418,5.138s2.079,6.434-9.875,11.702c-9.634,4.246-47.216-0.93-72.776-0.93
		c-27.326,0-59.517,5.814-71.077,0.93"/>
	<path fill="#FFFFFF" d="M-1061.386-1631.173c0,0.908-1,1.644-2.235,1.644h-25.77c-1.234,0-2.235-0.735-2.235-1.644v-17.944h30.24
		V-1631.173z"/>
	<path fill="#FFFFFF" d="M-1029.331-1631.173c0,0.908-1,1.644-2.235,1.644h-25.77c-1.234,0-2.235-0.735-2.235-1.644v-17.944h30.24
		V-1631.173z"/>
	<path opacity="0.2" d="M-991.331-1645.3c0,0,11.008-0.111,16.396-1.868c8.458-2.758,10.368-13.408,10.368-13.408
		s-2.18,6.453-11.831,9.601c-5.387,1.757-16.396,1.868-16.396,1.868h-131.899v3.808l33.083-0.004l-0.015,3.004
		c0,0,0.594-1.598,15.12-1.598c14.983,0,15.12,1.598,15.12,1.598h1.815c0,0,0.324-1.598,14.885-1.598
		c14.114,0,15.354,1.598,15.354,1.598l0.002-2.988L-991.331-1645.3z"/>
	<g>
		<text transform="matrix(1 0 0 1 -1172.4521 -1460.9717)" fill="#569496" font-family="'BebasNeue'" font-size="98.4997">#steviewhale</text>
	</g>
	<g>
		<text transform="matrix(1 0 0 1 -1176.5996 -1465.1201)" fill="#D15A85" font-family="'BebasNeue'" font-size="98.4997">#steviewhale</text>
	</g>
	<rect x="-1087.459" y="-996.183" fill="#2D2D2D" width="35.517" height="11.322"/>
	<path fill="#604887" d="M-674.958-1026.324c-3.681-0.216-11.725-0.06-16.392,6.112c-3.623,4.792-3.799,12.799-3.758,15.305h-0.063
		c0.04-2.506-0.135-10.513-3.759-15.305c-4.667-6.172-12.711-6.328-16.392-6.112c-17.144,1.009-30.723-0.06-30.723-0.06
		s0,8.86,5.801,15.711c4.861,5.74,14.563,6.543,24.922,6.543c3.947,0,8.93,0,12.951,0c-0.679,7.388-7.17,65.191-43.945,65.191
		c-35.131,0-35.819-43.738-35.819-43.738v-87.205c0-15.828-12.832-28.66-28.66-28.66h-224.845c-15.829,0-28.66,12.832-28.66,28.66
		v166.229c0,15.828,12.831,28.66,28.66,28.66h224.845c0,0,58.213,2.142,91.953-24.785c38.469-30.702,31.854-96.497,30.913-104.352
		c4.024,0,9.017,0,12.971,0c10.359,0,20.061-0.803,24.922-6.543c5.801-6.851,5.801-15.711,5.801-15.711
		S-657.814-1025.315-674.958-1026.324z"/>
	<path opacity="0.2" d="M-820.517-960.151c1.859,33.845-19.414,51.401-45.243,51.401c-24.958,0-44.397-22.909-45.746-47.707
		L-820.517-960.151z"/>
	<path fill="#604887" d="M-827.194-957.068c0,23.486-19.04,42.526-42.526,42.526c-22.694,0-41.336-20.14-42.563-42.526H-827.194z"/>
	<path opacity="0.2" d="M-1030.716-982.997c4.583-2.42,10.205-5.196,21.656-5.196c13.262,0,20.006,4.182,22.097,5.247
		c2.301,14.371,14.752,25.354,29.771,25.354c14.794,0,27.091-10.657,29.656-24.71h33.643l0.033,0.024h6.786
		c2.797,0,5.066,2.37,5.066,5.167c0,0.834-0.206,1.616-0.564,2.309c-0.839,0.965-1.351,2.223-1.351,3.603
		c0,3.035,2.462,5.497,5.498,5.497c1.632,0,3.092-0.714,4.098-1.842l0.012,0.009c0.027-0.034,0.05-0.072,0.076-0.106
		c0.19-0.223,0.36-0.463,0.513-0.714c1.741-2.552,2.775-5.623,2.775-8.946c0-8.797-7.133-15.93-15.929-15.93
		c-0.353,0-0.7,0.013-1.045,0.035h-39.61c-2.565-14.053-14.862-24.709-29.656-24.709c-13.864,0-25.535,9.358-29.06,22.101
		c-5.284-1.84-14.04-4.091-25.204-4.091c-11.177,0-20.38,1.984-26.318,3.75 M-957.192-969.251c-10.2,0-18.499-8.299-18.499-18.499
		s8.299-18.499,18.499-18.499c10.201,0,18.499,8.299,18.499,18.499S-946.992-969.251-957.192-969.251z"/>
	<g opacity="0.3">
		<circle fill="#FFFFFF" cx="-1059.506" cy="-990.463" r="30.156"/>
	</g>
	<g opacity="0.3">
		<circle fill="#FFFFFF" cx="-957.615" cy="-990.463" r="30.156"/>
	</g>
	<circle fill="#2D2D2D" cx="-958.001" cy="-991.682" r="7.037"/>
	<path fill="#2D2D2D" d="M-946.184-994.937c0,0,1.189-6.724-5.247-11.081c-5.422-3.672-12.016,1.71-1.011,4.921
		C-946.89-999.477-946.184-994.937-946.184-994.937z"/>
	<path fill="#262B2B" d="M-887.304-995.945c-0.352,0-0.699,0.013-1.045,0.036h-39.61c-2.565-14.054-14.863-24.71-29.657-24.71
		c-13.704,0-25.266,9.145-28.935,21.662c-4.715-1.74-12.223-3.652-22.511-3.652c-9.652,0-16.854,1.684-21.602,3.328
		c-3.772-12.352-15.257-21.338-28.844-21.338c-16.655,0-30.156,13.502-30.156,30.157c0,16.654,13.501,30.156,30.156,30.156
		c15.354,0,28.018-11.477,29.905-26.318c3.145-1.628,9.941-4.328,20.541-4.328c12.033,0,19.166,3.479,21.616,4.92
		c2.144,14.554,14.68,25.727,29.83,25.727c14.794,0,27.091-10.656,29.657-24.71h33.643l0.033,0.025h6.785
		c2.796,0,5.066,2.37,5.066,5.167c0,0.833-0.207,1.615-0.564,2.308c-0.839,0.966-1.351,2.223-1.351,3.603
		c0,3.036,2.461,5.497,5.497,5.497c1.632,0,3.092-0.714,4.099-1.842l0.012,0.009c0.026-0.034,0.05-0.071,0.076-0.105
		c0.19-0.224,0.36-0.463,0.513-0.715c1.742-2.551,2.775-5.623,2.775-8.946C-871.374-988.813-878.507-995.945-887.304-995.945z
		 M-1059.506-971.963c-10.2,0-18.499-8.299-18.499-18.499c0-10.201,8.298-18.5,18.499-18.5c10.201,0,18.5,8.299,18.5,18.5
		C-1041.007-980.262-1049.306-971.963-1059.506-971.963z M-957.615-971.963c-10.2,0-18.499-8.299-18.499-18.499
		c0-10.201,8.299-18.5,18.499-18.5c10.201,0,18.5,8.299,18.5,18.5C-939.116-980.262-947.415-971.963-957.615-971.963z"/>
	<circle fill="#2D2D2D" cx="-1054.309" cy="-991.7" r="7.037"/>
	<path fill="#2D2D2D" d="M-1067.001-994.643c0,0-1.634-6.63,4.497-11.405c5.167-4.025,12.103,0.906,1.337,4.843
		C-1066.599-999.22-1067.001-994.643-1067.001-994.643z"/>
	<path opacity="0.2" d="M-997.29-1095.394c0,0,3.662,3.371,10.234,3.371c7.562,0,10.704-3.371,10.704-3.371
		s-3.098,6.939-10.469,6.939C-994.097-1088.454-997.29-1095.394-997.29-1095.394z"/>
	<path fill="#8BAFAE" d="M-973.603-1138.654c-3.99,0-7.056,1.094-9.399,2.611c-5.381,3.488-6.926,9.235-6.926,9.235
		s-2.003-7.896-14.114-7.896c-11.981,0-18.264,9.078-18.264,14.96c0,4.065,1.142,6.725,2.784,8.449
		c2.335,2.454,5.685,3.015,8.215,3.015c7.265,0,6.77-8.373,6.77-8.373s5.741-0.822,8.461,1.378c2.453,1.985,3.012,4.24,3.119,5.49
		c0.051,0.599,0,0.97,0,0.97v11.957c0,0,0.277,1.465,4.87,1.465c2.169,0,3.586-0.169,4.527-0.391
		c1.846-0.434,1.826-1.074,1.826-1.074v-11.065c0,0,0-4.454,1.96-6.947c1.96-2.494,4.454-2.494,4.454-2.494s2.559,4.552,6.444,4.487
		c6.231-0.105,10.283-2.507,10.75-9.586C-957.671-1129.328-959.938-1138.655-973.603-1138.654z"/>
	<path opacity="0.2" d="M-976.352-1120.678c0,0-4.764,1.409-6.408,5.697c-1.178,3.07-0.909,15.469-0.799,19.196
		c1.846-0.434,1.826-1.074,1.826-1.074v-11.065c0,0,0-4.454,1.96-6.947c1.96-2.494,4.454-2.494,4.454-2.494
		s-0.531-0.986-0.777-1.764C-976.318-1119.829-976.352-1120.678-976.352-1120.678z"/>
	<path opacity="0.2" d="M-995.801-1117.403c-3.685-3.292-11.349-2.064-11.349-2.064s2.045,6.794-2.074,8.824
		c-6.201,3.057-9.821-0.185-10.296-0.651c2.335,2.454,5.685,3.015,8.215,3.015c7.265,0,6.77-8.373,6.77-8.373
		s5.741-0.822,8.461,1.378c2.453,1.985,3.012,4.24,3.119,5.49l0,0C-992.956-1109.785-992.972-1114.876-995.801-1117.403z"/>
	<path opacity="0.2" d="M-989.229-1124.067c0,0-0.203-3.797,2.119-7.452c1.779-2.799,3.731-4.25,4.104-4.512
		c-5.381,3.488-6.926,9.233-6.926,9.233s0.161,0.575,0.352,1.327C-989.429-1124.876-989.229-1124.067-989.229-1124.067z"/>
	<g>
		<path fill="#8BAFAE" d="M-996.075-1152.514c-0.885-1.044-1.784-1.859-2.679-2.483c-4.868-3.391-9.614-1.105-11.311,0.864
			c-2.008,2.331-5.261,10.256,6.865,13.405c5.795,1.506,9.237,3.75,11.113,5.369c1.354,1.169,1.898,2.015,1.898,2.015
			S-988.887-1144.03-996.075-1152.514z"/>
		<path opacity="0.2" d="M-990.188-1133.344c0,0,1.301-10.687-5.887-19.17c-0.885-1.044-1.784-1.859-2.679-2.483
			c0.022,0.02,4.241,3.596,5.451,8.762c1.519,6.481,1.251,10.457,1.217,10.877C-990.732-1134.189-990.188-1133.344-990.188-1133.344
			z"/>
	</g>
	<g>
		<path fill="#8BAFAE" d="M-979.77-1151.741c-0.214-1.777-0.917-3.353-2.511-3.752c-4.431-1.108-5.829,2.072-6.088,4.534
			c-0.394,3.735,0.355,7.058,0.485,9.455c0.047,0.866,0.021,2.004-0.03,3.104c-0.09,1.94-0.261,3.762-0.261,3.762
			s6.088-5.396,8.031-12.325C-979.802-1148.184-979.566-1150.053-979.77-1151.741z"/>
		<path opacity="0.2" d="M-980.152-1146.964c0.342-1.22,0.578-3.089,0.375-4.777c0.001,0.181-0.007,5.885-6.394,13.999
			c-1.726,2.192-1.75-0.659-1.75-0.659l0,0.001c-0.09,1.94-0.261,3.762-0.261,3.762S-982.095-1140.034-980.152-1146.964z"/>
	</g>
	<path fill="#FFFFFF" d="M-1015.1-923.893c0,0.705-0.778,1.277-1.737,1.277h-20.027c-0.959,0-1.737-0.572-1.737-1.277v-13.946
		h23.501V-923.893z"/>
	<path fill="#FFFFFF" d="M-990.188-923.893c0,0.705-0.778,1.277-1.737,1.277h-20.027c-0.959,0-1.737-0.572-1.737-1.277v-13.946
		h23.501V-923.893z"/>
	<path opacity="0.2" d="M-960.656-934.872c0,0,8.555-0.086,12.742-1.451c6.573-2.144,8.058-10.421,8.058-10.421
		s-1.694,5.016-9.194,7.461c-4.187,1.366-12.742,1.452-12.742,1.452H-1064.3v2.959l25.71-0.003l-0.012,2.335
		c0,0,0.461-1.242,11.75-1.242c11.645,0,11.751,1.242,11.751,1.242h1.41c0,0,0.252-1.242,11.568-1.242
		c10.969,0,11.933,1.242,11.933,1.242l0.001-2.322L-960.656-934.872z"/>
	<text transform="matrix(1 0 0 1 -1151.5356 -745.6445)" fill="#465656" font-family="'BebasNeue'" font-size="97.4638">#steviewhale</text>
	<g>
		<text transform="matrix(1 0 0 1 -1155.6392 -749.75)" fill="#D15A85" font-family="'BebasNeue'" font-size="97.4638">#steviewhale</text>
	</g>
	<rect x="-1494.986" y="-659.554" fill="#526363" width="1173.016" height="408.569"/>
</g>
<g id="Слой_5">
	<g>
		<path fill="#8BAFAE" d="M-1135.674-368.369c0,5.168-4.189,9.357-9.356,9.357h-194.186c-5.167,0-9.356-4.189-9.356-9.357v-118.452
			c0-5.168,4.189-9.357,9.356-9.357h194.186c5.167,0,9.356,4.189,9.356,9.357V-368.369z"/>
		<rect x="-1348.572" y="-450.633" fill="#604887" width="212.898" height="9.532"/>
		<circle fill="#2A3030" cx="-1223.323" cy="-427.595" r="47.664"/>
		<circle fill="#526363" cx="-1223.323" cy="-427.595" r="30.162"/>
		<path fill="#D15A85" d="M-1304.208-496.179v-5.488c0-1.292-1.047-2.34-2.339-2.34h-14.361c-1.292,0-2.339,1.048-2.339,2.34v5.488
			H-1304.208z"/>
		<path fill="#2A3030" d="M-1158.345-496.179v-5.488c0-1.292-1.047-2.34-2.339-2.34h-22.599c-1.292,0-2.339,1.048-2.339,2.34v5.488
			H-1158.345z"/>
		<path fill="#2A3030" d="M-1241.992-513.05h-22.131c-2.586,0-3.563,2.339-3.563,2.339l-6.303,14.532h31.998"/>
		<path fill="#2A3030" d="M-1241.992-513.05h22.131c2.586,0,3.563,2.339,3.563,2.339l6.303,14.532h-31.998"/>
		<path fill="#526363" d="M-1230.125-501.162c0,1.291-1.047,2.339-2.339,2.339h-19.055c-1.292,0-2.339-1.048-2.339-2.339v-5.688
			c0-1.292,1.047-2.34,2.339-2.34h19.055c1.292,0,2.339,1.048,2.339,2.34V-501.162z"/>
		<path opacity="0.2" d="M-1334.675-364.622c-0.024,0.001-0.048,0.007-0.072,0.007c-2.073,0-3.754-1.68-3.754-3.754v-118.452
			c0-5.168,4.189-9.357,9.357-9.357h-10.072c-5.167,0-9.356,4.189-9.356,9.357v118.452c0,5.168,4.189,9.357,9.356,9.357h194.186
			c3.834,0,7.126-2.309,8.571-5.61H-1334.675z"/>
		<path opacity="0.2" d="M-1223.323-457.757c-8.871,0-16.846,3.829-22.365,9.926c4.76-3.142,10.459-4.975,16.589-4.975
			c16.658,0,30.162,13.503,30.162,30.162c0,7.787-2.952,14.885-7.797,20.236c8.176-5.395,13.574-14.658,13.574-25.188
			C-1193.161-444.254-1206.665-457.757-1223.323-457.757z"/>
		<path opacity="0.2" d="M-1223.323-379.932c-26.324,0-47.664-21.34-47.664-47.664c0-12.363,4.709-23.627,12.429-32.097
			c-12.021,8.652-19.856,22.757-19.856,38.699c0,26.324,21.339,47.664,47.664,47.664c13.96,0,26.518-6.003,35.235-15.567
			C-1203.343-383.261-1212.941-379.932-1223.323-379.932z"/>
	</g>
	<g>
		<path fill="#8BAFAE" d="M-778.637-366.578c0,5.168-4.189,9.356-9.356,9.356h-194.186c-5.167,0-9.356-4.188-9.356-9.356V-485.03
			c0-5.169,4.189-9.357,9.356-9.357h194.186c5.167,0,9.356,4.188,9.356,9.357V-366.578z"/>
		<path fill="#2A3030" d="M-819.162-357.223v-25.133c0-1.292-1.048-2.34-2.339-2.34h-127.172c-1.292,0-2.339,1.048-2.339,2.34
			v25.133H-819.162z"/>
		<path opacity="0.2" d="M-977.639-362.832c-0.024,0.001-0.046,0.008-0.071,0.008c-2.074,0-3.754-1.681-3.754-3.754V-485.03
			c0-5.169,4.189-9.357,9.357-9.357h-10.072c-5.167,0-9.356,4.188-9.356,9.357v118.452c0,5.168,4.189,9.356,9.356,9.356h194.186
			c3.834,0,7.126-2.309,8.571-5.61H-977.639z"/>
		<path fill="#604887" d="M-812.777-494.387v70.229c0,5.168-4.189,9.356-9.356,9.356h-125.907c-5.167,0-9.356-4.188-9.356-9.356
			v-70.229H-812.777z"/>
		<path opacity="0.2" d="M-945.924-494.387v18.753c0,1.572,1.276,2.769,2.85,2.769h115.661c1.574,0,2.851-1.276,2.851-2.85v-18.672
			H-945.924z"/>
		<path fill="#FFFFFF" d="M-829.752-562.436h-110.983c-1.292,0-2.339,1.048-2.339,2.34v82.042c0,1.291,1.048,2.339,2.339,2.339
			h110.982c1.292,0,2.339-1.048,2.339-2.339v-82.042C-827.414-561.388-828.461-562.436-829.752-562.436z"/>
		<path opacity="0.2" d="M-795.738-397.252c-3.167,0-5.733-2.566-5.733-5.732c0-1.374,0.483-2.633,1.289-3.62
			c-1.289,1.052-2.114,2.651-2.114,4.445c0,3.166,2.567,5.732,5.733,5.732c1.793,0,3.394-0.824,4.444-2.113
			C-793.106-397.735-794.365-397.252-795.738-397.252z"/>
		<circle fill="#D15A85" cx="-795.897" cy="-402.898" r="5.733"/>
	</g>
	<g>
		<g>
			<path fill="#D15A85" d="M-524.918-470.802c0,0,4.21-10.035,14.558-16.804c23.622-15.45,44.602-1.344,44.662-1.303
				c-5.531-4.549-12.683-7.824-21.611-9.188c-30.38-4.64-40.741,19.079-40.741,19.079s0.67,1.353,1.402,3.196
				C-525.91-473.961-524.918-470.802-524.918-470.802z"/>
			<path opacity="0.2" d="M-524.918-470.802c0,0,4.21-10.035,14.558-16.804c23.622-15.45,44.602-1.344,44.662-1.303
				c-5.531-4.549-12.683-7.824-21.611-9.188c-30.38-4.64-40.741,19.079-40.741,19.079s0.67,1.353,1.402,3.196
				C-525.91-473.961-524.918-470.802-524.918-470.802z"/>
		</g>
		<g>
			<path fill="#D15A85" d="M-462.621-419.354c15.68-19.754,16.996-53.049-3.078-69.555c-0.061-0.041-21.04-14.147-44.662,1.303
				c-10.348,6.769-14.558,16.804-14.558,16.804s-0.991-3.159-1.729-5.019c-0.732-1.844-1.402-3.196-1.402-3.196
				s-10.361-23.719-40.741-19.079c-2.132,0.325-4.158,0.766-6.091,1.301c-1.105,0.395-34.094,12.565-22.078,53.436
				c4.894,16.645,16.693,30.562,36.674,49.623c9.374,8.943,34.247,25.788,34.247,25.788s12.172-5.157,23.725-13.822
				c6.235-4.677,19.717-15.559,19.717-15.559l0.001,0.004C-475.833-403.943-468.995-411.323-462.621-419.354z"/>
			<path fill="#D15A85" d="M-502.314-381.771c-11.553,8.665-23.725,13.822-23.725,13.822s-24.873-16.845-34.247-25.788
				c-19.981-19.062-31.78-32.979-36.674-49.623c-12.017-40.87,20.973-53.041,22.078-53.436
				c-35.513,9.832-37.566,53.546-18.597,77.441c28.185,35.506,65.429,58.36,65.429,58.36s22.304-13.688,45.454-36.332l-0.001-0.004
				C-482.598-397.329-496.079-386.447-502.314-381.771z"/>
			<path opacity="0.2" d="M-502.314-381.771c-11.553,8.665-23.725,13.822-23.725,13.822s-24.873-16.845-34.247-25.788
				c-19.981-19.062-32.348-31.629-37.242-48.274c-12.017-40.869,21.541-54.39,22.646-54.784
				c-35.513,9.832-37.566,53.546-18.597,77.441c28.185,35.506,65.429,58.36,65.429,58.36s22.304-13.688,45.454-36.332l-0.001-0.004
				C-482.598-397.329-496.079-386.447-502.314-381.771z"/>
		</g>
	</g>
	<g>
		<path fill="#8BAFAE" d="M-441.674,136.631c0,5.168-4.189,9.357-9.356,9.357h-194.186c-5.167,0-9.356-4.189-9.356-9.357V18.179
			c0-5.168,4.189-9.357,9.356-9.357h194.186c5.167,0,9.356,4.189,9.356,9.357V136.631z"/>
		<rect x="-654.572" y="54.367" fill="#604887" width="212.898" height="9.532"/>
		<circle fill="#2A3030" cx="-529.323" cy="77.405" r="47.664"/>
		<circle fill="#526363" cx="-529.323" cy="77.405" r="30.162"/>
		<path fill="#D15A85" d="M-610.208,8.821V3.333c0-1.292-1.047-2.34-2.339-2.34h-14.361c-1.292,0-2.339,1.048-2.339,2.34v5.488
			H-610.208z"/>
		<path fill="#2A3030" d="M-464.345,8.821V3.333c0-1.292-1.047-2.34-2.339-2.34h-22.599c-1.292,0-2.339,1.048-2.339,2.34v5.488
			H-464.345z"/>
		<path fill="#2A3030" d="M-547.992-8.05h-22.131c-2.586,0-3.563,2.339-3.563,2.339l-6.303,14.532h31.998"/>
		<path fill="#2A3030" d="M-547.992-8.05h22.131c2.586,0,3.563,2.339,3.563,2.339l6.303,14.532h-31.998"/>
		<path fill="#526363" d="M-536.125,3.838c0,1.291-1.047,2.339-2.339,2.339h-19.055c-1.292,0-2.339-1.048-2.339-2.339v-5.688
			c0-1.292,1.047-2.34,2.339-2.34h19.055c1.292,0,2.339,1.048,2.339,2.34V3.838z"/>
		<path opacity="0.2" d="M-640.675,140.378c-0.024,0.001-0.048,0.007-0.072,0.007c-2.073,0-3.754-1.68-3.754-3.754V18.179
			c0-5.168,4.189-9.357,9.357-9.357h-10.072c-5.167,0-9.356,4.189-9.356,9.357v118.452c0,5.168,4.189,9.357,9.356,9.357h194.186
			c3.834,0,7.126-2.309,8.571-5.61H-640.675z"/>
		<path opacity="0.2" d="M-529.323,47.243c-8.871,0-16.846,3.829-22.365,9.926c4.76-3.142,10.459-4.975,16.589-4.975
			c16.658,0,30.162,13.503,30.162,30.162c0,7.787-2.952,14.885-7.797,20.236c8.176-5.395,13.574-14.658,13.574-25.188
			C-499.161,60.746-512.665,47.243-529.323,47.243z"/>
		<path opacity="0.2" d="M-529.323,125.068c-26.324,0-47.664-21.34-47.664-47.664c0-12.363,4.709-23.627,12.429-32.097
			c-12.021,8.652-19.856,22.757-19.856,38.699c0,26.324,21.339,47.664,47.664,47.664c13.96,0,26.518-6.003,35.235-15.567
			C-509.343,121.739-518.941,125.068-529.323,125.068z"/>
	</g>
	<g>
		<path fill="#8BAFAE" d="M-146.741,138.217c0,5.168-4.189,9.356-9.356,9.356h-194.186c-5.167,0-9.356-4.188-9.356-9.356V19.765
			c0-5.169,4.189-9.357,9.356-9.357h194.186c5.167,0,9.356,4.188,9.356,9.357V138.217z"/>
		<path fill="#2A3030" d="M-187.265,147.572v-25.133c0-1.292-1.048-2.34-2.339-2.34h-127.172c-1.292,0-2.339,1.048-2.339,2.34
			v25.133H-187.265z"/>
		<path opacity="0.2" d="M-345.743,141.963c-0.024,0.001-0.046,0.008-0.071,0.008c-2.074,0-3.754-1.681-3.754-3.754V19.765
			c0-5.169,4.189-9.357,9.357-9.357h-10.072c-5.167,0-9.356,4.188-9.356,9.357v118.452c0,5.168,4.189,9.356,9.356,9.356h194.186
			c3.834,0,7.126-2.309,8.571-5.61H-345.743z"/>
		<path fill="#604887" d="M-180.88,10.408v70.229c0,5.168-4.189,9.356-9.356,9.356h-125.907c-5.167,0-9.356-4.188-9.356-9.356
			V10.408H-180.88z"/>
		<path opacity="0.2" d="M-314.028,10.408v18.753c0,1.572,1.276,2.769,2.85,2.769h115.661c1.574,0,2.851-1.276,2.851-2.85V10.408
			H-314.028z"/>
		<path fill="#FFFFFF" d="M-197.856-57.641h-110.983c-1.292,0-2.339,1.048-2.339,2.34v82.042c0,1.291,1.048,2.339,2.339,2.339
			h110.982c1.292,0,2.339-1.048,2.339-2.339v-82.042C-195.518-56.593-196.565-57.641-197.856-57.641z"/>
		<path opacity="0.2" d="M-163.841,107.543c-3.167,0-5.733-2.566-5.733-5.732c0-1.374,0.483-2.633,1.289-3.62
			c-1.289,1.052-2.114,2.651-2.114,4.445c0,3.166,2.567,5.732,5.733,5.732c1.793,0,3.394-0.824,4.444-2.113
			C-161.209,107.06-162.468,107.543-163.841,107.543z"/>
		<circle fill="#D15A85" cx="-164" cy="101.896" r="5.733"/>
	</g>
	<g>
		<g>
			<path fill="#D15A85" d="M80.438,27.896c0,0,4.21-10.035,14.558-16.804c23.622-15.45,44.602-1.344,44.662-1.303
				c-5.531-4.549-12.683-7.824-21.611-9.188c-30.38-4.64-40.741,19.079-40.741,19.079s0.67,1.353,1.402,3.196
				C79.446,24.736,80.438,27.896,80.438,27.896z"/>
			<path opacity="0.2" d="M80.438,27.896c0,0,4.21-10.035,14.558-16.804c23.622-15.45,44.602-1.344,44.662-1.303
				c-5.531-4.549-12.683-7.824-21.611-9.188c-30.38-4.64-40.741,19.079-40.741,19.079s0.67,1.353,1.402,3.196
				C79.446,24.736,80.438,27.896,80.438,27.896z"/>
		</g>
		<g>
			<path fill="#D15A85" d="M142.735,79.344c15.68-19.754,16.996-53.049-3.078-69.555c-0.061-0.041-21.04-14.147-44.662,1.303
				C84.648,17.86,80.438,27.896,80.438,27.896s-0.991-3.159-1.729-5.019c-0.732-1.844-1.402-3.196-1.402-3.196
				S66.945-4.038,36.564,0.602c-2.132,0.325-4.158,0.766-6.091,1.301C29.369,2.297-3.621,14.468,8.396,55.338
				c4.894,16.645,16.693,30.562,36.674,49.623c9.374,8.943,34.247,25.788,34.247,25.788s12.172-5.157,23.725-13.822
				c6.235-4.677,19.717-15.559,19.717-15.559l0.001,0.004C129.523,94.754,136.361,87.374,142.735,79.344z"/>
			<path fill="#D15A85" d="M103.042,116.927c-11.553,8.665-23.725,13.822-23.725,13.822s-24.873-16.845-34.247-25.788
				C25.089,85.899,13.29,71.982,8.396,55.338C-3.621,14.468,29.369,2.297,30.474,1.902C-5.039,11.734-7.092,55.448,11.876,79.344
				c28.185,35.506,65.429,58.36,65.429,58.36s22.304-13.688,45.454-36.332l-0.001-0.004
				C122.758,101.368,109.277,112.25,103.042,116.927z"/>
			<path opacity="0.2" d="M103.042,116.927c-11.553,8.665-23.725,13.822-23.725,13.822s-24.873-16.845-34.247-25.788
				C25.089,85.899,12.722,73.332,7.828,56.687C-4.189,15.817,29.369,2.297,30.474,1.902C-5.039,11.734-7.092,55.448,11.876,79.344
				c28.185,35.506,65.429,58.36,65.429,58.36s22.304-13.688,45.454-36.332l-0.001-0.004
				C122.758,101.368,109.277,112.25,103.042,116.927z"/>
		</g>
	</g>
</g>
</svg>
