<?xml version="1.0" encoding="utf-8"?>
<!-- Generator: Adobe Illustrator 15.0.0, SVG Export Plug-In . SVG Version: 6.00 Build 0)  -->
<!DOCTYPE svg PUBLIC "-//W3C//DTD SVG 1.1//EN" "http://www.w3.org/Graphics/SVG/1.1/DTD/svg11.dtd">
<svg version="1.1" xmlns="http://www.w3.org/2000/svg" xmlns:xlink="http://www.w3.org/1999/xlink" x="0px" y="0px"
	 width="212.898px" height="205.214px" viewBox="0 0 212.898 205.214" enable-background="new 0 0 212.898 205.214"
	 xml:space="preserve">
<g id="Слой_1" display="none">
	
		<image display="inline" overflow="visible" opacity="0.61" width="604" height="604" xlink:href="14B20B44.jpg"  transform="matrix(1 0 0 1 368.8726 -2090.4443)">
	</image>
</g>
<g id="Слой_4">
</g>
<g id="Слой_2">
	<rect x="-794.854" y="-1666.55" fill="#2D2D2D" width="45.701" height="14.568"/>
	<rect x="-964.268" y="-1975.444" fill="#AFD9DD" width="762" height="596"/>
	<g opacity="0.41">
		<g>
			<path fill="none" stroke="#FFFFFF" stroke-width="2" stroke-miterlimit="10" d="M-1148.127-2176.604
				c17.999,0,17.999,12,35.998,12c18,0,18-12,35.999-12c18,0,18,12,35.999,12c18,0,18-12,36-12s18,12,36,12s18-12,36-12
				s18,12,35.999,12s17.999-12,35.999-12s18,12,35.999,12c18,0,18-12,36-12c17.998,0,17.998,12,35.996,12c18,0,18-12,36-12
				c17.998,0,17.998,12,35.996,12c17.998,0,17.998-12,35.995-12c17.998,0,17.998,12,35.996,12c17.999,0,17.999-12,35.997-12
				c17.999,0,17.999,12,35.998,12c18.001,0,18.001-12,36.002-12c17.999,0,17.999,12,35.998,12c18,0,18-12,36-12
				c18,0,18,12,35.999,12s18-12,36-12s18,12,36,12c18.001,0,18.001-12,36.002-12s18.001,12,36.003,12c17.999,0,17.999-12,35.998-12
				s17.999,12,35.998,12c18.001,0,18.001-12,36.003-12c18.002,0,18.002,12,36.003,12c18.002,0,18.002-12,36.005-12
				c18.001,0,18.001,12,36.003,12c18.004,0,18.004-12,36.009-12s18.004,12,36.009,12"/>
		</g>
		<g>
			<path fill="none" stroke="#FFFFFF" stroke-width="2" stroke-miterlimit="10" d="M-1148.188-2152.15c17.999,0,17.999,12,35.998,12
				s17.999-12,35.999-12s18,12,36,12s18-12,36-12s18,12,36,12s18-12,36-12c17.999,0,17.999,12,35.999,12s18-12,35.999-12
				s17.999,12,35.999,12c18,0,18-12,36-12c17.998,0,17.998,12,35.996,12c18,0,18-12,36-12c17.998,0,17.998,12,35.996,12
				c17.998,0,17.998-12,35.995-12s17.998,12,35.996,12s17.998-12,35.997-12c17.999,0,17.999,12,35.998,12
				c18.001,0,18.001-12,36.002-12c17.999,0,17.999,12,35.998,12c18,0,18-12,36-12c18,0,18,12,35.999,12c18,0,18-12,36-12
				c18,0,18,12,36,12c18.001,0,18.001-12,36.002-12c18.001,0,18.001,12,36.003,12c17.999,0,17.999-12,35.997-12
				c17.999,0,17.999,12,35.999,12c18.001,0,18.001-12,36.003-12s18.001,12,36.003,12c18.002,0,18.002-12,36.005-12
				c18.002,0,18.002,12,36.003,12c18.004,0,18.004-12,36.009-12s18.004,12,36.009,12"/>
		</g>
		<g>
			<path fill="none" stroke="#FFFFFF" stroke-width="2" stroke-miterlimit="10" d="M-1148.25-2127.697c17.999,0,17.999,12,35.998,12
				s17.999-12,35.999-12s18,12,36,12s18-12,36-12s18,12,36,12s18-12,36-12c17.999,0,17.999,12,35.999,12s18-12,35.999-12
				s17.999,12,35.999,12c18,0,18-12,36-12c17.998,0,17.998,12,35.996,12c18,0,18-12,36-12c17.998,0,17.998,12,35.996,12
				c17.998,0,17.998-12,35.995-12s17.998,12,35.996,12s17.998-12,35.997-12c17.999,0,17.999,12,35.998,12
				c18.001,0,18.001-12,36.002-12c17.999,0,17.999,12,35.998,12c18,0,18-12,36-12c18,0,18,12,35.999,12c18,0,18-12,36-12
				c18,0,18,12,36,12c18.001,0,18.001-12,36.002-12c18.001,0,18.001,12,36.003,12c17.999,0,17.999-12,35.997-12
				c17.999,0,17.999,12,35.999,12c18.001,0,18.001-12,36.003-12s18.001,12,36.003,12c18.002,0,18.002-12,36.005-12
				c18.002,0,18.002,12,36.003,12c18.004,0,18.004-12,36.009-12s18.004,12,36.009,12"/>
		</g>
		<g>
			<path fill="none" stroke="#FFFFFF" stroke-width="2" stroke-miterlimit="10" d="M-1148.311-2103.243
				c17.999,0,17.999,12,35.998,12c18,0,18-12,35.999-12c18,0,18,12,35.999,12c18,0,18-12,36-12s18,12,36,12s18-12,36-12
				s18,12,35.999,12s17.999-12,35.999-12s18,12,35.999,12c18,0,18-12,36-12c17.998,0,17.998,12,35.996,12c18,0,18-12,36-12
				c17.998,0,17.998,12,35.996,12c17.998,0,17.998-12,35.995-12c17.998,0,17.998,12,35.996,12c17.999,0,17.999-12,35.997-12
				c17.999,0,17.999,12,35.998,12c18.001,0,18.001-12,36.002-12c17.999,0,17.999,12,35.998,12c18,0,18-12,36-12
				c18,0,18,12,35.999,12s18-12,36-12s18,12,36,12c18.001,0,18.001-12,36.002-12s18.001,12,36.003,12c17.999,0,17.999-12,35.998-12
				s17.999,12,35.998,12c18.001,0,18.001-12,36.003-12c18.002,0,18.002,12,36.003,12c18.002,0,18.002-12,36.005-12
				c18.001,0,18.001,12,36.003,12c18.004,0,18.004-12,36.009-12s18.004,12,36.009,12"/>
		</g>
		<g>
			<path fill="none" stroke="#FFFFFF" stroke-width="2" stroke-miterlimit="10" d="M-1148.373-2078.79c17.999,0,17.999,12,35.998,12
				c18,0,18-12,35.999-12c18,0,18,12,35.999,12c18,0,18-12,36-12s18,12,36,12s18-12,36-12s18,12,35.999,12s17.999-12,35.999-12
				s18,12,35.999,12c18,0,18-12,36-12c17.998,0,17.998,12,35.996,12c18,0,18-12,36-12c17.998,0,17.998,12,35.996,12
				c17.998,0,17.998-12,35.995-12c17.998,0,17.998,12,35.996,12c17.999,0,17.999-12,35.997-12c17.999,0,17.999,12,35.998,12
				c18.001,0,18.001-12,36.002-12c17.999,0,17.999,12,35.998,12c18,0,18-12,36-12c18,0,18,12,35.999,12s18-12,36-12s18,12,36,12
				c18.001,0,18.001-12,36.002-12s18.001,12,36.003,12c17.999,0,17.999-12,35.998-12s17.999,12,35.998,12
				c18.001,0,18.001-12,36.003-12c18.002,0,18.002,12,36.003,12c18.002,0,18.002-12,36.005-12c18.001,0,18.001,12,36.003,12
				c18.004,0,18.004-12,36.009-12s18.004,12,36.009,12"/>
		</g>
		<g>
			<path fill="none" stroke="#FFFFFF" stroke-width="2" stroke-miterlimit="10" d="M-1148.434-2054.336
				c17.999,0,17.999,12,35.998,12s17.999-12,35.999-12s18,12,36,12s18-12,36-12s18,12,36,12s18-12,36-12
				c17.999,0,17.999,12,35.999,12s18-12,35.999-12s17.999,12,35.999,12c18,0,18-12,36-12c17.998,0,17.998,12,35.996,12
				c18,0,18-12,36-12c17.998,0,17.998,12,35.996,12c17.998,0,17.998-12,35.995-12s17.998,12,35.996,12s17.998-12,35.997-12
				c17.999,0,17.999,12,35.998,12c18.001,0,18.001-12,36.002-12c17.999,0,17.999,12,35.998,12c18,0,18-12,36-12
				c18,0,18,12,35.999,12c18,0,18-12,36-12c18,0,18,12,36,12c18.001,0,18.001-12,36.002-12c18.001,0,18.001,12,36.003,12
				c17.999,0,17.999-12,35.997-12c17.999,0,17.999,12,35.999,12c18.001,0,18.001-12,36.003-12s18.001,12,36.003,12
				c18.002,0,18.002-12,36.005-12c18.002,0,18.002,12,36.003,12c18.004,0,18.004-12,36.009-12s18.004,12,36.009,12"/>
		</g>
		<g>
			<path fill="none" stroke="#FFFFFF" stroke-width="2" stroke-miterlimit="10" d="M-1148.495-2029.883
				c17.999,0,17.999,12,35.998,12c18,0,18-12,35.999-12c18,0,18,12,35.999,12c18,0,18-12,36-12s18,12,36,12s18-12,36-12
				s18,12,35.999,12s17.999-12,35.999-12s18,12,35.999,12c18,0,18-12,36-12c17.998,0,17.998,12,35.996,12c18,0,18-12,36-12
				c17.998,0,17.998,12,35.996,12c17.998,0,17.998-12,35.995-12c17.998,0,17.998,12,35.996,12c17.999,0,17.999-12,35.997-12
				c17.999,0,17.999,12,35.998,12c18.001,0,18.001-12,36.002-12c17.999,0,17.999,12,35.998,12c18,0,18-12,36-12
				c18,0,18,12,35.999,12s18-12,36-12s18,12,36,12c18.001,0,18.001-12,36.002-12s18.001,12,36.003,12c17.999,0,17.999-12,35.998-12
				s17.999,12,35.998,12c18.001,0,18.001-12,36.003-12c18.002,0,18.002,12,36.003,12c18.002,0,18.002-12,36.005-12
				c18.001,0,18.001,12,36.003,12c18.004,0,18.004-12,36.009-12s18.004,12,36.009,12"/>
		</g>
		<g>
			<path fill="none" stroke="#FFFFFF" stroke-width="2" stroke-miterlimit="10" d="M-1148.556-2005.43c17.999,0,17.999,12,35.998,12
				c18,0,18-12,35.999-12c18,0,18,12,35.999,12c18,0,18-12,36-12s18,12,36,12s18-12,36-12s18,12,35.999,12s17.999-12,35.999-12
				s18,12,35.999,12c18,0,18-12,36-12c17.998,0,17.998,12,35.996,12c18,0,18-12,36-12c17.998,0,17.998,12,35.996,12
				c17.998,0,17.998-12,35.995-12c17.998,0,17.998,12,35.996,12c17.999,0,17.999-12,35.997-12c17.999,0,17.999,12,35.998,12
				c18.001,0,18.001-12,36.002-12c17.999,0,17.999,12,35.998,12c18,0,18-12,36-12c18,0,18,12,35.999,12s18-12,36-12s18,12,36,12
				c18.001,0,18.001-12,36.002-12s18.001,12,36.003,12c17.999,0,17.999-12,35.998-12s17.999,12,35.998,12
				c18.001,0,18.001-12,36.003-12c18.002,0,18.002,12,36.003,12c18.002,0,18.002-12,36.005-12c18.001,0,18.001,12,36.003,12
				c18.004,0,18.004-12,36.009-12s18.004,12,36.009,12"/>
		</g>
		<g>
			<path fill="none" stroke="#FFFFFF" stroke-width="2" stroke-miterlimit="10" d="M-1148.617-1980.976
				c17.999,0,17.999,12,35.998,12s17.999-12,35.999-12s18,12,36,12s18-12,36-12s18,12,36,12s18-12,36-12
				c17.999,0,17.999,12,35.999,12s18-12,35.999-12s17.999,12,35.999,12c18,0,18-12,36-12c17.998,0,17.998,12,35.996,12
				c18,0,18-12,36-12c17.998,0,17.998,12,35.996,12c17.998,0,17.998-12,35.995-12s17.998,12,35.996,12s17.998-12,35.997-12
				c17.999,0,17.999,12,35.998,12c18.001,0,18.001-12,36.002-12c17.999,0,17.999,12,35.998,12c18,0,18-12,36-12
				c18,0,18,12,35.999,12c18,0,18-12,36-12c18,0,18,12,36,12c18.001,0,18.001-12,36.002-12c18.001,0,18.001,12,36.003,12
				c17.999,0,17.999-12,35.997-12c17.999,0,17.999,12,35.999,12c18.001,0,18.001-12,36.003-12s18.001,12,36.003,12
				c18.002,0,18.002-12,36.005-12c18.002,0,18.002,12,36.003,12c18.004,0,18.004-12,36.009-12s18.004,12,36.009,12"/>
		</g>
		<g>
			<path fill="none" stroke="#FFFFFF" stroke-width="2" stroke-miterlimit="10" d="M-1148.678-1956.522
				c17.999,0,17.999,12,35.998,12c18,0,18-12,35.999-12c18,0,18,12,35.999,12c18,0,18-12,36-12s18,12,36,12s18-12,36-12
				s18,12,35.999,12s17.999-12,35.999-12s18,12,35.999,12c18,0,18-12,36-12c17.998,0,17.998,12,35.996,12c18,0,18-12,36-12
				c17.998,0,17.998,12,35.996,12c17.998,0,17.998-12,35.995-12c17.998,0,17.998,12,35.996,12c17.999,0,17.999-12,35.997-12
				c17.999,0,17.999,12,35.998,12c18.001,0,18.001-12,36.002-12c17.999,0,17.999,12,35.998,12c18,0,18-12,36-12
				c18,0,18,12,35.999,12s18-12,36-12s18,12,36,12c18.001,0,18.001-12,36.002-12s18.001,12,36.003,12c17.999,0,17.999-12,35.998-12
				s17.999,12,35.998,12c18.001,0,18.001-12,36.003-12c18.002,0,18.002,12,36.003,12c18.002,0,18.002-12,36.005-12
				c18.001,0,18.001,12,36.003,12c18.004,0,18.004-12,36.009-12s18.004,12,36.009,12"/>
		</g>
		<g>
			<path fill="none" stroke="#FFFFFF" stroke-width="2" stroke-miterlimit="10" d="M-1148.74-1932.069c17.999,0,17.999,12,35.998,12
				c18,0,18-12,35.999-12c18,0,18,12,35.999,12c18,0,18-12,36-12s18,12,36,12s18-12,36-12s18,12,35.999,12s17.999-12,35.999-12
				s18,12,35.999,12c18,0,18-12,36-12c17.998,0,17.998,12,35.996,12c18,0,18-12,36-12c17.998,0,17.998,12,35.996,12
				c17.998,0,17.998-12,35.995-12c17.998,0,17.998,12,35.996,12c17.999,0,17.999-12,35.997-12c17.999,0,17.999,12,35.998,12
				c18.001,0,18.001-12,36.002-12c17.999,0,17.999,12,35.998,12c18,0,18-12,36-12c18,0,18,12,35.999,12s18-12,36-12s18,12,36,12
				c18.001,0,18.001-12,36.002-12s18.001,12,36.003,12c17.999,0,17.999-12,35.998-12s17.999,12,35.998,12
				c18.001,0,18.001-12,36.003-12c18.002,0,18.002,12,36.003,12c18.002,0,18.002-12,36.005-12c18.001,0,18.001,12,36.003,12
				c18.004,0,18.004-12,36.009-12s18.004,12,36.009,12"/>
		</g>
		<g>
			<path fill="none" stroke="#FFFFFF" stroke-width="2" stroke-miterlimit="10" d="M-1148.801-1907.616
				c17.999,0,17.999,12,35.998,12s17.999-12,35.999-12s18,12,36,12s18-12,36-12s18,12,36,12s18-12,36-12
				c17.999,0,17.999,12,35.999,12s18-12,35.999-12s17.999,12,35.999,12c18,0,18-12,36-12c17.998,0,17.998,12,35.996,12
				c18,0,18-12,36-12c17.998,0,17.998,12,35.996,12c17.998,0,17.998-12,35.995-12s17.998,12,35.996,12s17.998-12,35.997-12
				c17.999,0,17.999,12,35.998,12c18.001,0,18.001-12,36.002-12c17.999,0,17.999,12,35.998,12c18,0,18-12,36-12
				c18,0,18,12,35.999,12c18,0,18-12,36-12c18,0,18,12,36,12c18.001,0,18.001-12,36.002-12c18.001,0,18.001,12,36.003,12
				c17.999,0,17.999-12,35.997-12c17.999,0,17.999,12,35.999,12c18.001,0,18.001-12,36.003-12s18.001,12,36.003,12
				c18.002,0,18.002-12,36.005-12c18.002,0,18.002,12,36.003,12c18.004,0,18.004-12,36.009-12s18.004,12,36.009,12"/>
		</g>
		<g>
			<path fill="none" stroke="#FFFFFF" stroke-width="2" stroke-miterlimit="10" d="M-1148.862-1883.162
				c17.999,0,17.999,12,35.998,12s17.999-12,35.999-12s18,12,36,12s18-12,36-12s18,12,36,12s18-12,36-12
				c17.999,0,17.999,12,35.999,12s18-12,35.999-12s17.999,12,35.999,12c18,0,18-12,36-12c17.998,0,17.998,12,35.996,12
				c18,0,18-12,36-12c17.998,0,17.998,12,35.996,12c17.998,0,17.998-12,35.995-12s17.998,12,35.996,12s17.998-12,35.997-12
				c17.999,0,17.999,12,35.998,12c18.001,0,18.001-12,36.002-12c17.999,0,17.999,12,35.998,12c18,0,18-12,36-12
				c18,0,18,12,35.999,12c18,0,18-12,36-12c18,0,18,12,36,12c18.001,0,18.001-12,36.002-12c18.001,0,18.001,12,36.003,12
				c17.999,0,17.999-12,35.997-12c17.999,0,17.999,12,35.999,12c18.001,0,18.001-12,36.003-12s18.001,12,36.003,12
				c18.002,0,18.002-12,36.005-12c18.002,0,18.002,12,36.003,12c18.004,0,18.004-12,36.009-12s18.004,12,36.009,12"/>
		</g>
		<g>
			<path fill="none" stroke="#FFFFFF" stroke-width="2" stroke-miterlimit="10" d="M-1148.923-1858.708
				c17.999,0,17.999,12,35.998,12c18,0,18-12,35.999-12c18,0,18,12,35.999,12c18,0,18-12,36-12s18,12,36,12s18-12,36-12
				s18,12,35.999,12s17.999-12,35.999-12s18,12,35.999,12c18,0,18-12,36-12c17.998,0,17.998,12,35.996,12c18,0,18-12,36-12
				c17.998,0,17.998,12,35.996,12c17.998,0,17.998-12,35.995-12c17.998,0,17.998,12,35.996,12c17.999,0,17.999-12,35.997-12
				c17.999,0,17.999,12,35.998,12c18.001,0,18.001-12,36.002-12c17.999,0,17.999,12,35.998,12c18,0,18-12,36-12
				c18,0,18,12,35.999,12s18-12,36-12s18,12,36,12c18.001,0,18.001-12,36.002-12s18.001,12,36.003,12c17.999,0,17.999-12,35.998-12
				s17.999,12,35.998,12c18.001,0,18.001-12,36.003-12c18.002,0,18.002,12,36.003,12c18.002,0,18.002-12,36.005-12
				c18.001,0,18.001,12,36.003,12c18.004,0,18.004-12,36.009-12s18.004,12,36.009,12"/>
		</g>
		<g>
			<path fill="none" stroke="#FFFFFF" stroke-width="2" stroke-miterlimit="10" d="M-1148.984-1834.255
				c17.999,0,17.999,12,35.998,12s17.999-12,35.999-12s18,12,36,12s18-12,36-12s18,12,36,12s18-12,36-12
				c17.999,0,17.999,12,35.999,12s18-12,35.999-12s17.999,12,35.999,12c18,0,18-12,36-12c17.998,0,17.998,12,35.996,12
				c18,0,18-12,36-12c17.998,0,17.998,12,35.996,12c17.998,0,17.998-12,35.995-12s17.998,12,35.996,12s17.998-12,35.997-12
				c17.999,0,17.999,12,35.998,12c18.001,0,18.001-12,36.002-12c17.999,0,17.999,12,35.998,12c18,0,18-12,36-12
				c18,0,18,12,35.999,12c18,0,18-12,36-12c18,0,18,12,36,12c18.001,0,18.001-12,36.002-12c18.001,0,18.001,12,36.003,12
				c17.999,0,17.999-12,35.997-12c17.999,0,17.999,12,35.999,12c18.001,0,18.001-12,36.003-12s18.001,12,36.003,12
				c18.002,0,18.002-12,36.005-12c18.002,0,18.002,12,36.003,12c18.004,0,18.004-12,36.009-12s18.004,12,36.009,12"/>
		</g>
		<g>
			<path fill="none" stroke="#FFFFFF" stroke-width="2" stroke-miterlimit="10" d="M-1149.046-1809.802
				c17.999,0,17.999,12,35.998,12s17.999-12,35.999-12s18,12,36,12s18-12,36-12s18,12,36,12s18-12,36-12
				c17.999,0,17.999,12,35.999,12s18-12,35.999-12s17.999,12,35.999,12c18,0,18-12,36-12c17.998,0,17.998,12,35.996,12
				c18,0,18-12,36-12c17.998,0,17.998,12,35.996,12c17.998,0,17.998-12,35.995-12s17.998,12,35.996,12s17.998-12,35.997-12
				c17.999,0,17.999,12,35.998,12c18.001,0,18.001-12,36.002-12c17.999,0,17.999,12,35.998,12c18,0,18-12,36-12
				c18,0,18,12,35.999,12c18,0,18-12,36-12c18,0,18,12,36,12c18.001,0,18.001-12,36.002-12c18.001,0,18.001,12,36.003,12
				c17.999,0,17.999-12,35.997-12c17.999,0,17.999,12,35.999,12c18.001,0,18.001-12,36.003-12s18.001,12,36.003,12
				c18.002,0,18.002-12,36.005-12c18.002,0,18.002,12,36.003,12c18.004,0,18.004-12,36.009-12s18.004,12,36.009,12"/>
		</g>
		<g>
			<path fill="none" stroke="#FFFFFF" stroke-width="2" stroke-miterlimit="10" d="M-1149.107-1785.348
				c17.999,0,17.999,12,35.998,12c18,0,18-12,35.999-12c18,0,18,12,35.999,12c18,0,18-12,36-12s18,12,36,12s18-12,36-12
				s18,12,35.999,12s17.999-12,35.999-12s18,12,35.999,12c18,0,18-12,36-12c17.998,0,17.998,12,35.996,12c18,0,18-12,36-12
				c17.998,0,17.998,12,35.996,12c17.998,0,17.998-12,35.995-12c17.998,0,17.998,12,35.996,12c17.999,0,17.999-12,35.997-12
				c17.999,0,17.999,12,35.998,12c18.001,0,18.001-12,36.002-12c17.999,0,17.999,12,35.998,12c18,0,18-12,36-12
				c18,0,18,12,35.999,12c18,0,18-12,36-12s18,12,36,12c18.001,0,18.001-12,36.002-12s18.001,12,36.003,12
				c17.999,0,17.999-12,35.998-12s17.999,12,35.998,12c18.001,0,18.001-12,36.003-12c18.002,0,18.002,12,36.003,12
				c18.002,0,18.002-12,36.005-12c18.001,0,18.001,12,36.003,12c18.004,0,18.004-12,36.009-12s18.004,12,36.009,12"/>
		</g>
		<g>
			<path fill="none" stroke="#FFFFFF" stroke-width="2" stroke-miterlimit="10" d="M-1149.168-1760.895
				c17.999,0,17.999,12,35.998,12c18,0,18-12,35.999-12c18,0,18,12,35.999,12c18,0,18-12,36-12s18,12,36,12s18-12,36-12
				s18,12,35.999,12s17.999-12,35.999-12s18,12,35.999,12c18,0,18-12,36-12c17.998,0,17.998,12,35.996,12c18,0,18-12,36-12
				c17.998,0,17.998,12,35.996,12c17.998,0,17.998-12,35.995-12c17.998,0,17.998,12,35.996,12c17.999,0,17.999-12,35.997-12
				c17.999,0,17.999,12,35.998,12c18.001,0,18.001-12,36.002-12c17.999,0,17.999,12,35.998,12c18,0,18-12,36-12
				c18,0,18,12,35.999,12c18,0,18-12,36-12s18,12,36,12c18.001,0,18.001-12,36.002-12s18.001,12,36.003,12
				c17.999,0,17.999-12,35.998-12s17.999,12,35.998,12c18.001,0,18.001-12,36.003-12c18.002,0,18.002,12,36.003,12
				c18.002,0,18.002-12,36.005-12c18.001,0,18.001,12,36.003,12c18.004,0,18.004-12,36.009-12s18.004,12,36.009,12"/>
		</g>
		<g>
			<path fill="none" stroke="#FFFFFF" stroke-width="2" stroke-miterlimit="10" d="M-1149.229-1736.441
				c17.999,0,17.999,12,35.998,12s17.999-12,35.999-12s18,12,36,12s18-12,36-12s18,12,36,12s18-12,36-12
				c17.999,0,17.999,12,35.999,12s18-12,35.999-12s17.999,12,35.999,12c18,0,18-12,36-12c17.998,0,17.998,12,35.996,12
				c18,0,18-12,35.999-12c17.998,0,17.998,12,35.996,12s17.998-12,35.996-12s17.998,12,35.996,12s17.998-12,35.997-12
				c17.999,0,17.999,12,35.998,12c18,0,18-12,36.001-12c17.999,0,17.999,12,35.999,12c18,0,18-12,36-12c18,0,18,12,35.999,12
				c18,0,18-12,36-12c18,0,18,12,36,12c18.001,0,18.001-12,36.002-12c18.001,0,18.001,12,36.003,12c17.999,0,17.999-12,35.997-12
				c17.999,0,17.999,12,35.999,12c18.001,0,18.001-12,36.003-12s18.001,12,36.003,12c18.002,0,18.002-12,36.005-12
				c18.002,0,18.002,12,36.003,12c18.004,0,18.004-12,36.009-12s18.004,12,36.009,12"/>
		</g>
		<g>
			<path fill="none" stroke="#FFFFFF" stroke-width="2" stroke-miterlimit="10" d="M-1149.291-1711.987
				c17.999,0,17.999,12,35.998,12c18,0,18-12,35.999-12c18,0,18,12,35.999,12c18,0,18-12,36-12s18,12,36,12s18-12,36-12
				s18,12,35.999,12s17.999-12,35.999-12s18,12,35.999,12c18,0,18-12,36-12c17.998,0,17.998,12,35.996,12c18,0,18-12,36-12
				c17.998,0,17.998,12,35.996,12c17.998,0,17.998-12,35.995-12c17.998,0,17.998,12,35.996,12c17.999,0,17.999-12,35.997-12
				c17.999,0,17.999,12,35.998,12c18.001,0,18.001-12,36.002-12c17.999,0,17.999,12,35.998,12c18,0,18-12,36-12
				c18,0,18,12,35.999,12c18,0,18-12,36-12s18,12,36,12c18.001,0,18.001-12,36.002-12s18.001,12,36.003,12
				c17.999,0,17.999-12,35.998-12s17.999,12,35.998,12c18.001,0,18.001-12,36.003-12c18.002,0,18.002,12,36.003,12
				c18.002,0,18.002-12,36.005-12c18.001,0,18.001,12,36.003,12c18.004,0,18.004-12,36.009-12s18.004,12,36.009,12"/>
		</g>
		<g>
			<path fill="none" stroke="#FFFFFF" stroke-width="2" stroke-miterlimit="10" d="M-1149.352-1687.534
				c17.999,0,17.999,12,35.998,12c18,0,18-12,35.999-12c18,0,18,12,35.999,12c18,0,18-12,36-12s18,12,36,12s18-12,36-12
				s18,12,35.999,12s17.999-12,35.999-12s18,12,35.999,12c18,0,18-12,36-12c17.998,0,17.998,12,35.996,12c18,0,18-12,36-12
				c17.998,0,17.998,12,35.996,12c17.998,0,17.998-12,35.995-12c17.998,0,17.998,12,35.996,12c17.999,0,17.999-12,35.997-12
				c17.999,0,17.999,12,35.998,12c18.001,0,18.001-12,36.002-12c17.999,0,17.999,12,35.998,12c18,0,18-12,36-12
				c18,0,18,12,35.999,12c18,0,18-12,36-12s18,12,36,12c18.001,0,18.001-12,36.002-12s18.001,12,36.003,12
				c17.999,0,17.999-12,35.998-12s17.999,12,35.998,12c18.001,0,18.001-12,36.003-12c18.002,0,18.002,12,36.003,12
				c18.002,0,18.002-12,36.005-12c18.001,0,18.001,12,36.003,12c18.004,0,18.004-12,36.009-12s18.004,12,36.009,12"/>
		</g>
		<g>
			<path fill="none" stroke="#FFFFFF" stroke-width="2" stroke-miterlimit="10" d="M-1149.413-1663.081
				c17.999,0,17.999,12,35.998,12s17.999-12,35.999-12s18,12,36,12s18-12,36-12s18,12,36,12s18-12,36-12
				c17.999,0,17.999,12,35.999,12s18-12,35.999-12s17.999,12,35.999,12c18,0,18-12,36-12c17.998,0,17.998,12,35.996,12
				c18,0,18-12,35.999-12c17.998,0,17.998,12,35.996,12s17.998-12,35.996-12s17.998,12,35.996,12s17.998-12,35.997-12
				c17.999,0,17.999,12,35.998,12c18,0,18-12,36.001-12c17.999,0,17.999,12,35.999,12c18,0,18-12,36-12c18,0,18,12,35.999,12
				c18,0,18-12,36-12c18,0,18,12,36,12c18.001,0,18.001-12,36.002-12c18.001,0,18.001,12,36.003,12c17.999,0,17.999-12,35.997-12
				c17.999,0,17.999,12,35.999,12c18.001,0,18.001-12,36.003-12s18.001,12,36.003,12c18.002,0,18.002-12,36.005-12
				c18.002,0,18.002,12,36.003,12c18.004,0,18.004-12,36.009-12s18.004,12,36.009,12"/>
		</g>
		<g>
			<path fill="none" stroke="#FFFFFF" stroke-width="2" stroke-miterlimit="10" d="M-1149.475-1638.627
				c17.999,0,17.999,12,35.998,12s17.999-12,35.999-12s18,12,36,12s18-12,36-12s18,12,36,12s18-12,36-12
				c17.999,0,17.999,12,35.999,12s18-12,35.999-12s17.999,12,35.999,12c18,0,18-12,36-12c17.998,0,17.998,12,35.996,12
				c18,0,18-12,35.999-12c17.998,0,17.998,12,35.996,12s17.998-12,35.996-12s17.998,12,35.996,12s17.998-12,35.997-12
				c17.999,0,17.999,12,35.998,12c18,0,18-12,36.001-12c17.999,0,17.999,12,35.999,12c18,0,18-12,36-12c18,0,18,12,35.999,12
				c18,0,18-12,36-12c18,0,18,12,36,12c18.001,0,18.001-12,36.002-12c18.001,0,18.001,12,36.003,12c17.999,0,17.999-12,35.997-12
				c17.999,0,17.999,12,35.999,12c18.001,0,18.001-12,36.003-12s18.001,12,36.003,12c18.002,0,18.002-12,36.005-12
				c18.002,0,18.002,12,36.003,12c18.004,0,18.004-12,36.009-12s18.004,12,36.009,12"/>
		</g>
		<g>
			<path fill="none" stroke="#FFFFFF" stroke-width="2" stroke-miterlimit="10" d="M-1149.536-1614.174
				c17.999,0,17.999,12,35.998,12c18,0,18-12,35.999-12c18,0,18,12,35.999,12c18,0,18-12,36-12s18,12,36,12s18-12,36-12
				s18,12,35.999,12s17.999-12,35.999-12s18,12,35.999,12c18,0,18-12,36-12c17.998,0,17.998,12,35.996,12c18,0,18-12,36-12
				c17.998,0,17.998,12,35.996,12c17.998,0,17.998-12,35.995-12c17.998,0,17.998,12,35.996,12c17.999,0,17.999-12,35.997-12
				c17.999,0,17.999,12,35.998,12c18.001,0,18.001-12,36.002-12c17.999,0,17.999,12,35.998,12c18,0,18-12,36-12
				c18,0,18,12,35.999,12c18,0,18-12,36-12s18,12,36,12c18.001,0,18.001-12,36.002-12s18.001,12,36.003,12
				c17.999,0,17.999-12,35.998-12s17.999,12,35.998,12c18.001,0,18.001-12,36.003-12c18.002,0,18.002,12,36.003,12
				c18.002,0,18.002-12,36.005-12c18.001,0,18.001,12,36.003,12c18.004,0,18.004-12,36.009-12s18.004,12,36.009,12"/>
		</g>
		<g>
			<path fill="none" stroke="#FFFFFF" stroke-width="2" stroke-miterlimit="10" d="M-1149.597-1589.72c17.999,0,17.999,12,35.998,12
				s17.999-12,35.999-12s18,12,36,12s18-12,36-12s18,12,36,12s18-12,36-12c17.999,0,17.999,12,35.999,12s18-12,35.999-12
				s17.999,12,35.999,12c18,0,18-12,36-12c17.998,0,17.998,12,35.996,12c18,0,18-12,35.999-12c17.998,0,17.998,12,35.996,12
				s17.998-12,35.996-12s17.998,12,35.996,12s17.998-12,35.997-12c17.999,0,17.999,12,35.998,12c18,0,18-12,36.001-12
				c17.999,0,17.999,12,35.999,12c18,0,18-12,36-12c18,0,18,12,35.999,12c18,0,18-12,36-12c18,0,18,12,36,12
				c18.001,0,18.001-12,36.002-12c18.001,0,18.001,12,36.003,12c17.999,0,17.999-12,35.997-12c17.999,0,17.999,12,35.999,12
				c18.001,0,18.001-12,36.003-12s18.001,12,36.003,12c18.002,0,18.002-12,36.005-12c18.002,0,18.002,12,36.003,12
				c18.004,0,18.004-12,36.009-12s18.004,12,36.009,12"/>
		</g>
		<g>
			<path fill="none" stroke="#FFFFFF" stroke-width="2" stroke-miterlimit="10" d="M-1149.658-1565.267
				c17.999,0,17.999,12,35.998,12s17.999-12,35.999-12s18,12,36,12s18-12,36-12s18,12,36,12s18-12,36-12
				c17.999,0,17.999,12,35.999,12s18-12,35.999-12s17.999,12,35.999,12c18,0,18-12,36-12c17.998,0,17.998,12,35.996,12
				c18,0,18-12,35.999-12c17.998,0,17.998,12,35.996,12s17.998-12,35.996-12s17.998,12,35.996,12s17.998-12,35.997-12
				c17.999,0,17.999,12,35.998,12c18,0,18-12,36.001-12c17.999,0,17.999,12,35.999,12c18,0,18-12,36-12c18,0,18,12,35.999,12
				c18,0,18-12,36-12c18,0,18,12,36,12c18.001,0,18.001-12,36.002-12c18.001,0,18.001,12,36.003,12c17.999,0,17.999-12,35.997-12
				c17.999,0,17.999,12,35.999,12c18.001,0,18.001-12,36.003-12s18.001,12,36.003,12c18.002,0,18.002-12,36.005-12
				c18.002,0,18.002,12,36.003,12c18.004,0,18.004-12,36.009-12s18.004,12,36.009,12"/>
		</g>
		<g>
			<path fill="none" stroke="#FFFFFF" stroke-width="2" stroke-miterlimit="10" d="M-1149.719-1540.813
				c17.999,0,17.999,12,35.998,12c18,0,18-12,35.999-12c18,0,18,12,35.999,12c18,0,18-12,36-12s18,12,36,12s18-12,36-12
				s18,12,35.999,12s17.999-12,35.999-12s18,12,35.999,12c18,0,18-12,36-12c17.998,0,17.998,12,35.996,12c18,0,18-12,36-12
				c17.998,0,17.998,12,35.996,12c17.998,0,17.998-12,35.995-12c17.998,0,17.998,12,35.996,12c17.999,0,17.999-12,35.997-12
				c17.999,0,17.999,12,35.998,12c18.001,0,18.001-12,36.002-12c17.999,0,17.999,12,35.998,12c18,0,18-12,36-12
				c18,0,18,12,35.999,12c18,0,18-12,36-12s18,12,36,12c18.001,0,18.001-12,36.002-12s18.001,12,36.003,12
				c17.999,0,17.999-12,35.998-12s17.999,12,35.998,12c18.001,0,18.001-12,36.003-12c18.002,0,18.002,12,36.003,12
				c18.002,0,18.002-12,36.005-12c18.001,0,18.001,12,36.003,12c18.004,0,18.004-12,36.009-12s18.004,12,36.009,12"/>
		</g>
		<g>
			<path fill="none" stroke="#FFFFFF" stroke-width="2" stroke-miterlimit="10" d="M-1149.78-1516.359c17.999,0,17.999,12,35.998,12
				s17.999-12,35.999-12s18,12,36,12s18-12,36-12s18,12,36,12s18-12,36-12c17.999,0,17.999,12,35.999,12s18-12,35.999-12
				s17.999,12,35.999,12c18,0,18-12,36-12c17.998,0,17.998,12,35.996,12c18,0,18-12,35.999-12c17.998,0,17.998,12,35.996,12
				s17.998-12,35.996-12s17.998,12,35.996,12s17.998-12,35.997-12c17.999,0,17.999,12,35.998,12c18,0,18-12,36.001-12
				c17.999,0,17.999,12,35.999,12c18,0,18-12,36-12c18,0,18,12,35.999,12c18,0,18-12,36-12c18,0,18,12,36,12
				c18.001,0,18.001-12,36.002-12c18.001,0,18.001,12,36.003,12c17.999,0,17.999-12,35.997-12c17.999,0,17.999,12,35.999,12
				c18.001,0,18.001-12,36.003-12s18.001,12,36.003,12c18.002,0,18.002-12,36.005-12c18.002,0,18.002,12,36.003,12
				c18.004,0,18.004-12,36.009-12s18.004,12,36.009,12"/>
		</g>
		<g>
			<path fill="none" stroke="#FFFFFF" stroke-width="2" stroke-miterlimit="10" d="M-1149.842-1491.906
				c17.999,0,17.999,12,35.998,12s17.999-12,35.999-12s18,12,36,12s18-12,36-12s18,12,36,12s18-12,36-12
				c17.999,0,17.999,12,35.999,12s18-12,35.999-12s17.999,12,35.999,12c18,0,18-12,36-12c17.998,0,17.998,12,35.996,12
				c18,0,18-12,35.999-12c17.998,0,17.998,12,35.996,12s17.998-12,35.996-12s17.998,12,35.996,12s17.998-12,35.997-12
				c17.999,0,17.999,12,35.998,12c18,0,18-12,36.001-12c17.999,0,17.999,12,35.999,12c18,0,18-12,36-12c18,0,18,12,35.999,12
				c18,0,18-12,36-12c18,0,18,12,36,12c18.001,0,18.001-12,36.002-12c18.001,0,18.001,12,36.003,12c17.999,0,17.999-12,35.997-12
				c17.999,0,17.999,12,35.999,12c18.001,0,18.001-12,36.003-12s18.001,12,36.003,12c18.002,0,18.002-12,36.005-12
				c18.002,0,18.002,12,36.003,12c18.004,0,18.004-12,36.009-12s18.004,12,36.009,12"/>
		</g>
		<g>
			<path fill="none" stroke="#FFFFFF" stroke-width="2" stroke-miterlimit="10" d="M-1149.903-1467.453
				c17.999,0,17.999,12,35.998,12c18,0,18-12,35.999-12c18,0,18,12,35.999,12c18,0,18-12,36-12s18,12,36,12s18-12,36-12
				s18,12,35.999,12s17.999-12,35.999-12s18,12,35.999,12c18,0,18-12,36-12c17.998,0,17.998,12,35.996,12c18,0,18-12,36-12
				c17.998,0,17.998,12,35.996,12c17.998,0,17.998-12,35.995-12c17.998,0,17.998,12,35.996,12c17.999,0,17.999-12,35.997-12
				c17.999,0,17.999,12,35.998,12c18.001,0,18.001-12,36.002-12c17.999,0,17.999,12,35.998,12c18,0,18-12,36-12
				c18,0,18,12,35.999,12c18,0,18-12,36-12s18,12,36,12c18.001,0,18.001-12,36.002-12s18.001,12,36.003,12
				c17.999,0,17.999-12,35.998-12s17.999,12,35.998,12c18.001,0,18.001-12,36.003-12c18.002,0,18.002,12,36.003,12
				c18.002,0,18.002-12,36.005-12c18.001,0,18.001,12,36.003,12c18.004,0,18.004-12,36.009-12s18.004,12,36.009,12"/>
		</g>
		<g>
			<path fill="none" stroke="#FFFFFF" stroke-width="2" stroke-miterlimit="10" d="M-1149.964-1442.999
				c17.999,0,17.999,12,35.998,12c18,0,18-12,35.999-12c18,0,18,12,35.999,12c18,0,18-12,36-12s18,12,36,12s18-12,36-12
				s18,12,35.999,12s17.999-12,35.999-12s18,12,35.999,12c18,0,18-12,36-12c17.998,0,17.998,12,35.996,12c18,0,18-12,36-12
				c17.998,0,17.998,12,35.996,12c17.998,0,17.998-12,35.995-12c17.998,0,17.998,12,35.996,12c17.999,0,17.999-12,35.997-12
				c17.999,0,17.999,12,35.998,12c18.001,0,18.001-12,36.002-12c17.999,0,17.999,12,35.998,12c18,0,18-12,36-12
				c18,0,18,12,35.999,12c18,0,18-12,36-12s18,12,36,12c18.001,0,18.001-12,36.002-12s18.001,12,36.003,12
				c17.999,0,17.999-12,35.998-12s17.999,12,35.998,12c18.001,0,18.001-12,36.003-12c18.002,0,18.002,12,36.003,12
				c18.002,0,18.002-12,36.005-12c18.001,0,18.001,12,36.003,12c18.004,0,18.004-12,36.009-12s18.004,12,36.009,12"/>
		</g>
		<g>
			<path fill="none" stroke="#FFFFFF" stroke-width="2" stroke-miterlimit="10" d="M-1150.025-1418.546
				c17.999,0,17.999,12,35.998,12s17.999-12,35.999-12s18,12,36,12s18-12,36-12s18,12,36,12s18-12,36-12
				c17.999,0,17.999,12,35.999,12s18-12,35.999-12s17.999,12,35.999,12c18,0,18-12,36-12c17.998,0,17.998,12,35.996,12
				c18,0,18-12,35.999-12c17.998,0,17.998,12,35.996,12s17.998-12,35.996-12s17.998,12,35.996,12s17.998-12,35.997-12
				c17.999,0,17.999,12,35.998,12c18,0,18-12,36.001-12c17.999,0,17.999,12,35.999,12c18,0,18-12,36-12c18,0,18,12,35.999,12
				c18,0,18-12,36-12c18,0,18,12,36,12c18.001,0,18.001-12,36.002-12c18.001,0,18.001,12,36.003,12c17.999,0,17.999-12,35.997-12
				c17.999,0,17.999,12,35.999,12c18.001,0,18.001-12,36.003-12s18.001,12,36.003,12c18.002,0,18.002-12,36.005-12
				c18.002,0,18.002,12,36.003,12c18.004,0,18.004-12,36.009-12s18.004,12,36.009,12"/>
		</g>
		<g>
			<path fill="none" stroke="#FFFFFF" stroke-width="2" stroke-miterlimit="10" d="M-1150.086-1394.092
				c17.999,0,17.999,12,35.998,12c18,0,18-12,35.999-12c18,0,18,12,35.999,12c18,0,18-12,36-12s18,12,36,12s18-12,36-12
				s18,12,35.999,12s17.999-12,35.999-12s18,12,35.999,12c18,0,18-12,36-12c17.998,0,17.998,12,35.996,12c18,0,18-12,36-12
				c17.998,0,17.998,12,35.996,12c17.998,0,17.998-12,35.995-12c17.998,0,17.998,12,35.996,12c17.999,0,17.999-12,35.997-12
				c17.999,0,17.999,12,35.998,12c18.001,0,18.001-12,36.002-12c17.999,0,17.999,12,35.998,12c18,0,18-12,36-12
				c18,0,18,12,35.999,12c18,0,18-12,36-12s18,12,36,12c18.001,0,18.001-12,36.002-12s18.001,12,36.003,12
				c17.999,0,17.999-12,35.998-12s17.999,12,35.998,12c18.001,0,18.001-12,36.003-12c18.002,0,18.002,12,36.003,12
				c18.002,0,18.002-12,36.005-12c18.001,0,18.001,12,36.003,12c18.004,0,18.004-12,36.009-12s18.004,12,36.009,12"/>
		</g>
		<g>
			<path fill="none" stroke="#FFFFFF" stroke-width="2" stroke-miterlimit="10" d="M-1150.148-1369.639
				c17.999,0,17.999,12,35.998,12c18,0,18-12,35.999-12c18,0,18,12,35.999,12c18,0,18-12,36-12s18,12,36,12s18-12,36-12
				s18,12,35.999,12s17.999-12,35.999-12s18,12,35.999,12c18,0,18-12,36-12c17.998,0,17.998,12,35.996,12c18,0,18-12,36-12
				c17.998,0,17.998,12,35.996,12c17.998,0,17.998-12,35.995-12c17.998,0,17.998,12,35.996,12c17.999,0,17.999-12,35.997-12
				c17.999,0,17.999,12,35.998,12c18.001,0,18.001-12,36.002-12c17.999,0,17.999,12,35.998,12c18,0,18-12,36-12
				c18,0,18,12,35.999,12c18,0,18-12,36-12s18,12,36,12c18.001,0,18.001-12,36.002-12s18.001,12,36.003,12
				c17.999,0,17.999-12,35.998-12s17.999,12,35.998,12c18.001,0,18.001-12,36.003-12c18.002,0,18.002,12,36.003,12
				c18.002,0,18.002-12,36.005-12c18.001,0,18.001,12,36.003,12c18.004,0,18.004-12,36.009-12s18.004,12,36.009,12"/>
		</g>
		<g>
			<path fill="none" stroke="#FFFFFF" stroke-width="2" stroke-miterlimit="10" d="M-1150.209-1345.186
				c17.999,0,17.999,12,35.998,12s17.999-12,35.999-12s18,12,36,12s18-12,36-12s18,12,36,12s18-12,36-12
				c17.999,0,17.999,12,35.999,12s18-12,35.999-12s17.999,12,35.999,12c18,0,18-12,36-12c17.998,0,17.998,12,35.996,12
				c18,0,18-12,35.999-12c17.998,0,17.998,12,35.996,12s17.998-12,35.996-12s17.998,12,35.996,12s17.998-12,35.997-12
				c17.999,0,17.999,12,35.998,12c18,0,18-12,36.001-12c17.999,0,17.999,12,35.999,12c18,0,18-12,36-12c18,0,18,12,35.999,12
				c18,0,18-12,36-12c18,0,18,12,36,12c18.001,0,18.001-12,36.002-12c18.001,0,18.001,12,36.003,12c17.999,0,17.999-12,35.997-12
				c17.999,0,17.999,12,35.999,12c18.001,0,18.001-12,36.003-12s18.001,12,36.003,12c18.002,0,18.002-12,36.005-12
				c18.002,0,18.002,12,36.003,12c18.004,0,18.004-12,36.009-12s18.004,12,36.009,12"/>
		</g>
		<g>
			<path fill="none" stroke="#FFFFFF" stroke-width="2" stroke-miterlimit="10" d="M-1150.271-1320.731
				c17.999,0,17.999,12,35.998,12s17.999-12,35.999-12s18,12,36,12s18-12,36-12s18,12,36,12s18-12,36-12
				c17.999,0,17.999,12,35.999,12s18-12,35.999-12s17.999,12,35.999,12c18,0,18-12,36-12c17.998,0,17.998,12,35.996,12
				c18,0,18-12,35.999-12c17.998,0,17.998,12,35.996,12s17.998-12,35.996-12s17.998,12,35.996,12s17.998-12,35.997-12
				c17.999,0,17.999,12,35.998,12c18,0,18-12,36.001-12c17.999,0,17.999,12,35.999,12c18,0,18-12,36-12c18,0,18,12,35.999,12
				c18,0,18-12,36-12c18,0,18,12,36,12c18.001,0,18.001-12,36.002-12c18.001,0,18.001,12,36.003,12c17.999,0,17.999-12,35.997-12
				c17.999,0,17.999,12,35.999,12c18.001,0,18.001-12,36.003-12s18.001,12,36.003,12c18.002,0,18.002-12,36.005-12
				c18.002,0,18.002,12,36.003,12c18.004,0,18.004-12,36.009-12s18.004,12,36.009,12"/>
		</g>
		<g>
			<path fill="none" stroke="#FFFFFF" stroke-width="2" stroke-miterlimit="10" d="M-1150.332-1296.278
				c17.999,0,17.999,12,35.998,12c18,0,18-12,35.999-12c18,0,18,12,35.999,12c18,0,18-12,36-12s18,12,36,12s18-12,36-12
				s18,12,35.999,12s17.999-12,35.999-12s18,12,35.999,12c18,0,18-12,36-12c17.998,0,17.998,12,35.996,12c18,0,18-12,36-12
				c17.998,0,17.998,12,35.996,12c17.998,0,17.998-12,35.995-12c17.998,0,17.998,12,35.996,12c17.999,0,17.999-12,35.997-12
				c17.999,0,17.999,12,35.998,12c18.001,0,18.001-12,36.002-12c17.999,0,17.999,12,35.998,12c18,0,18-12,36-12
				c18,0,18,12,35.999,12c18,0,18-12,36-12s18,12,36,12c18.001,0,18.001-12,36.002-12s18.001,12,36.003,12
				c17.999,0,17.999-12,35.998-12s17.999,12,35.998,12c18.001,0,18.001-12,36.003-12c18.002,0,18.002,12,36.003,12
				c18.002,0,18.002-12,36.005-12c18.001,0,18.001,12,36.003,12c18.004,0,18.004-12,36.009-12s18.004,12,36.009,12"/>
		</g>
	</g>
</g>
<g id="Слой_3">
	<rect x="-1135.347" y="-1241.444" fill="#B9C9C6" width="1173.016" height="639.531"/>
	<g opacity="0.41">
		<g>
			<path fill="none" stroke="#FFFFFF" stroke-width="2" stroke-miterlimit="10" d="M-1135.347-1257.444
				c17.999,0,17.999,12,35.998,12c18,0,18-12,35.999-12c18,0,18,12,35.999,12c18,0,18-12,36-12s18,12,36,12s18-12,36-12
				s18,12,35.999,12s17.999-12,35.999-12s18,12,35.999,12c18,0,18-12,36-12c17.998,0,17.998,12,35.996,12c18,0,18-12,36-12
				c17.998,0,17.998,12,35.996,12c17.998,0,17.998-12,35.995-12c17.998,0,17.998,12,35.996,12s17.998-12,35.996-12
				c17.999,0,17.999,12,35.998,12c18.001,0,18.001-12,36.002-12c17.999,0,17.999,12,35.998,12c18,0,18-12,36-12
				c18,0,18,12,35.999,12s18-12,36-12s18,12,36,12c18.001,0,18.001-12,36.002-12s18.001,12,36.003,12c17.999,0,17.999-12,35.998-12
				s17.999,12,35.998,12c18.001,0,18.001-12,36.003-12c18.002,0,18.002,12,36.003,12c18.002,0,18.002-12,36.005-12
				c18.001,0,18.001,12,36.003,12c18.004,0,18.004-12,36.009-12s18.004,12,36.009,12"/>
		</g>
		<g>
			<path fill="none" stroke="#FFFFFF" stroke-width="2" stroke-miterlimit="10" d="M-1135.408-1232.991
				c17.999,0,17.999,12,35.998,12s17.999-12,35.999-12s18,12,36,12s18-12,36-12s18,12,36,12s18-12,36-12
				c17.999,0,17.999,12,35.999,12s18-12,35.999-12s17.999,12,35.999,12c18,0,18-12,36-12c17.998,0,17.998,12,35.996,12
				c18,0,18-12,36-12c17.998,0,17.998,12,35.996,12c17.998,0,17.998-12,35.995-12s17.998,12,35.996,12s17.998-12,35.997-12
				c17.999,0,17.999,12,35.998,12c18.001,0,18.001-12,36.002-12c17.999,0,17.999,12,35.998,12c18,0,18-12,36-12
				c18,0,18,12,35.999,12c18,0,18-12,36-12c18,0,18,12,36,12c18.001,0,18.001-12,36.002-12c18.001,0,18.001,12,36.003,12
				c17.999,0,17.999-12,35.997-12c17.999,0,17.999,12,35.999,12c18.001,0,18.001-12,36.003-12s18.001,12,36.003,12
				c18.002,0,18.002-12,36.005-12c18.002,0,18.002,12,36.003,12c18.004,0,18.004-12,36.009-12s18.004,12,36.009,12"/>
		</g>
		<g>
			<path fill="none" stroke="#FFFFFF" stroke-width="2" stroke-miterlimit="10" d="M-1135.47-1208.538c17.999,0,17.999,12,35.998,12
				s17.999-12,35.999-12s18,12,36,12s18-12,36-12s18,12,36,12s18-12,36-12c17.999,0,17.999,12,35.999,12s18-12,35.999-12
				s17.999,12,35.999,12c18,0,18-12,36-12c17.998,0,17.998,12,35.996,12c18,0,18-12,36-12c17.998,0,17.998,12,35.996,12
				c17.998,0,17.998-12,35.995-12s17.998,12,35.996,12s17.998-12,35.997-12c17.999,0,17.999,12,35.998,12
				c18.001,0,18.001-12,36.002-12c17.999,0,17.999,12,35.998,12c18,0,18-12,36-12c18,0,18,12,35.999,12c18,0,18-12,36-12
				c18,0,18,12,36,12c18.001,0,18.001-12,36.002-12c18.001,0,18.001,12,36.003,12c17.999,0,17.999-12,35.997-12
				c17.999,0,17.999,12,35.999,12c18.001,0,18.001-12,36.003-12s18.001,12,36.003,12c18.002,0,18.002-12,36.005-12
				c18.002,0,18.002,12,36.003,12c18.004,0,18.004-12,36.009-12s18.004,12,36.009,12"/>
		</g>
		<g>
			<path fill="none" stroke="#FFFFFF" stroke-width="2" stroke-miterlimit="10" d="M-1135.531-1184.084
				c17.999,0,17.999,12,35.998,12c18,0,18-12,35.999-12c18,0,18,12,35.999,12c18,0,18-12,36-12s18,12,36,12s18-12,36-12
				s18,12,35.999,12s17.999-12,35.999-12s18,12,35.999,12c18,0,18-12,36-12c17.998,0,17.998,12,35.996,12c18,0,18-12,36-12
				c17.998,0,17.998,12,35.996,12c17.998,0,17.998-12,35.995-12c17.998,0,17.998,12,35.996,12s17.998-12,35.996-12
				c17.999,0,17.999,12,35.998,12c18.001,0,18.001-12,36.002-12c17.999,0,17.999,12,35.998,12c18,0,18-12,36-12
				c18,0,18,12,35.999,12s18-12,36-12s18,12,36,12c18.001,0,18.001-12,36.002-12s18.001,12,36.003,12c17.999,0,17.999-12,35.998-12
				s17.999,12,35.998,12c18.001,0,18.001-12,36.003-12c18.002,0,18.002,12,36.003,12c18.002,0,18.002-12,36.005-12
				c18.001,0,18.001,12,36.003,12c18.004,0,18.004-12,36.009-12s18.004,12,36.009,12"/>
		</g>
		<g>
			<path fill="none" stroke="#FFFFFF" stroke-width="2" stroke-miterlimit="10" d="M-1135.592-1159.631
				c17.999,0,17.999,12,35.998,12c18,0,18-12,35.999-12c18,0,18,12,35.999,12c18,0,18-12,36-12s18,12,36,12s18-12,36-12
				s18,12,35.999,12s17.999-12,35.999-12s18,12,35.999,12c18,0,18-12,36-12c17.998,0,17.998,12,35.996,12c18,0,18-12,36-12
				c17.998,0,17.998,12,35.996,12c17.998,0,17.998-12,35.995-12c17.998,0,17.998,12,35.996,12s17.998-12,35.996-12
				c17.999,0,17.999,12,35.998,12c18.001,0,18.001-12,36.002-12c17.999,0,17.999,12,35.998,12c18,0,18-12,36-12
				c18,0,18,12,35.999,12s18-12,36-12s18,12,36,12c18.001,0,18.001-12,36.002-12s18.001,12,36.003,12c17.999,0,17.999-12,35.998-12
				s17.999,12,35.998,12c18.001,0,18.001-12,36.003-12c18.002,0,18.002,12,36.003,12c18.002,0,18.002-12,36.005-12
				c18.001,0,18.001,12,36.003,12c18.004,0,18.004-12,36.009-12s18.004,12,36.009,12"/>
		</g>
		<g>
			<path fill="none" stroke="#FFFFFF" stroke-width="2" stroke-miterlimit="10" d="M-1135.653-1135.177
				c17.999,0,17.999,12,35.998,12s17.999-12,35.999-12s18,12,36,12s18-12,36-12s18,12,36,12s18-12,36-12
				c17.999,0,17.999,12,35.999,12s18-12,35.999-12s17.999,12,35.999,12c18,0,18-12,36-12c17.998,0,17.998,12,35.996,12
				c18,0,18-12,36-12c17.998,0,17.998,12,35.996,12c17.998,0,17.998-12,35.995-12s17.998,12,35.996,12s17.998-12,35.997-12
				c17.999,0,17.999,12,35.998,12c18.001,0,18.001-12,36.002-12c17.999,0,17.999,12,35.998,12c18,0,18-12,36-12
				c18,0,18,12,35.999,12c18,0,18-12,36-12c18,0,18,12,36,12c18.001,0,18.001-12,36.002-12c18.001,0,18.001,12,36.003,12
				c17.999,0,17.999-12,35.997-12c17.999,0,17.999,12,35.999,12c18.001,0,18.001-12,36.003-12s18.001,12,36.003,12
				c18.002,0,18.002-12,36.005-12c18.002,0,18.002,12,36.003,12c18.004,0,18.004-12,36.009-12s18.004,12,36.009,12"/>
		</g>
		<g>
			<path fill="none" stroke="#FFFFFF" stroke-width="2" stroke-miterlimit="10" d="M-1135.714-1110.724
				c17.999,0,17.999,12,35.998,12c18,0,18-12,35.999-12c18,0,18,12,35.999,12c18,0,18-12,36-12s18,12,36,12s18-12,36-12
				s18,12,35.999,12s17.999-12,35.999-12s18,12,35.999,12c18,0,18-12,36-12c17.998,0,17.998,12,35.996,12c18,0,18-12,36-12
				c17.998,0,17.998,12,35.996,12c17.998,0,17.998-12,35.995-12c17.998,0,17.998,12,35.996,12s17.998-12,35.996-12
				c17.999,0,17.999,12,35.998,12c18.001,0,18.001-12,36.002-12c17.999,0,17.999,12,35.998,12c18,0,18-12,36-12
				c18,0,18,12,35.999,12s18-12,36-12s18,12,36,12c18.001,0,18.001-12,36.002-12s18.001,12,36.003,12c17.999,0,17.999-12,35.998-12
				s17.999,12,35.998,12c18.001,0,18.001-12,36.003-12c18.002,0,18.002,12,36.003,12c18.002,0,18.002-12,36.005-12
				c18.001,0,18.001,12,36.003,12c18.004,0,18.004-12,36.009-12s18.004,12,36.009,12"/>
		</g>
		<g>
			<path fill="none" stroke="#FFFFFF" stroke-width="2" stroke-miterlimit="10" d="M-1135.776-1086.271
				c17.999,0,17.999,12,35.998,12c18,0,18-12,35.999-12c18,0,18,12,35.999,12c18,0,18-12,36-12s18,12,36,12s18-12,36-12
				s18,12,35.999,12s17.999-12,35.999-12s18,12,35.999,12c18,0,18-12,36-12c17.998,0,17.998,12,35.996,12c18,0,18-12,36-12
				c17.998,0,17.998,12,35.996,12c17.998,0,17.998-12,35.995-12c17.998,0,17.998,12,35.996,12s17.998-12,35.996-12
				c17.999,0,17.999,12,35.998,12c18.001,0,18.001-12,36.002-12c17.999,0,17.999,12,35.998,12c18,0,18-12,36-12
				c18,0,18,12,35.999,12s18-12,36-12s18,12,36,12c18.001,0,18.001-12,36.002-12s18.001,12,36.003,12c17.999,0,17.999-12,35.998-12
				s17.999,12,35.998,12c18.001,0,18.001-12,36.003-12c18.002,0,18.002,12,36.003,12c18.002,0,18.002-12,36.005-12
				c18.001,0,18.001,12,36.003,12c18.004,0,18.004-12,36.009-12s18.004,12,36.009,12"/>
		</g>
		<g>
			<path fill="none" stroke="#FFFFFF" stroke-width="2" stroke-miterlimit="10" d="M-1135.837-1061.816
				c17.999,0,17.999,12,35.998,12s17.999-12,35.999-12s18,12,36,12s18-12,36-12s18,12,36,12s18-12,36-12
				c17.999,0,17.999,12,35.999,12s18-12,35.999-12s17.999,12,35.999,12c18,0,18-12,36-12c17.998,0,17.998,12,35.996,12
				c18,0,18-12,36-12c17.998,0,17.998,12,35.996,12c17.998,0,17.998-12,35.995-12s17.998,12,35.996,12s17.998-12,35.997-12
				c17.999,0,17.999,12,35.998,12c18.001,0,18.001-12,36.002-12c17.999,0,17.999,12,35.998,12c18,0,18-12,36-12
				c18,0,18,12,35.999,12c18,0,18-12,36-12c18,0,18,12,36,12c18.001,0,18.001-12,36.002-12c18.001,0,18.001,12,36.003,12
				c17.999,0,17.999-12,35.997-12c17.999,0,17.999,12,35.999,12c18.001,0,18.001-12,36.003-12s18.001,12,36.003,12
				c18.002,0,18.002-12,36.005-12c18.002,0,18.002,12,36.003,12c18.004,0,18.004-12,36.009-12s18.004,12,36.009,12"/>
		</g>
		<g>
			<path fill="none" stroke="#FFFFFF" stroke-width="2" stroke-miterlimit="10" d="M-1135.898-1037.363
				c17.999,0,17.999,12,35.998,12c18,0,18-12,35.999-12c18,0,18,12,35.999,12c18,0,18-12,36-12s18,12,36,12s18-12,36-12
				s18,12,35.999,12s17.999-12,35.999-12s18,12,35.999,12c18,0,18-12,36-12c17.998,0,17.998,12,35.996,12c18,0,18-12,36-12
				c17.998,0,17.998,12,35.996,12c17.998,0,17.998-12,35.995-12c17.998,0,17.998,12,35.996,12s17.998-12,35.996-12
				c17.999,0,17.999,12,35.998,12c18.001,0,18.001-12,36.002-12c17.999,0,17.999,12,35.998,12c18,0,18-12,36-12
				c18,0,18,12,35.999,12s18-12,36-12s18,12,36,12c18.001,0,18.001-12,36.002-12s18.001,12,36.003,12c17.999,0,17.999-12,35.998-12
				s17.999,12,35.998,12c18.001,0,18.001-12,36.003-12c18.002,0,18.002,12,36.003,12c18.002,0,18.002-12,36.005-12
				c18.001,0,18.001,12,36.003,12c18.004,0,18.004-12,36.009-12s18.004,12,36.009,12"/>
		</g>
		<g>
			<path fill="none" stroke="#FFFFFF" stroke-width="2" stroke-miterlimit="10" d="M-1135.959-1012.91c17.999,0,17.999,12,35.998,12
				c18,0,18-12,35.999-12c18,0,18,12,35.999,12c18,0,18-12,36-12s18,12,36,12s18-12,36-12s18,12,35.999,12s17.999-12,35.999-12
				s18,12,35.999,12c18,0,18-12,36-12c17.998,0,17.998,12,35.996,12c18,0,18-12,36-12c17.998,0,17.998,12,35.996,12
				c17.998,0,17.998-12,35.995-12c17.998,0,17.998,12,35.996,12s17.998-12,35.996-12c17.999,0,17.999,12,35.998,12
				c18.001,0,18.001-12,36.002-12c17.999,0,17.999,12,35.998,12c18,0,18-12,36-12c18,0,18,12,35.999,12s18-12,36-12s18,12,36,12
				c18.001,0,18.001-12,36.002-12s18.001,12,36.003,12c17.999,0,17.999-12,35.998-12s17.999,12,35.998,12
				c18.001,0,18.001-12,36.003-12c18.002,0,18.002,12,36.003,12c18.002,0,18.002-12,36.005-12c18.001,0,18.001,12,36.003,12
				c18.004,0,18.004-12,36.009-12s18.004,12,36.009,12"/>
		</g>
		<g>
			<path fill="none" stroke="#FFFFFF" stroke-width="2" stroke-miterlimit="10" d="M-1136.021-988.456c17.999,0,17.999,12,35.998,12
				s17.999-12,35.999-12s18,12,36,12s18-12,36-12s18,12,36,12s18-12,36-12c17.999,0,17.999,12,35.999,12s18-12,35.999-12
				s17.999,12,35.999,12c18,0,18-12,36-12c17.998,0,17.998,12,35.996,12c18,0,18-12,36-12c17.998,0,17.998,12,35.996,12
				c17.998,0,17.998-12,35.995-12s17.998,12,35.996,12s17.998-12,35.997-12c17.999,0,17.999,12,35.998,12
				c18.001,0,18.001-12,36.002-12c17.999,0,17.999,12,35.998,12c18,0,18-12,36-12c18,0,18,12,35.999,12c18,0,18-12,36-12
				c18,0,18,12,36,12c18.001,0,18.001-12,36.002-12c18.001,0,18.001,12,36.003,12c17.999,0,17.999-12,35.997-12
				c17.999,0,17.999,12,35.999,12c18.001,0,18.001-12,36.003-12s18.001,12,36.003,12c18.002,0,18.002-12,36.005-12
				c18.002,0,18.002,12,36.003,12c18.004,0,18.004-12,36.009-12s18.004,12,36.009,12"/>
		</g>
		<g>
			<path fill="none" stroke="#FFFFFF" stroke-width="2" stroke-miterlimit="10" d="M-1136.082-964.003c17.999,0,17.999,12,35.998,12
				s17.999-12,35.999-12s18,12,36,12s18-12,36-12s18,12,36,12s18-12,36-12c17.999,0,17.999,12,35.999,12s18-12,35.999-12
				s17.999,12,35.999,12c18,0,18-12,36-12c17.998,0,17.998,12,35.996,12c18,0,18-12,36-12c17.998,0,17.998,12,35.996,12
				c17.998,0,17.998-12,35.995-12s17.998,12,35.996,12s17.998-12,35.997-12c17.999,0,17.999,12,35.998,12
				c18.001,0,18.001-12,36.002-12c17.999,0,17.999,12,35.998,12c18,0,18-12,36-12c18,0,18,12,35.999,12c18,0,18-12,36-12
				c18,0,18,12,36,12c18.001,0,18.001-12,36.002-12c18.001,0,18.001,12,36.003,12c17.999,0,17.999-12,35.997-12
				c17.999,0,17.999,12,35.999,12c18.001,0,18.001-12,36.003-12s18.001,12,36.003,12c18.002,0,18.002-12,36.005-12
				c18.002,0,18.002,12,36.003,12c18.004,0,18.004-12,36.009-12s18.004,12,36.009,12"/>
		</g>
		<g>
			<path fill="none" stroke="#FFFFFF" stroke-width="2" stroke-miterlimit="10" d="M-1136.143-939.55c17.999,0,17.999,12,35.998,12
				c18,0,18-12,35.999-12c18,0,18,12,35.999,12c18,0,18-12,36-12s18,12,36,12s18-12,36-12s18,12,35.999,12s17.999-12,35.999-12
				s18,12,35.999,12c18,0,18-12,36-12c17.998,0,17.998,12,35.996,12c18,0,18-12,36-12c17.998,0,17.998,12,35.996,12
				c17.998,0,17.998-12,35.995-12c17.998,0,17.998,12,35.996,12s17.998-12,35.996-12c17.999,0,17.999,12,35.998,12
				c18.001,0,18.001-12,36.002-12c17.999,0,17.999,12,35.998,12c18,0,18-12,36-12c18,0,18,12,35.999,12s18-12,36-12s18,12,36,12
				c18.001,0,18.001-12,36.002-12s18.001,12,36.003,12c17.999,0,17.999-12,35.998-12s17.999,12,35.998,12
				c18.001,0,18.001-12,36.003-12c18.002,0,18.002,12,36.003,12c18.002,0,18.002-12,36.005-12c18.001,0,18.001,12,36.003,12
				c18.004,0,18.004-12,36.009-12s18.004,12,36.009,12"/>
		</g>
		<g>
			<path fill="none" stroke="#FFFFFF" stroke-width="2" stroke-miterlimit="10" d="M-1136.204-915.096c17.999,0,17.999,12,35.998,12
				s17.999-12,35.999-12s18,12,36,12s18-12,36-12s18,12,36,12s18-12,36-12c17.999,0,17.999,12,35.999,12s18-12,35.999-12
				s17.999,12,35.999,12c18,0,18-12,36-12c17.998,0,17.998,12,35.996,12c18,0,18-12,36-12c17.998,0,17.998,12,35.996,12
				c17.998,0,17.998-12,35.995-12s17.998,12,35.996,12s17.998-12,35.997-12c17.999,0,17.999,12,35.998,12
				c18.001,0,18.001-12,36.002-12c17.999,0,17.999,12,35.998,12c18,0,18-12,36-12c18,0,18,12,35.999,12c18,0,18-12,36-12
				c18,0,18,12,36,12c18.001,0,18.001-12,36.002-12c18.001,0,18.001,12,36.003,12c17.999,0,17.999-12,35.997-12
				c17.999,0,17.999,12,35.999,12c18.001,0,18.001-12,36.003-12s18.001,12,36.003,12c18.002,0,18.002-12,36.005-12
				c18.002,0,18.002,12,36.003,12c18.004,0,18.004-12,36.009-12s18.004,12,36.009,12"/>
		</g>
		<g>
			<path fill="none" stroke="#FFFFFF" stroke-width="2" stroke-miterlimit="10" d="M-1136.266-890.643c17.999,0,17.999,12,35.998,12
				s17.999-12,35.999-12s18,12,36,12s18-12,36-12s18,12,36,12s18-12,36-12c17.999,0,17.999,12,35.999,12s18-12,35.999-12
				s17.999,12,35.999,12c18,0,18-12,36-12c17.998,0,17.998,12,35.996,12c18,0,18-12,36-12c17.998,0,17.998,12,35.996,12
				c17.998,0,17.998-12,35.995-12s17.998,12,35.996,12s17.998-12,35.997-12c17.999,0,17.999,12,35.998,12
				c18.001,0,18.001-12,36.002-12c17.999,0,17.999,12,35.998,12c18,0,18-12,36-12c18,0,18,12,35.999,12c18,0,18-12,36-12
				c18,0,18,12,36,12c18.001,0,18.001-12,36.002-12c18.001,0,18.001,12,36.003,12c17.999,0,17.999-12,35.997-12
				c17.999,0,17.999,12,35.999,12c18.001,0,18.001-12,36.003-12s18.001,12,36.003,12c18.002,0,18.002-12,36.005-12
				c18.002,0,18.002,12,36.003,12c18.004,0,18.004-12,36.009-12s18.004,12,36.009,12"/>
		</g>
		<g>
			<path fill="none" stroke="#FFFFFF" stroke-width="2" stroke-miterlimit="10" d="M-1136.327-866.188c17.999,0,17.999,12,35.998,12
				c18,0,18-12,35.999-12c18,0,18,12,35.999,12c18,0,18-12,36-12s18,12,36,12s18-12,36-12s18,12,35.999,12s17.999-12,35.999-12
				s18,12,35.999,12c18,0,18-12,36-12c17.998,0,17.998,12,35.996,12c18,0,18-12,36-12c17.998,0,17.998,12,35.996,12
				c17.998,0,17.998-12,35.995-12c17.998,0,17.998,12,35.996,12s17.998-12,35.996-12c17.999,0,17.999,12,35.998,12
				c18.001,0,18.001-12,36.002-12c17.999,0,17.999,12,35.998,12c18,0,18-12,36-12c18,0,18,12,35.999,12s18-12,36-12s18,12,36,12
				c18.001,0,18.001-12,36.002-12s18.001,12,36.003,12c17.999,0,17.999-12,35.998-12s17.999,12,35.998,12
				c18.001,0,18.001-12,36.003-12c18.002,0,18.002,12,36.003,12c18.002,0,18.002-12,36.005-12c18.001,0,18.001,12,36.003,12
				c18.004,0,18.004-12,36.009-12s18.004,12,36.009,12"/>
		</g>
		<g>
			<path fill="none" stroke="#FFFFFF" stroke-width="2" stroke-miterlimit="10" d="M-1136.388-841.735c17.999,0,17.999,12,35.998,12
				c18,0,18-12,35.999-12c18,0,18,12,35.999,12c18,0,18-12,36-12s18,12,36,12s18-12,36-12s18,12,35.999,12s17.999-12,35.999-12
				s18,12,35.999,12c18,0,18-12,36-12c17.998,0,17.998,12,35.996,12c18,0,18-12,36-12c17.998,0,17.998,12,35.996,12
				c17.998,0,17.998-12,35.995-12c17.998,0,17.998,12,35.996,12s17.998-12,35.996-12c17.999,0,17.999,12,35.998,12
				c18.001,0,18.001-12,36.002-12c17.999,0,17.999,12,35.998,12c18,0,18-12,36-12c18,0,18,12,35.999,12s18-12,36-12s18,12,36,12
				c18.001,0,18.001-12,36.002-12s18.001,12,36.003,12c17.999,0,17.999-12,35.998-12s17.999,12,35.998,12
				c18.001,0,18.001-12,36.003-12c18.002,0,18.002,12,36.003,12c18.002,0,18.002-12,36.005-12c18.001,0,18.001,12,36.003,12
				c18.004,0,18.004-12,36.009-12s18.004,12,36.009,12"/>
		</g>
		<g>
			<path fill="none" stroke="#FFFFFF" stroke-width="2" stroke-miterlimit="10" d="M-1136.449-817.282c17.999,0,17.999,12,35.998,12
				s17.999-12,35.999-12s18,12,36,12s18-12,36-12s18,12,36,12s18-12,36-12c17.999,0,17.999,12,35.999,12s18-12,35.999-12
				s17.999,12,35.999,12c18,0,18-12,36-12c17.998,0,17.998,12,35.996,12c18,0,18-12,36-12c17.998,0,17.998,12,35.996,12
				c17.998,0,17.998-12,35.995-12s17.998,12,35.996,12s17.998-12,35.997-12c17.999,0,17.999,12,35.998,12
				c18.001,0,18.001-12,36.002-12c17.999,0,17.999,12,35.998,12c18,0,18-12,36-12c18,0,18,12,35.999,12c18,0,18-12,36-12
				c18,0,18,12,36,12c18.001,0,18.001-12,36.002-12c18.001,0,18.001,12,36.003,12c17.999,0,17.999-12,35.997-12
				c17.999,0,17.999,12,35.999,12c18.001,0,18.001-12,36.003-12s18.001,12,36.003,12c18.002,0,18.002-12,36.005-12
				c18.002,0,18.002,12,36.003,12c18.004,0,18.004-12,36.009-12s18.004,12,36.009,12"/>
		</g>
		<g>
			<path fill="none" stroke="#FFFFFF" stroke-width="2" stroke-miterlimit="10" d="M-1136.51-792.828c17.999,0,17.999,12,35.998,12
				c18,0,18-12,35.999-12c18,0,18,12,35.999,12c18,0,18-12,36-12s18,12,36,12s18-12,36-12s18,12,35.999,12s17.999-12,35.999-12
				s18,12,35.999,12c18,0,18-12,36-12c17.998,0,17.998,12,35.996,12c18,0,18-12,36-12c17.998,0,17.998,12,35.996,12
				c17.998,0,17.998-12,35.995-12c17.998,0,17.998,12,35.996,12s17.998-12,35.996-12c17.999,0,17.999,12,35.998,12
				c18.001,0,18.001-12,36.002-12c17.999,0,17.999,12,35.998,12c18,0,18-12,36-12c18,0,18,12,35.999,12s18-12,36-12s18,12,36,12
				c18.001,0,18.001-12,36.002-12s18.001,12,36.003,12c17.999,0,17.999-12,35.998-12s17.999,12,35.998,12
				c18.001,0,18.001-12,36.003-12c18.002,0,18.002,12,36.003,12c18.002,0,18.002-12,36.005-12c18.001,0,18.001,12,36.003,12
				c18.004,0,18.004-12,36.009-12s18.004,12,36.009,12"/>
		</g>
		<g>
			<path fill="none" stroke="#FFFFFF" stroke-width="2" stroke-miterlimit="10" d="M-1136.572-768.375c17.999,0,17.999,12,35.998,12
				c18,0,18-12,35.999-12c18,0,18,12,35.999,12c18,0,18-12,36-12s18,12,36,12s18-12,36-12s18,12,35.999,12s17.999-12,35.999-12
				s18,12,35.999,12c18,0,18-12,36-12c17.998,0,17.998,12,35.996,12c18,0,18-12,36-12c17.998,0,17.998,12,35.996,12
				c17.998,0,17.998-12,35.995-12c17.998,0,17.998,12,35.996,12s17.998-12,35.996-12c17.999,0,17.999,12,35.998,12
				c18.001,0,18.001-12,36.002-12c17.999,0,17.999,12,35.998,12c18,0,18-12,36-12c18,0,18,12,35.999,12s18-12,36-12s18,12,36,12
				c18.001,0,18.001-12,36.002-12s18.001,12,36.003,12c17.999,0,17.999-12,35.998-12s17.999,12,35.998,12
				c18.001,0,18.001-12,36.003-12c18.002,0,18.002,12,36.003,12c18.002,0,18.002-12,36.005-12c18.001,0,18.001,12,36.003,12
				c18.004,0,18.004-12,36.009-12s18.004,12,36.009,12"/>
		</g>
		<g>
			<path fill="none" stroke="#FFFFFF" stroke-width="2" stroke-miterlimit="10" d="M-1136.633-743.922c17.999,0,17.999,12,35.998,12
				s17.999-12,35.999-12s18,12,36,12s18-12,36-12s18,12,36,12s18-12,36-12c17.999,0,17.999,12,35.999,12s18-12,35.999-12
				s17.999,12,35.999,12c18,0,18-12,36-12c17.998,0,17.998,12,35.996,12c18,0,18-12,36-12c17.998,0,17.998,12,35.996,12
				c17.998,0,17.998-12,35.995-12s17.998,12,35.996,12s17.998-12,35.997-12c17.999,0,17.999,12,35.998,12
				c18.001,0,18.001-12,36.002-12c17.999,0,17.999,12,35.998,12c18,0,18-12,36-12c18,0,18,12,35.999,12c18,0,18-12,36-12
				c18,0,18,12,36,12c18.001,0,18.001-12,36.002-12c18.001,0,18.001,12,36.003,12c17.999,0,17.999-12,35.997-12
				c17.999,0,17.999,12,35.999,12c18.001,0,18.001-12,36.003-12s18.001,12,36.003,12c18.002,0,18.002-12,36.005-12
				c18.002,0,18.002,12,36.003,12c18.004,0,18.004-12,36.009-12s18.004,12,36.009,12"/>
		</g>
		<g>
			<path fill="none" stroke="#FFFFFF" stroke-width="2" stroke-miterlimit="10" d="M-1136.694-719.468c17.999,0,17.999,12,35.998,12
				s17.999-12,35.999-12s18,12,36,12s18-12,36-12s18,12,36,12s18-12,36-12c17.999,0,17.999,12,35.999,12s18-12,35.999-12
				s17.999,12,35.999,12c18,0,18-12,36-12c17.998,0,17.998,12,35.996,12c18,0,18-12,36-12c17.998,0,17.998,12,35.996,12
				c17.998,0,17.998-12,35.995-12s17.998,12,35.996,12s17.998-12,35.997-12c17.999,0,17.999,12,35.998,12
				c18.001,0,18.001-12,36.002-12c17.999,0,17.999,12,35.998,12c18,0,18-12,36-12c18,0,18,12,35.999,12c18,0,18-12,36-12
				c18,0,18,12,36,12c18.001,0,18.001-12,36.002-12c18.001,0,18.001,12,36.003,12c17.999,0,17.999-12,35.997-12
				c17.999,0,17.999,12,35.999,12c18.001,0,18.001-12,36.003-12s18.001,12,36.003,12c18.002,0,18.002-12,36.005-12
				c18.002,0,18.002,12,36.003,12c18.004,0,18.004-12,36.009-12s18.004,12,36.009,12"/>
		</g>
		<g>
			<path fill="none" stroke="#FFFFFF" stroke-width="2" stroke-miterlimit="10" d="M-1136.755-695.015c17.999,0,17.999,12,35.998,12
				c18,0,18-12,35.999-12c18,0,18,12,35.999,12c18,0,18-12,36-12s18,12,36,12s18-12,36-12s18,12,35.999,12s17.999-12,35.999-12
				s18,12,35.999,12c18,0,18-12,36-12c17.998,0,17.998,12,35.996,12c18,0,18-12,36-12c17.998,0,17.998,12,35.996,12
				c17.998,0,17.998-12,35.995-12c17.998,0,17.998,12,35.996,12s17.998-12,35.996-12c17.999,0,17.999,12,35.998,12
				c18.001,0,18.001-12,36.002-12c17.999,0,17.999,12,35.998,12c18,0,18-12,36-12c18,0,18,12,35.999,12s18-12,36-12s18,12,36,12
				c18.001,0,18.001-12,36.002-12s18.001,12,36.003,12c17.999,0,17.999-12,35.998-12s17.999,12,35.998,12
				c18.001,0,18.001-12,36.003-12c18.002,0,18.002,12,36.003,12c18.002,0,18.002-12,36.005-12c18.001,0,18.001,12,36.003,12
				c18.004,0,18.004-12,36.009-12s18.004,12,36.009,12"/>
		</g>
		<g>
			<path fill="none" stroke="#FFFFFF" stroke-width="2" stroke-miterlimit="10" d="M-1136.816-670.561c17.999,0,17.999,12,35.998,12
				s17.999-12,35.999-12s18,12,36,12s18-12,36-12s18,12,36,12s18-12,36-12c17.999,0,17.999,12,35.999,12s18-12,35.999-12
				s17.999,12,35.999,12c18,0,18-12,36-12c17.998,0,17.998,12,35.996,12c18,0,18-12,36-12c17.998,0,17.998,12,35.996,12
				c17.998,0,17.998-12,35.995-12s17.998,12,35.996,12s17.998-12,35.997-12c17.999,0,17.999,12,35.998,12
				c18.001,0,18.001-12,36.002-12c17.999,0,17.999,12,35.998,12c18,0,18-12,36-12c18,0,18,12,35.999,12c18,0,18-12,36-12
				c18,0,18,12,36,12c18.001,0,18.001-12,36.002-12c18.001,0,18.001,12,36.003,12c17.999,0,17.999-12,35.997-12
				c17.999,0,17.999,12,35.999,12c18.001,0,18.001-12,36.003-12s18.001,12,36.003,12c18.002,0,18.002-12,36.005-12
				c18.002,0,18.002,12,36.003,12c18.004,0,18.004-12,36.009-12s18.004,12,36.009,12"/>
		</g>
		<g>
			<path fill="none" stroke="#FFFFFF" stroke-width="2" stroke-miterlimit="10" d="M-1136.878-646.107c17.999,0,17.999,12,35.998,12
				s17.999-12,35.999-12s18,12,36,12s18-12,36-12s18,12,36,12s18-12,36-12c17.999,0,17.999,12,35.999,12s18-12,35.999-12
				s17.999,12,35.999,12c18,0,18-12,36-12c17.998,0,17.998,12,35.996,12c18,0,18-12,36-12c17.998,0,17.998,12,35.996,12
				c17.998,0,17.998-12,35.995-12s17.998,12,35.996,12s17.998-12,35.997-12c17.999,0,17.999,12,35.998,12
				c18.001,0,18.001-12,36.002-12c17.999,0,17.999,12,35.998,12c18,0,18-12,36-12c18,0,18,12,35.999,12c18,0,18-12,36-12
				c18,0,18,12,36,12c18.001,0,18.001-12,36.002-12c18.001,0,18.001,12,36.003,12c17.999,0,17.999-12,35.997-12
				c17.999,0,17.999,12,35.999,12c18.001,0,18.001-12,36.003-12s18.001,12,36.003,12c18.002,0,18.002-12,36.005-12
				c18.002,0,18.002,12,36.003,12c18.004,0,18.004-12,36.009-12s18.004,12,36.009,12"/>
		</g>
		<g>
			<path fill="none" stroke="#FFFFFF" stroke-width="2" stroke-miterlimit="10" d="M-1136.939-621.654c17.999,0,17.999,12,35.998,12
				c18,0,18-12,35.999-12c18,0,18,12,35.999,12c18,0,18-12,36-12s18,12,36,12s18-12,36-12s18,12,35.999,12s17.999-12,35.999-12
				s18,12,35.999,12c18,0,18-12,36-12c17.998,0,17.998,12,35.996,12c18,0,18-12,36-12c17.998,0,17.998,12,35.996,12
				c17.998,0,17.998-12,35.995-12c17.998,0,17.998,12,35.996,12s17.998-12,35.996-12c17.999,0,17.999,12,35.998,12
				c18.001,0,18.001-12,36.002-12c17.999,0,17.999,12,35.998,12c18,0,18-12,36-12c18,0,18,12,35.999,12s18-12,36-12s18,12,36,12
				c18.001,0,18.001-12,36.002-12s18.001,12,36.003,12c17.999,0,17.999-12,35.998-12s17.999,12,35.998,12
				c18.001,0,18.001-12,36.003-12c18.002,0,18.002,12,36.003,12c18.002,0,18.002-12,36.005-12c18.001,0,18.001,12,36.003,12
				c18.004,0,18.004-12,36.009-12s18.004,12,36.009,12"/>
		</g>
		<g>
			<path fill="none" stroke="#FFFFFF" stroke-width="2" stroke-miterlimit="10" d="M-1137-597.2c17.999,0,17.999,12,35.998,12
				s17.999-12,35.999-12s18,12,36,12s18-12,36-12s18,12,36,12s18-12,36-12c17.999,0,17.999,12,35.999,12s18-12,35.999-12
				s17.999,12,35.999,12c18,0,18-12,36-12c17.998,0,17.998,12,35.996,12c18,0,18-12,36-12c17.998,0,17.998,12,35.996,12
				c17.998,0,17.998-12,35.995-12s17.998,12,35.996,12s17.998-12,35.997-12c17.999,0,17.999,12,35.998,12
				c18.001,0,18.001-12,36.002-12c17.999,0,17.999,12,35.998,12c18,0,18-12,36-12c18,0,18,12,35.999,12c18,0,18-12,36-12
				c18,0,18,12,36,12c18.001,0,18.001-12,36.002-12c18.001,0,18.001,12,36.003,12c17.999,0,17.999-12,35.997-12
				c17.999,0,17.999,12,35.999,12c18.001,0,18.001-12,36.003-12s18.001,12,36.003,12c18.002,0,18.002-12,36.005-12
				c18.002,0,18.002,12,36.003,12c18.004,0,18.004-12,36.009-12s18.004,12,36.009,12"/>
		</g>
		<g>
			<path fill="none" stroke="#FFFFFF" stroke-width="2" stroke-miterlimit="10" d="M-1137.062-572.747c17.999,0,17.999,12,35.998,12
				s17.999-12,35.999-12s18,12,36,12s18-12,36-12s18,12,36,12s18-12,36-12c17.999,0,17.999,12,35.999,12s18-12,35.999-12
				s17.999,12,35.999,12c18,0,18-12,36-12c17.998,0,17.998,12,35.996,12c18,0,18-12,36-12c17.998,0,17.998,12,35.996,12
				c17.998,0,17.998-12,35.995-12s17.998,12,35.996,12s17.998-12,35.997-12c17.999,0,17.999,12,35.998,12
				c18.001,0,18.001-12,36.002-12c17.999,0,17.999,12,35.998,12c18,0,18-12,36-12c18,0,18,12,35.999,12c18,0,18-12,36-12
				c18,0,18,12,36,12c18.001,0,18.001-12,36.002-12c18.001,0,18.001,12,36.003,12c17.999,0,17.999-12,35.997-12
				c17.999,0,17.999,12,35.999,12c18.001,0,18.001-12,36.003-12s18.001,12,36.003,12c18.002,0,18.002-12,36.005-12
				c18.002,0,18.002,12,36.003,12c18.004,0,18.004-12,36.009-12s18.004,12,36.009,12"/>
		</g>
		<g>
			<path fill="none" stroke="#FFFFFF" stroke-width="2" stroke-miterlimit="10" d="M-1137.123-548.294c17.999,0,17.999,12,35.998,12
				c18,0,18-12,35.999-12c18,0,18,12,35.999,12c18,0,18-12,36-12s18,12,36,12s18-12,36-12s18,12,35.999,12s17.999-12,35.999-12
				s18,12,35.999,12c18,0,18-12,36-12c17.998,0,17.998,12,35.996,12c18,0,18-12,36-12c17.998,0,17.998,12,35.996,12
				c17.998,0,17.998-12,35.995-12c17.998,0,17.998,12,35.996,12s17.998-12,35.996-12c17.999,0,17.999,12,35.998,12
				c18.001,0,18.001-12,36.002-12c17.999,0,17.999,12,35.998,12c18,0,18-12,36-12c18,0,18,12,35.999,12s18-12,36-12s18,12,36,12
				c18.001,0,18.001-12,36.002-12s18.001,12,36.003,12c17.999,0,17.999-12,35.998-12s17.999,12,35.998,12
				c18.001,0,18.001-12,36.003-12c18.002,0,18.002,12,36.003,12c18.002,0,18.002-12,36.005-12c18.001,0,18.001,12,36.003,12
				c18.004,0,18.004-12,36.009-12s18.004,12,36.009,12"/>
		</g>
		<g>
			<path fill="none" stroke="#FFFFFF" stroke-width="2" stroke-miterlimit="10" d="M-1137.184-523.84c17.999,0,17.999,12,35.998,12
				c18,0,18-12,35.999-12c18,0,18,12,35.999,12c18,0,18-12,36-12s18,12,36,12s18-12,36-12s18,12,35.999,12s17.999-12,35.999-12
				s18,12,35.999,12c18,0,18-12,36-12c17.998,0,17.998,12,35.996,12c18,0,18-12,36-12c17.998,0,17.998,12,35.996,12
				c17.998,0,17.998-12,35.995-12c17.998,0,17.998,12,35.996,12s17.998-12,35.996-12c17.999,0,17.999,12,35.998,12
				c18.001,0,18.001-12,36.002-12c17.999,0,17.999,12,35.998,12c18,0,18-12,36-12c18,0,18,12,35.999,12s18-12,36-12s18,12,36,12
				c18.001,0,18.001-12,36.002-12s18.001,12,36.003,12c17.999,0,17.999-12,35.998-12s17.999,12,35.998,12
				c18.001,0,18.001-12,36.003-12c18.002,0,18.002,12,36.003,12c18.002,0,18.002-12,36.005-12c18.001,0,18.001,12,36.003,12
				c18.004,0,18.004-12,36.009-12s18.004,12,36.009,12"/>
		</g>
		<g>
			<path fill="none" stroke="#FFFFFF" stroke-width="2" stroke-miterlimit="10" d="M-1137.245-499.387c17.999,0,17.999,12,35.998,12
				s17.999-12,35.999-12s18,12,36,12s18-12,36-12s18,12,36,12s18-12,36-12c17.999,0,17.999,12,35.999,12s18-12,35.999-12
				s17.999,12,35.999,12c18,0,18-12,36-12c17.998,0,17.998,12,35.996,12c18,0,18-12,36-12c17.998,0,17.998,12,35.996,12
				c17.998,0,17.998-12,35.995-12s17.998,12,35.996,12s17.998-12,35.997-12c17.999,0,17.999,12,35.998,12
				c18.001,0,18.001-12,36.002-12c17.999,0,17.999,12,35.998,12c18,0,18-12,36-12c18,0,18,12,35.999,12c18,0,18-12,36-12
				c18,0,18,12,36,12c18.001,0,18.001-12,36.002-12c18.001,0,18.001,12,36.003,12c17.999,0,17.999-12,35.997-12
				c17.999,0,17.999,12,35.999,12c18.001,0,18.001-12,36.003-12s18.001,12,36.003,12c18.002,0,18.002-12,36.005-12
				c18.002,0,18.002,12,36.003,12c18.004,0,18.004-12,36.009-12s18.004,12,36.009,12"/>
		</g>
		<g>
			<path fill="none" stroke="#FFFFFF" stroke-width="2" stroke-miterlimit="10" d="M-1137.306-474.933c17.999,0,17.999,12,35.998,12
				c18,0,18-12,35.999-12c18,0,18,12,35.999,12c18,0,18-12,36-12s18,12,36,12s18-12,36-12s18,12,35.999,12s17.999-12,35.999-12
				s18,12,35.999,12c18,0,18-12,36-12c17.998,0,17.998,12,35.996,12c18,0,18-12,36-12c17.998,0,17.998,12,35.996,12
				c17.998,0,17.998-12,35.995-12c17.998,0,17.998,12,35.996,12s17.998-12,35.996-12c17.999,0,17.999,12,35.998,12
				c18.001,0,18.001-12,36.002-12c17.999,0,17.999,12,35.998,12c18,0,18-12,36-12c18,0,18,12,35.999,12s18-12,36-12s18,12,36,12
				c18.001,0,18.001-12,36.002-12s18.001,12,36.003,12c17.999,0,17.999-12,35.998-12s17.999,12,35.998,12
				c18.001,0,18.001-12,36.003-12c18.002,0,18.002,12,36.003,12c18.002,0,18.002-12,36.005-12c18.001,0,18.001,12,36.003,12
				c18.004,0,18.004-12,36.009-12s18.004,12,36.009,12"/>
		</g>
		<g>
			<path fill="none" stroke="#FFFFFF" stroke-width="2" stroke-miterlimit="10" d="M-1137.368-450.479c17.999,0,17.999,12,35.998,12
				c18,0,18-12,35.999-12c18,0,18,12,35.999,12c18,0,18-12,36-12s18,12,36,12s18-12,36-12s18,12,35.999,12s17.999-12,35.999-12
				s18,12,35.999,12c18,0,18-12,36-12c17.998,0,17.998,12,35.996,12c18,0,18-12,36-12c17.998,0,17.998,12,35.996,12
				c17.998,0,17.998-12,35.995-12c17.998,0,17.998,12,35.996,12s17.998-12,35.996-12c17.999,0,17.999,12,35.998,12
				c18.001,0,18.001-12,36.002-12c17.999,0,17.999,12,35.998,12c18,0,18-12,36-12c18,0,18,12,35.999,12s18-12,36-12s18,12,36,12
				c18.001,0,18.001-12,36.002-12s18.001,12,36.003,12c17.999,0,17.999-12,35.998-12s17.999,12,35.998,12
				c18.001,0,18.001-12,36.003-12c18.002,0,18.002,12,36.003,12c18.002,0,18.002-12,36.005-12c18.001,0,18.001,12,36.003,12
				c18.004,0,18.004-12,36.009-12s18.004,12,36.009,12"/>
		</g>
		<g>
			<path fill="none" stroke="#FFFFFF" stroke-width="2" stroke-miterlimit="10" d="M-1137.429-426.026c17.999,0,17.999,12,35.998,12
				s17.999-12,35.999-12s18,12,36,12s18-12,36-12s18,12,36,12s18-12,36-12c17.999,0,17.999,12,35.999,12s18-12,35.999-12
				s17.999,12,35.999,12c18,0,18-12,36-12c17.998,0,17.998,12,35.996,12c18,0,18-12,36-12c17.998,0,17.998,12,35.996,12
				c17.998,0,17.998-12,35.995-12s17.998,12,35.996,12s17.998-12,35.997-12c17.999,0,17.999,12,35.998,12
				c18.001,0,18.001-12,36.002-12c17.999,0,17.999,12,35.998,12c18,0,18-12,36-12c18,0,18,12,35.999,12c18,0,18-12,36-12
				c18,0,18,12,36,12c18.001,0,18.001-12,36.002-12c18.001,0,18.001,12,36.003,12c17.999,0,17.999-12,35.997-12
				c17.999,0,17.999,12,35.999,12c18.001,0,18.001-12,36.003-12s18.001,12,36.003,12c18.002,0,18.002-12,36.005-12
				c18.002,0,18.002,12,36.003,12c18.004,0,18.004-12,36.009-12s18.004,12,36.009,12"/>
		</g>
		<g>
			<path fill="none" stroke="#FFFFFF" stroke-width="2" stroke-miterlimit="10" d="M-1137.49-401.572c17.999,0,17.999,12,35.998,12
				s17.999-12,35.999-12s18,12,36,12s18-12,36-12s18,12,36,12s18-12,36-12c17.999,0,17.999,12,35.999,12s18-12,35.999-12
				s17.999,12,35.999,12c18,0,18-12,36-12c17.998,0,17.998,12,35.996,12c18,0,18-12,36-12c17.998,0,17.998,12,35.996,12
				c17.998,0,17.998-12,35.995-12s17.998,12,35.996,12s17.998-12,35.997-12c17.999,0,17.999,12,35.998,12
				c18.001,0,18.001-12,36.002-12c17.999,0,17.999,12,35.998,12c18,0,18-12,36-12c18,0,18,12,35.999,12c18,0,18-12,36-12
				c18,0,18,12,36,12c18.001,0,18.001-12,36.002-12c18.001,0,18.001,12,36.003,12c17.999,0,17.999-12,35.997-12
				c17.999,0,17.999,12,35.999,12c18.001,0,18.001-12,36.003-12s18.001,12,36.003,12c18.002,0,18.002-12,36.005-12
				c18.002,0,18.002,12,36.003,12c18.004,0,18.004-12,36.009-12s18.004,12,36.009,12"/>
		</g>
		<g>
			<path fill="none" stroke="#FFFFFF" stroke-width="2" stroke-miterlimit="10" d="M-1137.551-377.119c17.999,0,17.999,12,35.998,12
				c18,0,18-12,35.999-12c18,0,18,12,35.999,12c18,0,18-12,36-12s18,12,36,12s18-12,36-12s18,12,35.999,12s17.999-12,35.999-12
				s18,12,35.999,12c18,0,18-12,36-12c17.998,0,17.998,12,35.996,12c18,0,18-12,36-12c17.998,0,17.998,12,35.996,12
				c17.998,0,17.998-12,35.995-12c17.998,0,17.998,12,35.996,12s17.998-12,35.996-12c17.999,0,17.999,12,35.998,12
				c18.001,0,18.001-12,36.002-12c17.999,0,17.999,12,35.998,12c18,0,18-12,36-12c18,0,18,12,35.999,12s18-12,36-12s18,12,36,12
				c18.001,0,18.001-12,36.002-12s18.001,12,36.003,12c17.999,0,17.999-12,35.998-12s17.999,12,35.998,12
				c18.001,0,18.001-12,36.003-12c18.002,0,18.002,12,36.003,12c18.002,0,18.002-12,36.005-12c18.001,0,18.001,12,36.003,12
				c18.004,0,18.004-12,36.009-12s18.004,12,36.009,12"/>
		</g>
	</g>
	<path fill="#FFFFFF" d="M-1135.347-1241.444v639.531H37.668v-639.531H-1135.347z M-568.217-705.088
		c-126.247,0-228.591-102.344-228.591-228.591s102.344-228.591,228.591-228.591s228.591,102.344,228.591,228.591
		S-441.97-705.088-568.217-705.088z"/>
	<path fill="#604887" d="M-264.075-1705.334c-4.736-0.278-15.087-0.077-21.092,7.864c-4.662,6.166-4.888,16.47-4.836,19.693h-0.08
		c0.052-3.224-0.174-13.527-4.836-19.693c-6.005-7.941-16.355-8.143-21.092-7.864c-22.06,1.298-39.533-0.077-39.533-0.077
		s0,11.401,7.465,20.217c6.254,7.386,18.738,8.418,32.068,8.418c5.079,0,11.49,0,16.664,0c-0.874,9.507-9.226,83.884-56.545,83.884
		c-45.204,0-46.09-56.279-46.09-56.279v-112.209c0-20.367-16.511-36.878-36.878-36.878h-289.316
		c-20.367,0-36.877,16.511-36.877,36.878v213.892c0,20.366,16.511,36.878,36.877,36.878h289.316c0,0,74.905,2.756,118.319-31.893
		c49.5-39.505,40.988-124.165,39.776-134.272c5.178,0,11.603,0,16.69,0c13.33,0,25.813-1.032,32.068-8.418
		c7.465-8.815,7.465-20.217,7.465-20.217S-242.016-1704.036-264.075-1705.334z"/>
	<path opacity="0.2" d="M-451.371-1620.188c2.393,43.55-24.98,66.141-58.216,66.141c-32.115,0-57.127-29.479-58.863-61.387
		L-451.371-1620.188z"/>
	<path fill="#604887" d="M-459.962-1616.221c0,30.221-24.499,54.721-54.72,54.721c-29.201,0-53.189-25.914-54.767-54.721H-459.962z"
		/>
	<path opacity="0.2" d="M-721.841-1649.583c5.897-3.114,13.13-6.687,27.865-6.687c17.065,0,25.742,5.38,28.433,6.751
		c2.961,18.492,18.981,32.623,38.308,32.623c19.036,0,34.859-13.712,38.16-31.795h43.289l0.043,0.032h8.731
		c3.599,0,6.519,3.05,6.519,6.648c0,1.072-0.266,2.079-0.727,2.97c-1.08,1.242-1.738,2.86-1.738,4.636
		c0,3.906,3.168,7.073,7.074,7.073c2.1,0,3.979-0.919,5.273-2.37l0.016,0.012c0.035-0.044,0.064-0.093,0.098-0.137
		c0.244-0.287,0.463-0.596,0.66-0.919c2.24-3.283,3.57-7.235,3.57-11.512c0-11.319-9.178-20.497-20.496-20.497
		c-0.453,0-0.9,0.017-1.345,0.046h-50.968c-3.301-18.083-19.124-31.795-38.16-31.795c-17.839,0-32.856,12.042-37.392,28.438
		c-6.799-2.367-18.065-5.264-32.431-5.264c-14.382,0-26.224,2.554-33.864,4.826 M-627.235-1631.896
		c-13.125,0-23.803-10.679-23.803-23.804s10.678-23.804,23.803-23.804c13.125,0,23.804,10.679,23.804,23.804
		S-614.11-1631.896-627.235-1631.896z"/>
	<g opacity="0.3">
		<circle fill="#FFFFFF" cx="-758.885" cy="-1659.19" r="38.803"/>
	</g>
	<g opacity="0.3">
		<circle fill="#FFFFFF" cx="-627.779" cy="-1659.19" r="38.803"/>
	</g>
	<circle fill="#2D2D2D" cx="-628.276" cy="-1660.758" r="9.054"/>
	<path fill="#2D2D2D" d="M-613.07-1664.946c0,0,1.53-8.651-6.751-14.259c-6.977-4.725-15.461,2.2-1.301,6.332
		C-613.979-1670.788-613.07-1664.946-613.07-1664.946z"/>
	<path fill="#262B2B" d="M-537.307-1666.244c-0.452,0-0.9,0.017-1.344,0.046h-50.968c-3.301-18.083-19.124-31.795-38.16-31.795
		c-17.633,0-32.51,11.767-37.231,27.873c-6.067-2.239-15.728-4.699-28.965-4.699c-12.419,0-21.688,2.166-27.796,4.282
		c-4.854-15.894-19.632-27.456-37.114-27.456c-21.43,0-38.803,17.373-38.803,38.804s17.373,38.804,38.803,38.804
		c19.756,0,36.052-14.768,38.48-33.864c4.046-2.095,12.791-5.569,26.43-5.569c15.483,0,24.661,4.477,27.813,6.33
		c2.758,18.728,18.89,33.104,38.383,33.104c19.036,0,34.859-13.712,38.16-31.795h43.29l0.043,0.032h8.731
		c3.598,0,6.518,3.05,6.518,6.648c0,1.072-0.266,2.079-0.726,2.97c-1.08,1.242-1.738,2.86-1.738,4.636
		c0,3.906,3.167,7.073,7.073,7.073c2.1,0,3.979-0.919,5.274-2.37l0.016,0.012c0.034-0.044,0.064-0.093,0.098-0.137
		c0.244-0.287,0.463-0.596,0.659-0.919c2.241-3.283,3.571-7.235,3.571-11.512C-516.81-1657.066-525.988-1666.244-537.307-1666.244z
		 M-758.886-1635.386c-13.125,0-23.803-10.679-23.803-23.804s10.678-23.804,23.803-23.804c13.125,0,23.804,10.679,23.804,23.804
		S-745.76-1635.386-758.886-1635.386z M-627.779-1635.386c-13.125,0-23.803-10.679-23.803-23.804s10.678-23.804,23.803-23.804
		c13.125,0,23.804,10.679,23.804,23.804S-614.654-1635.386-627.779-1635.386z"/>
	<circle fill="#2D2D2D" cx="-752.198" cy="-1660.782" r="9.054"/>
	<path fill="#2D2D2D" d="M-768.53-1664.568c0,0-2.103-8.53,5.787-14.676c6.647-5.179,15.573,1.166,1.72,6.231
		C-768.012-1670.458-768.53-1664.568-768.53-1664.568z"/>
	<g display="none">
		<path display="inline" fill="#EDEDED" d="M-720.644-1602.541c-1.926,0.107-3.691,0.314-5.305,0.618v35.797
			c2.381,1.271,4.759,2.138,6.812,2.702c1.101,0.303,2.426,0.566,3.886,0.798v-39.869
			C-717.329-1602.589-719.197-1602.622-720.644-1602.541z"/>
		<path display="inline" fill="#EDEDED" d="M-713.278-1602.393v40.048c3.334,0.431,7.144,0.714,10.698,0.888v-40.15
			C-706.075-1601.874-709.867-1602.191-713.278-1602.393z"/>
		<path display="inline" fill="#EDEDED" d="M-667.308-1602.541c-2.023-0.113-4.85-0.009-7.958,0.184v40.085
			c2.482-0.303,4.737-0.68,6.452-1.151c1.31-0.36,2.754-0.849,4.246-1.481v-37.404
			C-665.444-1602.41-666.356-1602.487-667.308-1602.541z"/>
		<path display="inline" fill="#EDEDED" d="M-687.937-1601.419v40.071c3.37-0.121,7.177-0.345,10.698-0.704v-40.175
			C-680.822-1601.976-684.624-1601.648-687.937-1601.419z"/>
		<path display="inline" fill="#EDEDED" d="M-693.976-1601.144c-1.728,0-4.052-0.134-6.632-0.318v40.091
			c2.53,0.099,4.847,0.143,6.632,0.143c1.161,0,2.545-0.019,4.066-0.058v-40.006
			C-691.455-1601.201-692.844-1601.144-693.976-1601.144z"/>
		<path display="inline" fill="#EDEDED" d="M-738.346-1581.908c1.535,7.079,5.815,11.677,10.425,14.619v-34.19
			C-737.442-1598.992-740.635-1592.463-738.346-1581.908z"/>
		<path display="inline" fill="#EDEDED" d="M-662.596-1602.024v36.197c5.507-2.787,11.172-7.697,12.99-16.081
			C-647.123-1593.359-651.094-1600.071-662.596-1602.024z"/>
		<path display="inline" fill="#EDEDED" d="M-727.921-1601.479v34.19c0.654,0.418,1.312,0.811,1.973,1.163v-35.797
			C-726.635-1601.793-727.291-1601.645-727.921-1601.479z"/>
		<path display="inline" opacity="0.2" d="M-727.921-1601.479v34.19c0.654,0.418,1.312,0.811,1.973,1.163v-35.797
			C-726.635-1601.793-727.291-1601.645-727.921-1601.479z"/>
		<path display="inline" fill="#EDEDED" d="M-715.251-1602.495v39.869c0.633,0.101,1.292,0.193,1.973,0.281v-40.048
			C-713.955-1602.433-714.611-1602.466-715.251-1602.495z"/>
		<path display="inline" opacity="0.2" d="M-715.251-1602.495v39.869c0.633,0.101,1.292,0.193,1.973,0.281v-40.048
			C-713.955-1602.433-714.611-1602.466-715.251-1602.495z"/>
		<path display="inline" fill="#EDEDED" d="M-702.581-1601.607v40.15c0.67,0.032,1.327,0.062,1.973,0.086v-40.091
			C-701.251-1601.508-701.909-1601.557-702.581-1601.607z"/>
		<path display="inline" opacity="0.2" d="M-702.581-1601.607v40.15c0.67,0.032,1.327,0.062,1.973,0.086v-40.091
			C-701.251-1601.508-701.909-1601.557-702.581-1601.607z"/>
		<path display="inline" fill="#EDEDED" d="M-689.91-1601.292v40.006c0.635-0.017,1.296-0.037,1.973-0.062v-40.071
			C-688.619-1601.372-689.276-1601.33-689.91-1601.292z"/>
		<path display="inline" opacity="0.2" d="M-689.91-1601.292v40.006c0.635-0.017,1.296-0.037,1.973-0.062v-40.071
			C-688.619-1601.372-689.276-1601.33-689.91-1601.292z"/>
		<path display="inline" fill="#EDEDED" d="M-677.239-1602.227v40.175c0.671-0.068,1.328-0.142,1.973-0.221v-40.085
			C-675.914-1602.317-676.572-1602.273-677.239-1602.227z"/>
		<path display="inline" opacity="0.2" d="M-677.239-1602.227v40.175c0.671-0.068,1.328-0.142,1.973-0.221v-40.085
			C-675.914-1602.317-676.572-1602.273-677.239-1602.227z"/>
		<path display="inline" fill="#EDEDED" d="M-664.569-1602.31v37.404c0.651-0.275,1.31-0.586,1.973-0.922v-36.197
			C-663.233-1602.133-663.886-1602.23-664.569-1602.31z"/>
		<path display="inline" opacity="0.2" d="M-664.569-1602.31v37.404c0.651-0.275,1.31-0.586,1.973-0.922v-36.197
			C-663.233-1602.133-663.886-1602.23-664.569-1602.31z"/>
	</g>
	<path opacity="0.2" d="M-678.83-1794.208c0,0,4.712,4.338,13.169,4.338c9.729,0,13.773-4.338,13.773-4.338s-3.987,8.93-13.471,8.93
		C-674.722-1785.278-678.83-1794.208-678.83-1794.208z"/>
	<path fill="#8BAFAE" d="M-648.351-1849.873c-5.134,0-9.08,1.407-12.094,3.361c-6.924,4.488-8.912,11.882-8.912,11.882
		s-2.578-10.159-18.161-10.159c-15.417,0-23.5,11.682-23.5,19.25c0,5.229,1.469,8.651,3.582,10.871
		c3.005,3.157,7.315,3.879,10.571,3.879c9.348,0,8.711-10.774,8.711-10.774s7.387-1.059,10.887,1.774
		c3.156,2.555,3.876,5.454,4.014,7.063c0.065,0.77,0,1.249,0,1.249v15.384c0,0,0.357,1.885,6.267,1.885
		c2.792,0,4.615-0.217,5.825-0.502c2.375-0.559,2.35-1.383,2.35-1.383v-14.238c0,0,0-5.73,2.521-8.939s5.731-3.209,5.731-3.209
		s3.292,5.857,8.292,5.773c8.018-0.134,13.231-3.224,13.833-12.333C-627.851-1837.873-630.767-1849.874-648.351-1849.873z"/>
	<path opacity="0.2" d="M-651.888-1826.742c0,0-6.13,1.813-8.246,7.331c-1.516,3.951-1.169,19.903-1.028,24.7
		c2.375-0.559,2.35-1.383,2.35-1.383v-14.238c0,0,0-5.73,2.521-8.939s5.731-3.209,5.731-3.209s-0.683-1.269-1-2.27
		C-651.845-1825.65-651.888-1826.742-651.888-1826.742z"/>
	<path opacity="0.2" d="M-676.915-1822.529c-4.742-4.236-14.603-2.656-14.603-2.656s2.632,8.742-2.669,11.354
		c-7.979,3.933-12.637-0.236-13.249-0.838c3.005,3.157,7.315,3.879,10.571,3.879c9.348,0,8.711-10.774,8.711-10.774
		s7.387-1.059,10.887,1.774c3.156,2.555,3.876,5.454,4.014,7.063l0,0C-673.253-1812.726-673.273-1819.277-676.915-1822.529z"/>
	<path opacity="0.2" d="M-668.458-1831.104c0,0-0.261-4.886,2.727-9.589c2.289-3.602,4.801-5.469,5.281-5.806
		c-6.924,4.488-8.912,11.882-8.912,11.882s0.207,0.739,0.452,1.707C-668.715-1832.144-668.458-1831.104-668.458-1831.104z"/>
	<g>
		<path fill="#8BAFAE" d="M-677.267-1867.707c-1.139-1.344-2.295-2.392-3.447-3.194c-6.264-4.364-12.371-1.423-14.553,1.111
			c-2.583,3-6.77,13.197,8.833,17.25c7.457,1.937,11.886,4.824,14.3,6.909c1.741,1.503,2.442,2.591,2.442,2.591
			S-668.017-1856.79-677.267-1867.707z"/>
		<path opacity="0.2" d="M-669.692-1843.041c0,0,1.675-13.75-7.575-24.666c-1.139-1.344-2.295-2.392-3.447-3.194
			c0.028,0.024,5.458,4.626,7.015,11.273c1.954,8.34,1.61,13.455,1.565,13.996C-670.393-1844.128-669.692-1843.041-669.692-1843.041
			z"/>
	</g>
	<g>
		<path fill="#8BAFAE" d="M-656.286-1866.712c-0.276-2.287-1.18-4.315-3.231-4.828c-5.701-1.425-7.5,2.667-7.833,5.833
			c-0.506,4.808,0.457,9.083,0.624,12.167c0.061,1.115,0.028,2.579-0.038,3.994c-0.116,2.497-0.335,4.84-0.335,4.84
			s7.833-6.942,10.333-15.858C-656.327-1862.135-656.024-1864.54-656.286-1866.712z"/>
		<path opacity="0.2" d="M-656.778-1860.565c0.44-1.57,0.743-3.975,0.481-6.147c0.001,0.232-0.009,7.573-8.227,18.013
			c-2.221,2.822-2.252-0.848-2.252-0.848l0,0c-0.116,2.497-0.335,4.84-0.335,4.84S-659.278-1851.648-656.778-1860.565z"/>
	</g>
	<path display="none" fill="#EDEDED" d="M-765.053-1561.32c12.025,7.273,24.347,7.273,24.347,7.273s35.048,0,46.73,0
		s46.73,0,46.73,0s14.392,0,27.247-9.181c7.542-5.386,17.491-19.055,16.465-24.817c-0.775-4.352-5.61-5.825-8.209-2.084
		c-1.444,2.078,0.418,5.138,0.418,5.138s2.079,6.434-9.875,11.702c-9.634,4.246-47.216-0.93-72.776-0.93
		c-27.326,0-59.517,5.814-71.077,0.93"/>
	<path fill="#FFFFFF" d="M-701.747-1573.532c0,0.908-1,1.644-2.235,1.644h-25.77c-1.234,0-2.235-0.735-2.235-1.644v-17.944h30.24
		V-1573.532z"/>
	<path fill="#FFFFFF" d="M-669.691-1573.532c0,0.908-1,1.644-2.235,1.644h-25.77c-1.234,0-2.235-0.735-2.235-1.644v-17.944h30.24
		V-1573.532z"/>
	<path opacity="0.2" d="M-631.692-1587.659c0,0,11.008-0.111,16.396-1.868c8.458-2.758,10.368-13.408,10.368-13.408
		s-2.18,6.453-11.831,9.601c-5.387,1.757-16.396,1.868-16.396,1.868h-131.899v3.808l33.083-0.004l-0.015,3.004
		c0,0,0.594-1.598,15.12-1.598c14.983,0,15.12,1.598,15.12,1.598h1.815c0,0,0.324-1.598,14.885-1.598
		c14.114,0,15.354,1.598,15.354,1.598l0.002-2.988L-631.692-1587.659z"/>
	<g>
		<text transform="matrix(1 0 0 1 -812.813 -1403.3311)" fill="#569496" font-family="'BebasNeue'" font-size="98.4997">#steviewhale</text>
	</g>
	<g>
		<text transform="matrix(1 0 0 1 -816.9604 -1407.4795)" fill="#D15A85" font-family="'BebasNeue'" font-size="98.4997">#steviewhale</text>
	</g>
	<rect x="-727.82" y="-938.542" fill="#2D2D2D" width="35.517" height="11.322"/>
	<path fill="#604887" d="M-315.319-968.684c-3.681-0.216-11.725-0.06-16.392,6.112c-3.623,4.792-3.799,12.799-3.758,15.305h-0.063
		c0.04-2.506-0.135-10.513-3.759-15.305c-4.667-6.172-12.711-6.328-16.392-6.112c-17.144,1.009-30.723-0.06-30.723-0.06
		s0,8.86,5.801,15.711c4.861,5.74,14.563,6.543,24.922,6.543c3.947,0,8.93,0,12.951,0c-0.679,7.388-7.17,65.191-43.945,65.191
		c-35.131,0-35.819-43.738-35.819-43.738v-87.205c0-15.828-12.832-28.66-28.66-28.66h-224.845c-15.829,0-28.66,12.832-28.66,28.66
		v166.229c0,15.828,12.831,28.66,28.66,28.66h224.845c0,0,58.213,2.142,91.953-24.785c38.469-30.702,31.854-96.497,30.913-104.352
		c4.024,0,9.017,0,12.971,0c10.359,0,20.061-0.803,24.922-6.543c5.801-6.851,5.801-15.711,5.801-15.711
		S-298.175-967.675-315.319-968.684z"/>
	<path opacity="0.2" d="M-460.878-902.511c1.859,33.845-19.414,51.401-45.243,51.401c-24.958,0-44.397-22.909-45.746-47.707
		L-460.878-902.511z"/>
	<path fill="#604887" d="M-467.555-899.428c0,23.486-19.04,42.526-42.526,42.526c-22.694,0-41.336-20.14-42.563-42.526H-467.555z"/>
	<path opacity="0.2" d="M-671.077-925.356c4.583-2.42,10.205-5.196,21.656-5.196c13.262,0,20.006,4.182,22.097,5.247
		c2.301,14.371,14.752,25.354,29.771,25.354c14.794,0,27.091-10.657,29.656-24.71h33.643l0.033,0.024h6.786
		c2.797,0,5.066,2.37,5.066,5.167c0,0.834-0.206,1.616-0.564,2.309c-0.839,0.965-1.351,2.223-1.351,3.603
		c0,3.035,2.462,5.497,5.498,5.497c1.632,0,3.092-0.714,4.098-1.842l0.012,0.009c0.027-0.034,0.05-0.072,0.076-0.106
		c0.19-0.223,0.36-0.463,0.513-0.714c1.741-2.552,2.775-5.623,2.775-8.946c0-8.797-7.133-15.93-15.929-15.93
		c-0.353,0-0.7,0.013-1.045,0.035h-39.61c-2.565-14.053-14.862-24.709-29.656-24.709c-13.864,0-25.535,9.358-29.06,22.101
		c-5.284-1.84-14.04-4.091-25.204-4.091c-11.177,0-20.38,1.984-26.318,3.75 M-597.553-911.61c-10.2,0-18.499-8.299-18.499-18.499
		s8.299-18.499,18.499-18.499c10.201,0,18.499,8.299,18.499,18.499S-587.353-911.61-597.553-911.61z"/>
	<g opacity="0.3">
		<circle fill="#FFFFFF" cx="-699.867" cy="-932.822" r="30.156"/>
	</g>
	<g opacity="0.3">
		<circle fill="#FFFFFF" cx="-597.976" cy="-932.822" r="30.156"/>
	</g>
	<circle fill="#2D2D2D" cx="-598.362" cy="-934.041" r="7.037"/>
	<path fill="#2D2D2D" d="M-586.545-937.296c0,0,1.189-6.724-5.247-11.081c-5.422-3.672-12.016,1.71-1.011,4.921
		C-587.251-941.836-586.545-937.296-586.545-937.296z"/>
	<path fill="#262B2B" d="M-527.665-938.305c-0.352,0-0.699,0.013-1.045,0.036h-39.61c-2.565-14.054-14.863-24.71-29.657-24.71
		c-13.704,0-25.266,9.145-28.935,21.662c-4.715-1.74-12.223-3.652-22.511-3.652c-9.652,0-16.854,1.684-21.602,3.328
		c-3.772-12.352-15.257-21.338-28.844-21.338c-16.655,0-30.156,13.502-30.156,30.157c0,16.654,13.501,30.156,30.156,30.156
		c15.354,0,28.018-11.477,29.905-26.318c3.145-1.628,9.941-4.328,20.541-4.328c12.033,0,19.166,3.479,21.616,4.92
		c2.144,14.554,14.68,25.727,29.83,25.727c14.794,0,27.091-10.656,29.657-24.71h33.643l0.033,0.025h6.785
		c2.796,0,5.066,2.37,5.066,5.167c0,0.833-0.207,1.615-0.564,2.308c-0.839,0.966-1.351,2.223-1.351,3.603
		c0,3.036,2.461,5.497,5.497,5.497c1.632,0,3.092-0.714,4.099-1.842l0.012,0.009c0.026-0.034,0.05-0.071,0.076-0.105
		c0.19-0.224,0.36-0.463,0.513-0.715c1.742-2.551,2.775-5.623,2.775-8.946C-511.735-931.172-518.868-938.305-527.665-938.305z
		 M-699.867-914.322c-10.2,0-18.499-8.299-18.499-18.499c0-10.201,8.298-18.5,18.499-18.5c10.201,0,18.5,8.299,18.5,18.5
		C-681.368-922.621-689.667-914.322-699.867-914.322z M-597.976-914.322c-10.2,0-18.499-8.299-18.499-18.499
		c0-10.201,8.299-18.5,18.499-18.5c10.201,0,18.5,8.299,18.5,18.5C-579.477-922.621-587.775-914.322-597.976-914.322z"/>
	<circle fill="#2D2D2D" cx="-694.67" cy="-934.06" r="7.037"/>
	<path fill="#2D2D2D" d="M-707.362-937.002c0,0-1.634-6.63,4.497-11.405c5.167-4.025,12.103,0.906,1.337,4.843
		C-706.959-941.579-707.362-937.002-707.362-937.002z"/>
	<path opacity="0.2" d="M-637.65-1037.753c0,0,3.662,3.371,10.234,3.371c7.562,0,10.704-3.371,10.704-3.371
		s-3.098,6.939-10.469,6.939C-634.458-1030.813-637.65-1037.753-637.65-1037.753z"/>
	<path fill="#8BAFAE" d="M-613.963-1081.014c-3.99,0-7.056,1.094-9.399,2.611c-5.381,3.488-6.926,9.235-6.926,9.235
		s-2.003-7.896-14.114-7.896c-11.981,0-18.264,9.078-18.264,14.96c0,4.065,1.142,6.725,2.784,8.449
		c2.335,2.454,5.685,3.015,8.215,3.015c7.265,0,6.77-8.373,6.77-8.373s5.741-0.822,8.461,1.378c2.453,1.985,3.012,4.24,3.119,5.49
		c0.051,0.599,0,0.97,0,0.97v11.957c0,0,0.277,1.465,4.87,1.465c2.169,0,3.586-0.169,4.527-0.391
		c1.846-0.434,1.826-1.074,1.826-1.074v-11.065c0,0,0-4.454,1.96-6.947c1.96-2.494,4.454-2.494,4.454-2.494s2.559,4.552,6.444,4.487
		c6.231-0.105,10.283-2.507,10.75-9.586C-598.032-1071.688-600.298-1081.015-613.963-1081.014z"/>
	<path opacity="0.2" d="M-616.712-1063.037c0,0-4.764,1.409-6.408,5.697c-1.178,3.07-0.909,15.469-0.799,19.196
		c1.846-0.434,1.826-1.074,1.826-1.074v-11.065c0,0,0-4.454,1.96-6.947c1.96-2.494,4.454-2.494,4.454-2.494
		s-0.531-0.986-0.777-1.764C-616.679-1062.188-616.712-1063.037-616.712-1063.037z"/>
	<path opacity="0.2" d="M-636.162-1059.763c-3.685-3.292-11.349-2.064-11.349-2.064s2.045,6.794-2.074,8.824
		c-6.201,3.057-9.821-0.185-10.296-0.651c2.335,2.454,5.685,3.015,8.215,3.015c7.265,0,6.77-8.373,6.77-8.373
		s5.741-0.822,8.461,1.378c2.453,1.985,3.012,4.24,3.119,5.49l0,0C-633.317-1052.145-633.333-1057.235-636.162-1059.763z"/>
	<path opacity="0.2" d="M-629.59-1066.427c0,0-0.203-3.797,2.119-7.452c1.779-2.799,3.731-4.25,4.104-4.512
		c-5.381,3.488-6.926,9.233-6.926,9.233s0.161,0.575,0.352,1.327C-629.79-1067.235-629.59-1066.427-629.59-1066.427z"/>
	<g>
		<path fill="#8BAFAE" d="M-636.436-1094.873c-0.885-1.044-1.784-1.859-2.679-2.483c-4.868-3.391-9.614-1.105-11.311,0.864
			c-2.008,2.331-5.261,10.256,6.865,13.405c5.795,1.506,9.237,3.75,11.113,5.369c1.354,1.169,1.898,2.015,1.898,2.015
			S-629.248-1086.39-636.436-1094.873z"/>
		<path opacity="0.2" d="M-630.549-1075.703c0,0,1.301-10.687-5.887-19.17c-0.885-1.044-1.784-1.859-2.679-2.483
			c0.022,0.02,4.241,3.596,5.451,8.762c1.519,6.481,1.251,10.457,1.217,10.877C-631.093-1076.549-630.549-1075.703-630.549-1075.703
			z"/>
	</g>
	<g>
		<path fill="#8BAFAE" d="M-620.13-1094.101c-0.214-1.777-0.917-3.353-2.511-3.752c-4.431-1.108-5.829,2.072-6.088,4.534
			c-0.394,3.735,0.355,7.058,0.485,9.455c0.047,0.866,0.021,2.004-0.03,3.104c-0.09,1.94-0.261,3.762-0.261,3.762
			s6.088-5.396,8.031-12.325C-620.163-1090.543-619.927-1092.412-620.13-1094.101z"/>
		<path opacity="0.2" d="M-620.513-1089.323c0.342-1.22,0.578-3.089,0.375-4.777c0.001,0.181-0.007,5.885-6.394,13.999
			c-1.726,2.192-1.75-0.659-1.75-0.659l0,0.001c-0.09,1.94-0.261,3.762-0.261,3.762S-622.456-1082.394-620.513-1089.323z"/>
	</g>
	<path fill="#FFFFFF" d="M-655.46-866.252c0,0.705-0.778,1.277-1.737,1.277h-20.027c-0.959,0-1.737-0.572-1.737-1.277v-13.946
		h23.501V-866.252z"/>
	<path fill="#FFFFFF" d="M-630.548-866.252c0,0.705-0.778,1.277-1.737,1.277h-20.027c-0.959,0-1.737-0.572-1.737-1.277v-13.946
		h23.501V-866.252z"/>
	<path opacity="0.2" d="M-601.017-877.231c0,0,8.555-0.086,12.742-1.451c6.573-2.144,8.058-10.421,8.058-10.421
		s-1.694,5.016-9.194,7.461c-4.187,1.366-12.742,1.452-12.742,1.452h-102.507v2.959l25.71-0.003l-0.012,2.335
		c0,0,0.461-1.242,11.75-1.242c11.645,0,11.751,1.242,11.751,1.242h1.41c0,0,0.252-1.242,11.568-1.242
		c10.969,0,11.933,1.242,11.933,1.242l0.001-2.322L-601.017-877.231z"/>
	<text transform="matrix(1 0 0 1 -791.8965 -688.0039)" fill="#465656" font-family="'BebasNeue'" font-size="97.4638">#steviewhale</text>
	<g>
		<text transform="matrix(1 0 0 1 -796 -692.1094)" fill="#D15A85" font-family="'BebasNeue'" font-size="97.4638">#steviewhale</text>
	</g>
	<rect x="-1135.347" y="-601.913" fill="#526363" width="1173.016" height="408.569"/>
</g>
<g id="Слой_5">
	<g>
		<path fill="#8BAFAE" d="M-776.035-310.729c0,5.168-4.189,9.357-9.356,9.357h-194.186c-5.167,0-9.356-4.189-9.356-9.357v-118.452
			c0-5.168,4.189-9.357,9.356-9.357h194.186c5.167,0,9.356,4.189,9.356,9.357V-310.729z"/>
		<rect x="-988.933" y="-392.992" fill="#604887" width="212.898" height="9.532"/>
		<circle fill="#2A3030" cx="-863.684" cy="-369.954" r="47.664"/>
		<circle fill="#526363" cx="-863.684" cy="-369.954" r="30.162"/>
		<path fill="#D15A85" d="M-944.569-438.538v-5.488c0-1.292-1.047-2.34-2.339-2.34h-14.361c-1.292,0-2.339,1.048-2.339,2.34v5.488
			H-944.569z"/>
		<path fill="#2A3030" d="M-798.706-438.538v-5.488c0-1.292-1.047-2.34-2.339-2.34h-22.599c-1.292,0-2.339,1.048-2.339,2.34v5.488
			H-798.706z"/>
		<path fill="#2A3030" d="M-882.353-455.409h-22.131c-2.586,0-3.563,2.339-3.563,2.339l-6.303,14.532h31.998"/>
		<path fill="#2A3030" d="M-882.353-455.409h22.131c2.586,0,3.563,2.339,3.563,2.339l6.303,14.532h-31.998"/>
		<path fill="#526363" d="M-870.486-443.521c0,1.291-1.047,2.339-2.339,2.339h-19.055c-1.292,0-2.339-1.048-2.339-2.339v-5.688
			c0-1.292,1.047-2.34,2.339-2.34h19.055c1.292,0,2.339,1.048,2.339,2.34V-443.521z"/>
		<path opacity="0.2" d="M-975.036-306.981c-0.024,0.001-0.048,0.007-0.072,0.007c-2.073,0-3.754-1.68-3.754-3.754v-118.452
			c0-5.168,4.189-9.357,9.357-9.357h-10.072c-5.167,0-9.356,4.189-9.356,9.357v118.452c0,5.168,4.189,9.357,9.356,9.357h194.186
			c3.834,0,7.126-2.309,8.571-5.61H-975.036z"/>
		<path opacity="0.2" d="M-863.684-400.116c-8.871,0-16.846,3.829-22.365,9.926c4.76-3.142,10.459-4.975,16.589-4.975
			c16.658,0,30.162,13.503,30.162,30.162c0,7.787-2.952,14.885-7.797,20.236c8.176-5.395,13.574-14.658,13.574-25.188
			C-833.521-386.613-847.026-400.116-863.684-400.116z"/>
		<path opacity="0.2" d="M-863.684-322.291c-26.324,0-47.664-21.34-47.664-47.664c0-12.363,4.709-23.627,12.429-32.097
			c-12.021,8.652-19.856,22.757-19.856,38.699c0,26.324,21.339,47.664,47.664,47.664c13.96,0,26.518-6.003,35.235-15.567
			C-843.704-325.62-853.302-322.291-863.684-322.291z"/>
	</g>
	<g>
		<path fill="#8BAFAE" d="M-418.998-308.938c0,5.168-4.189,9.356-9.356,9.356H-622.54c-5.167,0-9.356-4.188-9.356-9.356V-427.39
			c0-5.169,4.189-9.357,9.356-9.357h194.186c5.167,0,9.356,4.188,9.356,9.357V-308.938z"/>
		<path fill="#2A3030" d="M-459.522-299.582v-25.133c0-1.292-1.048-2.34-2.339-2.34h-127.172c-1.292,0-2.339,1.048-2.339,2.34
			v25.133H-459.522z"/>
		<path opacity="0.2" d="M-618-305.191c-0.024,0.001-0.046,0.008-0.071,0.008c-2.074,0-3.754-1.681-3.754-3.754V-427.39
			c0-5.169,4.189-9.357,9.357-9.357h-10.072c-5.167,0-9.356,4.188-9.356,9.357v118.452c0,5.168,4.189,9.356,9.356,9.356h194.186
			c3.834,0,7.126-2.309,8.571-5.61H-618z"/>
		<path fill="#604887" d="M-453.138-436.746v70.229c0,5.168-4.189,9.356-9.356,9.356h-125.907c-5.167,0-9.356-4.188-9.356-9.356
			v-70.229H-453.138z"/>
		<path opacity="0.2" d="M-586.285-436.746v18.753c0,1.572,1.276,2.769,2.85,2.769h115.661c1.574,0,2.851-1.276,2.851-2.85v-18.672
			H-586.285z"/>
		<path fill="#FFFFFF" d="M-470.113-504.795h-110.983c-1.292,0-2.339,1.048-2.339,2.34v82.042c0,1.291,1.048,2.339,2.339,2.339
			h110.982c1.292,0,2.339-1.048,2.339-2.339v-82.042C-467.775-503.747-468.822-504.795-470.113-504.795z"/>
		<path opacity="0.2" d="M-436.099-339.611c-3.167,0-5.733-2.566-5.733-5.732c0-1.374,0.483-2.633,1.289-3.62
			c-1.289,1.052-2.114,2.651-2.114,4.445c0,3.166,2.567,5.732,5.733,5.732c1.793,0,3.394-0.824,4.444-2.113
			C-433.467-340.095-434.726-339.611-436.099-339.611z"/>
		<circle fill="#D15A85" cx="-436.258" cy="-345.258" r="5.733"/>
	</g>
	<g>
		<g>
			<path fill="#D15A85" d="M-165.279-413.161c0,0,4.21-10.035,14.558-16.804c23.622-15.45,44.602-1.344,44.662-1.303
				c-5.531-4.549-12.683-7.824-21.611-9.188c-30.38-4.64-40.741,19.079-40.741,19.079s0.67,1.353,1.402,3.196
				C-166.271-416.32-165.279-413.161-165.279-413.161z"/>
			<path opacity="0.2" d="M-165.279-413.161c0,0,4.21-10.035,14.558-16.804c23.622-15.45,44.602-1.344,44.662-1.303
				c-5.531-4.549-12.683-7.824-21.611-9.188c-30.38-4.64-40.741,19.079-40.741,19.079s0.67,1.353,1.402,3.196
				C-166.271-416.32-165.279-413.161-165.279-413.161z"/>
		</g>
		<g>
			<path fill="#D15A85" d="M-102.981-361.713c15.68-19.754,16.996-53.049-3.078-69.555c-0.061-0.041-21.04-14.147-44.662,1.303
				c-10.348,6.769-14.558,16.804-14.558,16.804s-0.991-3.159-1.729-5.019c-0.732-1.844-1.402-3.196-1.402-3.196
				s-10.361-23.719-40.741-19.079c-2.132,0.325-4.158,0.766-6.091,1.301c-1.105,0.395-34.094,12.565-22.078,53.436
				c4.894,16.645,16.693,30.562,36.674,49.623c9.374,8.943,34.247,25.788,34.247,25.788s12.172-5.157,23.725-13.822
				c6.235-4.677,19.717-15.559,19.717-15.559l0.001,0.004C-116.193-346.303-109.355-353.683-102.981-361.713z"/>
			<path fill="#D15A85" d="M-142.675-324.13c-11.553,8.665-23.725,13.822-23.725,13.822s-24.873-16.845-34.247-25.788
				c-19.981-19.062-31.78-32.979-36.674-49.623c-12.017-40.87,20.973-53.041,22.078-53.436
				c-35.513,9.832-37.566,53.546-18.597,77.441c28.185,35.506,65.429,58.36,65.429,58.36s22.304-13.688,45.454-36.332l-0.001-0.004
				C-122.958-339.688-136.44-328.807-142.675-324.13z"/>
			<path opacity="0.2" d="M-142.675-324.13c-11.553,8.665-23.725,13.822-23.725,13.822s-24.873-16.845-34.247-25.788
				c-19.981-19.062-32.348-31.629-37.242-48.274c-12.017-40.869,21.541-54.39,22.646-54.784
				c-35.513,9.832-37.566,53.546-18.597,77.441c28.185,35.506,65.429,58.36,65.429,58.36s22.304-13.688,45.454-36.332l-0.001-0.004
				C-122.958-339.688-136.44-328.807-142.675-324.13z"/>
		</g>
	</g>
	<g>
		<path fill="#8BAFAE" d="M-82.035,194.271c0,5.168-4.189,9.357-9.356,9.357h-194.186c-5.167,0-9.356-4.189-9.356-9.357V75.819
			c0-5.168,4.189-9.357,9.356-9.357h194.186c5.167,0,9.356,4.189,9.356,9.357V194.271z"/>
		<rect x="-294.933" y="112.008" fill="#604887" width="212.898" height="9.532"/>
		<circle fill="#2A3030" cx="-169.684" cy="135.046" r="47.664"/>
		<circle fill="#526363" cx="-169.684" cy="135.046" r="30.162"/>
		<path fill="#D15A85" d="M-250.569,66.462v-5.488c0-1.292-1.047-2.34-2.339-2.34h-14.361c-1.292,0-2.339,1.048-2.339,2.34v5.488
			H-250.569z"/>
		<path fill="#2A3030" d="M-104.706,66.462v-5.488c0-1.292-1.047-2.34-2.339-2.34h-22.599c-1.292,0-2.339,1.048-2.339,2.34v5.488
			H-104.706z"/>
		<path fill="#2A3030" d="M-188.353,49.591h-22.131c-2.586,0-3.563,2.339-3.563,2.339l-6.303,14.532h31.998"/>
		<path fill="#2A3030" d="M-188.353,49.591h22.131c2.586,0,3.563,2.339,3.563,2.339l6.303,14.532h-31.998"/>
		<path fill="#526363" d="M-176.486,61.479c0,1.291-1.047,2.339-2.339,2.339h-19.055c-1.292,0-2.339-1.048-2.339-2.339V55.79
			c0-1.292,1.047-2.34,2.339-2.34h19.055c1.292,0,2.339,1.048,2.339,2.34V61.479z"/>
		<path opacity="0.2" d="M-281.036,198.019c-0.024,0.001-0.048,0.007-0.072,0.007c-2.073,0-3.754-1.68-3.754-3.754V75.819
			c0-5.168,4.189-9.357,9.357-9.357h-10.072c-5.167,0-9.356,4.189-9.356,9.357v118.452c0,5.168,4.189,9.357,9.356,9.357h194.186
			c3.834,0,7.126-2.309,8.571-5.61H-281.036z"/>
		<path opacity="0.2" d="M-169.684,104.884c-8.871,0-16.846,3.829-22.365,9.926c4.76-3.142,10.459-4.975,16.589-4.975
			c16.658,0,30.162,13.503,30.162,30.162c0,7.787-2.952,14.885-7.797,20.236c8.176-5.395,13.574-14.658,13.574-25.188
			C-139.521,118.387-153.026,104.884-169.684,104.884z"/>
		<path opacity="0.2" d="M-169.684,182.709c-26.324,0-47.664-21.34-47.664-47.664c0-12.363,4.709-23.627,12.429-32.097
			c-12.021,8.652-19.856,22.757-19.856,38.699c0,26.324,21.339,47.664,47.664,47.664c13.96,0,26.518-6.003,35.235-15.567
			C-149.704,179.38-159.302,182.709-169.684,182.709z"/>
	</g>
	<g>
		<path fill="#8BAFAE" d="M212.898,195.857c0,5.168-4.189,9.356-9.356,9.356H9.356c-5.167,0-9.356-4.188-9.356-9.356V77.405
			c0-5.169,4.189-9.357,9.356-9.357h194.186c5.167,0,9.356,4.188,9.356,9.357V195.857z"/>
		<path fill="#2A3030" d="M172.374,205.213V180.08c0-1.292-1.048-2.34-2.339-2.34H42.863c-1.292,0-2.339,1.048-2.339,2.34v25.133
			H172.374z"/>
		<path opacity="0.2" d="M13.896,199.604c-0.024,0.001-0.046,0.008-0.071,0.008c-2.074,0-3.754-1.681-3.754-3.754V77.405
			c0-5.169,4.189-9.357,9.357-9.357H9.356C4.189,68.048,0,72.236,0,77.405v118.452c0,5.168,4.189,9.356,9.356,9.356h194.186
			c3.834,0,7.126-2.309,8.571-5.61H13.896z"/>
		<path fill="#604887" d="M178.759,68.049v70.229c0,5.168-4.189,9.356-9.356,9.356H43.495c-5.167,0-9.356-4.188-9.356-9.356V68.049
			H178.759z"/>
		<path opacity="0.2" d="M45.611,68.049v18.753c0,1.572,1.276,2.769,2.85,2.769h115.661c1.574,0,2.851-1.276,2.851-2.85V68.049
			H45.611z"/>
		<path fill="#FFFFFF" d="M161.783,0H50.8c-1.292,0-2.339,1.048-2.339,2.34v82.042c0,1.291,1.048,2.339,2.339,2.339h110.982
			c1.292,0,2.339-1.048,2.339-2.339V2.34C164.122,1.048,163.074,0,161.783,0z"/>
		<path opacity="0.2" d="M195.798,165.184c-3.167,0-5.733-2.566-5.733-5.732c0-1.374,0.483-2.633,1.289-3.62
			c-1.289,1.052-2.114,2.651-2.114,4.445c0,3.166,2.567,5.732,5.733,5.732c1.793,0,3.394-0.824,4.444-2.113
			C198.43,164.7,197.171,165.184,195.798,165.184z"/>
		<circle fill="#D15A85" cx="195.639" cy="159.537" r="5.733"/>
	</g>
</g>
</svg>
