<?xml version="1.0" encoding="utf-8"?>
<!-- Generator: Adobe Illustrator 15.0.0, SVG Export Plug-In . SVG Version: 6.00 Build 0)  -->
<!DOCTYPE svg PUBLIC "-//W3C//DTD SVG 1.1//EN" "http://www.w3.org/Graphics/SVG/1.1/DTD/svg11.dtd">
<svg version="1.1" id="Слой_1" xmlns="http://www.w3.org/2000/svg" xmlns:xlink="http://www.w3.org/1999/xlink" x="0px" y="0px"
	 width="717.951px" height="362.578px" viewBox="-37.366 102.31 717.951 362.578"
	 enable-background="new -37.366 102.31 717.951 362.578" xml:space="preserve">
<g id="Слой_1_1_">
</g>
<g id="Слой_4">
</g>
<g id="Слой_2">
	<rect x="110.273" y="308.895" fill="#2D2D2D" width="45.701" height="14.566"/>
</g>
<g id="Слой_3">
	<g opacity="0.35">
		<circle fill="#58CCA8" cx="146.242" cy="316.254" r="38.803"/>
	</g>
	<path fill="#5D3C8C" d="M641.052,270.11c-4.736-0.278-15.087-0.077-21.092,7.864c-4.662,6.166-4.89,16.47-4.836,19.691h-0.08
		c0.052-3.224-0.176-13.525-4.836-19.691c-6.007-7.941-16.355-8.145-21.094-7.864c-22.06,1.298-39.531-0.077-39.531-0.077
		s0,11.401,7.465,20.217c6.254,7.388,18.736,8.418,32.066,8.418c5.079,0,11.49,0,16.664,0c-0.874,9.509-9.226,83.886-56.545,83.886
		c-45.204,0-46.09-56.279-46.09-56.279v-112.21c0-20.367-16.511-36.878-36.878-36.878H176.951
		c-20.367,0-36.877,16.511-36.877,36.878v213.893c0,20.365,16.511,36.879,36.877,36.879h289.316c0,0,74.905,2.756,118.319-31.895
		c49.5-39.505,40.986-124.165,39.774-134.272c5.18,0,11.604,0,16.69,0c13.33,0,25.813-1.03,32.067-8.418
		c7.466-8.813,7.466-20.217,7.466-20.217S663.112,271.408,641.052,270.11z"/>
	<path opacity="0.2" enable-background="new    " d="M453.759,355.257c2.393,43.552-24.98,66.143-58.218,66.143
		c-32.113,0-57.127-29.479-58.861-61.387L453.759,355.257z"/>
	<path fill="#5D3C8C" d="M445.166,359.224c0,30.221-24.5,54.721-54.721,54.721c-29.201,0-53.188-25.914-54.767-54.721H445.166z"/>
	<path opacity="0.2" enable-background="new    " d="M183.287,325.861c5.897-3.114,13.13-6.688,27.865-6.688
		c17.065,0,25.742,5.382,28.433,6.753c2.961,18.49,18.981,32.621,38.31,32.621c19.036,0,34.859-13.712,38.16-31.795h43.289
		l0.043,0.032h8.729c3.601,0,6.521,3.05,6.521,6.648c0,1.07-0.268,2.079-0.729,2.97c-1.08,1.242-1.736,2.86-1.736,4.636
		c0,3.906,3.168,7.073,7.072,7.073c2.102,0,3.979-0.919,5.273-2.37l0.016,0.012c0.035-0.044,0.064-0.093,0.1-0.137
		c0.242-0.287,0.463-0.596,0.658-0.919c2.24-3.283,3.57-7.235,3.57-11.512c0-11.319-9.178-20.497-20.496-20.497
		c-0.453,0-0.898,0.017-1.345,0.046h-50.968c-3.301-18.083-19.124-31.795-38.16-31.795c-17.839,0-32.856,12.042-37.394,28.438
		c-6.799-2.365-18.063-5.264-32.431-5.264c-14.382,0-26.224,2.554-33.864,4.826 M277.892,343.551
		c-13.125,0-23.805-10.681-23.805-23.806s10.68-23.804,23.805-23.804s23.804,10.679,23.804,23.804S291.018,343.551,277.892,343.551z
		"/>
	<g opacity="0.35">
		<circle fill="#58CCA8" cx="277.348" cy="316.254" r="38.803"/>
	</g>
	<g>
		<path fill="#2D2D2D" d="M277.348,292.451c13.125,0,23.804,10.679,23.804,23.804s-10.678,23.806-23.804,23.806
			c-13.125,0-23.805-10.681-23.805-23.806S264.223,292.451,277.348,292.451 M277.348,277.451c-21.432,0-38.805,17.373-38.805,38.804
			c0,21.433,17.373,38.806,38.805,38.806c21.431,0,38.804-17.373,38.804-38.806C316.152,294.824,298.779,277.451,277.348,277.451
			L277.348,277.451z"/>
	</g>
	<path fill="#2D2D2D" d="M367.82,309.2c-0.452,0-0.898,0.019-1.344,0.046h-56.413v14.02h48.734l0.043,0.03h8.729
		c3.6,0,6.52,3.052,6.52,6.648c0,1.072-0.268,2.079-0.728,2.97c-1.08,1.242-1.737,2.86-1.737,4.638c0,3.904,3.168,7.071,7.072,7.071
		c2.102,0,3.979-0.919,5.274-2.37l0.016,0.014c0.034-0.044,0.064-0.095,0.099-0.139c0.243-0.285,0.464-0.596,0.658-0.919
		c2.241-3.281,3.571-7.233,3.571-11.512C388.317,318.378,379.14,309.2,367.82,309.2z"/>
	<circle fill="#2D2D2D" cx="276.851" cy="314.687" r="9.054"/>
	<path fill="#2D2D2D" d="M292.057,310.498c0,0,1.528-8.649-6.751-14.259c-6.979-4.725-15.461,2.2-1.303,6.332
		C291.148,304.656,292.057,310.498,292.057,310.498z"/>
	<path fill="#2D2D2D" d="M211.152,300.625c-23.714,0-35.962,7.896-36.601,8.271l7.539,13.853c0.125-0.069,9.637-7.122,29.063-7.122
		s28.936,7.053,29.061,7.122l7.541-13.853C247.114,308.521,234.866,300.625,211.152,300.625z"/>
	<g>
		<path fill="#2D2D2D" d="M146.242,292.451c13.125,0,23.804,10.679,23.804,23.804s-10.678,23.806-23.804,23.806
			c-13.125,0-23.803-10.681-23.803-23.806S133.117,292.451,146.242,292.451 M146.242,277.451c-21.43,0-38.803,17.373-38.803,38.804
			c0,21.433,17.373,38.806,38.803,38.806c21.431,0,38.804-17.373,38.804-38.806C185.046,294.824,167.672,277.451,146.242,277.451
			L146.242,277.451z"/>
	</g>
	<circle fill="#2D2D2D" cx="152.929" cy="314.662" r="9.054"/>
	<path fill="#2D2D2D" d="M136.598,310.876c0,0-2.104-8.528,5.787-14.676c6.646-5.179,15.571,1.166,1.72,6.231
		C137.115,304.986,136.598,310.876,136.598,310.876z"/>
	<g display="none">
		<path display="inline" fill="#EDEDED" d="M184.483,372.903c-1.926,0.107-3.691,0.314-5.305,0.618v35.797
			c2.381,1.271,4.759,2.138,6.812,2.702c1.101,0.303,2.426,0.564,3.886,0.798v-39.869
			C187.799,372.855,185.931,372.822,184.483,372.903z"/>
		<path display="inline" fill="#EDEDED" d="M191.849,373.052V413.1c3.334,0.431,7.144,0.714,10.696,0.888v-40.15
			C199.053,373.57,195.261,373.253,191.849,373.052z"/>
		<path display="inline" fill="#EDEDED" d="M237.819,372.903c-2.023-0.113-4.85-0.009-7.958,0.184v40.085
			c2.482-0.303,4.737-0.68,6.452-1.149c1.31-0.36,2.754-0.851,4.246-1.481v-37.402C239.684,373.034,238.771,372.957,237.819,372.903
			z"/>
		<path display="inline" fill="#EDEDED" d="M217.19,374.025v40.071c3.37-0.121,7.177-0.347,10.698-0.704v-40.175
			C224.305,373.469,220.504,373.796,217.19,374.025z"/>
		<path display="inline" fill="#EDEDED" d="M211.151,374.302c-1.729,0-4.052-0.136-6.632-0.318v40.091
			c2.528,0.1,4.847,0.145,6.632,0.145c1.161,0,2.545-0.021,4.064-0.06v-40.006C213.673,374.243,212.283,374.302,211.151,374.302z"/>
		<path display="inline" fill="#EDEDED" d="M166.781,393.536c1.535,7.079,5.815,11.677,10.425,14.619v-34.19
			C167.686,376.452,164.493,382.981,166.781,393.536z"/>
		<path display="inline" fill="#EDEDED" d="M242.531,373.42v36.197c5.507-2.787,11.172-7.697,12.99-16.081
			C258.004,382.085,254.034,375.373,242.531,373.42z"/>
		<path display="inline" fill="#EDEDED" d="M177.206,373.965v34.19c0.654,0.418,1.313,0.813,1.975,1.163v-35.797
			C178.492,373.651,177.836,373.802,177.206,373.965z"/>
		<path display="inline" opacity="0.2" enable-background="new    " d="M177.206,373.965v34.19c0.654,0.418,1.313,0.813,1.975,1.163
			v-35.797C178.492,373.651,177.836,373.802,177.206,373.965z"/>
		<path display="inline" fill="#EDEDED" d="M189.876,372.949v39.869c0.635,0.101,1.292,0.193,1.975,0.281v-40.048
			C191.173,373.012,190.517,372.979,189.876,372.949z"/>
		<path display="inline" opacity="0.2" enable-background="new    " d="M189.876,372.949v39.869
			c0.635,0.101,1.292,0.193,1.975,0.281v-40.048C191.173,373.012,190.517,372.979,189.876,372.949z"/>
		<path display="inline" fill="#EDEDED" d="M202.547,373.837v40.15c0.67,0.032,1.327,0.063,1.975,0.086v-40.091
			C203.876,373.937,203.219,373.888,202.547,373.837z"/>
		<path display="inline" opacity="0.2" enable-background="new    " d="M202.547,373.837v40.15c0.67,0.032,1.327,0.063,1.975,0.086
			v-40.091C203.876,373.937,203.219,373.888,202.547,373.837z"/>
		<path display="inline" fill="#EDEDED" d="M215.219,374.152v40.006c0.635-0.017,1.296-0.037,1.973-0.062v-40.071
			C216.51,374.072,215.852,374.114,215.219,374.152z"/>
		<path display="inline" opacity="0.2" enable-background="new    " d="M215.219,374.152v40.006
			c0.635-0.017,1.296-0.037,1.973-0.062v-40.071C216.51,374.072,215.852,374.114,215.219,374.152z"/>
		<path display="inline" fill="#EDEDED" d="M227.888,373.219v40.175c0.671-0.068,1.326-0.144,1.973-0.223v-40.085
			C229.214,373.127,228.555,373.171,227.888,373.219z"/>
		<path display="inline" opacity="0.2" enable-background="new    " d="M227.888,373.219v40.175
			c0.671-0.068,1.326-0.144,1.973-0.223v-40.085C229.214,373.127,228.555,373.171,227.888,373.219z"/>
		<path display="inline" fill="#EDEDED" d="M240.559,373.135v37.402c0.649-0.273,1.31-0.586,1.973-0.922V373.42
			C241.895,373.312,241.241,373.214,240.559,373.135z"/>
		<path display="inline" opacity="0.2" enable-background="new    " d="M240.559,373.135v37.402c0.649-0.273,1.31-0.586,1.973-0.922
			V373.42C241.895,373.312,241.241,373.214,240.559,373.135z"/>
	</g>
	<path opacity="0.2" enable-background="new    " d="M226.298,181.236c0,0,4.714,4.338,13.171,4.338
		c9.729,0,13.771-4.338,13.771-4.338s-3.987,8.93-13.471,8.93C230.406,190.166,226.298,181.236,226.298,181.236z"/>
	<g>
		<path fill="#6AA5CC" d="M256.777,125.571c-5.134,0-9.08,1.407-12.094,3.361c-6.924,4.486-8.912,11.882-8.912,11.882
			s-2.578-10.159-18.161-10.159c-15.417,0-23.5,11.682-23.5,19.25c0,5.229,1.469,8.651,3.582,10.871
			c3.005,3.157,7.313,3.879,10.571,3.879c9.348,0,8.711-10.774,8.711-10.774s7.387-1.059,10.887,1.774
			c3.156,2.555,3.876,5.454,4.014,7.063c0.065,0.77,0,1.249,0,1.249v15.384c0,0,0.357,1.885,6.269,1.885
			c2.792,0,4.613-0.217,5.824-0.502c2.375-0.559,2.351-1.383,2.351-1.383v-14.238c0,0,0-5.729,2.521-8.938
			c2.521-3.211,5.731-3.211,5.731-3.211s3.292,5.857,8.292,5.773c8.018-0.134,13.23-3.224,13.833-12.333
			C277.277,137.572,274.36,125.571,256.777,125.571z"/>
		<path fill="#6AA5CC" d="M236.675,144.327c0,0-0.261-4.886,2.729-9.589c2.289-3.602,4.801-5.469,5.281-5.806
			c-6.924,4.486-8.912,11.882-8.912,11.882s0.207,0.739,0.452,1.707C236.417,143.287,236.675,144.327,236.675,144.327z"/>
	</g>
	<path opacity="0.2" enable-background="new    " d="M253.24,148.703c0,0-6.13,1.813-8.246,7.331
		c-1.516,3.951-1.169,19.903-1.028,24.7c2.375-0.559,2.352-1.383,2.352-1.383v-14.238c0,0,0-5.729,2.521-8.939
		c2.521-3.209,5.731-3.209,5.731-3.209s-0.683-1.269-1-2.27C253.282,149.794,253.24,148.703,253.24,148.703z"/>
	<path opacity="0.2" enable-background="new    " d="M228.213,152.916c-4.74-4.234-14.603-2.654-14.603-2.654
		s2.632,8.74-2.669,11.354c-7.979,3.933-12.637-0.236-13.249-0.838c3.005,3.157,7.313,3.879,10.571,3.879
		c9.348,0,8.711-10.774,8.711-10.774s7.387-1.059,10.887,1.774c3.156,2.555,3.876,5.454,4.014,7.063l0,0
		C231.874,162.719,231.854,156.167,228.213,152.916z"/>
	<path opacity="0.2" enable-background="new    " d="M236.675,144.327c0,0-0.261-4.886,2.729-9.589
		c2.289-3.602,4.801-5.469,5.281-5.806c-6.924,4.486-8.912,11.882-8.912,11.882s0.207,0.739,0.452,1.707
		C236.417,143.287,236.675,144.327,236.675,144.327z"/>
	<g>
		<path fill="#6AA5CC" d="M231.428,115.817c-1.559-6.647-6.986-11.249-7.017-11.273c-6.264-4.362-12.371-1.423-14.553,1.111
			c-2.583,3-6.771,13.197,8.833,17.25c7.457,1.938,11.886,4.824,14.3,6.909C233.038,129.272,233.382,124.157,231.428,115.817z"/>
		<path fill="#6AA5CC" d="M235.436,132.404c0,0,1.675-13.75-7.575-24.666c-1.139-1.344-2.295-2.392-3.447-3.194
			c0.028,0.024,5.458,4.626,7.017,11.273c1.952,8.34,1.608,13.455,1.563,13.996C234.735,131.316,235.436,132.404,235.436,132.404z"
			/>
		<path opacity="0.2" enable-background="new    " d="M235.436,132.404c0,0,1.675-13.75-7.575-24.666
			c-1.139-1.344-2.295-2.392-3.447-3.194c0.028,0.024,5.458,4.626,7.017,11.273c1.952,8.34,1.608,13.455,1.563,13.996
			C234.735,131.316,235.436,132.404,235.436,132.404z"/>
	</g>
	<g>
		<path fill="#6AA5CC" d="M240.615,126.745c8.218-10.438,8.229-17.78,8.229-18.013c-0.276-2.287-1.182-4.315-3.231-4.828
			c-5.701-1.425-7.5,2.667-7.833,5.833c-0.506,4.808,0.457,9.083,0.624,12.167c0.061,1.115,0.028,2.579-0.038,3.994l0,0
			C238.363,125.897,238.394,129.567,240.615,126.745z"/>
		<path fill="#6AA5CC" d="M248.36,114.879c0.438-1.568,0.743-3.975,0.479-6.146c0.002,0.23-0.009,7.573-8.227,18.013
			c-2.221,2.822-2.252-0.848-2.252-0.848l0,0c-0.116,2.497-0.335,4.84-0.335,4.84S245.86,123.796,248.36,114.879z"/>
		<path opacity="0.2" enable-background="new    " d="M248.36,114.879c0.438-1.568,0.743-3.975,0.479-6.146
			c0.002,0.23-0.009,7.573-8.227,18.013c-2.221,2.822-2.252-0.848-2.252-0.848l0,0c-0.116,2.497-0.335,4.84-0.335,4.84
			S245.86,123.796,248.36,114.879z"/>
	</g>
	<path display="none" fill="#EDEDED" d="M140.074,414.124c12.025,7.273,24.347,7.273,24.347,7.273s35.05,0,46.73,0
		s46.729,0,46.729,0s14.394,0,27.247-9.181c7.542-5.388,17.491-19.057,16.467-24.817c-0.775-4.354-5.61-5.825-8.209-2.084
		c-1.444,2.078,0.418,5.138,0.418,5.138s2.077,6.436-9.875,11.702c-9.636,4.246-47.218-0.93-72.776-0.93
		c-27.326,0-59.517,5.813-71.077,0.93"/>
	<path fill="#FFFFFF" d="M203.381,401.912c0,0.908-1,1.646-2.233,1.646h-25.771c-1.232,0-2.233-0.735-2.233-1.646v-17.942h30.238
		V401.912z"/>
	<path fill="#FFFFFF" d="M235.436,401.912c0,0.908-1,1.646-2.235,1.646h-25.77c-1.234,0-2.235-0.735-2.235-1.646v-17.942h30.24
		V401.912z"/>
	<path opacity="0.2" enable-background="new    " d="M273.436,387.785c0,0,11.008-0.109,16.396-1.868
		c8.459-2.758,10.368-13.406,10.368-13.406s-2.18,6.451-11.831,9.601c-5.387,1.757-16.396,1.868-16.396,1.868h-131.9v3.808
		l33.083-0.004l-0.015,3.004c0,0,0.594-1.598,15.12-1.598c14.981,0,15.118,1.598,15.118,1.598h1.815c0,0,0.324-1.598,14.885-1.598
		c14.114,0,15.354,1.598,15.354,1.598l0.002-2.986L273.436,387.785z"/>
</g>
</svg>
