<?xml version="1.0" encoding="utf-8"?>
<!-- Generator: Adobe Illustrator 15.0.0, SVG Export Plug-In . SVG Version: 6.00 Build 0)  -->
<!DOCTYPE svg PUBLIC "-//W3C//DTD SVG 1.1//EN" "http://www.w3.org/Graphics/SVG/1.1/DTD/svg11.dtd">
<svg version="1.1" xmlns="http://www.w3.org/2000/svg" xmlns:xlink="http://www.w3.org/1999/xlink" x="0px" y="0px"
	 width="212.898px" height="154.038px" viewBox="0 0 212.898 154.038" enable-background="new 0 0 212.898 154.038"
	 xml:space="preserve">
<g id="Слой_1" display="none">
	
		<image display="inline" overflow="visible" opacity="0.61" width="604" height="604" xlink:href="C8F9BEEC.jpg"  transform="matrix(1 0 0 1 663.8057 -2140.0352)">
	</image>
</g>
<g id="Слой_4">
</g>
<g id="Слой_2">
	<rect x="-499.921" y="-1716.141" fill="#2D2D2D" width="45.701" height="14.568"/>
	<rect x="-669.335" y="-2025.035" fill="#AFD9DD" width="762" height="596"/>
	<g opacity="0.41">
		<g>
			<path fill="none" stroke="#FFFFFF" stroke-width="2" stroke-miterlimit="10" d="M-853.194-2226.194c17.999,0,17.999,12,35.998,12
				c18,0,18-12,35.999-12c18,0,18,12,35.999,12c18,0,18-12,36-12s18,12,36,12s18-12,36-12s18,12,35.999,12s17.999-12,35.999-12
				s18,12,35.999,12c18,0,18-12,36-12c17.998,0,17.998,12,35.996,12c18,0,18-12,36-12c17.998,0,17.998,12,35.996,12
				c17.998,0,17.998-12,35.995-12c17.998,0,17.998,12,35.996,12c17.999,0,17.999-12,35.997-12c17.999,0,17.999,12,35.998,12
				c18.001,0,18.001-12,36.002-12c17.999,0,17.999,12,35.998,12c18,0,18-12,36-12c18,0,18,12,35.999,12s18-12,36-12s18,12,36,12
				c18.001,0,18.001-12,36.002-12s18.001,12,36.003,12c17.999,0,17.999-12,35.998-12s17.999,12,35.998,12
				c18.001,0,18.001-12,36.003-12c18.002,0,18.002,12,36.003,12c18.002,0,18.002-12,36.005-12c18.001,0,18.001,12,36.003,12
				c18.004,0,18.004-12,36.009-12s18.004,12,36.009,12"/>
		</g>
		<g>
			<path fill="none" stroke="#FFFFFF" stroke-width="2" stroke-miterlimit="10" d="M-853.255-2201.741c17.999,0,17.999,12,35.998,12
				s17.999-12,35.999-12s18,12,36,12s18-12,36-12s18,12,36,12s18-12,36-12c17.999,0,17.999,12,35.999,12s18-12,35.999-12
				s17.999,12,35.999,12c18,0,18-12,36-12c17.998,0,17.998,12,35.996,12c18,0,18-12,36-12c17.998,0,17.998,12,35.996,12
				c17.998,0,17.998-12,35.995-12s17.998,12,35.996,12s17.998-12,35.997-12c17.999,0,17.999,12,35.998,12
				c18.001,0,18.001-12,36.002-12c17.999,0,17.999,12,35.998,12c18,0,18-12,36-12c18,0,18,12,35.999,12c18,0,18-12,36-12
				c18,0,18,12,36,12c18.001,0,18.001-12,36.002-12c18.001,0,18.001,12,36.003,12c17.999,0,17.999-12,35.997-12
				c17.999,0,17.999,12,35.999,12c18.001,0,18.001-12,36.003-12s18.001,12,36.003,12c18.002,0,18.002-12,36.005-12
				c18.002,0,18.002,12,36.003,12c18.004,0,18.004-12,36.009-12s18.004,12,36.009,12"/>
		</g>
		<g>
			<path fill="none" stroke="#FFFFFF" stroke-width="2" stroke-miterlimit="10" d="M-853.317-2177.288c17.999,0,17.999,12,35.998,12
				s17.999-12,35.999-12s18,12,36,12s18-12,36-12s18,12,36,12s18-12,36-12c17.999,0,17.999,12,35.999,12s18-12,35.999-12
				s17.999,12,35.999,12c18,0,18-12,36-12c17.998,0,17.998,12,35.996,12c18,0,18-12,36-12c17.998,0,17.998,12,35.996,12
				c17.998,0,17.998-12,35.995-12s17.998,12,35.996,12s17.998-12,35.997-12c17.999,0,17.999,12,35.998,12
				c18.001,0,18.001-12,36.002-12c17.999,0,17.999,12,35.998,12c18,0,18-12,36-12c18,0,18,12,35.999,12c18,0,18-12,36-12
				c18,0,18,12,36,12c18.001,0,18.001-12,36.002-12c18.001,0,18.001,12,36.003,12c17.999,0,17.999-12,35.997-12
				c17.999,0,17.999,12,35.999,12c18.001,0,18.001-12,36.003-12s18.001,12,36.003,12c18.002,0,18.002-12,36.005-12
				c18.002,0,18.002,12,36.003,12c18.004,0,18.004-12,36.009-12s18.004,12,36.009,12"/>
		</g>
		<g>
			<path fill="none" stroke="#FFFFFF" stroke-width="2" stroke-miterlimit="10" d="M-853.378-2152.834c17.999,0,17.999,12,35.998,12
				c18,0,18-12,35.999-12c18,0,18,12,35.999,12c18,0,18-12,36-12s18,12,36,12s18-12,36-12s18,12,35.999,12s17.999-12,35.999-12
				s18,12,35.999,12c18,0,18-12,36-12c17.998,0,17.998,12,35.996,12c18,0,18-12,36-12c17.998,0,17.998,12,35.996,12
				c17.998,0,17.998-12,35.995-12c17.998,0,17.998,12,35.996,12c17.999,0,17.999-12,35.997-12c17.999,0,17.999,12,35.998,12
				c18.001,0,18.001-12,36.002-12c17.999,0,17.999,12,35.998,12c18,0,18-12,36-12c18,0,18,12,35.999,12s18-12,36-12s18,12,36,12
				c18.001,0,18.001-12,36.002-12s18.001,12,36.003,12c17.999,0,17.999-12,35.998-12s17.999,12,35.998,12
				c18.001,0,18.001-12,36.003-12c18.002,0,18.002,12,36.003,12c18.002,0,18.002-12,36.005-12c18.001,0,18.001,12,36.003,12
				c18.004,0,18.004-12,36.009-12s18.004,12,36.009,12"/>
		</g>
		<g>
			<path fill="none" stroke="#FFFFFF" stroke-width="2" stroke-miterlimit="10" d="M-853.439-2128.381c17.999,0,17.999,12,35.998,12
				c18,0,18-12,35.999-12c18,0,18,12,35.999,12c18,0,18-12,36-12s18,12,36,12s18-12,36-12s18,12,35.999,12s17.999-12,35.999-12
				s18,12,35.999,12c18,0,18-12,36-12c17.998,0,17.998,12,35.996,12c18,0,18-12,36-12c17.998,0,17.998,12,35.996,12
				c17.998,0,17.998-12,35.995-12c17.998,0,17.998,12,35.996,12c17.999,0,17.999-12,35.997-12c17.999,0,17.999,12,35.998,12
				c18.001,0,18.001-12,36.002-12c17.999,0,17.999,12,35.998,12c18,0,18-12,36-12c18,0,18,12,35.999,12s18-12,36-12s18,12,36,12
				c18.001,0,18.001-12,36.002-12s18.001,12,36.003,12c17.999,0,17.999-12,35.998-12s17.999,12,35.998,12
				c18.001,0,18.001-12,36.003-12c18.002,0,18.002,12,36.003,12c18.002,0,18.002-12,36.005-12c18.001,0,18.001,12,36.003,12
				c18.004,0,18.004-12,36.009-12s18.004,12,36.009,12"/>
		</g>
		<g>
			<path fill="none" stroke="#FFFFFF" stroke-width="2" stroke-miterlimit="10" d="M-853.5-2103.927c17.999,0,17.999,12,35.998,12
				s17.999-12,35.999-12s18,12,36,12s18-12,36-12s18,12,36,12s18-12,36-12c17.999,0,17.999,12,35.999,12s18-12,35.999-12
				s17.999,12,35.999,12c18,0,18-12,36-12c17.998,0,17.998,12,35.996,12c18,0,18-12,36-12c17.998,0,17.998,12,35.996,12
				c17.998,0,17.998-12,35.995-12s17.998,12,35.996,12s17.998-12,35.997-12c17.999,0,17.999,12,35.998,12
				c18.001,0,18.001-12,36.002-12c17.999,0,17.999,12,35.998,12c18,0,18-12,36-12c18,0,18,12,35.999,12c18,0,18-12,36-12
				c18,0,18,12,36,12c18.001,0,18.001-12,36.002-12c18.001,0,18.001,12,36.003,12c17.999,0,17.999-12,35.997-12
				c17.999,0,17.999,12,35.999,12c18.001,0,18.001-12,36.003-12s18.001,12,36.003,12c18.002,0,18.002-12,36.005-12
				c18.002,0,18.002,12,36.003,12c18.004,0,18.004-12,36.009-12s18.004,12,36.009,12"/>
		</g>
		<g>
			<path fill="none" stroke="#FFFFFF" stroke-width="2" stroke-miterlimit="10" d="M-853.562-2079.474c17.999,0,17.999,12,35.998,12
				c18,0,18-12,35.999-12c18,0,18,12,35.999,12c18,0,18-12,36-12s18,12,36,12s18-12,36-12s18,12,35.999,12s17.999-12,35.999-12
				s18,12,35.999,12c18,0,18-12,36-12c17.998,0,17.998,12,35.996,12c18,0,18-12,36-12c17.998,0,17.998,12,35.996,12
				c17.998,0,17.998-12,35.995-12c17.998,0,17.998,12,35.996,12c17.999,0,17.999-12,35.997-12c17.999,0,17.999,12,35.998,12
				c18.001,0,18.001-12,36.002-12c17.999,0,17.999,12,35.998,12c18,0,18-12,36-12c18,0,18,12,35.999,12s18-12,36-12s18,12,36,12
				c18.001,0,18.001-12,36.002-12s18.001,12,36.003,12c17.999,0,17.999-12,35.998-12s17.999,12,35.998,12
				c18.001,0,18.001-12,36.003-12c18.002,0,18.002,12,36.003,12c18.002,0,18.002-12,36.005-12c18.001,0,18.001,12,36.003,12
				c18.004,0,18.004-12,36.009-12s18.004,12,36.009,12"/>
		</g>
		<g>
			<path fill="none" stroke="#FFFFFF" stroke-width="2" stroke-miterlimit="10" d="M-853.623-2055.021c17.999,0,17.999,12,35.998,12
				c18,0,18-12,35.999-12c18,0,18,12,35.999,12c18,0,18-12,36-12s18,12,36,12s18-12,36-12s18,12,35.999,12s17.999-12,35.999-12
				s18,12,35.999,12c18,0,18-12,36-12c17.998,0,17.998,12,35.996,12c18,0,18-12,36-12c17.998,0,17.998,12,35.996,12
				c17.998,0,17.998-12,35.995-12c17.998,0,17.998,12,35.996,12c17.999,0,17.999-12,35.997-12c17.999,0,17.999,12,35.998,12
				c18.001,0,18.001-12,36.002-12c17.999,0,17.999,12,35.998,12c18,0,18-12,36-12c18,0,18,12,35.999,12s18-12,36-12s18,12,36,12
				c18.001,0,18.001-12,36.002-12s18.001,12,36.003,12c17.999,0,17.999-12,35.998-12s17.999,12,35.998,12
				c18.001,0,18.001-12,36.003-12c18.002,0,18.002,12,36.003,12c18.002,0,18.002-12,36.005-12c18.001,0,18.001,12,36.003,12
				c18.004,0,18.004-12,36.009-12s18.004,12,36.009,12"/>
		</g>
		<g>
			<path fill="none" stroke="#FFFFFF" stroke-width="2" stroke-miterlimit="10" d="M-853.684-2030.567c17.999,0,17.999,12,35.998,12
				s17.999-12,35.999-12s18,12,36,12s18-12,36-12s18,12,36,12s18-12,36-12c17.999,0,17.999,12,35.999,12s18-12,35.999-12
				s17.999,12,35.999,12c18,0,18-12,36-12c17.998,0,17.998,12,35.996,12c18,0,18-12,36-12c17.998,0,17.998,12,35.996,12
				c17.998,0,17.998-12,35.995-12s17.998,12,35.996,12s17.998-12,35.997-12c17.999,0,17.999,12,35.998,12
				c18.001,0,18.001-12,36.002-12c17.999,0,17.999,12,35.998,12c18,0,18-12,36-12c18,0,18,12,35.999,12c18,0,18-12,36-12
				c18,0,18,12,36,12c18.001,0,18.001-12,36.002-12c18.001,0,18.001,12,36.003,12c17.999,0,17.999-12,35.997-12
				c17.999,0,17.999,12,35.999,12c18.001,0,18.001-12,36.003-12s18.001,12,36.003,12c18.002,0,18.002-12,36.005-12
				c18.002,0,18.002,12,36.003,12c18.004,0,18.004-12,36.009-12s18.004,12,36.009,12"/>
		</g>
		<g>
			<path fill="none" stroke="#FFFFFF" stroke-width="2" stroke-miterlimit="10" d="M-853.745-2006.113c17.999,0,17.999,12,35.998,12
				c18,0,18-12,35.999-12c18,0,18,12,35.999,12c18,0,18-12,36-12s18,12,36,12s18-12,36-12s18,12,35.999,12s17.999-12,35.999-12
				s18,12,35.999,12c18,0,18-12,36-12c17.998,0,17.998,12,35.996,12c18,0,18-12,36-12c17.998,0,17.998,12,35.996,12
				c17.998,0,17.998-12,35.995-12c17.998,0,17.998,12,35.996,12c17.999,0,17.999-12,35.997-12c17.999,0,17.999,12,35.998,12
				c18.001,0,18.001-12,36.002-12c17.999,0,17.999,12,35.998,12c18,0,18-12,36-12c18,0,18,12,35.999,12s18-12,36-12s18,12,36,12
				c18.001,0,18.001-12,36.002-12s18.001,12,36.003,12c17.999,0,17.999-12,35.998-12s17.999,12,35.998,12
				c18.001,0,18.001-12,36.003-12c18.002,0,18.002,12,36.003,12c18.002,0,18.002-12,36.005-12c18.001,0,18.001,12,36.003,12
				c18.004,0,18.004-12,36.009-12s18.004,12,36.009,12"/>
		</g>
		<g>
			<path fill="none" stroke="#FFFFFF" stroke-width="2" stroke-miterlimit="10" d="M-853.807-1981.66c17.999,0,17.999,12,35.998,12
				c18,0,18-12,35.999-12c18,0,18,12,35.999,12c18,0,18-12,36-12s18,12,36,12s18-12,36-12s18,12,35.999,12s17.999-12,35.999-12
				s18,12,35.999,12c18,0,18-12,36-12c17.998,0,17.998,12,35.996,12c18,0,18-12,36-12c17.998,0,17.998,12,35.996,12
				c17.998,0,17.998-12,35.995-12c17.998,0,17.998,12,35.996,12c17.999,0,17.999-12,35.997-12c17.999,0,17.999,12,35.998,12
				c18.001,0,18.001-12,36.002-12c17.999,0,17.999,12,35.998,12c18,0,18-12,36-12c18,0,18,12,35.999,12s18-12,36-12s18,12,36,12
				c18.001,0,18.001-12,36.002-12s18.001,12,36.003,12c17.999,0,17.999-12,35.998-12s17.999,12,35.998,12
				c18.001,0,18.001-12,36.003-12c18.002,0,18.002,12,36.003,12c18.002,0,18.002-12,36.005-12c18.001,0,18.001,12,36.003,12
				c18.004,0,18.004-12,36.009-12s18.004,12,36.009,12"/>
		</g>
		<g>
			<path fill="none" stroke="#FFFFFF" stroke-width="2" stroke-miterlimit="10" d="M-853.868-1957.207c17.999,0,17.999,12,35.998,12
				s17.999-12,35.999-12s18,12,36,12s18-12,36-12s18,12,36,12s18-12,36-12c17.999,0,17.999,12,35.999,12s18-12,35.999-12
				s17.999,12,35.999,12c18,0,18-12,36-12c17.998,0,17.998,12,35.996,12c18,0,18-12,36-12c17.998,0,17.998,12,35.996,12
				c17.998,0,17.998-12,35.995-12s17.998,12,35.996,12s17.998-12,35.997-12c17.999,0,17.999,12,35.998,12
				c18.001,0,18.001-12,36.002-12c17.999,0,17.999,12,35.998,12c18,0,18-12,36-12c18,0,18,12,35.999,12c18,0,18-12,36-12
				c18,0,18,12,36,12c18.001,0,18.001-12,36.002-12c18.001,0,18.001,12,36.003,12c17.999,0,17.999-12,35.997-12
				c17.999,0,17.999,12,35.999,12c18.001,0,18.001-12,36.003-12s18.001,12,36.003,12c18.002,0,18.002-12,36.005-12
				c18.002,0,18.002,12,36.003,12c18.004,0,18.004-12,36.009-12s18.004,12,36.009,12"/>
		</g>
		<g>
			<path fill="none" stroke="#FFFFFF" stroke-width="2" stroke-miterlimit="10" d="M-853.929-1932.753c17.999,0,17.999,12,35.998,12
				s17.999-12,35.999-12s18,12,36,12s18-12,36-12s18,12,36,12s18-12,36-12c17.999,0,17.999,12,35.999,12s18-12,35.999-12
				s17.999,12,35.999,12c18,0,18-12,36-12c17.998,0,17.998,12,35.996,12c18,0,18-12,36-12c17.998,0,17.998,12,35.996,12
				c17.998,0,17.998-12,35.995-12s17.998,12,35.996,12s17.998-12,35.997-12c17.999,0,17.999,12,35.998,12
				c18.001,0,18.001-12,36.002-12c17.999,0,17.999,12,35.998,12c18,0,18-12,36-12c18,0,18,12,35.999,12c18,0,18-12,36-12
				c18,0,18,12,36,12c18.001,0,18.001-12,36.002-12c18.001,0,18.001,12,36.003,12c17.999,0,17.999-12,35.997-12
				c17.999,0,17.999,12,35.999,12c18.001,0,18.001-12,36.003-12s18.001,12,36.003,12c18.002,0,18.002-12,36.005-12
				c18.002,0,18.002,12,36.003,12c18.004,0,18.004-12,36.009-12s18.004,12,36.009,12"/>
		</g>
		<g>
			<path fill="none" stroke="#FFFFFF" stroke-width="2" stroke-miterlimit="10" d="M-853.99-1908.299c17.999,0,17.999,12,35.998,12
				c18,0,18-12,35.999-12c18,0,18,12,35.999,12c18,0,18-12,36-12s18,12,36,12s18-12,36-12s18,12,35.999,12s17.999-12,35.999-12
				s18,12,35.999,12c18,0,18-12,36-12c17.998,0,17.998,12,35.996,12c18,0,18-12,36-12c17.998,0,17.998,12,35.996,12
				c17.998,0,17.998-12,35.995-12c17.998,0,17.998,12,35.996,12c17.999,0,17.999-12,35.997-12c17.999,0,17.999,12,35.998,12
				c18.001,0,18.001-12,36.002-12c17.999,0,17.999,12,35.998,12c18,0,18-12,36-12c18,0,18,12,35.999,12s18-12,36-12s18,12,36,12
				c18.001,0,18.001-12,36.002-12s18.001,12,36.003,12c17.999,0,17.999-12,35.998-12s17.999,12,35.998,12
				c18.001,0,18.001-12,36.003-12c18.002,0,18.002,12,36.003,12c18.002,0,18.002-12,36.005-12c18.001,0,18.001,12,36.003,12
				c18.004,0,18.004-12,36.009-12s18.004,12,36.009,12"/>
		</g>
		<g>
			<path fill="none" stroke="#FFFFFF" stroke-width="2" stroke-miterlimit="10" d="M-854.051-1883.846c17.999,0,17.999,12,35.998,12
				s17.999-12,35.999-12s18,12,36,12s18-12,36-12s18,12,36,12s18-12,36-12c17.999,0,17.999,12,35.999,12s18-12,35.999-12
				s17.999,12,35.999,12c18,0,18-12,36-12c17.998,0,17.998,12,35.996,12c18,0,18-12,36-12c17.998,0,17.998,12,35.996,12
				c17.998,0,17.998-12,35.995-12s17.998,12,35.996,12s17.998-12,35.997-12c17.999,0,17.999,12,35.998,12
				c18.001,0,18.001-12,36.002-12c17.999,0,17.999,12,35.998,12c18,0,18-12,36-12c18,0,18,12,35.999,12c18,0,18-12,36-12
				c18,0,18,12,36,12c18.001,0,18.001-12,36.002-12c18.001,0,18.001,12,36.003,12c17.999,0,17.999-12,35.997-12
				c17.999,0,17.999,12,35.999,12c18.001,0,18.001-12,36.003-12s18.001,12,36.003,12c18.002,0,18.002-12,36.005-12
				c18.002,0,18.002,12,36.003,12c18.004,0,18.004-12,36.009-12s18.004,12,36.009,12"/>
		</g>
		<g>
			<path fill="none" stroke="#FFFFFF" stroke-width="2" stroke-miterlimit="10" d="M-854.113-1859.393c17.999,0,17.999,12,35.998,12
				s17.999-12,35.999-12s18,12,36,12s18-12,36-12s18,12,36,12s18-12,36-12c17.999,0,17.999,12,35.999,12s18-12,35.999-12
				s17.999,12,35.999,12c18,0,18-12,36-12c17.998,0,17.998,12,35.996,12c18,0,18-12,36-12c17.998,0,17.998,12,35.996,12
				c17.998,0,17.998-12,35.995-12s17.998,12,35.996,12s17.998-12,35.997-12c17.999,0,17.999,12,35.998,12
				c18.001,0,18.001-12,36.002-12c17.999,0,17.999,12,35.998,12c18,0,18-12,36-12c18,0,18,12,35.999,12c18,0,18-12,36-12
				c18,0,18,12,36,12c18.001,0,18.001-12,36.002-12c18.001,0,18.001,12,36.003,12c17.999,0,17.999-12,35.997-12
				c17.999,0,17.999,12,35.999,12c18.001,0,18.001-12,36.003-12s18.001,12,36.003,12c18.002,0,18.002-12,36.005-12
				c18.002,0,18.002,12,36.003,12c18.004,0,18.004-12,36.009-12s18.004,12,36.009,12"/>
		</g>
		<g>
			<path fill="none" stroke="#FFFFFF" stroke-width="2" stroke-miterlimit="10" d="M-854.174-1834.938c17.999,0,17.999,12,35.998,12
				c18,0,18-12,35.999-12c18,0,18,12,35.999,12c18,0,18-12,36-12s18,12,36,12s18-12,36-12s18,12,35.999,12s17.999-12,35.999-12
				s18,12,35.999,12c18,0,18-12,36-12c17.998,0,17.998,12,35.996,12c18,0,18-12,36-12c17.998,0,17.998,12,35.996,12
				c17.998,0,17.998-12,35.995-12c17.998,0,17.998,12,35.996,12c17.999,0,17.999-12,35.997-12c17.999,0,17.999,12,35.998,12
				c18.001,0,18.001-12,36.002-12c17.999,0,17.999,12,35.998,12c18,0,18-12,36-12c18,0,18,12,35.999,12c18,0,18-12,36-12
				s18,12,36,12c18.001,0,18.001-12,36.002-12s18.001,12,36.003,12c17.999,0,17.999-12,35.998-12s17.999,12,35.998,12
				c18.001,0,18.001-12,36.003-12c18.002,0,18.002,12,36.003,12c18.002,0,18.002-12,36.005-12c18.001,0,18.001,12,36.003,12
				c18.004,0,18.004-12,36.009-12s18.004,12,36.009,12"/>
		</g>
		<g>
			<path fill="none" stroke="#FFFFFF" stroke-width="2" stroke-miterlimit="10" d="M-854.235-1810.485c17.999,0,17.999,12,35.998,12
				c18,0,18-12,35.999-12c18,0,18,12,35.999,12c18,0,18-12,36-12s18,12,36,12s18-12,36-12s18,12,35.999,12s17.999-12,35.999-12
				s18,12,35.999,12c18,0,18-12,36-12c17.998,0,17.998,12,35.996,12c18,0,18-12,36-12c17.998,0,17.998,12,35.996,12
				c17.998,0,17.998-12,35.995-12c17.998,0,17.998,12,35.996,12c17.999,0,17.999-12,35.997-12c17.999,0,17.999,12,35.998,12
				c18.001,0,18.001-12,36.002-12c17.999,0,17.999,12,35.998,12c18,0,18-12,36-12c18,0,18,12,35.999,12c18,0,18-12,36-12
				s18,12,36,12c18.001,0,18.001-12,36.002-12s18.001,12,36.003,12c17.999,0,17.999-12,35.998-12s17.999,12,35.998,12
				c18.001,0,18.001-12,36.003-12c18.002,0,18.002,12,36.003,12c18.002,0,18.002-12,36.005-12c18.001,0,18.001,12,36.003,12
				c18.004,0,18.004-12,36.009-12s18.004,12,36.009,12"/>
		</g>
		<g>
			<path fill="none" stroke="#FFFFFF" stroke-width="2" stroke-miterlimit="10" d="M-854.296-1786.032c17.999,0,17.999,12,35.998,12
				s17.999-12,35.999-12s18,12,36,12s18-12,36-12s18,12,36,12s18-12,36-12c17.999,0,17.999,12,35.999,12s18-12,35.999-12
				s17.999,12,35.999,12c18,0,18-12,36-12c17.998,0,17.998,12,35.996,12c18,0,18-12,35.999-12c17.998,0,17.998,12,35.996,12
				s17.998-12,35.996-12s17.998,12,35.996,12s17.998-12,35.997-12c17.999,0,17.999,12,35.998,12c18,0,18-12,36.001-12
				c17.999,0,17.999,12,35.999,12c18,0,18-12,36-12c18,0,18,12,35.999,12c18,0,18-12,36-12c18,0,18,12,36,12
				c18.001,0,18.001-12,36.002-12c18.001,0,18.001,12,36.003,12c17.999,0,17.999-12,35.997-12c17.999,0,17.999,12,35.999,12
				c18.001,0,18.001-12,36.003-12s18.001,12,36.003,12c18.002,0,18.002-12,36.005-12c18.002,0,18.002,12,36.003,12
				c18.004,0,18.004-12,36.009-12s18.004,12,36.009,12"/>
		</g>
		<g>
			<path fill="none" stroke="#FFFFFF" stroke-width="2" stroke-miterlimit="10" d="M-854.357-1761.578c17.999,0,17.999,12,35.998,12
				c18,0,18-12,35.999-12c18,0,18,12,35.999,12c18,0,18-12,36-12s18,12,36,12s18-12,36-12s18,12,35.999,12s17.999-12,35.999-12
				s18,12,35.999,12c18,0,18-12,36-12c17.998,0,17.998,12,35.996,12c18,0,18-12,36-12c17.998,0,17.998,12,35.996,12
				c17.998,0,17.998-12,35.995-12c17.998,0,17.998,12,35.996,12c17.999,0,17.999-12,35.997-12c17.999,0,17.999,12,35.998,12
				c18.001,0,18.001-12,36.002-12c17.999,0,17.999,12,35.998,12c18,0,18-12,36-12c18,0,18,12,35.999,12c18,0,18-12,36-12
				s18,12,36,12c18.001,0,18.001-12,36.002-12s18.001,12,36.003,12c17.999,0,17.999-12,35.998-12s17.999,12,35.998,12
				c18.001,0,18.001-12,36.003-12c18.002,0,18.002,12,36.003,12c18.002,0,18.002-12,36.005-12c18.001,0,18.001,12,36.003,12
				c18.004,0,18.004-12,36.009-12s18.004,12,36.009,12"/>
		</g>
		<g>
			<path fill="none" stroke="#FFFFFF" stroke-width="2" stroke-miterlimit="10" d="M-854.419-1737.125c17.999,0,17.999,12,35.998,12
				c18,0,18-12,35.999-12c18,0,18,12,35.999,12c18,0,18-12,36-12s18,12,36,12s18-12,36-12s18,12,35.999,12s17.999-12,35.999-12
				s18,12,35.999,12c18,0,18-12,36-12c17.998,0,17.998,12,35.996,12c18,0,18-12,36-12c17.998,0,17.998,12,35.996,12
				c17.998,0,17.998-12,35.995-12c17.998,0,17.998,12,35.996,12c17.999,0,17.999-12,35.997-12c17.999,0,17.999,12,35.998,12
				c18.001,0,18.001-12,36.002-12c17.999,0,17.999,12,35.998,12c18,0,18-12,36-12c18,0,18,12,35.999,12c18,0,18-12,36-12
				s18,12,36,12c18.001,0,18.001-12,36.002-12s18.001,12,36.003,12c17.999,0,17.999-12,35.998-12s17.999,12,35.998,12
				c18.001,0,18.001-12,36.003-12c18.002,0,18.002,12,36.003,12c18.002,0,18.002-12,36.005-12c18.001,0,18.001,12,36.003,12
				c18.004,0,18.004-12,36.009-12s18.004,12,36.009,12"/>
		</g>
		<g>
			<path fill="none" stroke="#FFFFFF" stroke-width="2" stroke-miterlimit="10" d="M-854.48-1712.672c17.999,0,17.999,12,35.998,12
				s17.999-12,35.999-12s18,12,36,12s18-12,36-12s18,12,36,12s18-12,36-12c17.999,0,17.999,12,35.999,12s18-12,35.999-12
				s17.999,12,35.999,12c18,0,18-12,36-12c17.998,0,17.998,12,35.996,12c18,0,18-12,35.999-12c17.998,0,17.998,12,35.996,12
				s17.998-12,35.996-12s17.998,12,35.996,12s17.998-12,35.997-12c17.999,0,17.999,12,35.998,12c18,0,18-12,36.001-12
				c17.999,0,17.999,12,35.999,12c18,0,18-12,36-12c18,0,18,12,35.999,12c18,0,18-12,36-12c18,0,18,12,36,12
				c18.001,0,18.001-12,36.002-12c18.001,0,18.001,12,36.003,12c17.999,0,17.999-12,35.997-12c17.999,0,17.999,12,35.999,12
				c18.001,0,18.001-12,36.003-12s18.001,12,36.003,12c18.002,0,18.002-12,36.005-12c18.002,0,18.002,12,36.003,12
				c18.004,0,18.004-12,36.009-12s18.004,12,36.009,12"/>
		</g>
		<g>
			<path fill="none" stroke="#FFFFFF" stroke-width="2" stroke-miterlimit="10" d="M-854.542-1688.218c17.999,0,17.999,12,35.998,12
				s17.999-12,35.999-12s18,12,36,12s18-12,36-12s18,12,36,12s18-12,36-12c17.999,0,17.999,12,35.999,12s18-12,35.999-12
				s17.999,12,35.999,12c18,0,18-12,36-12c17.998,0,17.998,12,35.996,12c18,0,18-12,35.999-12c17.998,0,17.998,12,35.996,12
				s17.998-12,35.996-12s17.998,12,35.996,12s17.998-12,35.997-12c17.999,0,17.999,12,35.998,12c18,0,18-12,36.001-12
				c17.999,0,17.999,12,35.999,12c18,0,18-12,36-12c18,0,18,12,35.999,12c18,0,18-12,36-12c18,0,18,12,36,12
				c18.001,0,18.001-12,36.002-12c18.001,0,18.001,12,36.003,12c17.999,0,17.999-12,35.997-12c17.999,0,17.999,12,35.999,12
				c18.001,0,18.001-12,36.003-12s18.001,12,36.003,12c18.002,0,18.002-12,36.005-12c18.002,0,18.002,12,36.003,12
				c18.004,0,18.004-12,36.009-12s18.004,12,36.009,12"/>
		</g>
		<g>
			<path fill="none" stroke="#FFFFFF" stroke-width="2" stroke-miterlimit="10" d="M-854.603-1663.765c17.999,0,17.999,12,35.998,12
				c18,0,18-12,35.999-12c18,0,18,12,35.999,12c18,0,18-12,36-12s18,12,36,12s18-12,36-12s18,12,35.999,12s17.999-12,35.999-12
				s18,12,35.999,12c18,0,18-12,36-12c17.998,0,17.998,12,35.996,12c18,0,18-12,36-12c17.998,0,17.998,12,35.996,12
				c17.998,0,17.998-12,35.995-12c17.998,0,17.998,12,35.996,12c17.999,0,17.999-12,35.997-12c17.999,0,17.999,12,35.998,12
				c18.001,0,18.001-12,36.002-12c17.999,0,17.999,12,35.998,12c18,0,18-12,36-12c18,0,18,12,35.999,12c18,0,18-12,36-12
				s18,12,36,12c18.001,0,18.001-12,36.002-12s18.001,12,36.003,12c17.999,0,17.999-12,35.998-12s17.999,12,35.998,12
				c18.001,0,18.001-12,36.003-12c18.002,0,18.002,12,36.003,12c18.002,0,18.002-12,36.005-12c18.001,0,18.001,12,36.003,12
				c18.004,0,18.004-12,36.009-12s18.004,12,36.009,12"/>
		</g>
		<g>
			<path fill="none" stroke="#FFFFFF" stroke-width="2" stroke-miterlimit="10" d="M-854.664-1639.311c17.999,0,17.999,12,35.998,12
				s17.999-12,35.999-12s18,12,36,12s18-12,36-12s18,12,36,12s18-12,36-12c17.999,0,17.999,12,35.999,12s18-12,35.999-12
				s17.999,12,35.999,12c18,0,18-12,36-12c17.998,0,17.998,12,35.996,12c18,0,18-12,35.999-12c17.998,0,17.998,12,35.996,12
				s17.998-12,35.996-12s17.998,12,35.996,12s17.998-12,35.997-12c17.999,0,17.999,12,35.998,12c18,0,18-12,36.001-12
				c17.999,0,17.999,12,35.999,12c18,0,18-12,36-12c18,0,18,12,35.999,12c18,0,18-12,36-12c18,0,18,12,36,12
				c18.001,0,18.001-12,36.002-12c18.001,0,18.001,12,36.003,12c17.999,0,17.999-12,35.997-12c17.999,0,17.999,12,35.999,12
				c18.001,0,18.001-12,36.003-12s18.001,12,36.003,12c18.002,0,18.002-12,36.005-12c18.002,0,18.002,12,36.003,12
				c18.004,0,18.004-12,36.009-12s18.004,12,36.009,12"/>
		</g>
		<g>
			<path fill="none" stroke="#FFFFFF" stroke-width="2" stroke-miterlimit="10" d="M-854.725-1614.857c17.999,0,17.999,12,35.998,12
				s17.999-12,35.999-12s18,12,36,12s18-12,36-12s18,12,36,12s18-12,36-12c17.999,0,17.999,12,35.999,12s18-12,35.999-12
				s17.999,12,35.999,12c18,0,18-12,36-12c17.998,0,17.998,12,35.996,12c18,0,18-12,35.999-12c17.998,0,17.998,12,35.996,12
				s17.998-12,35.996-12s17.998,12,35.996,12s17.998-12,35.997-12c17.999,0,17.999,12,35.998,12c18,0,18-12,36.001-12
				c17.999,0,17.999,12,35.999,12c18,0,18-12,36-12c18,0,18,12,35.999,12c18,0,18-12,36-12c18,0,18,12,36,12
				c18.001,0,18.001-12,36.002-12c18.001,0,18.001,12,36.003,12c17.999,0,17.999-12,35.997-12c17.999,0,17.999,12,35.999,12
				c18.001,0,18.001-12,36.003-12s18.001,12,36.003,12c18.002,0,18.002-12,36.005-12c18.002,0,18.002,12,36.003,12
				c18.004,0,18.004-12,36.009-12s18.004,12,36.009,12"/>
		</g>
		<g>
			<path fill="none" stroke="#FFFFFF" stroke-width="2" stroke-miterlimit="10" d="M-854.786-1590.404c17.999,0,17.999,12,35.998,12
				c18,0,18-12,35.999-12c18,0,18,12,35.999,12c18,0,18-12,36-12s18,12,36,12s18-12,36-12s18,12,35.999,12s17.999-12,35.999-12
				s18,12,35.999,12c18,0,18-12,36-12c17.998,0,17.998,12,35.996,12c18,0,18-12,36-12c17.998,0,17.998,12,35.996,12
				c17.998,0,17.998-12,35.995-12c17.998,0,17.998,12,35.996,12c17.999,0,17.999-12,35.997-12c17.999,0,17.999,12,35.998,12
				c18.001,0,18.001-12,36.002-12c17.999,0,17.999,12,35.998,12c18,0,18-12,36-12c18,0,18,12,35.999,12c18,0,18-12,36-12
				s18,12,36,12c18.001,0,18.001-12,36.002-12s18.001,12,36.003,12c17.999,0,17.999-12,35.998-12s17.999,12,35.998,12
				c18.001,0,18.001-12,36.003-12c18.002,0,18.002,12,36.003,12c18.002,0,18.002-12,36.005-12c18.001,0,18.001,12,36.003,12
				c18.004,0,18.004-12,36.009-12s18.004,12,36.009,12"/>
		</g>
		<g>
			<path fill="none" stroke="#FFFFFF" stroke-width="2" stroke-miterlimit="10" d="M-854.847-1565.95c17.999,0,17.999,12,35.998,12
				s17.999-12,35.999-12s18,12,36,12s18-12,36-12s18,12,36,12s18-12,36-12c17.999,0,17.999,12,35.999,12s18-12,35.999-12
				s17.999,12,35.999,12c18,0,18-12,36-12c17.998,0,17.998,12,35.996,12c18,0,18-12,35.999-12c17.998,0,17.998,12,35.996,12
				s17.998-12,35.996-12s17.998,12,35.996,12s17.998-12,35.997-12c17.999,0,17.999,12,35.998,12c18,0,18-12,36.001-12
				c17.999,0,17.999,12,35.999,12c18,0,18-12,36-12c18,0,18,12,35.999,12c18,0,18-12,36-12c18,0,18,12,36,12
				c18.001,0,18.001-12,36.002-12c18.001,0,18.001,12,36.003,12c17.999,0,17.999-12,35.997-12c17.999,0,17.999,12,35.999,12
				c18.001,0,18.001-12,36.003-12s18.001,12,36.003,12c18.002,0,18.002-12,36.005-12c18.002,0,18.002,12,36.003,12
				c18.004,0,18.004-12,36.009-12s18.004,12,36.009,12"/>
		</g>
		<g>
			<path fill="none" stroke="#FFFFFF" stroke-width="2" stroke-miterlimit="10" d="M-854.909-1541.497c17.999,0,17.999,12,35.998,12
				s17.999-12,35.999-12s18,12,36,12s18-12,36-12s18,12,36,12s18-12,36-12c17.999,0,17.999,12,35.999,12s18-12,35.999-12
				s17.999,12,35.999,12c18,0,18-12,36-12c17.998,0,17.998,12,35.996,12c18,0,18-12,35.999-12c17.998,0,17.998,12,35.996,12
				s17.998-12,35.996-12s17.998,12,35.996,12s17.998-12,35.997-12c17.999,0,17.999,12,35.998,12c18,0,18-12,36.001-12
				c17.999,0,17.999,12,35.999,12c18,0,18-12,36-12c18,0,18,12,35.999,12c18,0,18-12,36-12c18,0,18,12,36,12
				c18.001,0,18.001-12,36.002-12c18.001,0,18.001,12,36.003,12c17.999,0,17.999-12,35.997-12c17.999,0,17.999,12,35.999,12
				c18.001,0,18.001-12,36.003-12s18.001,12,36.003,12c18.002,0,18.002-12,36.005-12c18.002,0,18.002,12,36.003,12
				c18.004,0,18.004-12,36.009-12s18.004,12,36.009,12"/>
		</g>
		<g>
			<path fill="none" stroke="#FFFFFF" stroke-width="2" stroke-miterlimit="10" d="M-854.97-1517.044c17.999,0,17.999,12,35.998,12
				c18,0,18-12,35.999-12c18,0,18,12,35.999,12c18,0,18-12,36-12s18,12,36,12s18-12,36-12s18,12,35.999,12s17.999-12,35.999-12
				s18,12,35.999,12c18,0,18-12,36-12c17.998,0,17.998,12,35.996,12c18,0,18-12,36-12c17.998,0,17.998,12,35.996,12
				c17.998,0,17.998-12,35.995-12c17.998,0,17.998,12,35.996,12c17.999,0,17.999-12,35.997-12c17.999,0,17.999,12,35.998,12
				c18.001,0,18.001-12,36.002-12c17.999,0,17.999,12,35.998,12c18,0,18-12,36-12c18,0,18,12,35.999,12c18,0,18-12,36-12
				s18,12,36,12c18.001,0,18.001-12,36.002-12s18.001,12,36.003,12c17.999,0,17.999-12,35.998-12s17.999,12,35.998,12
				c18.001,0,18.001-12,36.003-12c18.002,0,18.002,12,36.003,12c18.002,0,18.002-12,36.005-12c18.001,0,18.001,12,36.003,12
				c18.004,0,18.004-12,36.009-12s18.004,12,36.009,12"/>
		</g>
		<g>
			<path fill="none" stroke="#FFFFFF" stroke-width="2" stroke-miterlimit="10" d="M-855.031-1492.59c17.999,0,17.999,12,35.998,12
				c18,0,18-12,35.999-12c18,0,18,12,35.999,12c18,0,18-12,36-12s18,12,36,12s18-12,36-12s18,12,35.999,12s17.999-12,35.999-12
				s18,12,35.999,12c18,0,18-12,36-12c17.998,0,17.998,12,35.996,12c18,0,18-12,36-12c17.998,0,17.998,12,35.996,12
				c17.998,0,17.998-12,35.995-12c17.998,0,17.998,12,35.996,12c17.999,0,17.999-12,35.997-12c17.999,0,17.999,12,35.998,12
				c18.001,0,18.001-12,36.002-12c17.999,0,17.999,12,35.998,12c18,0,18-12,36-12c18,0,18,12,35.999,12c18,0,18-12,36-12
				s18,12,36,12c18.001,0,18.001-12,36.002-12s18.001,12,36.003,12c17.999,0,17.999-12,35.998-12s17.999,12,35.998,12
				c18.001,0,18.001-12,36.003-12c18.002,0,18.002,12,36.003,12c18.002,0,18.002-12,36.005-12c18.001,0,18.001,12,36.003,12
				c18.004,0,18.004-12,36.009-12s18.004,12,36.009,12"/>
		</g>
		<g>
			<path fill="none" stroke="#FFFFFF" stroke-width="2" stroke-miterlimit="10" d="M-855.092-1468.137c17.999,0,17.999,12,35.998,12
				s17.999-12,35.999-12s18,12,36,12s18-12,36-12s18,12,36,12s18-12,36-12c17.999,0,17.999,12,35.999,12s18-12,35.999-12
				s17.999,12,35.999,12c18,0,18-12,36-12c17.998,0,17.998,12,35.996,12c18,0,18-12,35.999-12c17.998,0,17.998,12,35.996,12
				s17.998-12,35.996-12s17.998,12,35.996,12s17.998-12,35.997-12c17.999,0,17.999,12,35.998,12c18,0,18-12,36.001-12
				c17.999,0,17.999,12,35.999,12c18,0,18-12,36-12c18,0,18,12,35.999,12c18,0,18-12,36-12c18,0,18,12,36,12
				c18.001,0,18.001-12,36.002-12c18.001,0,18.001,12,36.003,12c17.999,0,17.999-12,35.997-12c17.999,0,17.999,12,35.999,12
				c18.001,0,18.001-12,36.003-12s18.001,12,36.003,12c18.002,0,18.002-12,36.005-12c18.002,0,18.002,12,36.003,12
				c18.004,0,18.004-12,36.009-12s18.004,12,36.009,12"/>
		</g>
		<g>
			<path fill="none" stroke="#FFFFFF" stroke-width="2" stroke-miterlimit="10" d="M-855.153-1443.683c17.999,0,17.999,12,35.998,12
				c18,0,18-12,35.999-12c18,0,18,12,35.999,12c18,0,18-12,36-12s18,12,36,12s18-12,36-12s18,12,35.999,12s17.999-12,35.999-12
				s18,12,35.999,12c18,0,18-12,36-12c17.998,0,17.998,12,35.996,12c18,0,18-12,36-12c17.998,0,17.998,12,35.996,12
				c17.998,0,17.998-12,35.995-12c17.998,0,17.998,12,35.996,12c17.999,0,17.999-12,35.997-12c17.999,0,17.999,12,35.998,12
				c18.001,0,18.001-12,36.002-12c17.999,0,17.999,12,35.998,12c18,0,18-12,36-12c18,0,18,12,35.999,12c18,0,18-12,36-12
				s18,12,36,12c18.001,0,18.001-12,36.002-12s18.001,12,36.003,12c17.999,0,17.999-12,35.998-12s17.999,12,35.998,12
				c18.001,0,18.001-12,36.003-12c18.002,0,18.002,12,36.003,12c18.002,0,18.002-12,36.005-12c18.001,0,18.001,12,36.003,12
				c18.004,0,18.004-12,36.009-12s18.004,12,36.009,12"/>
		</g>
		<g>
			<path fill="none" stroke="#FFFFFF" stroke-width="2" stroke-miterlimit="10" d="M-855.215-1419.229c17.999,0,17.999,12,35.998,12
				c18,0,18-12,35.999-12c18,0,18,12,35.999,12c18,0,18-12,36-12s18,12,36,12s18-12,36-12s18,12,35.999,12s17.999-12,35.999-12
				s18,12,35.999,12c18,0,18-12,36-12c17.998,0,17.998,12,35.996,12c18,0,18-12,36-12c17.998,0,17.998,12,35.996,12
				c17.998,0,17.998-12,35.995-12c17.998,0,17.998,12,35.996,12c17.999,0,17.999-12,35.997-12c17.999,0,17.999,12,35.998,12
				c18.001,0,18.001-12,36.002-12c17.999,0,17.999,12,35.998,12c18,0,18-12,36-12c18,0,18,12,35.999,12c18,0,18-12,36-12
				s18,12,36,12c18.001,0,18.001-12,36.002-12s18.001,12,36.003,12c17.999,0,17.999-12,35.998-12s17.999,12,35.998,12
				c18.001,0,18.001-12,36.003-12c18.002,0,18.002,12,36.003,12c18.002,0,18.002-12,36.005-12c18.001,0,18.001,12,36.003,12
				c18.004,0,18.004-12,36.009-12s18.004,12,36.009,12"/>
		</g>
		<g>
			<path fill="none" stroke="#FFFFFF" stroke-width="2" stroke-miterlimit="10" d="M-855.276-1394.776c17.999,0,17.999,12,35.998,12
				s17.999-12,35.999-12s18,12,36,12s18-12,36-12s18,12,36,12s18-12,36-12c17.999,0,17.999,12,35.999,12s18-12,35.999-12
				s17.999,12,35.999,12c18,0,18-12,36-12c17.998,0,17.998,12,35.996,12c18,0,18-12,35.999-12c17.998,0,17.998,12,35.996,12
				s17.998-12,35.996-12s17.998,12,35.996,12s17.998-12,35.997-12c17.999,0,17.999,12,35.998,12c18,0,18-12,36.001-12
				c17.999,0,17.999,12,35.999,12c18,0,18-12,36-12c18,0,18,12,35.999,12c18,0,18-12,36-12c18,0,18,12,36,12
				c18.001,0,18.001-12,36.002-12c18.001,0,18.001,12,36.003,12c17.999,0,17.999-12,35.997-12c17.999,0,17.999,12,35.999,12
				c18.001,0,18.001-12,36.003-12s18.001,12,36.003,12c18.002,0,18.002-12,36.005-12c18.002,0,18.002,12,36.003,12
				c18.004,0,18.004-12,36.009-12s18.004,12,36.009,12"/>
		</g>
		<g>
			<path fill="none" stroke="#FFFFFF" stroke-width="2" stroke-miterlimit="10" d="M-855.337-1370.322c17.999,0,17.999,12,35.998,12
				s17.999-12,35.999-12s18,12,36,12s18-12,36-12s18,12,36,12s18-12,36-12c17.999,0,17.999,12,35.999,12s18-12,35.999-12
				s17.999,12,35.999,12c18,0,18-12,36-12c17.998,0,17.998,12,35.996,12c18,0,18-12,35.999-12c17.998,0,17.998,12,35.996,12
				s17.998-12,35.996-12s17.998,12,35.996,12s17.998-12,35.997-12c17.999,0,17.999,12,35.998,12c18,0,18-12,36.001-12
				c17.999,0,17.999,12,35.999,12c18,0,18-12,36-12c18,0,18,12,35.999,12c18,0,18-12,36-12c18,0,18,12,36,12
				c18.001,0,18.001-12,36.002-12c18.001,0,18.001,12,36.003,12c17.999,0,17.999-12,35.997-12c17.999,0,17.999,12,35.999,12
				c18.001,0,18.001-12,36.003-12s18.001,12,36.003,12c18.002,0,18.002-12,36.005-12c18.002,0,18.002,12,36.003,12
				c18.004,0,18.004-12,36.009-12s18.004,12,36.009,12"/>
		</g>
		<g>
			<path fill="none" stroke="#FFFFFF" stroke-width="2" stroke-miterlimit="10" d="M-855.398-1345.869c17.999,0,17.999,12,35.998,12
				c18,0,18-12,35.999-12c18,0,18,12,35.999,12c18,0,18-12,36-12s18,12,36,12s18-12,36-12s18,12,35.999,12s17.999-12,35.999-12
				s18,12,35.999,12c18,0,18-12,36-12c17.998,0,17.998,12,35.996,12c18,0,18-12,36-12c17.998,0,17.998,12,35.996,12
				c17.998,0,17.998-12,35.995-12c17.998,0,17.998,12,35.996,12c17.999,0,17.999-12,35.997-12c17.999,0,17.999,12,35.998,12
				c18.001,0,18.001-12,36.002-12c17.999,0,17.999,12,35.998,12c18,0,18-12,36-12c18,0,18,12,35.999,12c18,0,18-12,36-12
				s18,12,36,12c18.001,0,18.001-12,36.002-12s18.001,12,36.003,12c17.999,0,17.999-12,35.998-12s17.999,12,35.998,12
				c18.001,0,18.001-12,36.003-12c18.002,0,18.002,12,36.003,12c18.002,0,18.002-12,36.005-12c18.001,0,18.001,12,36.003,12
				c18.004,0,18.004-12,36.009-12s18.004,12,36.009,12"/>
		</g>
	</g>
</g>
<g id="Слой_3">
	<rect x="-840.414" y="-1291.035" fill="#B9C9C6" width="1173.016" height="639.531"/>
	<g opacity="0.41">
		<g>
			<path fill="none" stroke="#FFFFFF" stroke-width="2" stroke-miterlimit="10" d="M-840.414-1307.035c17.999,0,17.999,12,35.998,12
				c18,0,18-12,35.999-12c18,0,18,12,35.999,12c18,0,18-12,36-12s18,12,36,12s18-12,36-12s18,12,35.999,12s17.999-12,35.999-12
				s18,12,35.999,12c18,0,18-12,36-12c17.998,0,17.998,12,35.996,12c18,0,18-12,36-12c17.998,0,17.998,12,35.996,12
				c17.998,0,17.998-12,35.995-12c17.998,0,17.998,12,35.996,12s17.998-12,35.996-12c17.999,0,17.999,12,35.998,12
				c18.001,0,18.001-12,36.002-12c17.999,0,17.999,12,35.998,12c18,0,18-12,36-12c18,0,18,12,35.999,12s18-12,36-12s18,12,36,12
				c18.001,0,18.001-12,36.002-12s18.001,12,36.003,12c17.999,0,17.999-12,35.998-12s17.999,12,35.998,12
				c18.001,0,18.001-12,36.003-12c18.002,0,18.002,12,36.003,12c18.002,0,18.002-12,36.005-12c18.001,0,18.001,12,36.003,12
				c18.004,0,18.004-12,36.009-12s18.004,12,36.009,12"/>
		</g>
		<g>
			<path fill="none" stroke="#FFFFFF" stroke-width="2" stroke-miterlimit="10" d="M-840.475-1282.582c17.999,0,17.999,12,35.998,12
				s17.999-12,35.999-12s18,12,36,12s18-12,36-12s18,12,36,12s18-12,36-12c17.999,0,17.999,12,35.999,12s18-12,35.999-12
				s17.999,12,35.999,12c18,0,18-12,36-12c17.998,0,17.998,12,35.996,12c18,0,18-12,36-12c17.998,0,17.998,12,35.996,12
				c17.998,0,17.998-12,35.995-12s17.998,12,35.996,12s17.998-12,35.997-12c17.999,0,17.999,12,35.998,12
				c18.001,0,18.001-12,36.002-12c17.999,0,17.999,12,35.998,12c18,0,18-12,36-12c18,0,18,12,35.999,12c18,0,18-12,36-12
				c18,0,18,12,36,12c18.001,0,18.001-12,36.002-12c18.001,0,18.001,12,36.003,12c17.999,0,17.999-12,35.997-12
				c17.999,0,17.999,12,35.999,12c18.001,0,18.001-12,36.003-12s18.001,12,36.003,12c18.002,0,18.002-12,36.005-12
				c18.002,0,18.002,12,36.003,12c18.004,0,18.004-12,36.009-12s18.004,12,36.009,12"/>
		</g>
		<g>
			<path fill="none" stroke="#FFFFFF" stroke-width="2" stroke-miterlimit="10" d="M-840.537-1258.129c17.999,0,17.999,12,35.998,12
				s17.999-12,35.999-12s18,12,36,12s18-12,36-12s18,12,36,12s18-12,36-12c17.999,0,17.999,12,35.999,12s18-12,35.999-12
				s17.999,12,35.999,12c18,0,18-12,36-12c17.998,0,17.998,12,35.996,12c18,0,18-12,36-12c17.998,0,17.998,12,35.996,12
				c17.998,0,17.998-12,35.995-12s17.998,12,35.996,12s17.998-12,35.997-12c17.999,0,17.999,12,35.998,12
				c18.001,0,18.001-12,36.002-12c17.999,0,17.999,12,35.998,12c18,0,18-12,36-12c18,0,18,12,35.999,12c18,0,18-12,36-12
				c18,0,18,12,36,12c18.001,0,18.001-12,36.002-12c18.001,0,18.001,12,36.003,12c17.999,0,17.999-12,35.997-12
				c17.999,0,17.999,12,35.999,12c18.001,0,18.001-12,36.003-12s18.001,12,36.003,12c18.002,0,18.002-12,36.005-12
				c18.002,0,18.002,12,36.003,12c18.004,0,18.004-12,36.009-12s18.004,12,36.009,12"/>
		</g>
		<g>
			<path fill="none" stroke="#FFFFFF" stroke-width="2" stroke-miterlimit="10" d="M-840.598-1233.675c17.999,0,17.999,12,35.998,12
				c18,0,18-12,35.999-12c18,0,18,12,35.999,12c18,0,18-12,36-12s18,12,36,12s18-12,36-12s18,12,35.999,12s17.999-12,35.999-12
				s18,12,35.999,12c18,0,18-12,36-12c17.998,0,17.998,12,35.996,12c18,0,18-12,36-12c17.998,0,17.998,12,35.996,12
				c17.998,0,17.998-12,35.995-12c17.998,0,17.998,12,35.996,12s17.998-12,35.996-12c17.999,0,17.999,12,35.998,12
				c18.001,0,18.001-12,36.002-12c17.999,0,17.999,12,35.998,12c18,0,18-12,36-12c18,0,18,12,35.999,12s18-12,36-12s18,12,36,12
				c18.001,0,18.001-12,36.002-12s18.001,12,36.003,12c17.999,0,17.999-12,35.998-12s17.999,12,35.998,12
				c18.001,0,18.001-12,36.003-12c18.002,0,18.002,12,36.003,12c18.002,0,18.002-12,36.005-12c18.001,0,18.001,12,36.003,12
				c18.004,0,18.004-12,36.009-12s18.004,12,36.009,12"/>
		</g>
		<g>
			<path fill="none" stroke="#FFFFFF" stroke-width="2" stroke-miterlimit="10" d="M-840.659-1209.222c17.999,0,17.999,12,35.998,12
				c18,0,18-12,35.999-12c18,0,18,12,35.999,12c18,0,18-12,36-12s18,12,36,12s18-12,36-12s18,12,35.999,12s17.999-12,35.999-12
				s18,12,35.999,12c18,0,18-12,36-12c17.998,0,17.998,12,35.996,12c18,0,18-12,36-12c17.998,0,17.998,12,35.996,12
				c17.998,0,17.998-12,35.995-12c17.998,0,17.998,12,35.996,12s17.998-12,35.996-12c17.999,0,17.999,12,35.998,12
				c18.001,0,18.001-12,36.002-12c17.999,0,17.999,12,35.998,12c18,0,18-12,36-12c18,0,18,12,35.999,12s18-12,36-12s18,12,36,12
				c18.001,0,18.001-12,36.002-12s18.001,12,36.003,12c17.999,0,17.999-12,35.998-12s17.999,12,35.998,12
				c18.001,0,18.001-12,36.003-12c18.002,0,18.002,12,36.003,12c18.002,0,18.002-12,36.005-12c18.001,0,18.001,12,36.003,12
				c18.004,0,18.004-12,36.009-12s18.004,12,36.009,12"/>
		</g>
		<g>
			<path fill="none" stroke="#FFFFFF" stroke-width="2" stroke-miterlimit="10" d="M-840.72-1184.768c17.999,0,17.999,12,35.998,12
				s17.999-12,35.999-12s18,12,36,12s18-12,36-12s18,12,36,12s18-12,36-12c17.999,0,17.999,12,35.999,12s18-12,35.999-12
				s17.999,12,35.999,12c18,0,18-12,36-12c17.998,0,17.998,12,35.996,12c18,0,18-12,36-12c17.998,0,17.998,12,35.996,12
				c17.998,0,17.998-12,35.995-12s17.998,12,35.996,12s17.998-12,35.997-12c17.999,0,17.999,12,35.998,12
				c18.001,0,18.001-12,36.002-12c17.999,0,17.999,12,35.998,12c18,0,18-12,36-12c18,0,18,12,35.999,12c18,0,18-12,36-12
				c18,0,18,12,36,12c18.001,0,18.001-12,36.002-12c18.001,0,18.001,12,36.003,12c17.999,0,17.999-12,35.997-12
				c17.999,0,17.999,12,35.999,12c18.001,0,18.001-12,36.003-12s18.001,12,36.003,12c18.002,0,18.002-12,36.005-12
				c18.002,0,18.002,12,36.003,12c18.004,0,18.004-12,36.009-12s18.004,12,36.009,12"/>
		</g>
		<g>
			<path fill="none" stroke="#FFFFFF" stroke-width="2" stroke-miterlimit="10" d="M-840.781-1160.314c17.999,0,17.999,12,35.998,12
				c18,0,18-12,35.999-12c18,0,18,12,35.999,12c18,0,18-12,36-12s18,12,36,12s18-12,36-12s18,12,35.999,12s17.999-12,35.999-12
				s18,12,35.999,12c18,0,18-12,36-12c17.998,0,17.998,12,35.996,12c18,0,18-12,36-12c17.998,0,17.998,12,35.996,12
				c17.998,0,17.998-12,35.995-12c17.998,0,17.998,12,35.996,12s17.998-12,35.996-12c17.999,0,17.999,12,35.998,12
				c18.001,0,18.001-12,36.002-12c17.999,0,17.999,12,35.998,12c18,0,18-12,36-12c18,0,18,12,35.999,12s18-12,36-12s18,12,36,12
				c18.001,0,18.001-12,36.002-12s18.001,12,36.003,12c17.999,0,17.999-12,35.998-12s17.999,12,35.998,12
				c18.001,0,18.001-12,36.003-12c18.002,0,18.002,12,36.003,12c18.002,0,18.002-12,36.005-12c18.001,0,18.001,12,36.003,12
				c18.004,0,18.004-12,36.009-12s18.004,12,36.009,12"/>
		</g>
		<g>
			<path fill="none" stroke="#FFFFFF" stroke-width="2" stroke-miterlimit="10" d="M-840.843-1135.861c17.999,0,17.999,12,35.998,12
				c18,0,18-12,35.999-12c18,0,18,12,35.999,12c18,0,18-12,36-12s18,12,36,12s18-12,36-12s18,12,35.999,12s17.999-12,35.999-12
				s18,12,35.999,12c18,0,18-12,36-12c17.998,0,17.998,12,35.996,12c18,0,18-12,36-12c17.998,0,17.998,12,35.996,12
				c17.998,0,17.998-12,35.995-12c17.998,0,17.998,12,35.996,12s17.998-12,35.996-12c17.999,0,17.999,12,35.998,12
				c18.001,0,18.001-12,36.002-12c17.999,0,17.999,12,35.998,12c18,0,18-12,36-12c18,0,18,12,35.999,12s18-12,36-12s18,12,36,12
				c18.001,0,18.001-12,36.002-12s18.001,12,36.003,12c17.999,0,17.999-12,35.998-12s17.999,12,35.998,12
				c18.001,0,18.001-12,36.003-12c18.002,0,18.002,12,36.003,12c18.002,0,18.002-12,36.005-12c18.001,0,18.001,12,36.003,12
				c18.004,0,18.004-12,36.009-12s18.004,12,36.009,12"/>
		</g>
		<g>
			<path fill="none" stroke="#FFFFFF" stroke-width="2" stroke-miterlimit="10" d="M-840.904-1111.407c17.999,0,17.999,12,35.998,12
				s17.999-12,35.999-12s18,12,36,12s18-12,36-12s18,12,36,12s18-12,36-12c17.999,0,17.999,12,35.999,12s18-12,35.999-12
				s17.999,12,35.999,12c18,0,18-12,36-12c17.998,0,17.998,12,35.996,12c18,0,18-12,36-12c17.998,0,17.998,12,35.996,12
				c17.998,0,17.998-12,35.995-12s17.998,12,35.996,12s17.998-12,35.997-12c17.999,0,17.999,12,35.998,12
				c18.001,0,18.001-12,36.002-12c17.999,0,17.999,12,35.998,12c18,0,18-12,36-12c18,0,18,12,35.999,12c18,0,18-12,36-12
				c18,0,18,12,36,12c18.001,0,18.001-12,36.002-12c18.001,0,18.001,12,36.003,12c17.999,0,17.999-12,35.997-12
				c17.999,0,17.999,12,35.999,12c18.001,0,18.001-12,36.003-12s18.001,12,36.003,12c18.002,0,18.002-12,36.005-12
				c18.002,0,18.002,12,36.003,12c18.004,0,18.004-12,36.009-12s18.004,12,36.009,12"/>
		</g>
		<g>
			<path fill="none" stroke="#FFFFFF" stroke-width="2" stroke-miterlimit="10" d="M-840.965-1086.954c17.999,0,17.999,12,35.998,12
				c18,0,18-12,35.999-12c18,0,18,12,35.999,12c18,0,18-12,36-12s18,12,36,12s18-12,36-12s18,12,35.999,12s17.999-12,35.999-12
				s18,12,35.999,12c18,0,18-12,36-12c17.998,0,17.998,12,35.996,12c18,0,18-12,36-12c17.998,0,17.998,12,35.996,12
				c17.998,0,17.998-12,35.995-12c17.998,0,17.998,12,35.996,12s17.998-12,35.996-12c17.999,0,17.999,12,35.998,12
				c18.001,0,18.001-12,36.002-12c17.999,0,17.999,12,35.998,12c18,0,18-12,36-12c18,0,18,12,35.999,12s18-12,36-12s18,12,36,12
				c18.001,0,18.001-12,36.002-12s18.001,12,36.003,12c17.999,0,17.999-12,35.998-12s17.999,12,35.998,12
				c18.001,0,18.001-12,36.003-12c18.002,0,18.002,12,36.003,12c18.002,0,18.002-12,36.005-12c18.001,0,18.001,12,36.003,12
				c18.004,0,18.004-12,36.009-12s18.004,12,36.009,12"/>
		</g>
		<g>
			<path fill="none" stroke="#FFFFFF" stroke-width="2" stroke-miterlimit="10" d="M-841.026-1062.501c17.999,0,17.999,12,35.998,12
				c18,0,18-12,35.999-12c18,0,18,12,35.999,12c18,0,18-12,36-12s18,12,36,12s18-12,36-12s18,12,35.999,12s17.999-12,35.999-12
				s18,12,35.999,12c18,0,18-12,36-12c17.998,0,17.998,12,35.996,12c18,0,18-12,36-12c17.998,0,17.998,12,35.996,12
				c17.998,0,17.998-12,35.995-12c17.998,0,17.998,12,35.996,12s17.998-12,35.996-12c17.999,0,17.999,12,35.998,12
				c18.001,0,18.001-12,36.002-12c17.999,0,17.999,12,35.998,12c18,0,18-12,36-12c18,0,18,12,35.999,12s18-12,36-12s18,12,36,12
				c18.001,0,18.001-12,36.002-12s18.001,12,36.003,12c17.999,0,17.999-12,35.998-12s17.999,12,35.998,12
				c18.001,0,18.001-12,36.003-12c18.002,0,18.002,12,36.003,12c18.002,0,18.002-12,36.005-12c18.001,0,18.001,12,36.003,12
				c18.004,0,18.004-12,36.009-12s18.004,12,36.009,12"/>
		</g>
		<g>
			<path fill="none" stroke="#FFFFFF" stroke-width="2" stroke-miterlimit="10" d="M-841.087-1038.047c17.999,0,17.999,12,35.998,12
				s17.999-12,35.999-12s18,12,36,12s18-12,36-12s18,12,36,12s18-12,36-12c17.999,0,17.999,12,35.999,12s18-12,35.999-12
				s17.999,12,35.999,12c18,0,18-12,36-12c17.998,0,17.998,12,35.996,12c18,0,18-12,36-12c17.998,0,17.998,12,35.996,12
				c17.998,0,17.998-12,35.995-12s17.998,12,35.996,12s17.998-12,35.997-12c17.999,0,17.999,12,35.998,12
				c18.001,0,18.001-12,36.002-12c17.999,0,17.999,12,35.998,12c18,0,18-12,36-12c18,0,18,12,35.999,12c18,0,18-12,36-12
				c18,0,18,12,36,12c18.001,0,18.001-12,36.002-12c18.001,0,18.001,12,36.003,12c17.999,0,17.999-12,35.997-12
				c17.999,0,17.999,12,35.999,12c18.001,0,18.001-12,36.003-12s18.001,12,36.003,12c18.002,0,18.002-12,36.005-12
				c18.002,0,18.002,12,36.003,12c18.004,0,18.004-12,36.009-12s18.004,12,36.009,12"/>
		</g>
		<g>
			<path fill="none" stroke="#FFFFFF" stroke-width="2" stroke-miterlimit="10" d="M-841.149-1013.594c17.999,0,17.999,12,35.998,12
				s17.999-12,35.999-12s18,12,36,12s18-12,36-12s18,12,36,12s18-12,36-12c17.999,0,17.999,12,35.999,12s18-12,35.999-12
				s17.999,12,35.999,12c18,0,18-12,36-12c17.998,0,17.998,12,35.996,12c18,0,18-12,36-12c17.998,0,17.998,12,35.996,12
				c17.998,0,17.998-12,35.995-12s17.998,12,35.996,12s17.998-12,35.997-12c17.999,0,17.999,12,35.998,12
				c18.001,0,18.001-12,36.002-12c17.999,0,17.999,12,35.998,12c18,0,18-12,36-12c18,0,18,12,35.999,12c18,0,18-12,36-12
				c18,0,18,12,36,12c18.001,0,18.001-12,36.002-12c18.001,0,18.001,12,36.003,12c17.999,0,17.999-12,35.997-12
				c17.999,0,17.999,12,35.999,12c18.001,0,18.001-12,36.003-12s18.001,12,36.003,12c18.002,0,18.002-12,36.005-12
				c18.002,0,18.002,12,36.003,12c18.004,0,18.004-12,36.009-12s18.004,12,36.009,12"/>
		</g>
		<g>
			<path fill="none" stroke="#FFFFFF" stroke-width="2" stroke-miterlimit="10" d="M-841.21-989.141c17.999,0,17.999,12,35.998,12
				c18,0,18-12,35.999-12c18,0,18,12,35.999,12c18,0,18-12,36-12s18,12,36,12s18-12,36-12s18,12,35.999,12s17.999-12,35.999-12
				s18,12,35.999,12c18,0,18-12,36-12c17.998,0,17.998,12,35.996,12c18,0,18-12,36-12c17.998,0,17.998,12,35.996,12
				c17.998,0,17.998-12,35.995-12c17.998,0,17.998,12,35.996,12s17.998-12,35.996-12c17.999,0,17.999,12,35.998,12
				c18.001,0,18.001-12,36.002-12c17.999,0,17.999,12,35.998,12c18,0,18-12,36-12c18,0,18,12,35.999,12s18-12,36-12s18,12,36,12
				c18.001,0,18.001-12,36.002-12s18.001,12,36.003,12c17.999,0,17.999-12,35.998-12s17.999,12,35.998,12
				c18.001,0,18.001-12,36.003-12c18.002,0,18.002,12,36.003,12c18.002,0,18.002-12,36.005-12c18.001,0,18.001,12,36.003,12
				c18.004,0,18.004-12,36.009-12s18.004,12,36.009,12"/>
		</g>
		<g>
			<path fill="none" stroke="#FFFFFF" stroke-width="2" stroke-miterlimit="10" d="M-841.271-964.687c17.999,0,17.999,12,35.998,12
				s17.999-12,35.999-12s18,12,36,12s18-12,36-12s18,12,36,12s18-12,36-12c17.999,0,17.999,12,35.999,12s18-12,35.999-12
				s17.999,12,35.999,12c18,0,18-12,36-12c17.998,0,17.998,12,35.996,12c18,0,18-12,36-12c17.998,0,17.998,12,35.996,12
				c17.998,0,17.998-12,35.995-12s17.998,12,35.996,12s17.998-12,35.997-12c17.999,0,17.999,12,35.998,12
				c18.001,0,18.001-12,36.002-12c17.999,0,17.999,12,35.998,12c18,0,18-12,36-12c18,0,18,12,35.999,12c18,0,18-12,36-12
				c18,0,18,12,36,12c18.001,0,18.001-12,36.002-12c18.001,0,18.001,12,36.003,12c17.999,0,17.999-12,35.997-12
				c17.999,0,17.999,12,35.999,12c18.001,0,18.001-12,36.003-12s18.001,12,36.003,12c18.002,0,18.002-12,36.005-12
				c18.002,0,18.002,12,36.003,12c18.004,0,18.004-12,36.009-12s18.004,12,36.009,12"/>
		</g>
		<g>
			<path fill="none" stroke="#FFFFFF" stroke-width="2" stroke-miterlimit="10" d="M-841.333-940.233c17.999,0,17.999,12,35.998,12
				s17.999-12,35.999-12s18,12,36,12s18-12,36-12s18,12,36,12s18-12,36-12c17.999,0,17.999,12,35.999,12s18-12,35.999-12
				s17.999,12,35.999,12c18,0,18-12,36-12c17.998,0,17.998,12,35.996,12c18,0,18-12,36-12c17.998,0,17.998,12,35.996,12
				c17.998,0,17.998-12,35.995-12s17.998,12,35.996,12s17.998-12,35.997-12c17.999,0,17.999,12,35.998,12
				c18.001,0,18.001-12,36.002-12c17.999,0,17.999,12,35.998,12c18,0,18-12,36-12c18,0,18,12,35.999,12c18,0,18-12,36-12
				c18,0,18,12,36,12c18.001,0,18.001-12,36.002-12c18.001,0,18.001,12,36.003,12c17.999,0,17.999-12,35.997-12
				c17.999,0,17.999,12,35.999,12c18.001,0,18.001-12,36.003-12s18.001,12,36.003,12c18.002,0,18.002-12,36.005-12
				c18.002,0,18.002,12,36.003,12c18.004,0,18.004-12,36.009-12s18.004,12,36.009,12"/>
		</g>
		<g>
			<path fill="none" stroke="#FFFFFF" stroke-width="2" stroke-miterlimit="10" d="M-841.394-915.779c17.999,0,17.999,12,35.998,12
				c18,0,18-12,35.999-12c18,0,18,12,35.999,12c18,0,18-12,36-12s18,12,36,12s18-12,36-12s18,12,35.999,12s17.999-12,35.999-12
				s18,12,35.999,12c18,0,18-12,36-12c17.998,0,17.998,12,35.996,12c18,0,18-12,36-12c17.998,0,17.998,12,35.996,12
				c17.998,0,17.998-12,35.995-12c17.998,0,17.998,12,35.996,12s17.998-12,35.996-12c17.999,0,17.999,12,35.998,12
				c18.001,0,18.001-12,36.002-12c17.999,0,17.999,12,35.998,12c18,0,18-12,36-12c18,0,18,12,35.999,12s18-12,36-12s18,12,36,12
				c18.001,0,18.001-12,36.002-12s18.001,12,36.003,12c17.999,0,17.999-12,35.998-12s17.999,12,35.998,12
				c18.001,0,18.001-12,36.003-12c18.002,0,18.002,12,36.003,12c18.002,0,18.002-12,36.005-12c18.001,0,18.001,12,36.003,12
				c18.004,0,18.004-12,36.009-12s18.004,12,36.009,12"/>
		</g>
		<g>
			<path fill="none" stroke="#FFFFFF" stroke-width="2" stroke-miterlimit="10" d="M-841.455-891.326c17.999,0,17.999,12,35.998,12
				c18,0,18-12,35.999-12c18,0,18,12,35.999,12c18,0,18-12,36-12s18,12,36,12s18-12,36-12s18,12,35.999,12s17.999-12,35.999-12
				s18,12,35.999,12c18,0,18-12,36-12c17.998,0,17.998,12,35.996,12c18,0,18-12,36-12c17.998,0,17.998,12,35.996,12
				c17.998,0,17.998-12,35.995-12c17.998,0,17.998,12,35.996,12s17.998-12,35.996-12c17.999,0,17.999,12,35.998,12
				c18.001,0,18.001-12,36.002-12c17.999,0,17.999,12,35.998,12c18,0,18-12,36-12c18,0,18,12,35.999,12s18-12,36-12s18,12,36,12
				c18.001,0,18.001-12,36.002-12s18.001,12,36.003,12c17.999,0,17.999-12,35.998-12s17.999,12,35.998,12
				c18.001,0,18.001-12,36.003-12c18.002,0,18.002,12,36.003,12c18.002,0,18.002-12,36.005-12c18.001,0,18.001,12,36.003,12
				c18.004,0,18.004-12,36.009-12s18.004,12,36.009,12"/>
		</g>
		<g>
			<path fill="none" stroke="#FFFFFF" stroke-width="2" stroke-miterlimit="10" d="M-841.516-866.873c17.999,0,17.999,12,35.998,12
				s17.999-12,35.999-12s18,12,36,12s18-12,36-12s18,12,36,12s18-12,36-12c17.999,0,17.999,12,35.999,12s18-12,35.999-12
				s17.999,12,35.999,12c18,0,18-12,36-12c17.998,0,17.998,12,35.996,12c18,0,18-12,36-12c17.998,0,17.998,12,35.996,12
				c17.998,0,17.998-12,35.995-12s17.998,12,35.996,12s17.998-12,35.997-12c17.999,0,17.999,12,35.998,12
				c18.001,0,18.001-12,36.002-12c17.999,0,17.999,12,35.998,12c18,0,18-12,36-12c18,0,18,12,35.999,12c18,0,18-12,36-12
				c18,0,18,12,36,12c18.001,0,18.001-12,36.002-12c18.001,0,18.001,12,36.003,12c17.999,0,17.999-12,35.997-12
				c17.999,0,17.999,12,35.999,12c18.001,0,18.001-12,36.003-12s18.001,12,36.003,12c18.002,0,18.002-12,36.005-12
				c18.002,0,18.002,12,36.003,12c18.004,0,18.004-12,36.009-12s18.004,12,36.009,12"/>
		</g>
		<g>
			<path fill="none" stroke="#FFFFFF" stroke-width="2" stroke-miterlimit="10" d="M-841.577-842.419c17.999,0,17.999,12,35.998,12
				c18,0,18-12,35.999-12c18,0,18,12,35.999,12c18,0,18-12,36-12s18,12,36,12s18-12,36-12s18,12,35.999,12s17.999-12,35.999-12
				s18,12,35.999,12c18,0,18-12,36-12c17.998,0,17.998,12,35.996,12c18,0,18-12,36-12c17.998,0,17.998,12,35.996,12
				c17.998,0,17.998-12,35.995-12c17.998,0,17.998,12,35.996,12s17.998-12,35.996-12c17.999,0,17.999,12,35.998,12
				c18.001,0,18.001-12,36.002-12c17.999,0,17.999,12,35.998,12c18,0,18-12,36-12c18,0,18,12,35.999,12s18-12,36-12s18,12,36,12
				c18.001,0,18.001-12,36.002-12s18.001,12,36.003,12c17.999,0,17.999-12,35.998-12s17.999,12,35.998,12
				c18.001,0,18.001-12,36.003-12c18.002,0,18.002,12,36.003,12c18.002,0,18.002-12,36.005-12c18.001,0,18.001,12,36.003,12
				c18.004,0,18.004-12,36.009-12s18.004,12,36.009,12"/>
		</g>
		<g>
			<path fill="none" stroke="#FFFFFF" stroke-width="2" stroke-miterlimit="10" d="M-841.639-817.966c17.999,0,17.999,12,35.998,12
				c18,0,18-12,35.999-12c18,0,18,12,35.999,12c18,0,18-12,36-12s18,12,36,12s18-12,36-12s18,12,35.999,12s17.999-12,35.999-12
				s18,12,35.999,12c18,0,18-12,36-12c17.998,0,17.998,12,35.996,12c18,0,18-12,36-12c17.998,0,17.998,12,35.996,12
				c17.998,0,17.998-12,35.995-12c17.998,0,17.998,12,35.996,12s17.998-12,35.996-12c17.999,0,17.999,12,35.998,12
				c18.001,0,18.001-12,36.002-12c17.999,0,17.999,12,35.998,12c18,0,18-12,36-12c18,0,18,12,35.999,12s18-12,36-12s18,12,36,12
				c18.001,0,18.001-12,36.002-12s18.001,12,36.003,12c17.999,0,17.999-12,35.998-12s17.999,12,35.998,12
				c18.001,0,18.001-12,36.003-12c18.002,0,18.002,12,36.003,12c18.002,0,18.002-12,36.005-12c18.001,0,18.001,12,36.003,12
				c18.004,0,18.004-12,36.009-12s18.004,12,36.009,12"/>
		</g>
		<g>
			<path fill="none" stroke="#FFFFFF" stroke-width="2" stroke-miterlimit="10" d="M-841.7-793.513c17.999,0,17.999,12,35.998,12
				s17.999-12,35.999-12s18,12,36,12s18-12,36-12s18,12,36,12s18-12,36-12c17.999,0,17.999,12,35.999,12s18-12,35.999-12
				s17.999,12,35.999,12c18,0,18-12,36-12c17.998,0,17.998,12,35.996,12c18,0,18-12,36-12c17.998,0,17.998,12,35.996,12
				c17.998,0,17.998-12,35.995-12s17.998,12,35.996,12s17.998-12,35.997-12c17.999,0,17.999,12,35.998,12
				c18.001,0,18.001-12,36.002-12c17.999,0,17.999,12,35.998,12c18,0,18-12,36-12c18,0,18,12,35.999,12c18,0,18-12,36-12
				c18,0,18,12,36,12c18.001,0,18.001-12,36.002-12c18.001,0,18.001,12,36.003,12c17.999,0,17.999-12,35.997-12
				c17.999,0,17.999,12,35.999,12c18.001,0,18.001-12,36.003-12s18.001,12,36.003,12c18.002,0,18.002-12,36.005-12
				c18.002,0,18.002,12,36.003,12c18.004,0,18.004-12,36.009-12s18.004,12,36.009,12"/>
		</g>
		<g>
			<path fill="none" stroke="#FFFFFF" stroke-width="2" stroke-miterlimit="10" d="M-841.761-769.059c17.999,0,17.999,12,35.998,12
				s17.999-12,35.999-12s18,12,36,12s18-12,36-12s18,12,36,12s18-12,36-12c17.999,0,17.999,12,35.999,12s18-12,35.999-12
				s17.999,12,35.999,12c18,0,18-12,36-12c17.998,0,17.998,12,35.996,12c18,0,18-12,36-12c17.998,0,17.998,12,35.996,12
				c17.998,0,17.998-12,35.995-12s17.998,12,35.996,12s17.998-12,35.997-12c17.999,0,17.999,12,35.998,12
				c18.001,0,18.001-12,36.002-12c17.999,0,17.999,12,35.998,12c18,0,18-12,36-12c18,0,18,12,35.999,12c18,0,18-12,36-12
				c18,0,18,12,36,12c18.001,0,18.001-12,36.002-12c18.001,0,18.001,12,36.003,12c17.999,0,17.999-12,35.997-12
				c17.999,0,17.999,12,35.999,12c18.001,0,18.001-12,36.003-12s18.001,12,36.003,12c18.002,0,18.002-12,36.005-12
				c18.002,0,18.002,12,36.003,12c18.004,0,18.004-12,36.009-12s18.004,12,36.009,12"/>
		</g>
		<g>
			<path fill="none" stroke="#FFFFFF" stroke-width="2" stroke-miterlimit="10" d="M-841.822-744.605c17.999,0,17.999,12,35.998,12
				c18,0,18-12,35.999-12c18,0,18,12,35.999,12c18,0,18-12,36-12s18,12,36,12s18-12,36-12s18,12,35.999,12s17.999-12,35.999-12
				s18,12,35.999,12c18,0,18-12,36-12c17.998,0,17.998,12,35.996,12c18,0,18-12,36-12c17.998,0,17.998,12,35.996,12
				c17.998,0,17.998-12,35.995-12c17.998,0,17.998,12,35.996,12s17.998-12,35.996-12c17.999,0,17.999,12,35.998,12
				c18.001,0,18.001-12,36.002-12c17.999,0,17.999,12,35.998,12c18,0,18-12,36-12c18,0,18,12,35.999,12s18-12,36-12s18,12,36,12
				c18.001,0,18.001-12,36.002-12s18.001,12,36.003,12c17.999,0,17.999-12,35.998-12s17.999,12,35.998,12
				c18.001,0,18.001-12,36.003-12c18.002,0,18.002,12,36.003,12c18.002,0,18.002-12,36.005-12c18.001,0,18.001,12,36.003,12
				c18.004,0,18.004-12,36.009-12s18.004,12,36.009,12"/>
		</g>
		<g>
			<path fill="none" stroke="#FFFFFF" stroke-width="2" stroke-miterlimit="10" d="M-841.883-720.151c17.999,0,17.999,12,35.998,12
				s17.999-12,35.999-12s18,12,36,12s18-12,36-12s18,12,36,12s18-12,36-12c17.999,0,17.999,12,35.999,12s18-12,35.999-12
				s17.999,12,35.999,12c18,0,18-12,36-12c17.998,0,17.998,12,35.996,12c18,0,18-12,36-12c17.998,0,17.998,12,35.996,12
				c17.998,0,17.998-12,35.995-12s17.998,12,35.996,12s17.998-12,35.997-12c17.999,0,17.999,12,35.998,12
				c18.001,0,18.001-12,36.002-12c17.999,0,17.999,12,35.998,12c18,0,18-12,36-12c18,0,18,12,35.999,12c18,0,18-12,36-12
				c18,0,18,12,36,12c18.001,0,18.001-12,36.002-12c18.001,0,18.001,12,36.003,12c17.999,0,17.999-12,35.997-12
				c17.999,0,17.999,12,35.999,12c18.001,0,18.001-12,36.003-12s18.001,12,36.003,12c18.002,0,18.002-12,36.005-12
				c18.002,0,18.002,12,36.003,12c18.004,0,18.004-12,36.009-12s18.004,12,36.009,12"/>
		</g>
		<g>
			<path fill="none" stroke="#FFFFFF" stroke-width="2" stroke-miterlimit="10" d="M-841.945-695.698c17.999,0,17.999,12,35.998,12
				s17.999-12,35.999-12s18,12,36,12s18-12,36-12s18,12,36,12s18-12,36-12c17.999,0,17.999,12,35.999,12s18-12,35.999-12
				s17.999,12,35.999,12c18,0,18-12,36-12c17.998,0,17.998,12,35.996,12c18,0,18-12,36-12c17.998,0,17.998,12,35.996,12
				c17.998,0,17.998-12,35.995-12s17.998,12,35.996,12s17.998-12,35.997-12c17.999,0,17.999,12,35.998,12
				c18.001,0,18.001-12,36.002-12c17.999,0,17.999,12,35.998,12c18,0,18-12,36-12c18,0,18,12,35.999,12c18,0,18-12,36-12
				c18,0,18,12,36,12c18.001,0,18.001-12,36.002-12c18.001,0,18.001,12,36.003,12c17.999,0,17.999-12,35.997-12
				c17.999,0,17.999,12,35.999,12c18.001,0,18.001-12,36.003-12s18.001,12,36.003,12c18.002,0,18.002-12,36.005-12
				c18.002,0,18.002,12,36.003,12c18.004,0,18.004-12,36.009-12s18.004,12,36.009,12"/>
		</g>
		<g>
			<path fill="none" stroke="#FFFFFF" stroke-width="2" stroke-miterlimit="10" d="M-842.006-671.245c17.999,0,17.999,12,35.998,12
				c18,0,18-12,35.999-12c18,0,18,12,35.999,12c18,0,18-12,36-12s18,12,36,12s18-12,36-12s18,12,35.999,12s17.999-12,35.999-12
				s18,12,35.999,12c18,0,18-12,36-12c17.998,0,17.998,12,35.996,12c18,0,18-12,36-12c17.998,0,17.998,12,35.996,12
				c17.998,0,17.998-12,35.995-12c17.998,0,17.998,12,35.996,12s17.998-12,35.996-12c17.999,0,17.999,12,35.998,12
				c18.001,0,18.001-12,36.002-12c17.999,0,17.999,12,35.998,12c18,0,18-12,36-12c18,0,18,12,35.999,12s18-12,36-12s18,12,36,12
				c18.001,0,18.001-12,36.002-12s18.001,12,36.003,12c17.999,0,17.999-12,35.998-12s17.999,12,35.998,12
				c18.001,0,18.001-12,36.003-12c18.002,0,18.002,12,36.003,12c18.002,0,18.002-12,36.005-12c18.001,0,18.001,12,36.003,12
				c18.004,0,18.004-12,36.009-12s18.004,12,36.009,12"/>
		</g>
		<g>
			<path fill="none" stroke="#FFFFFF" stroke-width="2" stroke-miterlimit="10" d="M-842.067-646.791c17.999,0,17.999,12,35.998,12
				s17.999-12,35.999-12s18,12,36,12s18-12,36-12s18,12,36,12s18-12,36-12c17.999,0,17.999,12,35.999,12s18-12,35.999-12
				s17.999,12,35.999,12c18,0,18-12,36-12c17.998,0,17.998,12,35.996,12c18,0,18-12,36-12c17.998,0,17.998,12,35.996,12
				c17.998,0,17.998-12,35.995-12s17.998,12,35.996,12s17.998-12,35.997-12c17.999,0,17.999,12,35.998,12
				c18.001,0,18.001-12,36.002-12c17.999,0,17.999,12,35.998,12c18,0,18-12,36-12c18,0,18,12,35.999,12c18,0,18-12,36-12
				c18,0,18,12,36,12c18.001,0,18.001-12,36.002-12c18.001,0,18.001,12,36.003,12c17.999,0,17.999-12,35.997-12
				c17.999,0,17.999,12,35.999,12c18.001,0,18.001-12,36.003-12s18.001,12,36.003,12c18.002,0,18.002-12,36.005-12
				c18.002,0,18.002,12,36.003,12c18.004,0,18.004-12,36.009-12s18.004,12,36.009,12"/>
		</g>
		<g>
			<path fill="none" stroke="#FFFFFF" stroke-width="2" stroke-miterlimit="10" d="M-842.128-622.338c17.999,0,17.999,12,35.998,12
				s17.999-12,35.999-12s18,12,36,12s18-12,36-12s18,12,36,12s18-12,36-12c17.999,0,17.999,12,35.999,12s18-12,35.999-12
				s17.999,12,35.999,12c18,0,18-12,36-12c17.998,0,17.998,12,35.996,12c18,0,18-12,36-12c17.998,0,17.998,12,35.996,12
				c17.998,0,17.998-12,35.995-12s17.998,12,35.996,12s17.998-12,35.997-12c17.999,0,17.999,12,35.998,12
				c18.001,0,18.001-12,36.002-12c17.999,0,17.999,12,35.998,12c18,0,18-12,36-12c18,0,18,12,35.999,12c18,0,18-12,36-12
				c18,0,18,12,36,12c18.001,0,18.001-12,36.002-12c18.001,0,18.001,12,36.003,12c17.999,0,17.999-12,35.997-12
				c17.999,0,17.999,12,35.999,12c18.001,0,18.001-12,36.003-12s18.001,12,36.003,12c18.002,0,18.002-12,36.005-12
				c18.002,0,18.002,12,36.003,12c18.004,0,18.004-12,36.009-12s18.004,12,36.009,12"/>
		</g>
		<g>
			<path fill="none" stroke="#FFFFFF" stroke-width="2" stroke-miterlimit="10" d="M-842.189-597.885c17.999,0,17.999,12,35.998,12
				c18,0,18-12,35.999-12c18,0,18,12,35.999,12c18,0,18-12,36-12s18,12,36,12s18-12,36-12s18,12,35.999,12s17.999-12,35.999-12
				s18,12,35.999,12c18,0,18-12,36-12c17.998,0,17.998,12,35.996,12c18,0,18-12,36-12c17.998,0,17.998,12,35.996,12
				c17.998,0,17.998-12,35.995-12c17.998,0,17.998,12,35.996,12s17.998-12,35.996-12c17.999,0,17.999,12,35.998,12
				c18.001,0,18.001-12,36.002-12c17.999,0,17.999,12,35.998,12c18,0,18-12,36-12c18,0,18,12,35.999,12s18-12,36-12s18,12,36,12
				c18.001,0,18.001-12,36.002-12s18.001,12,36.003,12c17.999,0,17.999-12,35.998-12s17.999,12,35.998,12
				c18.001,0,18.001-12,36.003-12c18.002,0,18.002,12,36.003,12c18.002,0,18.002-12,36.005-12c18.001,0,18.001,12,36.003,12
				c18.004,0,18.004-12,36.009-12s18.004,12,36.009,12"/>
		</g>
		<g>
			<path fill="none" stroke="#FFFFFF" stroke-width="2" stroke-miterlimit="10" d="M-842.251-573.431c17.999,0,17.999,12,35.998,12
				c18,0,18-12,35.999-12c18,0,18,12,35.999,12c18,0,18-12,36-12s18,12,36,12s18-12,36-12s18,12,35.999,12s17.999-12,35.999-12
				s18,12,35.999,12c18,0,18-12,36-12c17.998,0,17.998,12,35.996,12c18,0,18-12,36-12c17.998,0,17.998,12,35.996,12
				c17.998,0,17.998-12,35.995-12c17.998,0,17.998,12,35.996,12s17.998-12,35.996-12c17.999,0,17.999,12,35.998,12
				c18.001,0,18.001-12,36.002-12c17.999,0,17.999,12,35.998,12c18,0,18-12,36-12c18,0,18,12,35.999,12s18-12,36-12s18,12,36,12
				c18.001,0,18.001-12,36.002-12s18.001,12,36.003,12c17.999,0,17.999-12,35.998-12s17.999,12,35.998,12
				c18.001,0,18.001-12,36.003-12c18.002,0,18.002,12,36.003,12c18.002,0,18.002-12,36.005-12c18.001,0,18.001,12,36.003,12
				c18.004,0,18.004-12,36.009-12s18.004,12,36.009,12"/>
		</g>
		<g>
			<path fill="none" stroke="#FFFFFF" stroke-width="2" stroke-miterlimit="10" d="M-842.312-548.978c17.999,0,17.999,12,35.998,12
				s17.999-12,35.999-12s18,12,36,12s18-12,36-12s18,12,36,12s18-12,36-12c17.999,0,17.999,12,35.999,12s18-12,35.999-12
				s17.999,12,35.999,12c18,0,18-12,36-12c17.998,0,17.998,12,35.996,12c18,0,18-12,36-12c17.998,0,17.998,12,35.996,12
				c17.998,0,17.998-12,35.995-12s17.998,12,35.996,12s17.998-12,35.997-12c17.999,0,17.999,12,35.998,12
				c18.001,0,18.001-12,36.002-12c17.999,0,17.999,12,35.998,12c18,0,18-12,36-12c18,0,18,12,35.999,12c18,0,18-12,36-12
				c18,0,18,12,36,12c18.001,0,18.001-12,36.002-12c18.001,0,18.001,12,36.003,12c17.999,0,17.999-12,35.997-12
				c17.999,0,17.999,12,35.999,12c18.001,0,18.001-12,36.003-12s18.001,12,36.003,12c18.002,0,18.002-12,36.005-12
				c18.002,0,18.002,12,36.003,12c18.004,0,18.004-12,36.009-12s18.004,12,36.009,12"/>
		</g>
		<g>
			<path fill="none" stroke="#FFFFFF" stroke-width="2" stroke-miterlimit="10" d="M-842.373-524.523c17.999,0,17.999,12,35.998,12
				c18,0,18-12,35.999-12c18,0,18,12,35.999,12c18,0,18-12,36-12s18,12,36,12s18-12,36-12s18,12,35.999,12s17.999-12,35.999-12
				s18,12,35.999,12c18,0,18-12,36-12c17.998,0,17.998,12,35.996,12c18,0,18-12,36-12c17.998,0,17.998,12,35.996,12
				c17.998,0,17.998-12,35.995-12c17.998,0,17.998,12,35.996,12s17.998-12,35.996-12c17.999,0,17.999,12,35.998,12
				c18.001,0,18.001-12,36.002-12c17.999,0,17.999,12,35.998,12c18,0,18-12,36-12c18,0,18,12,35.999,12s18-12,36-12s18,12,36,12
				c18.001,0,18.001-12,36.002-12s18.001,12,36.003,12c17.999,0,17.999-12,35.998-12s17.999,12,35.998,12
				c18.001,0,18.001-12,36.003-12c18.002,0,18.002,12,36.003,12c18.002,0,18.002-12,36.005-12c18.001,0,18.001,12,36.003,12
				c18.004,0,18.004-12,36.009-12s18.004,12,36.009,12"/>
		</g>
		<g>
			<path fill="none" stroke="#FFFFFF" stroke-width="2" stroke-miterlimit="10" d="M-842.435-500.07c17.999,0,17.999,12,35.998,12
				c18,0,18-12,35.999-12c18,0,18,12,35.999,12c18,0,18-12,36-12s18,12,36,12s18-12,36-12s18,12,35.999,12s17.999-12,35.999-12
				s18,12,35.999,12c18,0,18-12,36-12c17.998,0,17.998,12,35.996,12c18,0,18-12,36-12c17.998,0,17.998,12,35.996,12
				c17.998,0,17.998-12,35.995-12c17.998,0,17.998,12,35.996,12s17.998-12,35.996-12c17.999,0,17.999,12,35.998,12
				c18.001,0,18.001-12,36.002-12c17.999,0,17.999,12,35.998,12c18,0,18-12,36-12c18,0,18,12,35.999,12s18-12,36-12s18,12,36,12
				c18.001,0,18.001-12,36.002-12s18.001,12,36.003,12c17.999,0,17.999-12,35.998-12s17.999,12,35.998,12
				c18.001,0,18.001-12,36.003-12c18.002,0,18.002,12,36.003,12c18.002,0,18.002-12,36.005-12c18.001,0,18.001,12,36.003,12
				c18.004,0,18.004-12,36.009-12s18.004,12,36.009,12"/>
		</g>
		<g>
			<path fill="none" stroke="#FFFFFF" stroke-width="2" stroke-miterlimit="10" d="M-842.496-475.617c17.999,0,17.999,12,35.998,12
				s17.999-12,35.999-12s18,12,36,12s18-12,36-12s18,12,36,12s18-12,36-12c17.999,0,17.999,12,35.999,12s18-12,35.999-12
				s17.999,12,35.999,12c18,0,18-12,36-12c17.998,0,17.998,12,35.996,12c18,0,18-12,36-12c17.998,0,17.998,12,35.996,12
				c17.998,0,17.998-12,35.995-12s17.998,12,35.996,12s17.998-12,35.997-12c17.999,0,17.999,12,35.998,12
				c18.001,0,18.001-12,36.002-12c17.999,0,17.999,12,35.998,12c18,0,18-12,36-12c18,0,18,12,35.999,12c18,0,18-12,36-12
				c18,0,18,12,36,12c18.001,0,18.001-12,36.002-12c18.001,0,18.001,12,36.003,12c17.999,0,17.999-12,35.997-12
				c17.999,0,17.999,12,35.999,12c18.001,0,18.001-12,36.003-12s18.001,12,36.003,12c18.002,0,18.002-12,36.005-12
				c18.002,0,18.002,12,36.003,12c18.004,0,18.004-12,36.009-12s18.004,12,36.009,12"/>
		</g>
		<g>
			<path fill="none" stroke="#FFFFFF" stroke-width="2" stroke-miterlimit="10" d="M-842.557-451.163c17.999,0,17.999,12,35.998,12
				s17.999-12,35.999-12s18,12,36,12s18-12,36-12s18,12,36,12s18-12,36-12c17.999,0,17.999,12,35.999,12s18-12,35.999-12
				s17.999,12,35.999,12c18,0,18-12,36-12c17.998,0,17.998,12,35.996,12c18,0,18-12,36-12c17.998,0,17.998,12,35.996,12
				c17.998,0,17.998-12,35.995-12s17.998,12,35.996,12s17.998-12,35.997-12c17.999,0,17.999,12,35.998,12
				c18.001,0,18.001-12,36.002-12c17.999,0,17.999,12,35.998,12c18,0,18-12,36-12c18,0,18,12,35.999,12c18,0,18-12,36-12
				c18,0,18,12,36,12c18.001,0,18.001-12,36.002-12c18.001,0,18.001,12,36.003,12c17.999,0,17.999-12,35.997-12
				c17.999,0,17.999,12,35.999,12c18.001,0,18.001-12,36.003-12s18.001,12,36.003,12c18.002,0,18.002-12,36.005-12
				c18.002,0,18.002,12,36.003,12c18.004,0,18.004-12,36.009-12s18.004,12,36.009,12"/>
		</g>
		<g>
			<path fill="none" stroke="#FFFFFF" stroke-width="2" stroke-miterlimit="10" d="M-842.618-426.71c17.999,0,17.999,12,35.998,12
				c18,0,18-12,35.999-12c18,0,18,12,35.999,12c18,0,18-12,36-12s18,12,36,12s18-12,36-12s18,12,35.999,12s17.999-12,35.999-12
				s18,12,35.999,12c18,0,18-12,36-12c17.998,0,17.998,12,35.996,12c18,0,18-12,36-12c17.998,0,17.998,12,35.996,12
				c17.998,0,17.998-12,35.995-12c17.998,0,17.998,12,35.996,12s17.998-12,35.996-12c17.999,0,17.999,12,35.998,12
				c18.001,0,18.001-12,36.002-12c17.999,0,17.999,12,35.998,12c18,0,18-12,36-12c18,0,18,12,35.999,12s18-12,36-12s18,12,36,12
				c18.001,0,18.001-12,36.002-12s18.001,12,36.003,12c17.999,0,17.999-12,35.998-12s17.999,12,35.998,12
				c18.001,0,18.001-12,36.003-12c18.002,0,18.002,12,36.003,12c18.002,0,18.002-12,36.005-12c18.001,0,18.001,12,36.003,12
				c18.004,0,18.004-12,36.009-12s18.004,12,36.009,12"/>
		</g>
	</g>
	<path fill="#FFFFFF" d="M-840.414-1291.035v639.531H332.602v-639.531H-840.414z M-273.284-754.679
		c-126.247,0-228.591-102.344-228.591-228.591s102.344-228.591,228.591-228.591S-44.693-1109.517-44.693-983.27
		S-147.037-754.679-273.284-754.679z"/>
	<path fill="#604887" d="M30.858-1754.925c-4.736-0.278-15.087-0.077-21.092,7.864c-4.662,6.166-4.888,16.47-4.836,19.693H4.85
		c0.052-3.224-0.174-13.527-4.836-19.693c-6.005-7.941-16.355-8.143-21.092-7.864c-22.06,1.298-39.533-0.077-39.533-0.077
		s0,11.401,7.465,20.217c6.254,7.386,18.738,8.418,32.068,8.418c5.079,0,11.49,0,16.664,0c-0.874,9.507-9.226,83.884-56.545,83.884
		c-45.204,0-46.09-56.279-46.09-56.279v-112.209c0-20.367-16.511-36.878-36.878-36.878h-289.316
		c-20.367,0-36.877,16.511-36.877,36.878v213.892c0,20.366,16.511,36.878,36.877,36.878h289.316c0,0,74.905,2.756,118.319-31.893
		c49.5-39.505,40.988-124.165,39.776-134.272c5.178,0,11.603,0,16.69,0c13.33,0,25.813-1.032,32.068-8.418
		c7.465-8.815,7.465-20.217,7.465-20.217S52.917-1753.627,30.858-1754.925z"/>
	<path opacity="0.2" d="M-156.438-1669.778c2.393,43.55-24.98,66.141-58.216,66.141c-32.115,0-57.127-29.479-58.863-61.387
		L-156.438-1669.778z"/>
	<path fill="#604887" d="M-165.029-1665.812c0,30.221-24.499,54.721-54.72,54.721c-29.201,0-53.189-25.914-54.767-54.721H-165.029z"
		/>
	<path opacity="0.2" d="M-426.908-1699.174c5.897-3.114,13.13-6.687,27.865-6.687c17.065,0,25.742,5.38,28.433,6.751
		c2.961,18.492,18.981,32.623,38.308,32.623c19.036,0,34.859-13.712,38.16-31.795h43.289l0.043,0.032h8.731
		c3.599,0,6.519,3.05,6.519,6.648c0,1.072-0.266,2.079-0.727,2.97c-1.08,1.242-1.738,2.86-1.738,4.636
		c0,3.906,3.168,7.073,7.074,7.073c2.1,0,3.979-0.919,5.273-2.37l0.016,0.012c0.035-0.044,0.064-0.093,0.098-0.137
		c0.244-0.287,0.463-0.596,0.66-0.919c2.24-3.283,3.57-7.235,3.57-11.512c0-11.319-9.178-20.497-20.496-20.497
		c-0.453,0-0.9,0.017-1.345,0.046h-50.968c-3.301-18.083-19.124-31.795-38.16-31.795c-17.839,0-32.856,12.042-37.392,28.438
		c-6.799-2.367-18.065-5.264-32.431-5.264c-14.382,0-26.224,2.554-33.864,4.826 M-332.302-1681.486
		c-13.125,0-23.803-10.679-23.803-23.804s10.678-23.804,23.803-23.804c13.125,0,23.804,10.679,23.804,23.804
		S-319.177-1681.486-332.302-1681.486z"/>
	<g opacity="0.3">
		<circle fill="#FFFFFF" cx="-463.952" cy="-1708.781" r="38.803"/>
	</g>
	<g opacity="0.3">
		<circle fill="#FFFFFF" cx="-332.846" cy="-1708.781" r="38.803"/>
	</g>
	<circle fill="#2D2D2D" cx="-333.343" cy="-1710.349" r="9.054"/>
	<path fill="#2D2D2D" d="M-318.137-1714.537c0,0,1.53-8.651-6.751-14.259c-6.977-4.725-15.461,2.2-1.301,6.332
		C-319.046-1720.379-318.137-1714.537-318.137-1714.537z"/>
	<path fill="#262B2B" d="M-242.374-1715.835c-0.452,0-0.9,0.017-1.344,0.046h-50.968c-3.301-18.083-19.124-31.795-38.16-31.795
		c-17.633,0-32.51,11.767-37.231,27.873c-6.067-2.239-15.728-4.699-28.965-4.699c-12.419,0-21.688,2.166-27.796,4.282
		c-4.854-15.894-19.632-27.456-37.114-27.456c-21.43,0-38.803,17.373-38.803,38.804s17.373,38.804,38.803,38.804
		c19.756,0,36.052-14.768,38.48-33.864c4.046-2.095,12.791-5.569,26.43-5.569c15.483,0,24.661,4.477,27.813,6.33
		c2.758,18.728,18.89,33.104,38.383,33.104c19.036,0,34.859-13.712,38.16-31.795h43.29l0.043,0.032h8.731
		c3.598,0,6.518,3.05,6.518,6.648c0,1.072-0.266,2.079-0.726,2.97c-1.08,1.242-1.738,2.86-1.738,4.636
		c0,3.906,3.167,7.073,7.073,7.073c2.1,0,3.979-0.919,5.274-2.37l0.016,0.012c0.034-0.044,0.064-0.093,0.098-0.137
		c0.244-0.287,0.463-0.596,0.659-0.919c2.241-3.283,3.571-7.235,3.571-11.512C-221.877-1706.657-231.055-1715.835-242.374-1715.835z
		 M-463.953-1684.977c-13.125,0-23.803-10.679-23.803-23.804s10.678-23.804,23.803-23.804c13.125,0,23.804,10.679,23.804,23.804
		S-450.827-1684.977-463.953-1684.977z M-332.846-1684.977c-13.125,0-23.803-10.679-23.803-23.804s10.678-23.804,23.803-23.804
		c13.125,0,23.804,10.679,23.804,23.804S-319.721-1684.977-332.846-1684.977z"/>
	<circle fill="#2D2D2D" cx="-457.265" cy="-1710.373" r="9.054"/>
	<path fill="#2D2D2D" d="M-473.597-1714.159c0,0-2.103-8.53,5.787-14.676c6.647-5.179,15.573,1.166,1.72,6.231
		C-473.079-1720.049-473.597-1714.159-473.597-1714.159z"/>
	<g display="none">
		<path display="inline" fill="#EDEDED" d="M-425.711-1652.132c-1.926,0.107-3.691,0.314-5.305,0.618v35.797
			c2.381,1.271,4.759,2.138,6.812,2.702c1.101,0.303,2.426,0.566,3.886,0.798v-39.869
			C-422.396-1652.18-424.264-1652.213-425.711-1652.132z"/>
		<path display="inline" fill="#EDEDED" d="M-418.345-1651.983v40.048c3.334,0.431,7.144,0.714,10.698,0.888v-40.15
			C-411.142-1651.465-414.934-1651.782-418.345-1651.983z"/>
		<path display="inline" fill="#EDEDED" d="M-372.375-1652.132c-2.023-0.113-4.85-0.009-7.958,0.184v40.085
			c2.482-0.303,4.737-0.68,6.452-1.151c1.31-0.36,2.754-0.849,4.246-1.481v-37.404
			C-370.511-1652.001-371.423-1652.078-372.375-1652.132z"/>
		<path display="inline" fill="#EDEDED" d="M-393.004-1651.01v40.071c3.37-0.121,7.177-0.345,10.698-0.704v-40.175
			C-385.889-1651.566-389.69-1651.239-393.004-1651.01z"/>
		<path display="inline" fill="#EDEDED" d="M-399.043-1650.734c-1.728,0-4.052-0.134-6.632-0.318v40.091
			c2.53,0.099,4.847,0.143,6.632,0.143c1.161,0,2.545-0.019,4.066-0.058v-40.006
			C-396.521-1650.792-397.911-1650.734-399.043-1650.734z"/>
		<path display="inline" fill="#EDEDED" d="M-443.413-1631.499c1.535,7.079,5.815,11.677,10.425,14.619v-34.19
			C-442.509-1648.583-445.702-1642.054-443.413-1631.499z"/>
		<path display="inline" fill="#EDEDED" d="M-367.663-1651.615v36.197c5.507-2.787,11.172-7.697,12.99-16.081
			C-352.19-1642.95-356.161-1649.662-367.663-1651.615z"/>
		<path display="inline" fill="#EDEDED" d="M-432.988-1651.07v34.19c0.654,0.418,1.312,0.811,1.973,1.163v-35.797
			C-431.702-1651.384-432.358-1651.235-432.988-1651.07z"/>
		<path display="inline" opacity="0.2" d="M-432.988-1651.07v34.19c0.654,0.418,1.312,0.811,1.973,1.163v-35.797
			C-431.702-1651.384-432.358-1651.235-432.988-1651.07z"/>
		<path display="inline" fill="#EDEDED" d="M-420.318-1652.086v39.869c0.633,0.101,1.292,0.193,1.973,0.281v-40.048
			C-419.021-1652.023-419.678-1652.057-420.318-1652.086z"/>
		<path display="inline" opacity="0.2" d="M-420.318-1652.086v39.869c0.633,0.101,1.292,0.193,1.973,0.281v-40.048
			C-419.021-1652.023-419.678-1652.057-420.318-1652.086z"/>
		<path display="inline" fill="#EDEDED" d="M-407.647-1651.198v40.15c0.67,0.032,1.327,0.062,1.973,0.086v-40.091
			C-406.318-1651.099-406.976-1651.147-407.647-1651.198z"/>
		<path display="inline" opacity="0.2" d="M-407.647-1651.198v40.15c0.67,0.032,1.327,0.062,1.973,0.086v-40.091
			C-406.318-1651.099-406.976-1651.147-407.647-1651.198z"/>
		<path display="inline" fill="#EDEDED" d="M-394.977-1650.883v40.006c0.635-0.017,1.296-0.037,1.973-0.062v-40.071
			C-393.686-1650.963-394.343-1650.921-394.977-1650.883z"/>
		<path display="inline" opacity="0.2" d="M-394.977-1650.883v40.006c0.635-0.017,1.296-0.037,1.973-0.062v-40.071
			C-393.686-1650.963-394.343-1650.921-394.977-1650.883z"/>
		<path display="inline" fill="#EDEDED" d="M-382.306-1651.817v40.175c0.671-0.068,1.328-0.142,1.973-0.221v-40.085
			C-380.98-1651.908-381.639-1651.864-382.306-1651.817z"/>
		<path display="inline" opacity="0.2" d="M-382.306-1651.817v40.175c0.671-0.068,1.328-0.142,1.973-0.221v-40.085
			C-380.98-1651.908-381.639-1651.864-382.306-1651.817z"/>
		<path display="inline" fill="#EDEDED" d="M-369.636-1651.9v37.404c0.651-0.275,1.31-0.586,1.973-0.922v-36.197
			C-368.3-1651.724-368.953-1651.821-369.636-1651.9z"/>
		<path display="inline" opacity="0.2" d="M-369.636-1651.9v37.404c0.651-0.275,1.31-0.586,1.973-0.922v-36.197
			C-368.3-1651.724-368.953-1651.821-369.636-1651.9z"/>
	</g>
	<path opacity="0.2" d="M-383.896-1843.799c0,0,4.712,4.338,13.169,4.338c9.729,0,13.773-4.338,13.773-4.338
		s-3.987,8.93-13.471,8.93C-379.789-1834.869-383.896-1843.799-383.896-1843.799z"/>
	<path fill="#8BAFAE" d="M-353.417-1899.464c-5.134,0-9.08,1.407-12.094,3.361c-6.924,4.488-8.912,11.882-8.912,11.882
		s-2.578-10.159-18.161-10.159c-15.417,0-23.5,11.682-23.5,19.25c0,5.229,1.469,8.651,3.582,10.871
		c3.005,3.157,7.315,3.879,10.571,3.879c9.348,0,8.711-10.774,8.711-10.774s7.387-1.059,10.887,1.774
		c3.156,2.555,3.876,5.454,4.014,7.063c0.065,0.77,0,1.249,0,1.249v15.384c0,0,0.357,1.885,6.267,1.885
		c2.792,0,4.615-0.217,5.825-0.502c2.375-0.559,2.35-1.383,2.35-1.383v-14.238c0,0,0-5.73,2.521-8.939s5.731-3.209,5.731-3.209
		s3.292,5.857,8.292,5.773c8.018-0.134,13.231-3.224,13.833-12.333C-332.917-1887.463-335.834-1899.464-353.417-1899.464z"/>
	<path opacity="0.2" d="M-356.955-1876.333c0,0-6.13,1.813-8.246,7.331c-1.516,3.951-1.169,19.903-1.028,24.7
		c2.375-0.559,2.35-1.383,2.35-1.383v-14.238c0,0,0-5.73,2.521-8.939s5.731-3.209,5.731-3.209s-0.683-1.269-1-2.27
		C-356.912-1875.241-356.955-1876.333-356.955-1876.333z"/>
	<path opacity="0.2" d="M-381.981-1872.12c-4.742-4.236-14.603-2.656-14.603-2.656s2.632,8.742-2.669,11.354
		c-7.979,3.933-12.637-0.236-13.249-0.838c3.005,3.157,7.315,3.879,10.571,3.879c9.348,0,8.711-10.774,8.711-10.774
		s7.387-1.059,10.887,1.774c3.156,2.555,3.876,5.454,4.014,7.063l0,0C-378.32-1862.317-378.34-1868.868-381.981-1872.12z"/>
	<path opacity="0.2" d="M-373.525-1880.694c0,0-0.261-4.886,2.727-9.589c2.289-3.602,4.801-5.469,5.281-5.806
		c-6.924,4.488-8.912,11.882-8.912,11.882s0.207,0.739,0.452,1.707C-373.782-1881.734-373.525-1880.694-373.525-1880.694z"/>
	<g>
		<path fill="#8BAFAE" d="M-382.334-1917.297c-1.139-1.344-2.295-2.392-3.447-3.194c-6.264-4.364-12.371-1.423-14.553,1.111
			c-2.583,3-6.77,13.197,8.833,17.25c7.457,1.937,11.886,4.824,14.3,6.909c1.741,1.503,2.442,2.591,2.442,2.591
			S-373.084-1906.381-382.334-1917.297z"/>
		<path opacity="0.2" d="M-374.759-1892.631c0,0,1.675-13.75-7.575-24.666c-1.139-1.344-2.295-2.392-3.447-3.194
			c0.028,0.024,5.458,4.626,7.015,11.273c1.954,8.34,1.61,13.455,1.565,13.996C-375.459-1893.719-374.759-1892.631-374.759-1892.631
			z"/>
	</g>
	<g>
		<path fill="#8BAFAE" d="M-361.353-1916.303c-0.276-2.287-1.18-4.315-3.231-4.828c-5.701-1.425-7.5,2.667-7.833,5.833
			c-0.506,4.808,0.457,9.083,0.624,12.167c0.061,1.115,0.028,2.579-0.038,3.994c-0.116,2.497-0.335,4.84-0.335,4.84
			s7.833-6.942,10.333-15.858C-361.394-1911.726-361.091-1914.131-361.353-1916.303z"/>
		<path opacity="0.2" d="M-361.845-1910.156c0.44-1.57,0.743-3.975,0.481-6.147c0.001,0.232-0.009,7.573-8.227,18.013
			c-2.221,2.822-2.252-0.848-2.252-0.848l0,0c-0.116,2.497-0.335,4.84-0.335,4.84S-364.345-1901.239-361.845-1910.156z"/>
	</g>
	<path display="none" fill="#EDEDED" d="M-470.12-1610.911c12.025,7.273,24.347,7.273,24.347,7.273s35.048,0,46.73,0
		s46.73,0,46.73,0s14.392,0,27.247-9.181c7.542-5.386,17.491-19.055,16.465-24.817c-0.775-4.352-5.61-5.825-8.209-2.084
		c-1.444,2.078,0.418,5.138,0.418,5.138s2.079,6.434-9.875,11.702c-9.634,4.246-47.216-0.93-72.776-0.93
		c-27.326,0-59.517,5.814-71.077,0.93"/>
	<path fill="#FFFFFF" d="M-406.813-1623.123c0,0.908-1,1.644-2.235,1.644h-25.77c-1.234,0-2.235-0.735-2.235-1.644v-17.944h30.24
		V-1623.123z"/>
	<path fill="#FFFFFF" d="M-374.758-1623.123c0,0.908-1,1.644-2.235,1.644h-25.77c-1.234,0-2.235-0.735-2.235-1.644v-17.944h30.24
		V-1623.123z"/>
	<path opacity="0.2" d="M-336.759-1637.25c0,0,11.008-0.111,16.396-1.868c8.458-2.758,10.368-13.408,10.368-13.408
		s-2.18,6.453-11.831,9.601c-5.387,1.757-16.396,1.868-16.396,1.868h-131.899v3.808l33.083-0.004l-0.015,3.004
		c0,0,0.594-1.598,15.12-1.598c14.983,0,15.12,1.598,15.12,1.598h1.815c0,0,0.324-1.598,14.885-1.598
		c14.114,0,15.354,1.598,15.354,1.598l0.002-2.988L-336.759-1637.25z"/>
	<g>
		<text transform="matrix(1 0 0 1 -517.8799 -1452.9219)" fill="#569496" font-family="'BebasNeue'" font-size="98.4997">#steviewhale</text>
	</g>
	<g>
		<text transform="matrix(1 0 0 1 -522.0273 -1457.0703)" fill="#D15A85" font-family="'BebasNeue'" font-size="98.4997">#steviewhale</text>
	</g>
	<rect x="-432.887" y="-988.133" fill="#2D2D2D" width="35.517" height="11.322"/>
	<path fill="#604887" d="M-20.386-1018.274c-3.681-0.216-11.725-0.06-16.392,6.112c-3.623,4.792-3.799,12.799-3.758,15.305h-0.063
		c0.04-2.506-0.135-10.513-3.759-15.305c-4.667-6.172-12.711-6.328-16.392-6.112c-17.144,1.009-30.723-0.06-30.723-0.06
		s0,8.86,5.801,15.711c4.861,5.74,14.563,6.543,24.922,6.543c3.947,0,8.93,0,12.951,0c-0.679,7.388-7.17,65.191-43.945,65.191
		c-35.131,0-35.819-43.738-35.819-43.738v-87.205c0-15.828-12.832-28.66-28.66-28.66h-224.845c-15.829,0-28.66,12.832-28.66,28.66
		v166.229c0,15.828,12.831,28.66,28.66,28.66h224.845c0,0,58.213,2.142,91.953-24.785c38.469-30.702,31.854-96.497,30.913-104.352
		c4.024,0,9.017,0,12.971,0c10.359,0,20.061-0.803,24.922-6.543c5.801-6.851,5.801-15.711,5.801-15.711
		S-3.242-1017.266-20.386-1018.274z"/>
	<path opacity="0.2" d="M-165.945-952.102c1.859,33.845-19.414,51.401-45.243,51.401c-24.958,0-44.397-22.909-45.746-47.707
		L-165.945-952.102z"/>
	<path fill="#604887" d="M-172.622-949.019c0,23.486-19.04,42.526-42.526,42.526c-22.694,0-41.336-20.14-42.563-42.526H-172.622z"/>
	<path opacity="0.2" d="M-376.144-974.947c4.583-2.42,10.205-5.196,21.656-5.196c13.262,0,20.006,4.182,22.097,5.247
		c2.301,14.371,14.752,25.354,29.771,25.354c14.794,0,27.091-10.657,29.656-24.71h33.643l0.033,0.024h6.786
		c2.797,0,5.066,2.37,5.066,5.167c0,0.834-0.206,1.616-0.564,2.309c-0.839,0.965-1.351,2.223-1.351,3.603
		c0,3.035,2.462,5.497,5.498,5.497c1.632,0,3.092-0.714,4.098-1.842l0.012,0.009c0.027-0.034,0.05-0.072,0.076-0.106
		c0.19-0.223,0.36-0.463,0.513-0.714c1.741-2.552,2.775-5.623,2.775-8.946c0-8.797-7.133-15.93-15.929-15.93
		c-0.353,0-0.7,0.013-1.045,0.035h-39.61c-2.565-14.053-14.862-24.709-29.656-24.709c-13.864,0-25.535,9.358-29.06,22.101
		c-5.284-1.84-14.04-4.091-25.204-4.091c-11.177,0-20.38,1.984-26.318,3.75 M-302.62-961.201c-10.2,0-18.499-8.299-18.499-18.499
		s8.299-18.499,18.499-18.499c10.201,0,18.499,8.299,18.499,18.499S-292.419-961.201-302.62-961.201z"/>
	<g opacity="0.3">
		<circle fill="#FFFFFF" cx="-404.934" cy="-982.413" r="30.156"/>
	</g>
	<g opacity="0.3">
		<circle fill="#FFFFFF" cx="-303.043" cy="-982.413" r="30.156"/>
	</g>
	<circle fill="#2D2D2D" cx="-303.429" cy="-983.632" r="7.037"/>
	<path fill="#2D2D2D" d="M-291.612-986.887c0,0,1.189-6.724-5.247-11.081c-5.422-3.672-12.016,1.71-1.011,4.921
		C-292.318-991.427-291.612-986.887-291.612-986.887z"/>
	<path fill="#262B2B" d="M-232.731-987.896c-0.352,0-0.699,0.013-1.045,0.036h-39.61c-2.565-14.054-14.863-24.71-29.657-24.71
		c-13.704,0-25.266,9.145-28.935,21.662c-4.715-1.74-12.223-3.652-22.511-3.652c-9.652,0-16.854,1.684-21.602,3.328
		c-3.772-12.352-15.257-21.338-28.844-21.338c-16.655,0-30.156,13.502-30.156,30.157c0,16.654,13.501,30.156,30.156,30.156
		c15.354,0,28.018-11.477,29.905-26.318c3.145-1.628,9.941-4.328,20.541-4.328c12.033,0,19.166,3.479,21.616,4.92
		c2.144,14.554,14.68,25.727,29.83,25.727c14.794,0,27.091-10.656,29.657-24.71h33.643l0.033,0.025h6.785
		c2.796,0,5.066,2.37,5.066,5.167c0,0.833-0.207,1.615-0.564,2.308c-0.839,0.966-1.351,2.223-1.351,3.603
		c0,3.036,2.461,5.497,5.497,5.497c1.632,0,3.092-0.714,4.099-1.842l0.012,0.009c0.026-0.034,0.05-0.071,0.076-0.105
		c0.19-0.224,0.36-0.463,0.513-0.715c1.742-2.551,2.775-5.623,2.775-8.946C-216.802-980.763-223.935-987.896-232.731-987.896z
		 M-404.934-963.913c-10.2,0-18.499-8.299-18.499-18.499c0-10.201,8.298-18.5,18.499-18.5c10.201,0,18.5,8.299,18.5,18.5
		C-386.435-972.212-394.733-963.913-404.934-963.913z M-303.043-963.913c-10.2,0-18.499-8.299-18.499-18.499
		c0-10.201,8.299-18.5,18.499-18.5c10.201,0,18.5,8.299,18.5,18.5C-284.543-972.212-292.842-963.913-303.043-963.913z"/>
	<circle fill="#2D2D2D" cx="-399.737" cy="-983.65" r="7.037"/>
	<path fill="#2D2D2D" d="M-412.429-986.593c0,0-1.634-6.63,4.497-11.405c5.167-4.025,12.103,0.906,1.337,4.843
		C-412.026-991.17-412.429-986.593-412.429-986.593z"/>
	<path opacity="0.2" d="M-342.717-1087.344c0,0,3.662,3.371,10.234,3.371c7.562,0,10.704-3.371,10.704-3.371
		s-3.098,6.939-10.469,6.939C-339.525-1080.404-342.717-1087.344-342.717-1087.344z"/>
	<path fill="#8BAFAE" d="M-319.03-1130.604c-3.99,0-7.056,1.094-9.399,2.611c-5.381,3.488-6.926,9.235-6.926,9.235
		s-2.003-7.896-14.114-7.896c-11.981,0-18.264,9.078-18.264,14.96c0,4.065,1.142,6.725,2.784,8.449
		c2.335,2.454,5.685,3.015,8.215,3.015c7.265,0,6.77-8.373,6.77-8.373s5.741-0.822,8.461,1.378c2.453,1.985,3.012,4.24,3.119,5.49
		c0.051,0.599,0,0.97,0,0.97v11.957c0,0,0.277,1.465,4.87,1.465c2.169,0,3.586-0.169,4.527-0.391
		c1.846-0.434,1.826-1.074,1.826-1.074v-11.065c0,0,0-4.454,1.96-6.947c1.96-2.494,4.454-2.494,4.454-2.494s2.559,4.552,6.444,4.487
		c6.231-0.105,10.283-2.507,10.75-9.586C-303.099-1121.278-305.365-1130.605-319.03-1130.604z"/>
	<path opacity="0.2" d="M-321.779-1112.628c0,0-4.764,1.409-6.408,5.697c-1.178,3.07-0.909,15.469-0.799,19.196
		c1.846-0.434,1.826-1.074,1.826-1.074v-11.065c0,0,0-4.454,1.96-6.947c1.96-2.494,4.454-2.494,4.454-2.494
		s-0.531-0.986-0.777-1.764C-321.746-1111.779-321.779-1112.628-321.779-1112.628z"/>
	<path opacity="0.2" d="M-341.229-1109.354c-3.685-3.292-11.349-2.064-11.349-2.064s2.045,6.794-2.074,8.824
		c-6.201,3.057-9.821-0.185-10.296-0.651c2.335,2.454,5.685,3.015,8.215,3.015c7.265,0,6.77-8.373,6.77-8.373
		s5.741-0.822,8.461,1.378c2.453,1.985,3.012,4.24,3.119,5.49l0,0C-338.384-1101.735-338.399-1106.826-341.229-1109.354z"/>
	<path opacity="0.2" d="M-334.657-1116.018c0,0-0.203-3.797,2.119-7.452c1.779-2.799,3.731-4.25,4.104-4.512
		c-5.381,3.488-6.926,9.233-6.926,9.233s0.161,0.575,0.352,1.327C-334.857-1116.826-334.657-1116.018-334.657-1116.018z"/>
	<g>
		<path fill="#8BAFAE" d="M-341.503-1144.464c-0.885-1.044-1.784-1.859-2.679-2.483c-4.868-3.391-9.614-1.105-11.311,0.864
			c-2.008,2.331-5.261,10.256,6.865,13.405c5.795,1.506,9.237,3.75,11.113,5.369c1.354,1.169,1.898,2.015,1.898,2.015
			S-334.314-1135.98-341.503-1144.464z"/>
		<path opacity="0.2" d="M-335.616-1125.294c0,0,1.301-10.687-5.887-19.17c-0.885-1.044-1.784-1.859-2.679-2.483
			c0.022,0.02,4.241,3.596,5.451,8.762c1.519,6.481,1.251,10.457,1.217,10.877C-336.16-1126.14-335.616-1125.294-335.616-1125.294z"
			/>
	</g>
	<g>
		<path fill="#8BAFAE" d="M-325.197-1143.691c-0.214-1.777-0.917-3.353-2.511-3.752c-4.431-1.108-5.829,2.072-6.088,4.534
			c-0.394,3.735,0.355,7.058,0.485,9.455c0.047,0.866,0.021,2.004-0.03,3.104c-0.09,1.94-0.261,3.762-0.261,3.762
			s6.088-5.396,8.031-12.325C-325.229-1140.134-324.994-1142.003-325.197-1143.691z"/>
		<path opacity="0.2" d="M-325.58-1138.914c0.342-1.22,0.578-3.089,0.375-4.777c0.001,0.181-0.007,5.885-6.394,13.999
			c-1.726,2.192-1.75-0.659-1.75-0.659l0,0.001c-0.09,1.94-0.261,3.762-0.261,3.762S-327.523-1131.984-325.58-1138.914z"/>
	</g>
	<path fill="#FFFFFF" d="M-360.527-915.843c0,0.705-0.778,1.277-1.737,1.277h-20.027c-0.959,0-1.737-0.572-1.737-1.277v-13.946
		h23.501V-915.843z"/>
	<path fill="#FFFFFF" d="M-335.615-915.843c0,0.705-0.778,1.277-1.737,1.277h-20.027c-0.959,0-1.737-0.572-1.737-1.277v-13.946
		h23.501V-915.843z"/>
	<path opacity="0.2" d="M-306.083-926.822c0,0,8.555-0.086,12.742-1.451c6.573-2.144,8.058-10.421,8.058-10.421
		s-1.694,5.016-9.194,7.461c-4.187,1.366-12.742,1.452-12.742,1.452h-102.507v2.959l25.71-0.003l-0.012,2.335
		c0,0,0.461-1.242,11.75-1.242c11.645,0,11.751,1.242,11.751,1.242h1.41c0,0,0.252-1.242,11.568-1.242
		c10.969,0,11.933,1.242,11.933,1.242l0.001-2.322L-306.083-926.822z"/>
	<text transform="matrix(1 0 0 1 -496.9634 -737.5947)" fill="#465656" font-family="'BebasNeue'" font-size="97.4638">#steviewhale</text>
	<g>
		<text transform="matrix(1 0 0 1 -501.0669 -741.7002)" fill="#D15A85" font-family="'BebasNeue'" font-size="97.4638">#steviewhale</text>
	</g>
	<rect x="-840.414" y="-651.504" fill="#526363" width="1173.016" height="408.569"/>
</g>
<g id="Слой_5">
	<g>
		<path fill="#8BAFAE" d="M-481.102-360.319c0,5.168-4.189,9.357-9.356,9.357h-194.186c-5.167,0-9.356-4.189-9.356-9.357v-118.452
			c0-5.168,4.189-9.357,9.356-9.357h194.186c5.167,0,9.356,4.189,9.356,9.357V-360.319z"/>
		<rect x="-694" y="-442.583" fill="#604887" width="212.898" height="9.532"/>
		<circle fill="#2A3030" cx="-568.751" cy="-419.545" r="47.664"/>
		<circle fill="#526363" cx="-568.751" cy="-419.545" r="30.162"/>
		<path fill="#D15A85" d="M-649.636-488.129v-5.488c0-1.292-1.047-2.34-2.339-2.34h-14.361c-1.292,0-2.339,1.048-2.339,2.34v5.488
			H-649.636z"/>
		<path fill="#2A3030" d="M-503.772-488.129v-5.488c0-1.292-1.047-2.34-2.339-2.34h-22.599c-1.292,0-2.339,1.048-2.339,2.34v5.488
			H-503.772z"/>
		<path fill="#2A3030" d="M-587.42-505h-22.131c-2.586,0-3.563,2.339-3.563,2.339l-6.303,14.532h31.998"/>
		<path fill="#2A3030" d="M-587.42-505h22.131c2.586,0,3.563,2.339,3.563,2.339l6.303,14.532h-31.998"/>
		<path fill="#526363" d="M-575.553-493.112c0,1.291-1.047,2.339-2.339,2.339h-19.055c-1.292,0-2.339-1.048-2.339-2.339v-5.688
			c0-1.292,1.047-2.34,2.339-2.34h19.055c1.292,0,2.339,1.048,2.339,2.34V-493.112z"/>
		<path opacity="0.2" d="M-680.103-356.572c-0.024,0.001-0.048,0.007-0.072,0.007c-2.073,0-3.754-1.68-3.754-3.754v-118.452
			c0-5.168,4.189-9.357,9.357-9.357h-10.072c-5.167,0-9.356,4.189-9.356,9.357v118.452c0,5.168,4.189,9.357,9.356,9.357h194.186
			c3.834,0,7.126-2.309,8.571-5.61H-680.103z"/>
		<path opacity="0.2" d="M-568.751-449.707c-8.871,0-16.846,3.829-22.365,9.926c4.76-3.142,10.459-4.975,16.589-4.975
			c16.658,0,30.162,13.503,30.162,30.162c0,7.787-2.952,14.885-7.797,20.236c8.176-5.395,13.574-14.658,13.574-25.188
			C-538.588-436.204-552.093-449.707-568.751-449.707z"/>
		<path opacity="0.2" d="M-568.751-371.882c-26.324,0-47.664-21.34-47.664-47.664c0-12.363,4.709-23.627,12.429-32.097
			c-12.021,8.652-19.856,22.757-19.856,38.699c0,26.324,21.339,47.664,47.664,47.664c13.96,0,26.518-6.003,35.235-15.567
			C-548.771-375.211-558.369-371.882-568.751-371.882z"/>
	</g>
	<g>
		<path fill="#8BAFAE" d="M-124.065-358.528c0,5.168-4.189,9.356-9.356,9.356h-194.186c-5.167,0-9.356-4.188-9.356-9.356V-476.98
			c0-5.169,4.189-9.357,9.356-9.357h194.186c5.167,0,9.356,4.188,9.356,9.357V-358.528z"/>
		<path fill="#2A3030" d="M-164.589-349.173v-25.133c0-1.292-1.048-2.34-2.339-2.34H-294.1c-1.292,0-2.339,1.048-2.339,2.34v25.133
			H-164.589z"/>
		<path opacity="0.2" d="M-323.067-354.782c-0.024,0.001-0.046,0.008-0.071,0.008c-2.074,0-3.754-1.681-3.754-3.754V-476.98
			c0-5.169,4.189-9.357,9.357-9.357h-10.072c-5.167,0-9.356,4.188-9.356,9.357v118.452c0,5.168,4.189,9.356,9.356,9.356h194.186
			c3.834,0,7.126-2.309,8.571-5.61H-323.067z"/>
		<path fill="#604887" d="M-158.205-486.337v70.229c0,5.168-4.189,9.356-9.356,9.356h-125.907c-5.167,0-9.356-4.188-9.356-9.356
			v-70.229H-158.205z"/>
		<path opacity="0.2" d="M-291.352-486.337v18.753c0,1.572,1.276,2.769,2.85,2.769h115.661c1.574,0,2.851-1.276,2.851-2.85v-18.672
			H-291.352z"/>
		<path fill="#FFFFFF" d="M-175.18-554.386h-110.983c-1.292,0-2.339,1.048-2.339,2.34v82.042c0,1.291,1.048,2.339,2.339,2.339
			h110.982c1.292,0,2.339-1.048,2.339-2.339v-82.042C-172.842-553.338-173.889-554.386-175.18-554.386z"/>
		<path opacity="0.2" d="M-141.166-389.202c-3.167,0-5.733-2.566-5.733-5.732c0-1.374,0.483-2.633,1.289-3.62
			c-1.289,1.052-2.114,2.651-2.114,4.445c0,3.166,2.567,5.732,5.733,5.732c1.793,0,3.394-0.824,4.444-2.113
			C-138.534-389.686-139.792-389.202-141.166-389.202z"/>
		<circle fill="#D15A85" cx="-141.324" cy="-394.849" r="5.733"/>
	</g>
	<g>
		<g>
			<path fill="#D15A85" d="M129.654-462.752c0,0,4.21-10.035,14.558-16.804c23.622-15.45,44.602-1.344,44.662-1.303
				c-5.531-4.549-12.683-7.824-21.611-9.188c-30.38-4.64-40.741,19.079-40.741,19.079s0.67,1.353,1.402,3.196
				C128.663-465.911,129.654-462.752,129.654-462.752z"/>
			<path opacity="0.2" d="M129.654-462.752c0,0,4.21-10.035,14.558-16.804c23.622-15.45,44.602-1.344,44.662-1.303
				c-5.531-4.549-12.683-7.824-21.611-9.188c-30.38-4.64-40.741,19.079-40.741,19.079s0.67,1.353,1.402,3.196
				C128.663-465.911,129.654-462.752,129.654-462.752z"/>
		</g>
		<g>
			<path fill="#D15A85" d="M191.952-411.304c15.68-19.754,16.996-53.049-3.078-69.555c-0.061-0.041-21.04-14.147-44.662,1.303
				c-10.348,6.769-14.558,16.804-14.558,16.804s-0.991-3.159-1.729-5.019c-0.732-1.844-1.402-3.196-1.402-3.196
				s-10.361-23.719-40.741-19.079c-2.132,0.325-4.158,0.766-6.091,1.301c-1.105,0.395-34.094,12.565-22.078,53.436
				c4.894,16.645,16.693,30.562,36.674,49.623c9.374,8.943,34.247,25.788,34.247,25.788s12.172-5.157,23.725-13.822
				c6.235-4.677,19.717-15.559,19.717-15.559l0.001,0.004C178.74-395.894,185.578-403.273,191.952-411.304z"/>
			<path fill="#D15A85" d="M152.258-373.721c-11.553,8.665-23.725,13.822-23.725,13.822s-24.873-16.845-34.247-25.788
				c-19.981-19.062-31.78-32.979-36.674-49.623c-12.017-40.87,20.973-53.041,22.078-53.436
				c-35.513,9.832-37.566,53.546-18.597,77.441c28.185,35.506,65.429,58.36,65.429,58.36s22.304-13.688,45.454-36.332l-0.001-0.004
				C171.975-389.279,158.493-378.397,152.258-373.721z"/>
			<path opacity="0.2" d="M152.258-373.721c-11.553,8.665-23.725,13.822-23.725,13.822s-24.873-16.845-34.247-25.788
				c-19.981-19.062-32.348-31.629-37.242-48.274c-12.017-40.869,21.541-54.39,22.646-54.784
				c-35.513,9.832-37.566,53.546-18.597,77.441c28.185,35.506,65.429,58.36,65.429,58.36s22.304-13.688,45.454-36.332l-0.001-0.004
				C171.975-389.279,158.493-378.397,152.258-373.721z"/>
		</g>
	</g>
	<g>
		<path fill="#8BAFAE" d="M212.898,144.681c0,5.168-4.189,9.357-9.356,9.357H9.356c-5.167,0-9.356-4.189-9.356-9.357V26.229
			c0-5.168,4.189-9.357,9.356-9.357h194.186c5.167,0,9.356,4.189,9.356,9.357V144.681z"/>
		<rect y="62.417" fill="#604887" width="212.898" height="9.532"/>
		<circle fill="#2A3030" cx="125.249" cy="85.455" r="47.664"/>
		<circle fill="#526363" cx="125.249" cy="85.455" r="30.162"/>
		<path fill="#D15A85" d="M44.364,16.871v-5.488c0-1.292-1.047-2.34-2.339-2.34H27.664c-1.292,0-2.339,1.048-2.339,2.34v5.488
			H44.364z"/>
		<path fill="#2A3030" d="M190.228,16.871v-5.488c0-1.292-1.047-2.34-2.339-2.34H165.29c-1.292,0-2.339,1.048-2.339,2.34v5.488
			H190.228z"/>
		<path fill="#2A3030" d="M106.58,0H84.449c-2.586,0-3.563,2.339-3.563,2.339l-6.303,14.532h31.998"/>
		<path fill="#2A3030" d="M106.58,0h22.131c2.586,0,3.563,2.339,3.563,2.339l6.303,14.532H106.58"/>
		<path fill="#526363" d="M118.447,11.888c0,1.291-1.047,2.339-2.339,2.339H97.053c-1.292,0-2.339-1.048-2.339-2.339V6.199
			c0-1.292,1.047-2.34,2.339-2.34h19.055c1.292,0,2.339,1.048,2.339,2.34V11.888z"/>
		<path opacity="0.2" d="M13.897,148.428c-0.024,0.001-0.048,0.007-0.072,0.007c-2.073,0-3.754-1.68-3.754-3.754V26.229
			c0-5.168,4.189-9.357,9.357-9.357H9.356C4.189,16.871,0,21.061,0,26.229v118.452c0,5.168,4.189,9.357,9.356,9.357h194.186
			c3.834,0,7.126-2.309,8.571-5.61H13.897z"/>
		<path opacity="0.2" d="M125.249,55.293c-8.871,0-16.846,3.829-22.365,9.926c4.76-3.142,10.459-4.975,16.589-4.975
			c16.658,0,30.162,13.503,30.162,30.162c0,7.787-2.952,14.885-7.797,20.236c8.176-5.395,13.574-14.658,13.574-25.188
			C155.412,68.796,141.907,55.293,125.249,55.293z"/>
		<path opacity="0.2" d="M125.249,133.118c-26.324,0-47.664-21.34-47.664-47.664c0-12.363,4.709-23.627,12.429-32.097
			C77.993,62.01,70.158,76.114,70.158,92.057c0,26.324,21.339,47.664,47.664,47.664c13.96,0,26.518-6.003,35.235-15.567
			C145.229,129.789,135.631,133.118,125.249,133.118z"/>
	</g>
</g>
</svg>
